<?xml version="1.0" encoding="utf-8"?>
<!-- Generator: Adobe Illustrator 24.1.2, SVG Export Plug-In . SVG Version: 6.00 Build 0)  -->
<svg version="1.1" id="Layer_1" xmlns="http://www.w3.org/2000/svg" xmlns:xlink="http://www.w3.org/1999/xlink" x="0px" y="0px"
	 viewBox="0 0 987 315.5" style="enable-background:new 0 0 987 315.5;" xml:space="preserve">
<style type="text/css">
	.st0{fill:none;stroke:#AEE8FC;stroke-width:2;stroke-miterlimit:10;stroke-dasharray:2,2;}
	.st1{fill-rule:evenodd;clip-rule:evenodd;fill:#ED8B00;}
	.st2{fill-rule:evenodd;clip-rule:evenodd;fill:#FFFFFF;}
	.st3{fill-rule:evenodd;clip-rule:evenodd;fill:#FBB040;}
	.st4{fill-rule:evenodd;clip-rule:evenodd;fill:#005EB8;}
	.st5{fill-rule:evenodd;clip-rule:evenodd;fill:#110626;}
	.st6{fill-rule:evenodd;clip-rule:evenodd;fill:#D6EEFC;}
	.st7{fill-rule:evenodd;clip-rule:evenodd;fill:#70BEF2;}
	.st8{fill-rule:evenodd;clip-rule:evenodd;fill:#95C8EC;}
	.st9{fill-rule:evenodd;clip-rule:evenodd;fill:#E3AB80;}
	.st10{fill-rule:evenodd;clip-rule:evenodd;}
	.st11{fill-rule:evenodd;clip-rule:evenodd;fill:#0A84F2;}
	.st12{fill-rule:evenodd;clip-rule:evenodd;fill:#A2C6EB;}
	.st13{fill-rule:evenodd;clip-rule:evenodd;fill:#142D52;}
	.st14{fill-rule:evenodd;clip-rule:evenodd;fill:#DCECFB;}
	.st15{fill-rule:evenodd;clip-rule:evenodd;fill:#192B33;}
	.st16{fill-rule:evenodd;clip-rule:evenodd;fill:#5373B5;}
	.st17{fill-rule:evenodd;clip-rule:evenodd;fill:#C6DCF3;}
	.st18{fill-rule:evenodd;clip-rule:evenodd;fill:#EECFC3;}
	.st19{fill:#D6EEFC;}
	.st20{fill:#E8F5FC;}
	.st21{fill:#9AD9FC;}
	.st22{fill:#FFFFFF;}
	.st23{opacity:0.4;fill:#E5F2FD;}
	.st24{fill:#70BEF2;}
	.st25{fill:#D2F1FC;}
	.st26{fill:#F5FAFE;stroke:#9AD9FC;stroke-width:2;stroke-miterlimit:10;stroke-dasharray:3,3;}
	.st27{fill:#C3E9F4;}
	.st28{fill:#FBB040;}
	.st29{fill:#F5FAFE;stroke:#9AD9FC;stroke-width:1.4785;stroke-miterlimit:10;stroke-dasharray:2.2177,2.2177;}
	.st30{fill:#005EB8;}
	.st31{opacity:0.7;}
	.st32{fill:none;stroke:#9AD9FC;stroke-width:2;stroke-miterlimit:10;stroke-dasharray:3,3;}
	.st33{fill:#AEE8FC;}
	.st34{fill:#0A84F2;}
	.st35{fill:#21333A;}
	.st36{clip-path:url(#SVGID_2_);}
	.st37{fill:#ED8B00;}
	.st38{clip-path:url(#SVGID_4_);}
	.st39{clip-path:url(#SVGID_6_);}
	.st40{opacity:0.1;}
	.st41{fill:#FAA284;}
	.st42{fill:#F5F5F5;}
	.st43{fill:#493222;}
	.st44{fill:#3A271B;}
	.st45{fill:#664C3B;}
	.st46{fill:#3A3C76;}
	.st47{fill:#353B42;}
	.st48{fill:#1AA1FC;}
	.st49{fill:#EF8D72;}
	.st50{fill:#E9F3FF;}
	.st51{display:none;}
	.st52{display:inline;}
	.st53{opacity:0.1;fill:#FFFFFF;}
	.st54{display:inline;fill:#502F26;}
	.st55{fill:#DB7C65;}
	.st56{fill:#72382A;}
	.st57{fill:#B22828;}
	.st58{fill:#8E6959;}
	.st59{fill:#7F503C;}
	.st60{fill:#693E2D;}
	.st61{fill:#D34645;}
	.st62{fill:#FBF3F3;}
	.st63{opacity:0.2;fill:#F5FAFE;}
	.st64{display:none;opacity:0.2;fill:#FFFFFF;}
	.st65{fill:none;stroke:#005EB8;stroke-width:2;stroke-miterlimit:10;}
	.st66{fill:#100F28;}
	.st67{fill:#299EC6;}
	.st68{fill:#FFAA82;}
	.st69{fill:#FFB285;}
</style>
<line class="st0" x1="402.1" y1="93.1" x2="402.1" y2="151.6"/>
<line class="st0" x1="486.4" y1="62.8" x2="486.4" y2="120.2"/>
<g>
	
		<ellipse transform="matrix(0.9966 -8.248047e-02 8.248047e-02 0.9966 -1.967 40.3033)" class="st1" cx="486.8" cy="44" rx="19.1" ry="19.1"/>
	<path class="st2" d="M486.8,26.7c-9.5,0-17.2,7.7-17.2,17.2c0,9.5,7.7,17.2,17.2,17.2s17.2-7.7,17.2-17.2
		C504.1,34.5,496.3,26.7,486.8,26.7L486.8,26.7z M486.8,59.3c-8.5,0-15.4-6.8-15.4-15.4c0-8.5,6.8-15.4,15.4-15.4
		s15.4,6.8,15.4,15.4C502.2,52.5,495.3,59.3,486.8,59.3z"/>
	<g>
		<path class="st2" d="M482.3,48.2l-7.4-3.3c-0.1,0-0.2-0.1-0.2-0.2v-1c0-0.1,0.1-0.2,0.1-0.2l7.4-3.8c0.2-0.1,0.4,0,0.4,0.2v1.7
			c0,0.1-0.1,0.2-0.2,0.2l-4.1,1.9c-0.2,0.1-0.2,0.4,0,0.6l4.1,1.7c0.1,0,0.2,0.1,0.2,0.2v1.7C482.7,48,482.5,48.3,482.3,48.2z"/>
		<path class="st2" d="M490.3,38.4l-4.1,11.3c0,0.1-0.1,0.2-0.3,0.2l-2.1,0c-0.2,0-0.3-0.2-0.3-0.4l4.1-11.3c0-0.1,0.1-0.2,0.3-0.2
			l2.1,0C490.3,38,490.4,38.2,490.3,38.4z"/>
		<path class="st2" d="M491.2,45.9l4.1-1.7c0.2-0.1,0.2-0.4,0-0.6l-4.1-1.9c-0.1,0-0.2-0.1-0.2-0.2V40c0-0.2,0.2-0.3,0.4-0.2
			l7.4,3.8c0.1,0,0.1,0.1,0.1,0.2v1c0,0.1-0.1,0.2-0.2,0.2l-7.4,3.3c-0.2,0.1-0.4-0.1-0.4-0.2v-1.7C491,46.1,491.1,45.9,491.2,45.9z
			"/>
	</g>
</g>
<g>
	<path class="st3" d="M410.8,64.4c-1.9,0-4.8,1.5-7.2,3.3c1.4,1.1,2.7,2.1,3.1,2.5l0.4,0.3c2.4-1.5,3.5-1.9,3.8-1.9
		c1.8,0,3.1,1.4,3.1,3.1s-1.4,3.1-3.1,3.1c-0.1,0-1.2-0.2-3.8-1.9l-0.4,0.3c-0.4,0.4-1.7,1.4-3.1,2.5c2.4,1.8,5.3,3.3,7.2,3.3
		c4.2,0,7.5-3.4,7.5-7.5C418.3,67.8,415,64.4,410.8,64.4z"/>
	<path class="st3" d="M392.7,64.4c-4.2,0-7.5,3.4-7.5,7.5c0,4.1,3.4,7.5,7.5,7.5c4.2,0,12.6-7.5,12.6-7.5S396.9,64.4,392.7,64.4
		L392.7,64.4z M392.7,75.1c-1.8,0-3.1-1.4-3.1-3.1c0-1.7,1.4-3.1,3.1-3.1c0.1,0,1.8,0.3,5.5,3.1c0,0,0,0,0.1,0l-0.1,0.1
		C394.3,74.8,392.9,75,392.7,75.1z"/>
</g>
<g>
	<g>
		<path class="st4" d="M262.7,3.1c-18.9,0-33.9,13.8-33.9,30.7c0,10.6,6,19.8,14.8,25.5c-1.8,5.1-4.4,9.7-8.3,12
			c0,0,14.5,2.9,25-6.5c0.7,0,1.8,0.2,2.4,0.2c18.6,0,33.9-13.8,33.9-30.7C296.7,17.5,281.3,3.1,262.7,3.1z"/>
	</g>
	<g>
		<path class="st2" d="M258,39.3v-2.1c0-1.5,0.2-2.9,1-3.9c0.7-1.1,1.8-2.1,3.3-3c1.2-0.8,2.2-1.5,2.8-2.2c0.6-0.7,0.8-1.3,0.8-2.2
			c0-0.7-0.2-1.2-0.8-1.5c-0.6-0.4-1.3-0.6-2.3-0.6c-2.3,0-5.1,0.8-8.2,2.4l-3.3-6.4c3.9-2.2,8-3.3,12.2-3.3c3.4,0,6.2,0.8,8.2,2.3
			c1.9,1.5,3,3.5,3,6.3c0,1.9-0.4,3.5-1.3,5c-0.8,1.3-2.3,2.8-4.2,4c-1.7,1.1-2.5,1.8-3,2.3c-0.4,0.6-0.7,1.1-0.7,1.8v1.2H258V39.3
			L258,39.3z M256.9,47.6c0-1.3,0.4-2.5,1.2-3.3c0.8-0.8,2.1-1.2,3.6-1.2s2.8,0.4,3.5,1.2c0.8,0.8,1.2,1.9,1.2,3.3
			c0,1.3-0.4,2.4-1.2,3.3c-0.8,0.8-2.1,1.2-3.5,1.2c-1.5,0-2.8-0.4-3.6-1.1C257.4,50.1,256.9,49,256.9,47.6z"/>
	</g>
</g>
<g>
	<path class="st5" d="M318.3,120.9c0,0,23.3-5.9,26.3,17.5c3,23.4-1.4,28.7-0.4,36.7c1,8-18.9,10.8-26,5.5
		C311.2,175.4,310,131.1,318.3,120.9z"/>
	<g>
		<path class="st6" d="M304,309.1L304,309.1c1.3-0.4,2-1.7,1.5-2.9l-19.4-52.8l-5,0.6l19.9,53.7C301.3,308.8,302.7,309.3,304,309.1z
			"/>
		<path class="st6" d="M284.7,262.5h52.8c3.6,0,6.8-3,6.8-6.8l0,0c0-3.6-3-6.8-6.8-6.8l-52.8,0c-3.6,0-6.8,3-6.8,6.8l0,0
			C277.9,259.4,280.8,262.5,284.7,262.5z"/>
		<path class="st6" d="M332.2,255.6h-5.1l19.2,52c0.4,1.1,1.9,1.9,3.1,1.4c1.3-0.4,2-1.7,1.5-2.9L332.2,255.6z"/>
		<path class="st6" d="M329.6,255.6L311,306.2c-0.4,1.1,0.3,2.4,1.5,2.9c1.2,0.4,2.7-0.3,3.1-1.4l19.2-52L329.6,255.6L329.6,255.6z"
			/>
		<path class="st6" d="M286.9,255.6l-18.6,50.6c-0.4,1.1,0.3,2.4,1.5,2.9s2.7-0.3,3.1-1.4l19.2-52L286.9,255.6L286.9,255.6z"/>
	</g>
	<polygon class="st7" points="299.3,250.7 350.8,246.3 370.7,178.5 317.1,178.5 	"/>
	<path class="st4" d="M325,247.7L325,247.7c-21.9,1.3-28.2-3.9-25.7-16l1.9-8.5l43.6,0.9l-1,5.3C341.4,241.6,337.2,247.7,325,247.7z
		"/>
	<path class="st8" d="M352.4,223.4c10.9-41.2,17.2-44.9,17.2-44.9c2.1,0,3.9,2.1,3.1,4.1l-17.2,62.5c-1.5,5.9-7,9.9-13,9.9h-1.3H318
		c-8.1-0.1-6.1-8.8,2-8.8C332.2,246.6,348.6,243.5,352.4,223.4z"/>
	<polygon class="st9" points="300.4,179.6 292.7,197.9 269.2,201.2 273,206.5 302.2,206.2 310.6,185.5 	"/>
	
		<ellipse transform="matrix(0.9976 -6.934735e-02 6.934735e-02 0.9976 -8.8109 22.8272)" class="st5" cx="324.4" cy="138.3" rx="16.5" ry="14"/>
	<path class="st9" d="M329.7,139.9c-0.7,0.3-1.4,0.6-2,0.9l-0.3-3.6c-0.3-3.9-3.5-6.8-7.5-6.5l-2.3,0.1c-3.9,0.3-6.8,3.5-6.5,7.5
		l0.6,8.8c0.3,3.9,3.5,6.8,7.5,6.5l0,0c1.9-0.1,3.5,1.3,3.6,3.1c0.1,2.5,0.3,5.1,0.4,7.6c3.1-0.7,6.3-1,9.4-0.9
		C331,155.6,330,147.7,329.7,139.9z"/>
	<path class="st10" d="M313.2,132.9c-3.5-2-4.3-6.8-1.3-9.6c0.1-0.1,0.4-0.4,0.6-0.6c2.5-2,6-2.4,9.1-2.4c4.6,0,9.6,0.9,12.8,4.3
		c1.1,1.3,2,3,2.7,4.5c0.7,1.9,1.1,4,0.4,6c-0.9,2.7-3.5,4.5-6.4,4.6c-1.3,0-2.4,0.9-3.6,0.6c-1.9-0.4-4-2.1-5.6-3
		C319.6,136.6,316,134.3,313.2,132.9z"/>
	<path class="st11" d="M334.4,160.5c-4.3,0.1-8.5,0.3-12.9,0.4c-3.3,0.1-6.4,0.1-9.6,1c-3.3,0.9-6.5,2.5-8.6,5.1
		c-1.5,1.9-2.4,4.1-3.1,6.3c-1.3,3.6-2.1,7.4-2.7,11l0.7,6.6l13.5-8.8c0,0-7.8,28.8-10.3,41.9c4.4,0.4,10.9,0.7,16.4,0.7l0,0
		c5.6,0.1,21.5-0.1,27.5-0.7c3.6-12.9,7.1-36.8,7.1-36.8S358.1,160.5,334.4,160.5z"/>
	<path class="st9" d="M321.3,160.6c0,0-1.3,9.3,4,9.3c5.3,0,10.6-9.3,10.6-9.3l-6.8-1.9L321.3,160.6z"/>
	<path class="st9" d="M333.9,142.8c-0.2-2.4-1.8-4.3-3.6-4.2c-1.8,0.1-3.2,2.2-3,4.6c0.2,2.4,1.8,4.3,3.6,4.2
		C332.7,147.4,334,145.3,333.9,142.8z"/>
	<path class="st12" d="M268.4,255.1h45.8c2.3,0,4.1-1.9,4.1-4.1l0,0c0-2.3-1.9-4.1-4.1-4.1h-45.8c-2.3,0-4.1,1.9-4.1,4.1l0,0
		C264.3,253.2,266,255.1,268.4,255.1z"/>
	<path class="st5" d="M291.3,298.7l7.3-0.1l1.3,5.4c0.3,1,0.1,2-0.4,2.9c-0.4,0.6-1,0.9-1.5,0.9l-18.2,0.3c-1.9,0-3.3-5.3,2.4-6.8
		C282.2,301.1,288.9,298.7,291.3,298.7z"/>
	<path class="st5" d="M269.4,298.7l7.3-0.1l1.3,5.4c0.3,1,0.1,2-0.4,2.9c-0.4,0.6-1,0.9-1.5,0.9l-18.2,0.3c-1.9,0-3.3-5.3,2.4-6.8
		C260.1,301.1,267,298.7,269.4,298.7z"/>
	<path class="st4" d="M268.2,298.6l-0.9-46.8c-0.1-11,7.3-16.6,22-19.2l15-2.7l8.5,17l-25.5,0.9c-3.6,0.4-6.4,2.9-6.8,6.3l-4,44.6
		l-8.3,0V298.6z"/>
	<polygon class="st11" points="301.3,169.9 291.1,190.8 308.2,193.9 313.1,176.5 	"/>
	<polygon class="st9" points="331.4,179.6 323.6,197.9 300.2,201.2 304,206.5 333,206.2 341.5,185.5 	"/>
	<g>
		<path class="st13" d="M308.8,206.2h-48.4c-1.1,0-2.1-1-2.1-2.1l0,0c0-1.1,1-2.1,2.1-2.1h48.4c1.1,0,2.1,1,2.1,2.1l0,0
			C311,205.2,310,206.2,308.8,206.2z"/>
		<path class="st14" d="M291.7,206.2h-41.8c-2,0-4-1.5-4.5-3.5l-7.8-28.7c-0.6-2,0.6-3.5,2.5-3.5l41.8,0c2,0,4,1.5,4.5,3.5l7.8,28.7
			C294.8,204.4,293.7,206.2,291.7,206.2z"/>
		<path class="st4" d="M289.7,206.2h-41.8c-2,0-4-1.5-4.5-3.5l-7.8-28.7c-0.6-2,0.6-3.5,2.5-3.5l41.8,0c2,0,4,1.5,4.5,3.5l7.8,28.7
			C292.9,204.4,291.7,206.2,289.7,206.2z"/>
		<path class="st14" d="M265.8,191.5h-4.2c-1.9,0-3.9-1.5-4.3-3.4l0,0c-0.6-1.9,0.6-3.4,2.4-3.4h4.1c1.9,0,3.9,1.5,4.3,3.4l0,0
			C268.8,190,267.6,191.5,265.8,191.5z"/>
	</g>
	<path class="st4" d="M324.6,229.4L303,241c-7.6,4.1-12.3,10.3-13,17l0,40.9l8.8-0.3l2.5-35.1c1.9-6.3,8.9-10.4,16.6-13.9l6.4-2.1
		c8.1-2.7,8.8-12.4,1.4-17.3L324.6,229.4z"/>
</g>
<path class="st5" d="M434.4,298.1l7.4-0.1l1.3,5.4c0.3,1,0.1,2.1-0.4,2.9c-0.4,0.6-1,0.9-1.5,0.9l-18.5,0.3c-1.9,0-3.3-5.3,2.5-7
	C425,300.4,432.1,298.2,434.4,298.1z"/>
<path class="st9" d="M435.1,179.4L435.1,179.4c2.1-1.3,5-0.6,6.3,1.7l3.6,6.4c1.3,2.1,0.6,5-1.7,6.3l0,0c-2.1,1.3-5,0.6-6.3-1.7
	l-3.6-6.4C432.1,183.5,433,180.6,435.1,179.4z"/>
<g>
	<path class="st13" d="M466.6,206.2h-48.4c-1.1,0-2.1-1-2.1-2.1l0,0c0-1.1,1-2.1,2.1-2.1h48.4c1.1,0,2.1,1,2.1,2.1l0,0
		C468.5,205.2,467.7,206.2,466.6,206.2z"/>
	<path class="st13" d="M447.3,206.2h-41.8c-2,0-4-1.5-4.5-3.5l-7.8-28.7c-0.6-2,0.6-3.5,2.5-3.5l41.8,0c2,0,4,1.5,4.5,3.5l7.8,28.7
		C450.4,204.4,449.3,206.2,447.3,206.2z"/>
	<polygon class="st2" points="446.8,199.9 404,199.9 396.3,172.6 439,172.6 	"/>
	<g>
		<path class="st15" d="M413.7,185.9l1.7-10.4c-1.1-0.3-2.3-0.6-3.5-0.6c-6.3,0-10.1,5-8.8,11.3c1.3,6.3,7.4,11.3,13.6,11.3
			c2.3,0,4.3-0.7,5.9-1.9L413.7,185.9z"/>
		<path class="st16" d="M415.5,185.1l1.5-8.9c0,0,4.9,2.1,6.6,6.6L415.5,185.1z"/>
		<path class="st17" d="M416.4,186.5l7.6-2.3c2,2.7,1.4,8-0.9,9.8L416.4,186.5z"/>
	</g>
	<path class="st17" d="M438.5,178.4h-13.3c-0.4,0-1.1-0.4-1.4-0.9l0,0c-0.3-0.4,0-0.9,0.4-0.9h13.3c0.4,0,1.1,0.4,1.4,0.9l0,0
		C439,178,438.9,178.4,438.5,178.4z"/>
	<path class="st17" d="M440.3,182.6H427c-0.4,0-1.1-0.4-1.4-0.9l0,0c-0.3-0.4,0-0.9,0.4-0.9h13.3c0.4,0,1.1,0.4,1.4,0.9l0,0
		C440.9,182.3,440.8,182.6,440.3,182.6z"/>
	<path class="st17" d="M442,187h-13.3c-0.4,0-1.1-0.4-1.4-0.9l0,0c-0.3-0.4,0-0.9,0.4-0.9H441c0.4,0,1.1,0.4,1.4,0.9l0,0
		C442.8,186.6,442.5,187,442,187z"/>
</g>
<path class="st6" d="M197.3,309.1L197.3,309.1c-1.3-0.4-2-1.7-1.5-2.9l35.9-97.4c0.4-1.1,1.9-1.9,3.1-1.4l0,0c1.3,0.4,2,1.7,1.5,2.9
	l-35.9,97.4C200,308.8,198.6,309.3,197.3,309.1z"/>
<path class="st6" d="M270.5,309.1L270.5,309.1c1.3-0.4,2-1.7,1.5-2.9l-35.9-97.4c-0.4-1.1-1.9-1.9-3.1-1.4l0,0
	c-1.3,0.4-2,1.7-1.5,2.9l35.9,97.4C267.8,308.8,269.2,309.3,270.5,309.1z"/>
<path class="st6" d="M570.2,309.1L570.2,309.1c1.3-0.4,2-1.7,1.5-2.9l-35.9-97.4c-0.4-1.1-1.9-1.9-3.1-1.4l0,0
	c-1.3,0.4-2,1.7-1.5,2.9l35.9,97.4C567.5,308.8,569,309.3,570.2,309.1z"/>
<path class="st4" d="M495.1,247.7L495.1,247.7c-21.9,1.3-28-6.3-25.5-18.4l1-5.3h44.3l-1,5.3C511.4,241.6,507.3,247.7,495.1,247.7z"
	/>
<path class="st7" d="M544.7,212.9H214.2c-2,0-3.6-1.7-3.6-3.6l0,0c0-2,1.7-3.6,3.6-3.6h330.4c2,0,3.6,1.7,3.6,3.6l0,0
	C548.2,211.3,546.6,212.9,544.7,212.9z"/>
<path class="st18" d="M419.7,199.7L419.7,199.7c-0.3-2.5,1.7-4.6,4.1-5l7.4-0.6c2.5-0.1,4.6,1.7,5,4.3l0,0c0.3,2.5-1.7,4.6-4.1,5
	l-7.4,0.6C422.4,204.2,420,202.2,419.7,199.7z"/>
<path class="st5" d="M472.6,139.2h-3.4c-2.3,0-4.1-1.9-4.1-4.1v-0.9c0-2.3,1.9-4.1,4.1-4.1h3.4c2.3,0,4.1,1.9,4.1,4.1v0.9
	C476.7,137.3,474.8,139.2,472.6,139.2L472.6,139.2z M469.3,131.2c-1.5,0-3,1.3-3,3v0.9c0,1.5,1.3,3,3,3h3.4c1.5,0,3-1.3,3-3l0-0.9
	c0-1.5-1.3-3-3-3H469.3z"/>
<path class="st18" d="M490.5,134.3c-0.7,0.3-1.5,0.6-2.3,0.9l-0.3-4.1c-0.3-4.3-3.9-7.5-8.1-7.3l-2.5,0.1c-4.3,0.3-7.5,3.9-7.3,8.1
	l0.6,9.6c0.3,4.3,3.9,7.5,8.1,7.3l0,0c2.1-0.1,3,0.7,4.1,3.6c1,2.5,1.1,5.1,1.1,8c3.4-0.7,7.6-1.4,11.3-1.3
	C493.5,150.7,490.6,143.1,490.5,134.3z"/>
<path class="st10" d="M473.1,130.9c-7.1-6.6,2.7-15,13.3-13c6.3,1.1,11.9,2.7,14,9.6c0.6,2.1,0.6,2,0.7,4.3c0.6,6-2.5,9.4-4,11.8
	c-5.1,9.3-14.8,5.9-16.6,3.1C479,144.7,475.5,133.2,473.1,130.9z"/>
<path class="st15" d="M502.6,156.4c-4.6-0.4-8.5-0.3-13.3-0.4c-4.6,0.1-9.4,0.3-14,0.4c-3.5,0.1-9.9,0-11.8,5.1
	c-1,3.1,3,14.6,3,14.6s2.4,39.2,3.1,52.8c5,0.4,36.7-0.1,43.1-0.7c0.4-9.8,5-41.7,4.4-52.1C516,161.5,506.7,156.8,502.6,156.4z"/>
<path class="st18" d="M481.1,156.2c0,0,3.4,2.1,8.8,2.1s6-2.1,6-2.1l-7.4-2L481.1,156.2z"/>
<path class="st18" d="M481.1,137.4c-0.1-2.7-1.9-4.8-3.9-4.7c-2,0.1-3.5,2.4-3.4,5c0.1,2.7,1.9,4.8,3.9,4.7
	C479.7,142.3,481.2,140,481.1,137.4z"/>
<path class="st18" d="M464.6,168.5l-6,13.8c-1.4,3.3-4.6,10.6-6.3,12.8l-20.2-0.6l-3.6,5.3l24.9,5.6c3.4,0.6,7-1.1,9.3-4.9
	c0,0,0,0,0-0.1l11.6-28.8L464.6,168.5z"/>
<polygon class="st15" points="479.6,169.7 465.1,195.5 452.7,190.4 463.3,161.5 "/>
<path class="st5" d="M466.8,134.6h16.4c0.6,0,1-0.4,1-1l0,0c0-0.6-0.4-1-1-1h-16.4c-0.6,0-1,0.4-1,1l0,0
	C465.9,134.2,466.3,134.6,466.8,134.6z"/>
<path class="st5" d="M462.9,298.7l7.3-0.1l1.3,5.4c0.3,1,0.1,2-0.4,2.9c-0.4,0.6-1,0.9-1.5,0.9l-18.2,0.3c-1.9,0-3.3-5.3,2.4-6.8
	C453.7,301.1,460.7,298.7,462.9,298.7z"/>
<path class="st4" d="M433.4,298.6l-0.9-46.8c-0.1-11,7.3-16.6,22-19.2l15-2.7l7.3,19l-24.9,0c-3.6,0.4-5.9,1.7-6.3,5.1l0.9,44.6
	H433.4z"/>
<path class="st4" d="M496.2,229.4L474.7,241c-7.6,4.1-12.3,10.3-13,17l0,40.9l11.4-0.3v-35c1.9-6.3,8.9-10.4,16.6-13.9l6.4-2.1
	c8.1-2.7,8.8-12.4,1.4-17.3L496.2,229.4z"/>
<g>
	<path class="st6" d="M481.7,309.1L481.7,309.1c1.3-0.4,2-1.7,1.5-2.9l-19.4-52.8l-5,0.6l19.9,53.7
		C479,308.8,480.5,309.3,481.7,309.1z"/>
	<path class="st6" d="M462.4,262.5h52.8c3.6,0,6.8-3,6.8-6.8l0,0c0-3.6-3-6.8-6.8-6.8l-52.8,0c-3.6,0-6.8,3-6.8,6.8l0,0
		C455.7,259.4,458.7,262.5,462.4,262.5z"/>
	<path class="st6" d="M510,255.6h-5.1l19.2,52c0.4,1.1,1.9,1.9,3.1,1.4c1.2-0.4,2-1.7,1.5-2.9L510,255.6z"/>
	<path class="st6" d="M507.3,255.6l-18.6,50.6c-0.4,1.1,0.3,2.4,1.5,2.9c1.3,0.4,2.7-0.3,3.1-1.4l19.2-52L507.3,255.6L507.3,255.6z"
		/>
	<path class="st6" d="M464.7,255.6l-18.6,50.6c-0.4,1.1,0.3,2.4,1.5,2.9c1.3,0.4,2.7-0.3,3.1-1.4l19.2-52L464.7,255.6L464.7,255.6z"
		/>
</g>
<g>
	<g>
		<path class="st8" d="M530.2,225.6c10.9-41.2,17.2-44.9,17.2-44.9c2.1,0,3.9,2.1,3.1,4.1l-17.2,62.5c-1.5,5.9-7,9.9-13,9.9h-1.3
			h-34.8l-0.7-5.3C484.6,243.2,523.6,258.6,530.2,225.6z"/>
		<path class="st8" d="M446,257.2h45.8c2.3,0,4.1-1.9,4.1-4.1l0,0c0-2.3-1.9-4.1-4.1-4.1H446c-2.3,0-4.1,1.9-4.1,4.1l0,0
			C441.9,255.4,443.8,257.2,446,257.2z"/>
		<path class="st8" d="M477,252.7l51.6-4.4l19.8-67.7H511c-9.4,0-17.5,6.4-19.8,15.5L477,252.7z"/>
	</g>
</g>
<g>
	<path class="st19" d="M225.1,21.5l-4.7,1.6c-0.5,0.1-0.7,0.5-0.9,0.8l-2,4.6l-1.6-4.7c-0.1-0.5-0.5-0.7-0.8-0.9l-4.6-2l4.7-1.6
		c0.5-0.1,0.7-0.5,0.9-0.8l2-4.6l1.6,4.7c0.1,0.5,0.5,0.7,0.8,0.9L225.1,21.5z"/>
	<path class="st19" d="M480,13.4l-4.7,1.6c-0.5,0.1-0.7,0.5-0.9,0.8l-2,4.6l-1.6-4.7c-0.1-0.5-0.5-0.7-0.8-0.9l-4.6-2l4.7-1.6
		c0.5-0.1,0.7-0.5,0.9-0.8l2-4.6l1.6,4.7c0.1,0.5,0.5,0.7,0.8,0.9L480,13.4z"/>
	<path class="st19" d="M107.2,211.2l-4.7,1.6c-0.5,0.1-0.7,0.5-0.9,0.8l-2,4.6l-1.6-4.7c-0.1-0.5-0.5-0.7-0.8-0.9l-4.6-2l4.7-1.6
		c0.5-0.1,0.7-0.5,0.9-0.8l2-4.6l1.6,4.7c0.1,0.5,0.5,0.7,0.8,0.9L107.2,211.2z"/>
	<path class="st19" d="M710.1,207l-4.7,1.6c-0.5,0.1-0.7,0.5-0.9,0.8l-2,4.6l-1.6-4.7c-0.1-0.5-0.5-0.7-0.8-0.9l-4.6-2l4.7-1.6
		c0.5-0.1,0.7-0.5,0.9-0.8l2-4.6l1.6,4.7c0.1,0.5,0.5,0.7,0.8,0.9L710.1,207z"/>
	<path class="st19" d="M222.3,117.7l-4.7,1.6c-0.5,0.1-0.7,0.5-0.9,0.8l-2,4.6l-1.6-4.7c-0.1-0.5-0.5-0.7-0.8-0.9l-4.6-2l4.7-1.6
		c0.5-0.1,0.7-0.5,0.9-0.8l2-4.6l1.6,4.7c0.1,0.5,0.5,0.7,0.8,0.9L222.3,117.7z"/>
	<path class="st20" d="M14.6,197.3l-4.7,1.6c-0.5,0.1-0.7,0.5-0.9,0.8l-2,4.6l-1.6-4.7c-0.1-0.5-0.5-0.7-0.8-0.9l-4.6-2l4.7-1.6
		c0.5-0.1,0.7-0.5,0.9-0.8l2-4.6l1.6,4.7c0.1,0.5,0.5,0.7,0.8,0.9L14.6,197.3z"/>
	<path class="st20" d="M135.4,255.9l-4.7,1.6c-0.5,0.1-0.7,0.5-0.9,0.8l-2,4.6l-1.6-4.7c-0.1-0.5-0.5-0.7-0.8-0.9l-4.6-2l4.7-1.6
		c0.5-0.1,0.7-0.5,0.9-0.8l2-4.6l1.6,4.7c0.1,0.5,0.5,0.7,0.8,0.9L135.4,255.9z"/>
	<path class="st20" d="M30.5,32.7l-4.7,1.6c-0.5,0.1-0.7,0.5-0.9,0.8l-2,4.6L21.3,35c-0.1-0.5-0.5-0.7-0.8-0.9l-4.6-2l4.7-1.6
		c0.5-0.1,0.7-0.5,0.9-0.8l2-4.6l1.6,4.7c0.1,0.5,0.5,0.7,0.8,0.9L30.5,32.7z"/>
	<path class="st20" d="M585.9,20.9l-4.7,1.6c-0.5,0.1-0.7,0.5-0.9,0.8l-2,4.6l-1.6-4.7c-0.1-0.5-0.5-0.7-0.8-0.9l-4.6-2l4.7-1.6
		c0.5-0.1,0.7-0.5,0.9-0.8l2-4.6l1.6,4.7c0.1,0.5,0.5,0.7,0.8,0.9L585.9,20.9z"/>
	<path class="st19" d="M866.3,197.3l-4.7,1.6c-0.5,0.1-0.7,0.5-0.9,0.8l-2,4.6l-1.6-4.7c-0.1-0.5-0.5-0.7-0.8-0.9l-4.6-2l4.7-1.6
		c0.5-0.1,0.7-0.5,0.9-0.8l2-4.6l1.6,4.7c0.1,0.5,0.5,0.7,0.8,0.9L866.3,197.3z"/>
	<path class="st20" d="M806.7,96.7l-4.7,1.6c-0.5,0.1-0.7,0.5-0.9,0.8l-2,4.6l-1.6-4.7c-0.1-0.5-0.5-0.7-0.8-0.9l-4.6-2l4.7-1.6
		c0.5-0.1,0.7-0.5,0.9-0.8l2-4.6l1.6,4.7c0.1,0.5,0.5,0.7,0.8,0.9L806.7,96.7z"/>
	<path class="st20" d="M216.4,37.9l-6.5,2.3c-0.6,0.2-1,0.6-1.3,1.1l-2.8,6.4l-2.3-6.5c-0.2-0.6-0.6-1-1.1-1.3l-6.4-2.8l6.5-2.3
		c0.6-0.2,1-0.6,1.3-1.1l2.8-6.4l2.3,6.5c0.2,0.6,0.6,1,1.1,1.3L216.4,37.9z"/>
	<path class="st19" d="M970.2,121.3l-4.7,1.6c-0.5,0.1-0.7,0.5-0.9,0.8l-2,4.6l-1.6-4.7c-0.1-0.5-0.5-0.7-0.8-0.9l-4.6-2l4.7-1.6
		c0.5-0.1,0.7-0.5,0.9-0.8l2-4.6l1.6,4.7c0.1,0.5,0.5,0.7,0.8,0.9L970.2,121.3z"/>
	<path class="st20" d="M943.7,229.7l-6.5,2.3c-0.6,0.2-1,0.6-1.3,1.1l-2.8,6.4l-2.3-6.5c-0.2-0.6-0.6-1-1.1-1.3l-6.4-2.8l6.5-2.3
		c0.6-0.2,1-0.6,1.3-1.1l2.8-6.4l2.3,6.5c0.2,0.6,0.6,1,1.1,1.3L943.7,229.7z"/>
	<path class="st20" d="M449.2,31.2l-6.5,2.3c-0.6,0.2-1,0.6-1.3,1.1l-2.8,6.4l-2.3-6.5c-0.2-0.6-0.6-1-1.1-1.3l-6.4-2.8l6.5-2.3
		c0.6-0.2,1-0.6,1.3-1.1l2.8-6.4l2.3,6.5c0.2,0.6,0.6,1,1.1,1.3L449.2,31.2z"/>
	<path class="st19" d="M531.3,105.1l-4.7,1.6c-0.5,0.1-0.7,0.5-0.9,0.8l-2,4.6l-1.6-4.7c-0.1-0.5-0.5-0.7-0.8-0.9l-4.6-2l4.7-1.6
		c0.5-0.1,0.7-0.5,0.9-0.8l2-4.6l1.6,4.7c0.1,0.5,0.5,0.7,0.8,0.9L531.3,105.1z"/>
	<path class="st19" d="M657.5,126.9l-4.7,1.6c-0.5,0.1-0.7,0.5-0.9,0.8l-2,4.6l-1.6-4.7c-0.1-0.5-0.5-0.7-0.8-0.9l-4.6-2l4.7-1.6
		c0.5-0.1,0.7-0.5,0.9-0.8l2-4.6l1.6,4.7c0.1,0.5,0.5,0.7,0.8,0.9L657.5,126.9z"/>
	<path class="st20" d="M957.1,18.8l-6.5,2.3c-0.6,0.2-1,0.6-1.3,1.1l-2.8,6.4l-2.3-6.5c-0.2-0.6-0.6-1-1.1-1.3l-6.4-2.8l6.5-2.3
		c0.6-0.2,1-0.6,1.3-1.1l2.8-6.4l2.3,6.5c0.2,0.6,0.6,1,1.1,1.3L957.1,18.8z"/>
	<path class="st20" d="M145.6,161l-6.5,2.3c-0.6,0.2-1,0.6-1.3,1.1l-2.8,6.4l-2.3-6.5c-0.2-0.6-0.6-1-1.1-1.3l-6.4-2.8l6.5-2.3
		c0.6-0.2,1-0.6,1.3-1.1l2.8-6.4l2.3,6.5c0.2,0.6,0.6,1,1.1,1.3L145.6,161z"/>
	<path class="st20" d="M623.5,38.5l-6.5,2.3c-0.6,0.2-1,0.6-1.3,1.1l-2.8,6.4l-2.3-6.5c-0.2-0.6-0.6-1-1.1-1.3l-6.4-2.8l6.5-2.3
		c0.6-0.2,1-0.6,1.3-1.1l2.8-6.4l2.3,6.5c0.2,0.6,0.6,1,1.1,1.3L623.5,38.5z"/>
	<path class="st20" d="M893,130l-6.5,2.3c-0.6,0.2-1,0.6-1.3,1.1l-2.8,6.4l-2.3-6.5c-0.2-0.6-0.6-1-1.1-1.3l-6.4-2.8l6.5-2.3
		c0.6-0.2,1-0.6,1.3-1.1l2.8-6.4l2.3,6.5c0.2,0.6,0.6,1,1.1,1.3L893,130z"/>
</g>
<path class="st0" d="M591.7,209.2"/>
<g>
	<path class="st21" d="M724.3,162.4H540.2V70.9c0-10.6,8.6-19.1,19.1-19.1h145.8c10.6,0,19.1,8.6,19.1,19.1V162.4z"/>
	
		<rect x="586.6" y="24.7" transform="matrix(-1.836970e-16 1 -1 -1.836970e-16 739.3438 -525.1816)" class="st22" width="91.4" height="164.8"/>
	
		<rect x="586.6" y="24.7" transform="matrix(-1.836970e-16 1 -1 -1.836970e-16 739.3438 -525.1816)" class="st23" width="91.4" height="164.8"/>
	<path class="st24" d="M517.1,162.4L517.1,162.4l230.4,0v0c0,3.4-2.7,6.1-6.1,6.1H523.2C519.8,168.5,517.1,165.8,517.1,162.4z"/>
	<path class="st25" d="M601.6,162.4L601.6,162.4h61.4l0,0c0,1.7-1.4,3.1-3.1,3.1h-55.2C603,165.5,601.6,164.1,601.6,162.4z"/>
	<g>
		<path class="st26" d="M654.3,136.5h-37.6c-5.9,0-10.7-4.8-10.7-10.7V88.3c0-5.9,4.8-10.7,10.7-10.7h37.6c5.9,0,10.7,4.8,10.7,10.7
			v37.6C664.9,131.8,660.2,136.5,654.3,136.5z"/>
		<g>
			<polygon class="st27" points="631.4,114.3 631.4,123.6 633.3,124.9 637.7,124.9 639.6,123.6 639.6,114.3 			"/>
			<path class="st28" d="M647.1,98.8c0-6.4-5.1-11.6-11.5-11.7c-6.4-0.1-11.8,5.1-11.9,11.5c0,2.8,0.9,5.4,2.6,7.5
				c1.6,2,2.6,4.5,2.6,7.2v0.5c0,2.3,1.9,4.2,4.2,4.2h4.6c2.3,0,4.2-1.9,4.2-4.2v-0.3c0-2.7,1-5.3,2.6-7.4
				C646.2,104,647.1,101.5,647.1,98.8z"/>
			<g>
				<path class="st22" d="M629.3,104.7c-0.3,0-0.6-0.1-0.8-0.4c-1.3-1.6-2-3.6-2-5.7c0-3.1,1.7-5.9,4.3-7.5c0.5-0.3,1.1-0.1,1.4,0.3
					c0.3,0.5,0.1,1.1-0.3,1.4c-2,1.2-3.3,3.4-3.3,5.8c0,1.6,0.5,3.1,1.5,4.4c0.4,0.4,0.3,1.1-0.2,1.5
					C629.7,104.7,629.5,104.7,629.3,104.7z"/>
			</g>
			<g>
				<path class="st24" d="M639.8,124.4h-8.6c-0.5,0-0.9-0.3-1-0.8c-0.1-0.5,0.1-1,0.6-1.2l4.2-1.9h-3.8c-0.6,0-1-0.5-1-1s0.5-1,1-1
					h8.6c0.5,0,0.9,0.3,1,0.8c0.1,0.5-0.1,1-0.6,1.2l-4.2,1.9h3.8c0.6,0,1,0.5,1,1S640.4,124.4,639.8,124.4z"/>
			</g>
			<path class="st24" d="M635.5,127.1c1.2,0,2.2-1,2.2-2.2h-4.4C633.3,126.1,634.3,127.1,635.5,127.1z"/>
		</g>
	</g>
</g>
<path class="st29" d="M288,155.3h-55.7c-3,0-5.5-2.4-5.5-5.5V94.1c0-3,2.4-5.5,5.5-5.5H288c3,0,5.5,2.4,5.5,5.5v55.7
	C293.4,152.8,291,155.3,288,155.3z"/>
<g>
	<path class="st28" d="M286.8,114.2l-12.2-15.9c-0.8-1-2.3-1-3.1,0l-12.2,15.9c-0.8,1-0.1,2.5,1.2,2.5h4.2v28.6
		c0,0.6,0.5,1.2,1.2,1.2h14.3c0.6,0,1.2-0.5,1.2-1.2v-28.6h4.2C286.8,116.7,287.6,115.2,286.8,114.2z"/>
	<g>
		<path class="st30" d="M259.5,124.1c0-0.8,2.3-3,2.9-3.4c-0.5-1.2-1.3-1-2-0.8c-0.8,0.2-1.6,0.5-2.2,0c-0.6-0.5-0.6-0.7-1.4-0.7
			c-0.7,0-0.8,0.2-1.4,0.7c-0.6,0.5-1.5,0.3-2.2,0c-0.8-0.2-1.5-0.4-2,0.8c0.5,0.5,2.9,2.6,2.9,3.4c-1.4,1.3-8.5,8-8.5,14
			c0,6,4.8,8.3,6.5,8.3c1.7,0,4.7,0,4.7,0s3,0,4.7,0s6.5-2.3,6.5-8.3C268,132.1,261,125.4,259.5,124.1z"/>
		<path class="st24" d="M259.8,124.7h-6.1c-0.4,0-0.8-0.4-0.8-0.8l0,0c0-0.4,0.4-0.8,0.8-0.8h6.1c0.4,0,0.8,0.4,0.8,0.8l0,0
			C260.6,124.4,260.3,124.7,259.8,124.7z"/>
		<g class="st31">
			<path class="st22" d="M256.2,140.5c-0.9,0-1.7-0.2-2.6-0.6v-2c0.5,0.2,1,0.4,1.5,0.6c0.6,0.2,1,0.2,1.5,0.2c0.3,0,0.6,0,0.8-0.1
				c0.2-0.1,0.2-0.2,0.2-0.4c0-0.1-0.1-0.2-0.2-0.3c-0.1-0.1-0.3-0.2-0.6-0.3c-0.3-0.1-0.6-0.3-1.1-0.4c-0.5-0.2-0.9-0.4-1.3-0.6
				c-0.3-0.2-0.5-0.5-0.7-0.8c-0.1-0.3-0.2-0.7-0.2-1.1c0-0.7,0.2-1.2,0.6-1.6s1.1-0.6,1.9-0.7v-0.8h1.3v0.8c0.8,0,1.6,0.2,2.4,0.6
				l-0.7,1.7c-0.9-0.4-1.6-0.6-2.3-0.6c-0.3,0-0.6,0-0.7,0.1c-0.1,0.1-0.2,0.2-0.2,0.4c0,0.1,0,0.2,0.1,0.3c0.1,0.1,0.3,0.2,0.5,0.3
				c0.2,0.1,0.6,0.2,1,0.4c0.8,0.3,1.5,0.6,1.8,1c0.4,0.4,0.6,0.9,0.6,1.5c0,0.7-0.2,1.2-0.6,1.7c-0.4,0.4-1.1,0.7-1.9,0.8v1.2h-1.3
				V140.5z"/>
		</g>
	</g>
	<g>
		<path class="st24" d="M243.7,129.7c0-0.6,1.8-2.2,2.1-2.6c-0.4-0.9-0.9-0.7-1.5-0.6c-0.6,0.2-1.2,0.4-1.7,0
			c-0.5-0.4-0.5-0.5-1-0.5s-0.6,0.2-1,0.5c-0.5,0.4-1.1,0.2-1.7,0c-0.6-0.2-1.1-0.3-1.5,0.6c0.4,0.4,2.1,2,2.1,2.6
			c-1.1,0.9-6.4,6-6.4,10.5c0,4.5,3.6,6.2,4.9,6.2s3.6,0,3.6,0s2.3,0,3.6,0s4.9-1.7,4.9-6.2C250.1,135.7,244.8,130.6,243.7,129.7z"
			/>
		<path class="st30" d="M243.9,130.1h-4.6c-0.3,0-0.6-0.3-0.6-0.6l0,0c0-0.3,0.3-0.6,0.6-0.6h4.6c0.3,0,0.6,0.3,0.6,0.6l0,0
			C244.5,129.9,244.2,130.1,243.9,130.1z"/>
		<g class="st31">
			<path class="st22" d="M241.1,141.9c-0.7,0-1.3-0.2-1.9-0.4V140c0.4,0.2,0.7,0.3,1.2,0.5c0.4,0.1,0.8,0.2,1.1,0.2
				c0.3,0,0.4,0,0.6-0.1c0.1-0.1,0.2-0.2,0.2-0.3c0-0.1,0-0.2-0.1-0.3c-0.1-0.1-0.2-0.1-0.4-0.2c-0.2-0.1-0.5-0.2-0.8-0.3
				c-0.4-0.1-0.7-0.3-0.9-0.5c-0.2-0.2-0.4-0.4-0.5-0.6c-0.1-0.2-0.2-0.5-0.2-0.8c0-0.5,0.2-0.9,0.5-1.2c0.3-0.3,0.8-0.5,1.5-0.5
				v-0.6h0.9v0.6c0.6,0,1.2,0.2,1.8,0.4l-0.5,1.3c-0.6-0.3-1.2-0.4-1.7-0.4c-0.2,0-0.4,0-0.5,0.1c-0.1,0.1-0.1,0.1-0.1,0.3
				c0,0.1,0,0.2,0.1,0.2c0.1,0.1,0.2,0.1,0.4,0.2c0.2,0.1,0.4,0.2,0.7,0.3c0.6,0.2,1.1,0.5,1.4,0.8c0.3,0.3,0.4,0.7,0.4,1.1
				c0,0.5-0.2,0.9-0.5,1.3c-0.3,0.3-0.8,0.5-1.4,0.6v0.9h-0.9V141.9z"/>
		</g>
	</g>
</g>
<path class="st25" d="M646.6,239.2l0.7-3.5l0.7,3.5c0.3,1.4,1.3,2.4,2.7,2.7l3.5,0.7l-3.5,0.7c-1.4,0.3-2.4,1.3-2.7,2.7l-0.7,3.5
	l-0.7-3.5c-0.3-1.4-1.3-2.4-2.7-2.7l-3.5-0.7l3.5-0.7C645.3,241.6,646.3,240.5,646.6,239.2z"/>
<path class="st29" d="M744.3,260.2h-55.7c-3,0-5.5-2.4-5.5-5.5v-55.7c0-3,2.4-5.5,5.5-5.5h55.7c3,0,5.5,2.4,5.5,5.5v55.7
	C749.8,257.8,747.3,260.2,744.3,260.2z"/>
<polyline class="st32" points="683.2,225.9 577.2,225.9 540.6,189.3 514.7,189.3 "/>
<g>
	<g>
		<g>
			<g>
				<path class="st30" d="M693.7,236.7h-3.1c-0.3,0-0.6,0.2-0.6,0.6c0,0.3,0.2,0.6,0.6,0.6h3.1c0.3,0,0.6-0.2,0.6-0.6
					C694.4,237,694,236.7,693.7,236.7z"/>
			</g>
		</g>
		<g>
			<g>
				<path class="st30" d="M693.7,233.4c-1.2,0-2.3,1-2.3,2.3s1,2.3,2.3,2.3c0.1,0,0.1,0,0.1,0c1.1-0.1,2-1,2-2.3
					C696,234.4,694.9,233.4,693.7,233.4z M693.8,236.7L693.8,236.7c-0.7,0-1.1-0.5-1.1-1s0.5-1,1-1c0.6,0,1,0.5,1,1
					C694.8,236.2,694.4,236.7,693.8,236.7z"/>
			</g>
		</g>
		<g>
			<g>
				<rect x="693.7" y="236.7" class="st33" width="3.4" height="1.2"/>
			</g>
		</g>
		<g>
			<g>
				<path class="st30" d="M740.5,231.8h-2c-1.9,0-3.5,1.6-3.5,3.5s1.6,3.5,3.5,3.5h2c1.9,0,3.5-1.6,3.5-3.5
					C744.1,233.3,742.5,231.8,740.5,231.8z"/>
			</g>
		</g>
		<g>
			<g>
				<g>
					<path class="st30" d="M733.7,225.6c0,1.5,1.1,2.6,2.6,2.6s2.6-1.1,2.6-2.6l0,0v-5.2C736.1,220.3,733.7,222.7,733.7,225.6z"/>
				</g>
			</g>
		</g>
		<g>
			<g>
				<g>
					<circle class="st30" cx="706.4" cy="247.3" r="2.9"/>
				</g>
			</g>
			<g>
				<g>
					<circle class="st30" cx="709.6" cy="247.3" r="2.9"/>
				</g>
			</g>
			<g>
				<g>
					<circle class="st30" cx="725.9" cy="247.3" r="2.9"/>
				</g>
			</g>
			<g>
				<g>
					<circle class="st30" cx="729.1" cy="247.3" r="2.9"/>
				</g>
			</g>
			<g>
				<g>
					<path class="st34" d="M727,223h-17.6c-6.9,0-12.5,5.7-12.5,12.5c0,6.9,5.7,12.5,12.5,12.5H727c6.9,0,12.5-5.7,12.5-12.5
						C739.5,228.6,734,223,727,223z"/>
				</g>
			</g>
			<g>
				<g>
					<g>
						<path class="st30" d="M712,245.1c-6.5,0-11.9-5.3-11.9-11.8v-1c0-2.5,0.8-5,2.2-6.9c-3.1,2.2-5,5.8-5,9.8v1
							c0,6.5,5.3,11.8,11.9,11.8h18.5c4,0,7.5-1.9,9.6-5c-1.9,1.4-4.3,2.2-6.8,2.2L712,245.1L712,245.1z"/>
					</g>
				</g>
			</g>
		</g>
		<g>
			<g>
				<g>
					<path class="st30" d="M726.9,225.7c0,1.5,1.1,2.6,2.6,2.6c1.5,0,2.6-1.1,2.6-2.6l0,0v-5.2C729.2,220.5,726.9,222.7,726.9,225.7
						z"/>
				</g>
			</g>
		</g>
		<g>
			<g>
				<path class="st35" d="M725.6,223.7H709c-0.8,0-1.4,0.6-1.4,1.4s0.6,1.4,1.4,1.4h16.6c0.8,0,1.4-0.6,1.4-1.4
					C726.9,224.3,726.4,223.7,725.6,223.7z"/>
			</g>
		</g>
		<g>
			<g>
				<defs>
					<rect id="SVGID_1_" x="697.7" y="201.5" width="29.9" height="24.8"/>
				</defs>
				<clipPath id="SVGID_2_">
					<use xlink:href="#SVGID_1_"  style="overflow:visible;"/>
				</clipPath>
				<g class="st36">
					<g>
						
							<ellipse transform="matrix(0.5215 -0.8532 0.8532 0.5215 151.0344 721.3856)" class="st37" cx="718.7" cy="226" rx="8.4" ry="8.4"/>
					</g>
					<g>
						
							<ellipse transform="matrix(0.5215 -0.8532 0.8532 0.5215 151.0378 721.361)" class="st28" cx="718.7" cy="226" rx="6.5" ry="6.5"/>
					</g>
					<path class="st22" d="M721.3,223.5l0.3-0.5c0.1-0.1,0-0.2-0.1-0.3l-0.8-0.5c-0.1-0.1-0.2,0-0.3,0.1l-0.2,0.5
						c-1-0.5-2-0.1-2.5,0.7c-0.8,1.2,0.1,2.4,0.7,3.1c0.7,0.8,0.8,1,0.6,1.5c-0.2,0.3-0.9,0.1-1.2-0.1c-0.3-0.2-0.7-0.6-0.8-0.9
						c-0.1-0.1-0.2-0.1-0.3-0.1l-0.9,0.5c-0.1,0.1-0.2,0.2-0.1,0.3c0.2,0.5,0.6,0.8,0.9,1.1l-0.2,0.5c-0.1,0.1,0,0.2,0.1,0.3
						l0.8,0.5c0.1,0.1,0.2,0,0.3-0.1l0.3-0.5c1,0.3,1.9,0,2.4-0.8c0.8-1.4-0.1-2.5-0.8-3.2c-0.7-0.8-0.8-1-0.6-1.2
						c0.2-0.3,0.8-0.1,1.1,0.1c0.5,0.2,0.8,0.7,0.9,1.1c0,0.1,0,0.1,0.1,0.1c0,0,0.1,0,0.2,0l0.9-0.2c0.1,0,0.2-0.1,0.2-0.3
						C722.1,224.7,721.7,224,721.3,223.5z"/>
				</g>
			</g>
			<g>
				<defs>
					<rect id="SVGID_3_" x="697.7" y="201.5" width="29.9" height="24.8"/>
				</defs>
				<clipPath id="SVGID_4_">
					<use xlink:href="#SVGID_3_"  style="overflow:visible;"/>
				</clipPath>
				<g class="st38">
					<g>
						
							<ellipse transform="matrix(0.7171 -0.697 0.697 0.7171 54.6481 554.6536)" class="st37" cx="710.5" cy="210" rx="8.4" ry="8.4"/>
					</g>
					<g>
						
							<ellipse transform="matrix(0.7171 -0.697 0.697 0.7171 54.7008 554.551)" class="st28" cx="710.4" cy="209.9" rx="6.5" ry="6.5"/>
					</g>
					<path class="st22" d="M713.5,211.8c0.6-0.9,0.5-1.8-0.1-2.5c-1.1-1.1-2.4-0.5-3.3,0c-0.9,0.5-1.1,0.6-1.4,0.2
						c-0.3-0.3,0.1-0.8,0.5-1.1c0.3-0.3,0.9-0.6,1.4-0.6c0.1,0,0.1,0,0.2-0.1l0.1-0.1v-1c0-0.1-0.1-0.2-0.2-0.2
						c-0.6,0-1.2,0.1-1.8,0.5l-0.3-0.3c-0.1-0.1-0.2-0.1-0.3,0l-0.7,0.7c-0.1,0.1-0.1,0.2,0,0.3l0.3,0.3c-0.7,0.9-0.7,1.9,0,2.6
						c1,1.1,2.3,0.5,3.1,0c0.9-0.5,1.2-0.6,1.6-0.2c0.3,0.3-0.1,0.9-0.5,1.1c-0.3,0.2-0.7,0.6-1,0.6c-0.1,0-0.2,0.1-0.2,0.3l0.2,0.9
						c0,0.1,0.1,0.2,0.3,0.2c0.5-0.1,0.9-0.3,1.4-0.7l0.3,0.3c0.1,0.1,0.2,0.1,0.3,0l0.7-0.7c0.1-0.1,0.1-0.2,0-0.3L713.5,211.8z"/>
				</g>
			</g>
		</g>
	</g>
</g>
<g>
	<path class="st4" d="M725.7,78.4H756c2.9,0,5.3-2.4,5.3-5.3l0.1-15.2c0-2.9-2.3-5.3-5.1-5.3H726c-2.9,0-5.3,2.4-5.3,5.3l-0.1,15.2
		C720.6,76,722.8,78.4,725.7,78.4z"/>
	<path class="st4" d="M755.5,76.8l3.3,6.1c0.7,1.3-0.6,2.7-2,2.3l-22.4-8.4H755.5z"/>
	<g>
		<path class="st2" d="M732.8,65.8c0,1.7-1.4,3-3,3c-1.7,0-3-1.3-3-3s1.4-3,3-3C731.3,62.9,732.8,64.1,732.8,65.8z"/>
		<path class="st2" d="M743.1,65.8c0,1.7-1.4,3-3,3c-1.7,0-3-1.3-3-3s1.4-3,3-3C741.7,62.9,743.1,64.1,743.1,65.8z"/>
		<path class="st2" d="M753.6,65.8c0,1.7-1.4,3-3,3c-1.5,0-3-1.3-3-3s1.4-3,3-3C752.4,62.9,753.6,64.1,753.6,65.8z"/>
	</g>
</g>
<g>
	<defs>
		<rect id="SVGID_5_" x="659.7" y="39.2" width="335.6" height="274.1"/>
	</defs>
	<clipPath id="SVGID_6_">
		<use xlink:href="#SVGID_5_"  style="overflow:visible;"/>
	</clipPath>
	<g class="st39">
		<ellipse class="st40" cx="831.4" cy="480.7" rx="81.8" ry="8.9"/>
		<g>
			<path class="st41" d="M691.1,166.7c0.2-1.1,1.5-1.8,2.9-1.6l-4.1-0.8c-1.4-0.3-2.4-1.3-2.2-2.5c0.2-1.3,1.5-1.8,2.9-1.6l-3.6-0.7
				c-1.4-0.3-2.4-1.5-2.1-2.8c0.2-1.3,1.6-2.1,3-1.8l3.1,0.6c-1.4-0.3-2.4-1.5-2.1-2.8c0.2-1.3,1.6-2.1,3-1.8l19.1,3.6l-3.6-5.5
				c-0.9-1.4-0.6-3,0.6-3.8l0.1,0c1.2-0.8,2.9-0.2,3.7,1.1l8.3,9.7c2.6,2.5,5.3,5.6,4.4,10.2c-0.9,4.8-5.5,7.8-10.3,6.9l-4.6-0.9
				l-3.3-0.6l-13.1-2.5C691.8,169,690.9,167.8,691.1,166.7z"/>
			<path class="st42" d="M795,187.7c0,0-16.7,22.2-28.8,26.1c0,0-15.5,6.5-50.1-38c0,0,0.5-8.8,11.6-13.1l34.4,24.5
				c28.4-42,34.1-42.2,34.1-42.2S802.5,170.4,795,187.7z"/>
		</g>
		<g>
			<path class="st43" d="M856.4,475.9h29.7c0,0,1.7-7.9-4.5-18.3l-20,0.3C861.7,457.8,855.9,466,856.4,475.9z"/>
			<rect x="856.6" y="475.9" class="st44" width="29.7" height="4.7"/>
			<path class="st45" d="M882.5,467.6c0,2-5,3.7-11.2,3.7c-6.2,0-11.2-1.6-11.2-3.7c0-2,5-3.7,11.2-3.7
				C877.5,463.9,882.5,465.6,882.5,467.6z"/>
		</g>
		<g>
			<path class="st43" d="M826.9,455.7c0,0,2.3,11.8,0.6,20.2h-56c0,0-1.9-12.1,22.4-12.1l15.6-10.6L826.9,455.7z"/>
			<path class="st44" d="M827.4,480.6h-18.8l-0.2-3.2c0,0-7.6,3.1-18.2,3.1c-5.2,0-18.5,0.2-18.5,0.2v-4.8h55.8V480.6z"/>
			<path class="st45" d="M792.3,463.8c0,0-0.8,8.6-20.1,8.2C772.2,472.1,774.8,464.2,792.3,463.8z"/>
		</g>
		<g>
			<path class="st46" d="M799.1,254.3l-1,203.3c0,0,15.2,7.6,29.5,1.7l5.5-161.8l4.2-0.2l20.7,162c0,0,11,4.9,27.1-1l-16.4-203.9
				H799.1z"/>
			<path class="st47" d="M798.4,382.9l-0.4,74.7c0,0,15.2,7.6,29.5,1.7l3.4-100C822.9,391.2,805.5,386.4,798.4,382.9z"/>
			<path class="st47" d="M877.8,371.1c-10.7,29.1-25,10.4-31,0l11.3,88.2c0,0,11,5,27.1-1L877.8,371.1z"/>
			<path class="st30" d="M798.7,255.5c0,0,25.2,7.4,70.7,0l0.4,9c0,0-37.3,6.9-71.1,0.1V255.5z"/>
			<rect x="826.3" y="258.4" class="st28" width="13" height="9.9"/>
			
				<rect x="810.5" y="261.3" transform="matrix(4.459948e-02 -0.999 0.999 4.459948e-02 516.7352 1065.9825)" class="st48" width="10.4" height="3.1"/>
			
				<rect x="850.6" y="257.1" transform="matrix(0.9977 -6.803105e-02 6.803105e-02 0.9977 -15.8709 58.5829)" class="st48" width="3.1" height="10.4"/>
		</g>
		<g>
			<path class="st22" d="M881.5,146.2c0,0-11.7-5.1-26.5-8.3c-15.8-2.7-20.5-2.3-32.8,0.3c-6.7,1.1-19.3,3.8-26,6.9
				c0,0-4,17.8,0,110.5c0,0,26.2,9.2,74.6,0c0,0,0.5-42,6.8-67.3C877.6,188.2,879.5,162.1,881.5,146.2z"/>
			<path class="st42" d="M827.8,158l3.8-2.5l2.6,3.4l-10,75.3l6.8,7.8l9.2-11.5l-1.3-69.7l3.2-3.1l1.7,2c0,0,11.9-7.8,13.8-21.2
				c-0.9-0.2-1.7-0.4-2.6-0.6c-15.8-2.7-20.5-2.3-32.8,0.3c-0.5,0.1-1,0.2-1.6,0.3C820.7,138.4,819.4,146.9,827.8,158z"/>
			<g>
				<path class="st41" d="M828.6,132.7l-0.4,12.9l21.4,0.6l0.5-16.8C841.1,133.5,832.2,133.2,828.6,132.7z"/>
				<path class="st49" d="M850.1,129.4l0.4-12.9l-21.4-0.6l-0.5,16.8C832.2,133.2,841.1,133.5,850.1,129.4z"/>
			</g>
			<path class="st30" d="M827.9,152l4.5,7.5c0,0-4.7,13.4-6.8,30.6c-2.3,18.9-2.3,39.9-2.3,39.9l7.3,8.3l7.2-8.4l-0.7-70l6.3-6.3
				l-7-9L827.9,152z"/>
			<path class="st22" d="M828.6,132.7c0,0,1,8.8,7.8,11.8c0,0,12.7-3.5,13.6-11.8l7.2,5.6c0,0-4.7,13.9-14.5,17.6l-6.2-9.4l-8.4,7.8
				c0,0-8.1-9.8-7.4-15.9L828.6,132.7z"/>
		</g>
		<path class="st22" d="M881.5,146.2c0,0,7.5,7.3,38,41.3l-13.7,22.7l-28.1-22C877.6,188.2,879.2,167.2,881.5,146.2z"/>
		<path class="st22" d="M971.5,194.5c-2.2-5.3-8.4-7.9-13.7-5.6c-5.3,2.2-7.8,8.4-5.6,13.7c2.2,5.3,8.4,7.8,13.7,5.6
			C971.3,206,973.8,199.9,971.5,194.5z"/>
		<path class="st41" d="M974.9,200.3c-5.7,5.2-9.5,4.6-11.7,3.6l0,0c-4.3-2.3-3-7.7-0.5-12.2l4.3-8c2.4-4.6,6.5-3.7,10.8-1.4l0,0
			c4.3,2.3,7.4,5.1,4.6,10.3L974.9,200.3z"/>
		<g>
			<polygon class="st30" points="977.6,149.1 979.1,151 954.3,233.5 897.3,216.4 895.4,213.6 			"/>
			
				<rect x="893.7" y="151.3" transform="matrix(0.2877 -0.9577 0.9577 0.2877 493.3661 1026.0049)" class="st48" width="85.5" height="60"/>
			
				<rect x="899.8" y="157.7" transform="matrix(0.2877 -0.9577 0.9577 0.2877 491.5213 1026.3575)" class="st50" width="72" height="50.1"/>
			<path class="st30" d="M950.3,139.7l0.3-0.9c0.3-0.9-0.2-1.8-1.1-2.1l-0.2-0.1c-0.9-0.3-1.8,0.2-2.1,1.1l-0.3,0.9l-7-2.1
				l-3.5,11.5l18,5.4l3.5-11.5L950.3,139.7z"/>
			
				<rect x="942" y="148.1" transform="matrix(0.2877 -0.9577 0.9577 0.2877 521.0653 1015.6447)" class="st33" width="2.6" height="18.8"/>
			
				<rect x="940.9" y="150.9" transform="matrix(0.2877 -0.9577 0.9577 0.2877 512.0262 1019.9185)" class="st33" width="1.6" height="29.7"/>
			
				<rect x="939.5" y="152.8" transform="matrix(0.2877 -0.9577 0.9577 0.2877 506.7388 1021.8162)" class="st33" width="1.6" height="34.9"/>
			
				<rect x="938.2" y="163" transform="matrix(0.2877 -0.9577 0.9577 0.2877 501.477 1023.7269)" class="st33" width="1.6" height="23.5"/>
			
				<rect x="936.8" y="161.8" transform="matrix(0.2877 -0.9577 0.9577 0.2877 496.2192 1025.64)" class="st33" width="1.6" height="34.9"/>
			
				<rect x="935.5" y="168.9" transform="matrix(0.2877 -0.9577 0.9577 0.2877 490.9429 1027.5433)" class="st33" width="1.6" height="29.7"/>
			
				<rect x="934.1" y="170.7" transform="matrix(0.2877 -0.9577 0.9577 0.2877 485.6568 1029.4418)" class="st33" width="1.6" height="34.9"/>
			
				<rect x="932.8" y="176.3" transform="matrix(0.2877 -0.9577 0.9577 0.2877 480.4245 1031.3684)" class="st33" width="1.6" height="32.9"/>
			
				<rect x="931.4" y="179.7" transform="matrix(0.2877 -0.9577 0.9577 0.2877 475.1362 1033.2649)" class="st33" width="1.6" height="34.9"/>
			
				<rect x="930.1" y="188.9" transform="matrix(0.2877 -0.9577 0.9577 0.2877 469.8788 1035.1779)" class="st33" width="1.6" height="25.6"/>
		</g>
		<g>
			<g>
				<path class="st41" d="M979.5,188.9c-0.4-0.2-0.7-0.6-0.9-1c-2.2-4.6-11.5-9.7-15-11.3c-1.2-0.5-1.8-1.8-1.3-2.9
					c0.4-1.1,1.8-1.5,2.9-0.9c1.4,0.7,14.1,6.7,17.4,13.7c0.5,1.1,0.1,2.3-1.1,2.7C981,189.4,980.2,189.3,979.5,188.9z"/>
			</g>
			<g>
				<path class="st41" d="M976.6,191.3c-0.3-0.2-0.6-0.5-0.9-0.8c-4.4-6.7-16.8-11.1-16.9-11.1c-1.2-0.4-1.9-1.7-1.5-2.9
					c0.4-1.2,1.7-1.8,2.9-1.4c0.6,0.2,14.1,4.9,19.4,13c0.7,1.1,0.4,2.5-0.7,3.1C978.2,191.6,977.3,191.6,976.6,191.3z"/>
			</g>
			<g>
				<path class="st41" d="M971.3,191.4c-0.2-0.1-0.5-0.3-0.7-0.5c-4.6-4.6-11.7-7.3-11.8-7.3c-1.2-0.5-1.9-1.7-1.6-2.7
					c0.3-1.1,1.6-1.6,2.8-1.1c0.3,0.1,8.3,3.1,13.7,8.5c0.9,0.9,0.9,2.2,0,2.9C973.2,191.8,972.2,191.8,971.3,191.4z"/>
			</g>
			<g>
				<path class="st41" d="M968.8,194.6c-0.2-0.1-0.4-0.2-0.6-0.4c-4.3-4-8.9-5.9-9-5.9c-1.2-0.5-1.8-1.8-1.4-2.9
					c0.4-1.1,1.8-1.7,3-1.2c0.2,0.1,5.6,2.3,10.5,6.9c0.9,0.9,1,2.3,0.2,3.1C970.8,195,969.7,195.1,968.8,194.6z"/>
			</g>
		</g>
		<g class="st51">
			<g class="st52">
				<path class="st35" d="M874.2,72.1c-1.1-2.7-2.1-4.8-2.8-6.2c-1.5-3.6-8.6-11.1-26-19c-25.2-11.3-29.7,5.6-29.7,5.6
					c0.4-3.3,1.8-6,1.8-6c-8.8,5.9-3.4,39.3-3.4,39.3c24.8,17,52.9,11,52.9,11c1.4-7,3-16.6,4.1-22.7c1.8,1.5,3.1,3.2,3.1,3.2
					c-0.5-2.8-2-6.7-2-6.7L874.2,72.1z"/>
				<path class="st35" d="M834.8,74.9l-18.7-3.2c-0.9,0.1-2.2,0.4-3.5,0.7c0.5,7.4,1.4,13.4,1.4,13.4c24.8,17,52.9,11,52.9,11
					c1.2-6.2,2.7-14.5,3.7-20.6c-4-2.6-14.6-4.2-14.6-4.2L834.8,74.9z"/>
				<path class="st53" d="M822.3,68.8c0,0-5.7-22.9,12.9-24.1C835.2,44.7,821,46.6,822.3,68.8z"/>
				<path class="st53" d="M827.7,67.9c0,0,2-16.7,12.8-20.6C840.5,47.3,831.7,54.5,827.7,67.9z"/>
				<path class="st53" d="M834.8,65.6c0,0,5.3-13.4,23.6-9.4C858.4,56.2,843.6,54.9,834.8,65.6z"/>
				<path class="st53" d="M843.8,66.7c0,0,8.4-11.7,25.2-3.2C869.1,63.4,855,58.5,843.8,66.7z"/>
			</g>
			<g class="st52">
				<path class="st41" d="M864.5,92.3l-3.4,2.8c-0.7-1.7-1.3-3.4-1.7-5.2c-2.7-10.2-3.3-17.8-3.3-17.8c-22.2-3.1-40-0.4-40-0.4
					c0.3,3.4-2.1,14.2-2.1,14.2c0,9.2-0.2,24.7,6.1,34c2.7,3.9,6,7.2,11.7,8.1c24.6,3.8,30.9-20.2,30.9-20.2s7.7,2.1,9.3-9.3
					C873.2,89.1,864.5,92.3,864.5,92.3z"/>
				<path class="st49" d="M860.8,105c-2.1,6.1-9.9,21.1-26.6,20.2c-9.1-0.5-13.7-6.5-16.7-10.7c0.7,2,1.6,3.8,2.7,5.4
					c2.7,3.9,6,7.2,11.7,8.1c24.6,3.8,30.9-20.2,30.9-20.2s5.9,1.6,8.5-5.9C866.6,109.6,860.8,105,860.8,105z"/>
			</g>
			<path class="st54" d="M827.6,95.3c0,2.1-1.3,3.7-2.9,3.6c-1.6-0.1-2.8-1.9-2.8-4.1c0-2.1,1.3-3.7,2.9-3.6
				C826.3,91.3,827.6,93.2,827.6,95.3z"/>
			<path class="st54" d="M849,94.6c0,2.1-1.3,3.7-2.9,3.6c-1.6-0.1-2.8-1.9-2.8-4.1c0-2.1,1.3-3.7,2.9-3.6
				C847.8,90.7,849,92.5,849,94.6z"/>
			<g class="st52">
				<path class="st55" d="M835.2,107.3c-4.7,1.9-7.3-0.3-7.5-2.6c-0.1-1.5,0.7-2.8,2.1-3.3c2.9-1.1,4.9-5.6,5-5.6l0,0
					c0,1-1,4.9-4.7,7c-0.8,0.5-1.3,0.9-1.2,1.7C828.9,105.7,830.7,107.6,835.2,107.3L835.2,107.3z"/>
			</g>
			<g class="st52">
				<path class="st56" d="M817.9,84.4l-0.2-1.4c0.3,0,5.2-1.4,11-0.9l0.1,2.2C824,83.6,818,84.4,817.9,84.4z"/>
			</g>
			<g class="st52">
				<path class="st56" d="M852.8,85.1c-3.8-1.5-11-1.8-11-1.8l0.5-2c0.3,0.1,6.7,0.3,11,2.6L852.8,85.1z"/>
			</g>
			<g class="st52">
				<path class="st57" d="M843.4,110.6c0,0-8.9,1.8-17.2,0c0,0,1.5,7.6,8.6,7.6C841.5,118.2,843.3,112,843.4,110.6z"/>
				<path class="st22" d="M834.6,114.2c-5.5,0-7.1-2.3-7.8-3.5c6.4,1.3,11.6,0.5,16.2,0C842.5,112,839.8,114.2,834.6,114.2z"/>
			</g>
		</g>
		<g>
			<path class="st49" d="M811,88.8c0,0-5.2,1-4.6,9.1s6.5,6.7,6.5,6.7s3.1-10.7,3.1-10.9S811,88.8,811,88.8z"/>
			<path class="st41" d="M865.5,88.8c0,0,6.5-0.1,6.5,7.9s-5.3,9.3-9.4,8.1C858.5,103.7,861.9,89.2,865.5,88.8z"/>
			<path class="st49" d="M862.6,102.7c-1.1-0.3-1.7-1.6-1.9-3.4c-0.2,2.8,0.3,5.1,1.9,5.5c4.1,1.1,9.4-0.2,9.4-8.1c0-0.3,0-0.7,0-1
				C871.5,102.7,866.6,103.8,862.6,102.7z"/>
			<path class="st41" d="M810.3,73.5c0,0,0.4,36.5,7.5,45.9s20.6,12.4,32.6,6c12-6.4,13.1-22.6,12.4-27.3c-0.7-4.7,2.8-9.3,2.8-9.3
				V75.5l-6.3-13.6l-31.5-7.5L810.3,73.5z"/>
			<path class="st49" d="M813.9,73.7c0,0-3.6,1.9,5.5,6.5c9,4.7,12-1,15.5-5s17.2-5.9,17.2-5.9l1.1-1.8l-24.9-0.6L813.9,73.7z"/>
			<path class="st58" d="M811.9,98.2c0,0,0.4-16.1,4.6-21.5s-6.2-3.2-6.2-3.2S810.4,86,811.9,98.2L811.9,98.2z"/>
			<path class="st59" d="M857.6,76.4c0,0,3.8,9.2,2.1,22.6c-1.7,13.4-5.2,16.8-11.8,13.6c-6.7-3.2-19.2-3.2-24.6,0.3
				c-5.4,3.5-7.3-2.2-10-6.6c1.1,5.6,2.6,10.4,4.6,13.1c7.1,9.5,20.6,12.4,32.6,6c12-6.4,13.1-22.6,12.4-27.3
				c-0.7-4.7,2.8-9.3,2.8-9.3V75.5l-5.8-1.8L857.6,76.4z"/>
			<path class="st58" d="M865.5,75.5l-5.8-1.8l-2.1,2.8c0,0,3.1,7.6,2.4,18.9h2.8c0,0,0,0,0,0c0.5-3.6,2.8-6.5,2.8-6.5V75.5z"/>
			<path class="st59" d="M799.1,58.8c0-9.7,10.9-18.9,18.9-18.9c8.1,0,15.2,7.9,15.2,7.9s16.7-4.5,22.3,6c6.7-1.9,16.7,9.9,10,21.7
				c-2.6,1.3-7.9,1-7.9,1s1.1-6.8-6.4-7.2c-7.5-0.4-18.9-1-21.6,3.3c-2.6,4.3-7.7,7.2-15.6,3.1S799.1,66.4,799.1,58.8z"/>
			<path class="st60" d="M840.9,61.7c-10.7,0-16.8,4.7-26,4.7c-9.2,0-15.7-6.8-15.7-6.8c0.5,7.2,7.2,12,14.9,16
				c7.9,4.2,12.9,1.3,15.6-3.1c2.6-4.3,14.1-3.8,21.6-3.3c2.8,0.2,4.4,1.2,5.3,2.4v0C856.3,69.3,851.6,61.7,840.9,61.7z"/>
			<path class="st49" d="M835.8,95.4v12.8c0,0-7,3.6-7-1c-0.1-4.6,4.4-3.3,4.4-3.3S834.7,91.5,835.8,95.4z"/>
			<path class="st61" d="M827,113c-0.5,0-0.9,0.4-0.9,0.8c0,0,0,0,0,0c0,3.9,4,7.1,8.9,7.1c4.9,0,8.9-3.2,8.9-7.1c0,0,0,0,0,0
				c0-0.5-0.4-0.8-0.9-0.8H827z"/>
			<path class="st62" d="M843.9,114.9c0.1-0.3,0.1-0.7,0.1-1c0,0,0,0,0,0c0-0.5-0.4-0.8-0.9-0.8H827c-0.5,0-0.9,0.4-0.9,0.8
				c0,0,0,0,0,0c0,0.4,0,0.7,0.1,1c2.5,0.7,5.5,1.2,8.8,1.2C838.3,116,841.4,115.6,843.9,114.9z"/>
			<ellipse class="st59" cx="823.3" cy="96.3" rx="2.9" ry="3.8"/>
			<ellipse class="st59" cx="846.1" cy="96.3" rx="2.9" ry="3.8"/>
			<g>
				<g>
					<path class="st59" d="M851.6,88.6c-2.8-1-7.2-0.5-8.2-0.4c-0.1,0-0.2-0.1-0.2-0.2l-0.1-1c0-0.1,0.1-0.2,0.2-0.2
						c1-0.1,5.7-0.6,8.8,0.5c0.1,0,0.1,0.1,0.1,0.2l-0.4,1C851.8,88.6,851.7,88.6,851.6,88.6z"/>
				</g>
			</g>
			<g>
				<g>
					<path class="st59" d="M817.6,88.5l-0.1-1c0-0.1,0.1-0.2,0.2-0.2c1-0.1,5.8-0.7,8.7-0.7c0.1,0,0.2,0.1,0.2,0.2v1
						c0,0.1-0.1,0.2-0.2,0.2c-2.8,0-7.6,0.6-8.5,0.7C817.7,88.7,817.6,88.6,817.6,88.5z"/>
				</g>
			</g>
		</g>
		<g>
			<path class="st63" d="M813.3,90.9v8.3c0,0,1.4,3.3,1.6,3.3s6.5,0.7,6.7,0.7c0.2,0,5.6-0.2,5.6-0.2l2.2-1.5l2.1-1.9L832,96
				c0,0-0.5-2-0.5-2.2s-1.6-2.7-1.6-2.7s-2.6-1.1-2.8-1.1c-0.2,0-4.1,0-4.5,0c-0.4,0-4.1,0.2-4.1,0.2l-4.8,0.4L813.3,90.9z"/>
			<path class="st63" d="M856.8,90.9v8.3c0,0-1.4,3.3-1.6,3.3s-6.5,0.7-6.7,0.7c-0.2,0-5.6-0.2-5.6-0.2l-2.2-1.5l-2.1-1.9l-0.5-3.7
				c0,0,0.5-2,0.5-2.2c0-0.1,1.6-2.7,1.6-2.7s2.6-1.1,2.8-1.1s4.1,0,4.5,0c0.4,0,4.1,0.2,4.1,0.2l4.8,0.4L856.8,90.9z"/>
			<polygon class="st64" points="820.4,103.4 816.4,103.4 819.9,89.8 823.9,89.8 			"/>
			<polygon class="st64" points="845.4,103.4 841.4,103.4 844.9,89.8 848.9,89.8 			"/>
			<path class="st30" d="M854.9,89.3H843c-3.1,0-5.7,2.3-6.1,5.4h-4.2c-0.4-3-3-5.4-6.1-5.4h-10.8c-1.9,0-3.5,1.6-3.5,3.5v5.9
				c0,1.1,0.4,2.1,1.2,2.9l1.1,1c0.8,0.7,1.8,1.2,2.8,1.2h8.7c2.8,0,5.3-2,6.4-4.5c0.2-0.4,0.3-0.8,0.3-1.2V96h4.1v2.1
				c0,0.4,0.1,0.8,0.3,1.2c1.2,2.5,3.7,4.5,6.4,4.5h9.7c1.1,0,2.1-0.4,2.8-1.2l1.1-1c0.8-0.8,1.2-1.8,1.2-2.9v-5.9
				C858.4,90.9,856.8,89.3,854.9,89.3z M831.5,98.1c0,0.2-0.1,0.4-0.1,0.6c-1.1,2.2-3.2,3.8-5.3,3.8h-8.7c-0.7,0-1.4-0.3-1.9-0.8
				l-1.1-1c-0.5-0.5-0.8-1.2-0.8-2v-5.9c0-1.2,1-2.2,2.2-2.2h10.8c2.7,0,4.9,2.2,4.9,4.9V98.1z M857.1,98.7c0,0.7-0.3,1.4-0.8,2
				l-1.1,1c-0.5,0.5-1.2,0.8-1.9,0.8h-9.7c-2.1,0-4.2-1.6-5.3-3.8c-0.1-0.2-0.1-0.4-0.1-0.6v-2.6c0-2.7,2.2-4.9,4.9-4.9h11.8
				c1.2,0,2.2,1,2.2,2.2V98.7z"/>
			<path class="st30" d="M843.6,104.3c-2.8,0-5.5-1.9-6.9-4.8c-0.2-0.4-0.3-0.9-0.3-1.4v-1.6h-3.1v1.6c0,0.5-0.1,1-0.3,1.4
				c-1.4,2.9-4.1,4.8-6.9,4.8h-8.7c-1.2,0-2.3-0.5-3.2-1.3l-1.1-1c-0.9-0.8-1.4-2-1.4-3.2v-5.9c0-2.2,1.8-4,4-4h10.8
				c3.2,0,5.9,2.3,6.5,5.4h3.3c0.6-3.1,3.3-5.4,6.5-5.4h11.8c2.2,0,4,1.8,4,4v5.9c0,1.2-0.5,2.4-1.4,3.2l-1.1,1
				c-0.9,0.8-2,1.3-3.2,1.3H843.6z M843,91.1c-2.4,0-4.4,2-4.4,4.4v2.6c0,0.2,0,0.3,0.1,0.4c1,2.1,3,3.5,4.8,3.5h9.7
				c0.6,0,1.1-0.2,1.6-0.6l1.1-1c0.4-0.4,0.7-1,0.7-1.6v-5.9c0-0.9-0.8-1.7-1.7-1.7H843z M815.8,91.1c-0.9,0-1.7,0.8-1.7,1.7v5.9
				c0,0.6,0.2,1.2,0.7,1.6l1.1,1c0.4,0.4,1,0.6,1.6,0.6h8.7c1.9,0,3.8-1.4,4.8-3.5c0.1-0.1,0.1-0.3,0.1-0.4v-2.6
				c0-2.4-2-4.4-4.4-4.4H815.8z"/>
			<path class="st65" d="M857.7,95.4c0,0,6.1-6.1,8.1-6.6"/>
		</g>
	</g>
</g>
<g>
	<path class="st66" d="M147,307l-7.9-0.1l-1.3,5.8c-0.3,1-0.1,2.2,0.4,3.1c0.4,0.6,1,0.9,1.7,0.9l19.6,0.3c1.9,0,3.5-5.7-2.6-7.4
		C157,309.5,149.6,307,147,307z"/>
	<path class="st66" d="M109.3,307l-7.9-0.1l-1.3,5.8c-0.3,1-0.1,2.2,0.4,3.1c0.4,0.6,1,0.9,1.7,0.9l19.6,0.3c1.9,0,3.5-5.7-2.6-7.4
		C119.4,309.5,111.8,307,109.3,307z"/>
	<polygon class="st35" points="152,174.5 152,307 137.8,307 124.9,179.7 	"/>
	<polygon class="st35" points="129.6,179.7 115,307 100.9,307 104.7,177.5 	"/>
	<path class="st67" d="M90.6,118.6c0.3-2.6,0.6-5.2,1.9-7.6c1.7-3.1,5.1-5.1,8.6-6.1c3.5-1,7.1-1.2,10.8-1.2
		c4.8-0.1,16.1-0.3,21.1-0.4c0.1,0,0.1,0,0.3,0c4.8,0.1,9.6,0.3,14.4,0.4c3.6,0.1,7.3,0.3,10.8,1.2c3.5,0.9,6.8,3.1,8.6,6.1
		c1.3,2.3,1.7,4.9,1.9,7.6c0.3,2.3,0.3,4.8,0.3,7.1c0,3.2-2.9,5.5-6,5.1l-3.6-0.6c-3.2-0.6-6.1,2-6,5.2c0.3,9.3,0.7,27.1,0.4,39
		c0,2.6-2.2,4.8-4.8,4.9c-4.5,0.3-9.6,0.4-14.1,0.4l0,0c-5.4,0.1-18.3-0.1-26.5-0.6c-2.6-0.1-4.8-2.3-4.8-5.1
		c-0.3-12.9,0.4-33.8,0.7-43.5c0.1-2.9-2.2-5.2-5.1-5.2l-9-0.1C90,127.3,90.1,123,90.6,118.6z"/>
	<path class="st68" d="M138.4,103.5c0,0-3.2,4.4-9.3,4.4c-6,0-7.4-4.4-7.4-4.4l8.3-2.2L138.4,103.5z"/>
	<path class="st69" d="M106.1,124.4l-8.6,19.2c-1.9,4.2-3.3,9.7-3.3,9.7l18.2,6l0.6,8.3l-24.9-4.9c-4.5-0.9-7.3-5.2-6.4-9.6
		c1-4.7,2.2-9.9,2.8-12.1l6.7-26.3L106.1,124.4z"/>
	<path class="st69" d="M168.7,117.3l7.7,15.1c1,2,3.8,2.5,5.5,0.9l15-14.5l8.7,2.2L186,147.1c-4.9,6.7-15,6.5-19.8-0.3l-14.8-21.1
		L168.7,117.3z"/>
	<path class="st69" d="M212.9,118L212.9,118c-0.7-2.6-3.3-4.2-6-3.5l-7.6,1.9c-2.6,0.7-4.2,3.3-3.5,6l0,0c0.7,2.6,3.3,4.2,6,3.5
		l7.6-1.9C211.9,123.3,213.5,120.6,212.9,118z"/>
	<path class="st66" d="M135.2,87.6L135.2,87.6c4.7,1.5,9.6-1.2,11.1-5.8l1.5-4.8c1.5-4.7-1.2-9.6-5.8-11.1l0,0
		c-4.7-1.5-9.6,1.2-11.1,5.8l-1.5,4.8C128,81.2,130.7,86.2,135.2,87.6z"/>
	<path class="st69" d="M120.2,81.4c0.9,0.1,4.4,0,5.1,0.1l-0.4-4.5c-0.6-4.7,2.8-8.7,7.4-9.3l2.8-0.3c4.7-0.6,8.7,2.8,9.3,7.4
		l1.2,10.5c0.6,4.7-2.8,8.7-7.4,9.3l0,0c-2.3,0.3-3.9,2.3-3.6,4.5c0.3,3.1,2.9,3.8,3.5,4.1l-15.6,2C122,96.3,121.8,90.7,120.2,81.4z
		"/>
	<path d="M121.8,93.7c0,0-10.9-11.9-7.3-24.1s25-13.8,27.3-3.1c2.3,10.8-13.5,9.2-13.5,9.2s-6.3,2.5-6.8,9.2L121.8,93.7z"/>
	<ellipse transform="matrix(0.9936 -0.1132 0.1132 0.9936 -8.569 14.4243)" class="st69" cx="122.7" cy="82.7" rx="3.9" ry="4.4"/>
	<path class="st66" d="M125.3,84.6L125.3,84.6c0.9-0.1,1.5-0.9,1.3-1.7l-0.6-5.5c-0.1-0.9-0.9-1.5-1.7-1.3l0,0
		c-0.9,0.1-1.5,0.9-1.3,1.7l0.6,5.5C123.7,84.1,124.5,84.7,125.3,84.6z"/>
	<polygon class="st67" points="90,115.4 83.9,141.3 98.1,147.1 109.8,121.4 92.7,111.2 	"/>
	<path class="st67" d="M166.4,110.3l12.2,22.5l-3.8,19.5c-8.6,0.6-18.3-14.5-28.2-29L166.4,110.3z"/>
	<path class="st22" d="M177.4,151.8l3.6-17.6c0.3-1.2-0.4-2.2-1.6-2.5l0,0c-1.2-0.3-2.2,0.4-2.5,1.6l-3.6,17.6
		c-0.3,1.2,0.4,2.2,1.6,2.5l0,0C176.1,153.7,177.3,152.9,177.4,151.8z"/>
	<path class="st22" d="M83.4,145.4l13.2,4.7c1,0.4,2.3-0.1,2.6-1.3l0,0c0.4-1-0.1-2.3-1.3-2.6l-13.2-4.7c-1-0.4-2.3,0.1-2.6,1.3l0,0
		C81.8,143.8,82.3,144.9,83.4,145.4z"/>
	<polygon class="st22" points="135.1,99.5 143.2,103.6 135.1,114.5 129.1,107.8 	"/>
	<polygon class="st22" points="122.1,98.4 115.3,103.6 123.6,114.5 129.6,107.8 	"/>
	<path class="st69" d="M116.6,159.8l-1.2-1.9c-1-1.7-3.3-2.5-5.1-1.3l-2.5,1.5c-1.7,1-2.5,3.3-1.3,5.1l1.2,1.9
		c1,1.7,3.3,2.5,5.1,1.3l2.5-1.5C117,163.8,117.6,161.5,116.6,159.8z"/>
</g>
</svg>
