<?xml version="1.0" encoding="utf-8"?>
<!-- Generator: Adobe Illustrator 24.1.2, SVG Export Plug-In . SVG Version: 6.00 Build 0)  -->
<svg version="1.1" id="Layer_1" xmlns="http://www.w3.org/2000/svg" xmlns:xlink="http://www.w3.org/1999/xlink" x="0px" y="0px"
	 viewBox="0 0 548 390.3" style="enable-background:new 0 0 548 390.3;" xml:space="preserve">
<style type="text/css">
	.st0{fill:#9DC6FB;}
	.st1{fill:#80B4FB;}
	.st2{fill:#60B8FE;}
	.st3{fill:#6E60B8;}
	.st4{fill:#6353B2;}
	.st5{fill:#8479C2;}
</style>
<g>
	<path class="st0" d="M530,174.5c-1-52-44.5-93.3-96.5-91.4c-7.6,0.3-14.8-3.9-18.4-10.6c-22.6-41.4-66.5-69.4-117-69.4
		c-51.8,0-96.6,29.5-118.6,72.6c-6.4,12.6-19.2,10.9-24.7,10.9c-40.1,0-74.2,25.9-86.5,61.8c-2,6-6.9,10.5-12.9,12.6
		C32.9,168.9,17.1,190.7,18,216c1.2,30.2,26.8,53.6,57,53.6h359.8C487.2,269.6,531,226.8,530,174.5L530,174.5z"/>
	<path class="st1" d="M136.3,216c-1-25.3,14.9-47,37.3-54.9c6-2.1,10.8-6.6,12.9-12.6c12.3-36,46.4-61.8,86.5-61.8
		c5.5,0,18.3,1.7,24.7-10.9c13-25.4,33.9-46.1,59.5-58.8c-17.8-8.8-37.9-13.8-59.1-13.8c-51.8,0-96.6,29.5-118.6,72.6
		c-6.4,12.6-19.2,10.9-24.7,10.9c-40.1,0-74.2,25.9-86.5,61.8c-2,6-6.9,10.5-12.9,12.6C32.9,168.9,17.1,190.7,18,216
		c1.2,30.2,26.8,53.6,57,53.6h118.2C163.1,269.6,137.4,246.1,136.3,216L136.3,216z"/>
	<g>
		<path d="M252.8,277.1h-71.4c-4.1,0-7.5-3.4-7.5-7.5s3.4-7.5,7.5-7.5h71.4c4.1,0,7.5,3.4,7.5,7.5S257,277.1,252.8,277.1z"/>
	</g>
	<g>
		<path class="st2" d="M351.9,277.1h-15.1c-4.1,0-7.5-3.4-7.5-7.5s3.4-7.5,7.5-7.5h15.1c4.1,0,7.5,3.4,7.5,7.5
			S356.1,277.1,351.9,277.1z"/>
	</g>
	<g>
		<path class="st3" d="M373.5,229.4H160c-8,0-14.8,6.8-14.8,14.8V295c0,8,6.8,14.8,14.8,14.8h213.5c8,0,14.8-6.8,14.8-14.8v-50.8
			C388.3,236.2,381.5,229.4,373.5,229.4z"/>
	</g>
	<path class="st4" d="M193.4,295v-50.8c0-8,6.8-14.8,14.8-14.8H160c-8,0-14.8,6.8-14.8,14.8V295c0,8,6.8,14.8,14.8,14.8h48.2
		C200.1,309.8,193.4,303,193.4,295z"/>
	<g>
		<path class="st4" d="M252.8,277.1h-71.4c-4.1,0-7.5-3.4-7.5-7.5s3.4-7.5,7.5-7.5h71.4c4.1,0,7.5,3.4,7.5,7.5
			S257,277.1,252.8,277.1z"/>
	</g>
	<g>
		<path class="st1" d="M351.9,277.1h-15.1c-4.1,0-7.5-3.4-7.5-7.5s3.4-7.5,7.5-7.5h15.1c4.1,0,7.5,3.4,7.5,7.5
			S356.1,277.1,351.9,277.1z"/>
	</g>
	<g>
		<path d="M252.8,198.8h-71.4c-4.1,0-7.5-3.4-7.5-7.5s3.4-7.5,7.5-7.5h71.4c4.1,0,7.5,3.4,7.5,7.5S257,198.8,252.8,198.8z"/>
	</g>
	<g>
		<path class="st2" d="M351.9,198.8h-15.1c-4.1,0-7.5-3.4-7.5-7.5s3.4-7.5,7.5-7.5h15.1c4.1,0,7.5,3.4,7.5,7.5
			S356.1,198.8,351.9,198.8z"/>
	</g>
	<g>
		<path class="st5" d="M373.5,152.1H160c-8,0-14.8,6.8-14.8,14.8v48.8c0,8,6.8,14.8,14.8,14.8h213.5c8,0,14.8-6.8,14.8-14.8v-48.8
			C388.3,158.8,381.5,152.1,373.5,152.1L373.5,152.1z"/>
	</g>
	<path class="st3" d="M193.4,215.7v-48.8c0-8,6.8-14.8,14.8-14.8H160c-8,0-14.8,6.8-14.8,14.8v48.8c0,8,6.8,14.8,14.8,14.8h48.2
		C200.1,230.4,193.4,223.7,193.4,215.7z"/>
	<g>
		<path class="st3" d="M252.8,198.8h-71.4c-4.1,0-7.5-3.4-7.5-7.5s3.4-7.5,7.5-7.5h71.4c4.1,0,7.5,3.4,7.5,7.5
			S257,198.8,252.8,198.8z"/>
	</g>
	<g>
		<path class="st1" d="M351.9,198.8h-15.1c-4.1,0-7.5-3.4-7.5-7.5s3.4-7.5,7.5-7.5h15.1c4.1,0,7.5,3.4,7.5,7.5
			S356.1,198.8,351.9,198.8z"/>
	</g>
	<g>
		<path class="st2" d="M307.4,277.1h-15.1c-4.1,0-7.5-3.4-7.5-7.5s3.4-7.5,7.5-7.5h15.1c4.1,0,7.5,3.4,7.5,7.5
			S311.5,277.1,307.4,277.1z"/>
	</g>
	<g>
		<path class="st1" d="M307.4,277.1h-15.1c-4.1,0-7.5-3.4-7.5-7.5s3.4-7.5,7.5-7.5h15.1c4.1,0,7.5,3.4,7.5,7.5
			S311.5,277.1,307.4,277.1z"/>
	</g>
	<g>
		<path class="st2" d="M307.4,198.8h-15.1c-4.1,0-7.5-3.4-7.5-7.5s3.4-7.5,7.5-7.5h15.1c4.1,0,7.5,3.4,7.5,7.5
			S311.5,198.8,307.4,198.8z"/>
	</g>
	<g>
		<path class="st1" d="M307.4,198.8h-15.1c-4.1,0-7.5-3.4-7.5-7.5s3.4-7.5,7.5-7.5h15.1c4.1,0,7.5,3.4,7.5,7.5
			S311.5,198.8,307.4,198.8z"/>
	</g>
	<g>
		<path class="st5" d="M373.5,308.8H160c-8,0-14.8,6.8-14.8,14.8v48.8c0,8,6.8,14.8,14.8,14.8h213.5c8,0,14.8-6.8,14.8-14.8v-48.8
			C388.3,315.6,381.5,308.8,373.5,308.8z"/>
	</g>
	<path class="st3" d="M193.4,372.4v-48.8c0-8,6.8-14.8,14.8-14.8H160c-8,0-14.8,6.8-14.8,14.8v48.8c0,8,6.8,14.8,14.8,14.8h48.2
		C200.1,387.1,193.4,380.4,193.4,372.4z"/>
	<g>
		<path class="st3" d="M252.8,355.5h-71.4c-4.1,0-7.5-3.4-7.5-7.5c0-4.1,3.4-7.5,7.5-7.5h71.4c4.1,0,7.5,3.4,7.5,7.5
			C260.3,352.1,257,355.5,252.8,355.5z"/>
	</g>
	<g>
		<path class="st1" d="M351.9,355.5h-15.1c-4.1,0-7.5-3.4-7.5-7.5c0-4.1,3.4-7.5,7.5-7.5h15.1c4.1,0,7.5,3.4,7.5,7.5
			C359.5,352.1,356.1,355.5,351.9,355.5z"/>
	</g>
	<g>
		<path class="st1" d="M307.4,355.5h-15.1c-4.1,0-7.5-3.4-7.5-7.5c0-4.1,3.4-7.5,7.5-7.5h15.1c4.1,0,7.5,3.4,7.5,7.5
			C314.9,352.1,311.5,355.5,307.4,355.5z"/>
	</g>
</g>
</svg>
