<?xml version="1.0" encoding="utf-8"?>
<!-- Generator: Adobe Illustrator 24.1.2, SVG Export Plug-In . SVG Version: 6.00 Build 0)  -->
<svg version="1.1" id="Layer_1" xmlns="http://www.w3.org/2000/svg" xmlns:xlink="http://www.w3.org/1999/xlink" x="0px" y="0px"
	 viewBox="0 0 402 322" style="enable-background:new 0 0 402 322;" xml:space="preserve">
<style type="text/css">
	.st0{fill:#D2F1FC;}
	.st1{fill:#9AD9FC;}
	.st2{fill:#F5FAFE;stroke:#9AD9FC;stroke-width:2;stroke-miterlimit:10;stroke-dasharray:3,3;}
	.st3{fill:#0A84F2;}
	.st4{fill:#005EB8;}
	.st5{fill:#0F89DB;}
	.st6{fill:#FBB040;}
	.st7{fill:#ED8B00;}
	.st8{fill:#C3E9F4;}
	.st9{fill:#FFFFFF;}
	.st10{fill:#70BEF2;}
	.st11{fill:#F5FAFE;}
	.st12{clip-path:url(#SVGID_2_);}
	.st13{fill:none;stroke:#9AD9FC;stroke-width:2;stroke-miterlimit:10;stroke-dasharray:3,3;}
</style>
<path class="st0" d="M303.1,113.3l1-5.2l1,5.2c0.4,2,2,3.6,4,4l5.2,1l-5.2,1c-2,0.4-3.6,2-4,4l-1,5.2l-1-5.2c-0.4-2-2-3.6-4-4
	l-5.2-1l5.2-1C301.1,116.9,302.7,115.3,303.1,113.3z"/>
<path class="st0" d="M25.6,118.6l1-5.2l1,5.2c0.4,2,2,3.6,4,4l5.2,1l-5.2,1c-2,0.4-3.6,2-4,4l-1,5.2l-1-5.2c-0.4-2-2-3.6-4-4l-5.2-1
	l5.2-1C23.6,122.2,25.2,120.6,25.6,118.6z"/>
<path class="st0" d="M64.6,273l1-5.2l1,5.2c0.4,2,2,3.6,4,4l5.2,1l-5.2,1c-2,0.4-3.6,2-4,4l-1,5.2l-1-5.2c-0.4-2-2-3.6-4-4l-5.2-1
	l5.2-1C62.6,276.7,64.2,275.1,64.6,273z"/>
<path class="st1" d="M40.7,216.6l0.8-4.1l0.8,4.1c0.3,1.6,1.6,2.9,3.2,3.2l4.1,0.8l-4.1,0.8c-1.6,0.3-2.9,1.6-3.2,3.2l-0.8,4.1
	l-0.8-4.1c-0.3-1.6-1.6-2.9-3.2-3.2l-4.1-0.8l4.1-0.8C39.2,219.4,40.4,218.2,40.7,216.6z"/>
<path class="st1" d="M274.2,65l0.8-4.1l0.8,4.1c0.3,1.6,1.6,2.9,3.2,3.2l4.1,0.8l-4.1,0.8c-1.6,0.3-2.9,1.6-3.2,3.2l-0.8,4.1
	l-0.8-4.1c-0.3-1.6-1.6-2.9-3.2-3.2l-4.1-0.8l4.1-0.8C272.7,67.9,273.9,66.6,274.2,65z"/>
<path class="st1" d="M349.2,261.8l0.7-3.6l0.7,3.6c0.3,1.4,1.4,2.5,2.8,2.8l3.6,0.7l-3.6,0.7c-1.4,0.3-2.5,1.4-2.8,2.8l-0.7,3.6
	l-0.7-3.6c-0.3-1.4-1.4-2.5-2.8-2.8l-3.6-0.7l3.6-0.7C347.8,264.3,348.9,263.2,349.2,261.8z"/>
<path class="st0" d="M32.8,295l0.7-3.5l0.7,3.5c0.3,1.4,1.3,2.4,2.7,2.7l3.5,0.7l-3.5,0.7c-1.4,0.3-2.4,1.3-2.7,2.7l-0.7,3.5
	l-0.7-3.5c-0.3-1.4-1.3-2.4-2.7-2.7l-3.5-0.7l3.5-0.7C31.4,297.5,32.5,296.4,32.8,295z"/>
<path class="st0" d="M154,45.8l0.5-2.7l0.5,2.7c0.2,1.1,1,1.9,2.1,2.1l2.7,0.5l-2.7,0.5c-1.1,0.2-1.9,1-2.1,2.1l-0.5,2.7L154,51
	c-0.2-1.1-1-1.9-2.1-2.1l-2.7-0.5l2.7-0.5C153,47.7,153.8,46.8,154,45.8z"/>
<path class="st1" d="M156.9,25.2l0.7-3.6l0.7,3.6c0.3,1.4,1.4,2.5,2.8,2.8l3.6,0.7l-3.6,0.7c-1.4,0.3-2.5,1.4-2.8,2.8l-0.7,3.6
	l-0.7-3.6c-0.3-1.4-1.4-2.5-2.8-2.8l-3.6-0.7l3.6-0.7C155.5,27.7,156.6,26.6,156.9,25.2z"/>
<path class="st2" d="M288.4,286.1H134.2c-6,0-10.9-4.9-10.9-10.9v-23.2c0-6,4.9-10.9,10.9-10.9h154.2c6,0,10.9,4.9,10.9,10.9v23.2
	C299.3,281.2,294.5,286.1,288.4,286.1z"/>
<g>
	<path class="st2" d="M162.3,221.5h-37.6c-5.9,0-10.7-4.8-10.7-10.7v-37.6c0-5.9,4.8-10.7,10.7-10.7h37.6c5.9,0,10.7,4.8,10.7,10.7
		v37.6C173,216.7,168.2,221.5,162.3,221.5z"/>
	<g>
		<g>
			<polygon class="st3" points="146.7,207.5 131.4,207.5 130.2,212 147.9,212 			"/>
			<path class="st3" d="M141.7,187.9h-2.6h-2.6c0,0-0.3,10.8-4.4,19.6c2.7,0,7,0,7,0s4.4,0,7,0C142,198.7,141.7,187.9,141.7,187.9z"
				/>
			<path class="st3" d="M139.1,178.4c-3.4,0-4.1,0.1-4.1,2.2c0,2.1,1.2,4.8,2.2,6.5c1.4,0,1.9,0,1.9,0s0.5,0,1.9,0
				c1.1-1.7,2.2-4.4,2.2-6.5C143.2,178.5,142.4,178.4,139.1,178.4z"/>
			<polygon class="st4" points="141.6,174.5 139.8,174.5 139.8,172 138.4,172 138.4,174.5 136.5,174.5 136.5,175.9 138.4,175.9 
				138.4,178.4 139.8,178.4 139.8,175.9 141.6,175.9 			"/>
			<path class="st4" d="M141,178.5c0,0,1.1,1.2,0,4.1c-1,2.6-3.2,2.2-5.4,1.5c0.4,1.1,1,2.3,1.5,3.1c1.4,0,1.9,0,1.9,0s0.5,0,1.9,0
				c1.1-1.7,2.2-4.4,2.2-6.5C143.2,179,142.8,178.6,141,178.5z"/>
			<path class="st4" d="M141.7,187.9h-2.6h-2.6c0,0,0,0.8-0.1,2.1h0c0,0,0.5,0,1.8,0s1.9,0.2,2.6,4.6c0.6,4.4,2,8.9,2.6,10.1
				c0.6,1.1,0.8,2.2-2.6,2.2c-2.5,0-6.5,0-8.3,0c-0.1,0.2-0.2,0.5-0.3,0.7c2.7,0,7,0,7,0s4.4,0,7,0
				C142,198.7,141.7,187.9,141.7,187.9z"/>
			<polygon class="st4" points="141.5,207.5 142.2,212 147.9,212 146.7,207.5 			"/>
			<path class="st5" d="M142.6,188.5h-7.1c-0.4,0-0.7-0.3-0.7-0.7v-0.7c0-0.4,0.3-0.7,0.7-0.7h7.1c0.4,0,0.7,0.3,0.7,0.7v0.7
				C143.3,188.2,143,188.5,142.6,188.5z"/>
		</g>
		<g>
			<polygon class="st6" points="155.7,207.8 141.4,207.8 140.3,212 156.9,212 			"/>
			<polygon class="st7" points="150.8,207.8 151.5,212 156.9,212 155.7,207.8 			"/>
			<path class="st6" d="M143.4,207.8c0,0-1.5-1.6-1.5-2.9s1.8-2,2.9-5.4s1.3-4.7,1.2-5.1c-0.2-0.4-1.8-0.6-2.5,0.4
				c-0.7,1-0.5,1.1-1.8,1.1s-1.6-0.2-2.2-1.5c-0.5-1.2-0.7-1.7,0.3-2.5c0.9-0.9,4.6-3.8,6.1-4.8c1.5-0.9,1.9-0.7,2.7-0.7
				c0.8,0,1.6,0,1.6,0v-2.7c0,0,5.9,6.1,5.9,16.4c0,2.8,0.3,4.3-0.4,5.6c-0.7,1.3-1.1,2-1.1,2H143.4z"/>
			<path class="st7" d="M141.9,205.4c0.3,1.1,1.4,2.4,1.4,2.4h11.1c0,0,0.4-0.7,1.1-2c0.1-0.1,0.1-0.2,0.2-0.4H141.9z"/>
			<path class="st7" d="M152.8,199.8c-0.3,3.7-1.8,4.6-3.6,4.6c-1.8,0-7.2,0-7.2,0c-0.1,0.2-0.1,0.3-0.1,0.5c0,0.1,0,0.3,0.1,0.5
				c0,0,9.1,0,11.9,0c1-5.2,1.6-13.5-3.7-21.6C153.4,192,153,196.1,152.8,199.8z"/>
			<path class="st7" d="M147.6,194.7c-1.2,0-1.7-0.4-1.7-0.4l0,0c0.1,0,0.1,0.1,0.1,0.1c0.1,0.2,0.1,0.7-0.1,1.5
				c0.4,0.2,1,0.4,1.7,0.4c1.5,0,3.4-1.2,3.1-4.5C150.3,194.3,148.8,194.7,147.6,194.7z"/>
			<path class="st7" d="M140.8,193.7l-0.3-0.4c-0.1-0.1-0.1-0.3,0.1-0.4l0.8-0.5C141.3,192.4,140.9,193,140.8,193.7z"/>
			<path class="st7" d="M147.5,188.2c0,0-1.5,0.4-2,1c0,0,0,0.1,0,0.2c0.4,0.6,0.8,0.6,1.1,0.5c0.3-0.1,0.5-0.6,0.3-1
				C147,188.4,147.5,188.2,147.5,188.2z"/>
			<path class="st7" d="M152.5,187.1c-0.2,0.7-0.4,1.1-0.5,1.3c0,0.1-0.1,0.1-0.1,0.2l0.4,0.1c0,0,0,0,0,0c0,0,0,0,0-0.1
				c0.1-0.2,0.2-0.5,0.4-1C152.7,187.4,152.6,187.2,152.5,187.1z"/>
			<path class="st7" d="M153.5,189c-0.1-0.2-0.2-0.4-0.3-0.5c-0.3,0.9-0.7,1.4-0.7,1.4l0.1,0.2l-0.1-0.2l0.3,0.3
				C152.8,190.1,153.2,189.8,153.5,189z"/>
			<path class="st7" d="M154,190.2c-0.4,1.2-1,1.5-1,1.5l0.1,0.2l0.1,0.2c0,0,0.6-0.3,1-1.3C154.2,190.5,154.1,190.3,154,190.2z"/>
			<path class="st7" d="M155.1,193.1c0-0.2-0.1-0.3-0.1-0.5c-0.8,0.8-1.4,1.2-1.4,1.2l0.2,0.4C153.8,194.2,154.4,193.9,155.1,193.1z
				"/>
			<path class="st7" d="M155.5,195.2l-1.7,1.3l0.2,0.3l1.6-1.1C155.6,195.5,155.6,195.3,155.5,195.2z"/>
			<path class="st7" d="M155.9,198l-2,1.2l0.2,0.4l1.8-1.1C156,198.3,155.9,198.1,155.9,198z"/>
			<path class="st7" d="M156,201l-2.2,0.8l0.1,0.4l2-0.7C156,201.3,156,201.2,156,201z"/>
			<path class="st7" d="M156.1,203.8l-2.4,0.2l0,0.4l2.3-0.2C156.1,204.1,156.1,204,156.1,203.8z"/>
		</g>
	</g>
</g>
<g>
	<path class="st2" d="M304.1,221h-37.6c-5.9,0-10.7-4.8-10.7-10.7v-37.6c0-5.9,4.8-10.7,10.7-10.7h37.6c5.9,0,10.7,4.8,10.7,10.7
		v37.6C314.8,216.3,310,221,304.1,221z"/>
	<g>
		<polygon class="st8" points="281.2,198.8 281.2,208 283.1,209.4 287.5,209.4 289.4,208 289.4,198.8 		"/>
		<path class="st6" d="M297,183.2c0-6.4-5.1-11.6-11.5-11.7c-6.4-0.1-11.8,5.1-11.9,11.5c0,2.8,0.9,5.4,2.6,7.5
			c1.6,2,2.6,4.5,2.6,7.2v0.5c0,2.3,1.9,4.2,4.2,4.2h4.6c2.3,0,4.2-1.9,4.2-4.2v-0.3c0-2.7,1-5.3,2.6-7.4
			C296,188.5,297,186,297,183.2z"/>
		<g>
			<path class="st9" d="M279.1,189.2c-0.3,0-0.6-0.1-0.8-0.4c-1.3-1.6-2-3.6-2-5.7c0-3.1,1.7-5.9,4.3-7.5c0.5-0.3,1.1-0.1,1.4,0.3
				c0.3,0.5,0.1,1.1-0.3,1.4c-2,1.2-3.3,3.4-3.3,5.8c0,1.6,0.5,3.1,1.5,4.4c0.4,0.4,0.3,1.1-0.2,1.5
				C279.6,189.2,279.3,189.2,279.1,189.2z"/>
		</g>
		<g>
			<path class="st10" d="M289.6,208.9H281c-0.5,0-0.9-0.3-1-0.8c-0.1-0.5,0.1-1,0.6-1.2l4.2-1.9H281c-0.6,0-1-0.5-1-1
				c0-0.6,0.5-1,1-1h8.6c0.5,0,0.9,0.3,1,0.8c0.1,0.5-0.1,1-0.6,1.2l-4.2,1.9h3.8c0.6,0,1,0.5,1,1
				C290.6,208.4,290.2,208.9,289.6,208.9z"/>
		</g>
		<path class="st10" d="M285.3,211.6c1.2,0,2.2-1,2.2-2.2h-4.4C283.1,210.6,284.1,211.6,285.3,211.6z"/>
	</g>
</g>
<g>
	<path class="st2" d="M162,221.5h-37.6c-5.9,0-10.7-4.8-10.7-10.7v-37.6c0-5.9,4.8-10.7,10.7-10.7H162c5.9,0,10.7,4.8,10.7,10.7
		v37.6C172.7,216.7,167.9,221.5,162,221.5z"/>
	<g>
		<g>
			<path class="st6" d="M151.6,188.4l-0.5-1.6l1.1-1l0.1-0.6l-0.9-1.3l0.8-1.5l1.6,0.1l0.5-0.4l0.2-1.6l1.6-0.5l1,1.1l0.6,0.1
				l1.3-0.9l1.5,0.8l-0.1,1.6l0.4,0.5l1.6,0.2l0.5,1.6l-1.1,1l-0.1,0.6l0.9,1.3l-0.8,1.5l-1.6-0.1l-0.5,0.4l-0.2,1.6l-1.6,0.5
				l-1-1.1l-0.6-0.1l-1.3,0.9l-1.4-0.8l0.1-1.6l-0.4-0.5L151.6,188.4z"/>
			<ellipse class="st11" cx="157" cy="185.9" rx="2.9" ry="2.9"/>
			<path class="st7" d="M158.1,189.1c0,0-0.1,0-0.1,0c-0.9,0.3-1.8,0.2-2.6-0.2c-0.8-0.4-1.4-1.1-1.6-2c-0.6-1.8,0.5-3.6,2.2-4.2
				c0.9-0.3,1.8-0.2,2.6,0.2c0.8,0.4,1.4,1.1,1.6,2c0.3,0.9,0.2,1.8-0.2,2.6C159.5,188.2,158.9,188.8,158.1,189.1z M156.1,183.4
				c-1.4,0.5-2.1,1.9-1.7,3.3c0.2,0.7,0.7,1.2,1.3,1.6c0.6,0.3,1.4,0.4,2.1,0.2l0,0c0.7-0.2,1.2-0.7,1.6-1.3
				c0.3-0.6,0.4-1.4,0.2-2.1c-0.2-0.7-0.7-1.2-1.3-1.6c-0.6-0.3-1.4-0.4-2.1-0.2C156.1,183.4,156.1,183.4,156.1,183.4z"/>
		</g>
		<g>
			<defs>
				<rect id="SVGID_1_" x="140" y="184.1" width="10.1" height="20"/>
			</defs>
			<clipPath id="SVGID_2_">
				<use xlink:href="#SVGID_1_"  style="overflow:visible;"/>
			</clipPath>
			<g class="st12">
				<path class="st5" d="M130.9,198.2l-0.9-2.7l2-1.8l0.1-1l-1.6-2.2l1.3-2.5l2.7,0.1l0.8-0.7l0.4-2.7l2.7-0.9l1.8,2l1,0.1l2.2-1.6
					l2.5,1.3l-0.1,2.7l0.7,0.8l2.7,0.4l0.9,2.7l-2,1.8l-0.1,1.1l1.6,2.2l-1.3,2.5l-2.7-0.1l-0.8,0.7l-0.4,2.7l-2.7,0.9l-1.8-2
					l-1.1-0.1l-2.2,1.6l-2.5-1.3l0.1-2.7l-0.7-0.8L130.9,198.2z"/>
				<ellipse class="st11" cx="140" cy="193.9" rx="5" ry="5"/>
				<path class="st4" d="M141.9,199.4c-0.1,0-0.2,0.1-0.2,0.1c-1.5,0.4-3,0.3-4.4-0.4s-2.3-2-2.8-3.4c-0.9-3,0.8-6.2,3.9-7.2
					c1.5-0.4,3-0.3,4.4,0.4c1.4,0.7,2.3,2,2.8,3.4c0.4,1.5,0.3,3-0.4,4.4C144.4,197.9,143.3,198.9,141.9,199.4z M138.5,189.6
					c-2.3,0.8-3.6,3.3-2.9,5.7c0.4,1.2,1.1,2.1,2.3,2.7c1.1,0.6,2.3,0.7,3.5,0.3l0,0c1.2-0.4,2.1-1.1,2.7-2.3
					c0.6-1.1,0.7-2.3,0.3-3.5c-0.4-1.2-1.1-2.1-2.3-2.7c-1.1-0.6-2.3-0.7-3.5-0.3C138.5,189.5,138.5,189.5,138.5,189.6z"/>
			</g>
		</g>
		<g>
			<rect x="136.2" y="185.1" class="st5" width="2.5" height="2.5"/>
			<rect x="136.2" y="190.4" class="st4" width="2.5" height="2.5"/>
			<rect x="136.2" y="195.5" class="st5" width="2.5" height="2.5"/>
			<rect x="136.2" y="200.5" class="st5" width="2.5" height="2.5"/>
			<rect x="132.5" y="193.8" class="st4" width="2.5" height="2.5"/>
			<rect x="131.8" y="189.7" class="st5" width="2.5" height="2.5"/>
			<rect x="131.5" y="185.7" class="st4" width="2.5" height="2.5"/>
			<rect x="131.5" y="198.2" class="st4" width="2.5" height="2.5"/>
			<rect x="128.4" y="195.1" class="st5" width="2.5" height="2.5"/>
			<rect x="127.1" y="191.5" class="st5" width="2.5" height="2.5"/>
			<rect x="122.8" y="191.5" class="st5" width="2.5" height="2.5"/>
			<rect x="124.5" y="186.9" class="st4" width="2.5" height="2.5"/>
			<rect x="124" y="196.7" class="st4" width="2.5" height="2.5"/>
			<rect x="126.5" y="200.8" class="st5" width="2.5" height="2.5"/>
		</g>
	</g>
</g>
<g>
	<path class="st2" d="M90,118.6H52.4c-5.9,0-10.7-4.8-10.7-10.7V70.4c0-5.9,4.8-10.7,10.7-10.7H90c5.9,0,10.7,4.8,10.7,10.7V108
		C100.7,113.9,95.9,118.6,90,118.6z"/>
	<g>
		<path class="st4" d="M88.9,105H53.5c-1.3,0-2.3-1-2.3-2.3V78.9c0-1.3,1-2.3,2.3-2.3h35.4c1.3,0,2.3,1,2.3,2.3v23.8
			C91.2,103.9,90.2,105,88.9,105z"/>
		<path class="st5" d="M85.3,94.7H57.1c-3.3,0-5.9-2.7-5.9-5.9v-9.9c0-1.3,1-2.3,2.3-2.3h35.4c1.3,0,2.3,1,2.3,2.3v9.9
			C91.2,92,88.6,94.7,85.3,94.7z"/>
		<path class="st8" d="M71.9,97.3h-1.3c-0.7,0-1.3-0.6-1.3-1.3v-2.6c0-0.7,0.6-1.3,1.3-1.3h1.3c0.7,0,1.3,0.6,1.3,1.3v2.6
			C73.2,96.7,72.6,97.3,71.9,97.3z"/>
		<path class="st5" d="M70.5,96.3c-0.2,0-0.4-0.2-0.4-0.4v-2.6c0-0.2,0.2-0.4,0.4-0.4h1.3c0.2,0,0.4,0.2,0.4,0.4v2.6
			c0,0.2-0.2,0.4-0.4,0.4H70.5z"/>
		<path class="st4" d="M67.2,76.5v-3c0-0.1,0.1-0.2,0.2-0.2h7.7c0.1,0,0.2,0.1,0.2,0.2v3h2v-3c0-1.2-1-2.2-2.2-2.2h-7.7
			c-1.2,0-2.2,1-2.2,2.2v3H67.2z"/>
		<rect x="55.9" y="75.6" class="st4" width="6.8" height="1"/>
		<rect x="79.8" y="75.6" class="st4" width="6.8" height="1"/>
	</g>
</g>
<g>
	<path class="st2" d="M370.2,118.2h-37.6c-5.9,0-10.7-4.8-10.7-10.7V69.9c0-5.9,4.8-10.7,10.7-10.7h37.6c5.9,0,10.7,4.8,10.7,10.7
		v37.6C380.8,113.4,376.1,118.2,370.2,118.2z"/>
	<g>
		<g>
			<g>
				<g>
					<path class="st4" d="M351.4,106.6l-15.9-9.2V79l15.9-9.2l15.9,9.2v18.4L351.4,106.6z M336.9,96.6l14.5,8.4l14.5-8.4V79.9
						l-14.5-8.4l-14.5,8.4V96.6z"/>
				</g>
				<g>
					<rect x="350.7" y="73.1" class="st4" width="1.4" height="11"/>
				</g>
				<g>
					<rect x="350.7" y="92.3" class="st4" width="1.4" height="12"/>
				</g>
				<g>
					
						<rect x="336.9" y="92.5" transform="matrix(0.8879 -0.4601 0.4601 0.8879 -4.465 168.1723)" class="st4" width="11.7" height="1.4"/>
				</g>
				<g>
					
						<rect x="359.5" y="87.2" transform="matrix(0.4595 -0.8882 0.8882 0.4595 111.7711 370.4417)" class="st4" width="1.4" height="12.4"/>
				</g>
				<g>
					
						<rect x="354.1" y="82.3" transform="matrix(0.888 -0.4599 0.4599 0.888 2.1902 174.9815)" class="st4" width="12.4" height="1.4"/>
				</g>
				<g>
					
						<rect x="342" y="77" transform="matrix(0.4595 -0.8882 0.8882 0.4595 111.415 349.2506)" class="st4" width="1.4" height="12.1"/>
				</g>
				<g>
					<rect x="350.7" y="72.1" class="st4" width="1.4" height="13"/>
				</g>
				<g>
					<circle class="st6" cx="351.4" cy="70.7" r="2.5"/>
				</g>
				<g>
					<circle class="st6" cx="336.2" cy="79.5" r="2.5"/>
				</g>
				<g>
					<circle class="st6" cx="336.2" cy="96.8" r="2.5"/>
				</g>
				<g>
					<circle class="st6" cx="366.6" cy="79.5" r="2.5"/>
				</g>
				<g>
					<circle class="st6" cx="366.6" cy="96.8" r="2.5"/>
				</g>
				<g>
					<circle class="st6" cx="351.4" cy="105.8" r="2.5"/>
				</g>
				<g>
					<path class="st7" d="M351.4,83.8c-2.5,0-4.5,2-4.5,4.5c0,2.5,2,4.5,4.5,4.5c2.5,0,4.5-2,4.5-4.5
						C355.8,85.8,353.8,83.8,351.4,83.8z"/>
				</g>
			</g>
		</g>
	</g>
</g>
<g>
	<path class="st2" d="M230.1,118.2h-37.6c-5.9,0-10.7-4.8-10.7-10.7V70c0-5.9,4.8-10.7,10.7-10.7h37.6c5.9,0,10.7,4.8,10.7,10.7
		v37.6C240.8,113.4,236,118.2,230.1,118.2z"/>
	<g>
		<g>
			<polygon class="st3" points="214.5,104.2 199.2,104.2 198,108.8 215.7,108.8 			"/>
			<path class="st3" d="M209.5,84.7h-2.6h-2.6c0,0-0.3,10.8-4.4,19.6c2.7,0,7,0,7,0s4.4,0,7,0C209.8,95.4,209.5,84.7,209.5,84.7z"/>
			<path class="st3" d="M206.8,75.2c-3.4,0-4.1,0.1-4.1,2.2s1.2,4.8,2.2,6.5c1.4,0,1.9,0,1.9,0s0.5,0,1.9,0c1.1-1.7,2.2-4.4,2.2-6.5
				S210.2,75.2,206.8,75.2z"/>
			<polygon class="st4" points="209.4,71.3 207.5,71.3 207.5,68.8 206.1,68.8 206.1,71.3 204.3,71.3 204.3,72.7 206.1,72.7 
				206.1,75.2 207.5,75.2 207.5,72.7 209.4,72.7 			"/>
			<path class="st4" d="M208.8,75.2c0,0,1.1,1.2,0,4.1c-1,2.6-3.2,2.2-5.4,1.5c0.4,1.1,1,2.3,1.5,3.1c1.4,0,1.9,0,1.9,0s0.5,0,1.9,0
				c1.1-1.7,2.2-4.4,2.2-6.5C211,75.7,210.5,75.3,208.8,75.2z"/>
			<path class="st4" d="M209.5,84.7h-2.6h-2.6c0,0,0,0.8-0.1,2.1l0,0c0,0,0.5,0,1.8,0c1.3,0,1.9,0.2,2.6,4.6c0.6,4.4,2,8.9,2.6,10.1
				c0.6,1.1,0.8,2.2-2.6,2.2c-2.5,0-6.5,0-8.3,0c-0.1,0.2-0.2,0.5-0.3,0.7c2.7,0,7,0,7,0s4.4,0,7,0
				C209.8,95.4,209.5,84.7,209.5,84.7z"/>
			<polygon class="st4" points="209.2,104.2 210,108.8 215.7,108.8 214.5,104.2 			"/>
			<path class="st5" d="M210.4,85.2h-7.1c-0.4,0-0.7-0.3-0.7-0.7v-0.7c0-0.4,0.3-0.7,0.7-0.7h7.1c0.4,0,0.7,0.3,0.7,0.7v0.7
				C211.1,84.9,210.8,85.2,210.4,85.2z"/>
		</g>
		<g>
			<polygon class="st6" points="223.5,104.5 209.2,104.5 208,108.8 224.6,108.8 			"/>
			<polygon class="st7" points="218.6,104.5 219.3,108.8 224.6,108.8 223.5,104.5 			"/>
			<path class="st6" d="M211.1,104.5c0,0-1.5-1.6-1.5-2.9c0-1.2,1.8-2,2.9-5.4c1.1-3.3,1.3-4.7,1.2-5.1c-0.2-0.4-1.8-0.6-2.5,0.4
				c-0.7,1-0.5,1.1-1.8,1.1c-1.3,0-1.6-0.2-2.2-1.5c-0.5-1.2-0.7-1.7,0.3-2.5c0.9-0.9,4.6-3.8,6.1-4.8c1.5-0.9,1.9-0.7,2.7-0.7
				c0.8,0,1.6,0,1.6,0v-2.7c0,0,5.9,6.1,5.9,16.4c0,2.8,0.3,4.3-0.4,5.6c-0.7,1.3-1.1,2-1.1,2H211.1z"/>
			<path class="st7" d="M209.7,102.1c0.3,1.1,1.4,2.4,1.4,2.4h11.1c0,0,0.4-0.7,1.1-2c0.1-0.1,0.1-0.2,0.2-0.4H209.7z"/>
			<path class="st7" d="M220.5,96.5c-0.3,3.7-1.8,4.6-3.6,4.6c-1.8,0-7.2,0-7.2,0c-0.1,0.2-0.1,0.3-0.1,0.5c0,0.1,0,0.3,0.1,0.5
				c0,0,9.1,0,11.9,0c1-5.2,1.6-13.5-3.7-21.6C221.2,88.7,220.8,92.8,220.5,96.5z"/>
			<path class="st7" d="M215.3,91.4c-1.2,0-1.7-0.4-1.7-0.4l0,0c0.1,0,0.1,0.1,0.1,0.1c0.1,0.2,0.1,0.7-0.1,1.5
				c0.4,0.2,1,0.4,1.7,0.4c1.5,0,3.4-1.2,3.1-4.5C218.1,91.1,216.5,91.4,215.3,91.4z"/>
			<path class="st7" d="M208.5,90.4l-0.3-0.4c-0.1-0.1-0.1-0.3,0.1-0.4l0.8-0.5C209,89.2,208.7,89.7,208.5,90.4z"/>
			<path class="st7" d="M215.2,84.9c0,0-1.5,0.4-2,1c0,0,0,0.1,0,0.2c0.4,0.6,0.8,0.6,1.1,0.5c0.3-0.1,0.5-0.6,0.3-1
				C214.7,85.2,215.2,84.9,215.2,84.9z"/>
			<path class="st7" d="M220.3,83.8c-0.2,0.7-0.4,1.1-0.5,1.3c0,0.1-0.1,0.1-0.1,0.2l0.4,0.1c0,0,0,0,0,0c0,0,0,0,0-0.1
				c0.1-0.2,0.2-0.5,0.4-1C220.4,84.2,220.3,84,220.3,83.8z"/>
			<path class="st7" d="M221.3,85.8c-0.1-0.2-0.2-0.4-0.3-0.5c-0.3,0.9-0.7,1.4-0.7,1.4l0.1,0.2l-0.1-0.2l0.3,0.3
				C220.6,86.9,220.9,86.5,221.3,85.8z"/>
			<path class="st7" d="M221.8,86.9c-0.4,1.2-1,1.5-1,1.5l0.1,0.2l0.1,0.2c0,0,0.6-0.3,1-1.3C221.9,87.3,221.9,87.1,221.8,86.9z"/>
			<path class="st7" d="M222.8,89.9c0-0.2-0.1-0.3-0.1-0.5c-0.8,0.8-1.4,1.2-1.4,1.2l0.2,0.4C221.6,91,222.1,90.6,222.8,89.9z"/>
			<path class="st7" d="M223.3,91.9l-1.7,1.3l0.2,0.3l1.6-1.1C223.4,92.2,223.3,92.1,223.3,91.9z"/>
			<path class="st7" d="M223.7,94.7l-2,1.2l0.2,0.4l1.8-1.1C223.7,95,223.7,94.9,223.7,94.7z"/>
			<path class="st7" d="M223.8,97.8l-2.2,0.8l0.1,0.4l2-0.7C223.8,98.1,223.8,97.9,223.8,97.8z"/>
			<path class="st7" d="M223.8,100.6l-2.4,0.2l0,0.4l2.3-0.2C223.8,100.9,223.8,100.7,223.8,100.6z"/>
		</g>
	</g>
</g>
<g>
	<path class="st5" d="M153.8,258.8c-1.1,0-2,0.4-2.6,1.3c-0.6,0.8-0.9,2-0.9,3.5c0,3.1,1.2,4.7,3.5,4.7c1,0,2.2-0.2,3.6-0.7v2.5
		c-1.1,0.5-2.4,0.7-3.8,0.7c-2,0-3.6-0.6-4.7-1.8c-1.1-1.2-1.6-3-1.6-5.3c0-1.5,0.3-2.7,0.8-3.8s1.3-1.9,2.3-2.5
		c1-0.6,2.2-0.9,3.5-0.9c1.4,0,2.7,0.3,4.1,1l-1,2.4c-0.5-0.2-1-0.5-1.6-0.6C154.8,258.9,154.3,258.8,153.8,258.8z"/>
	<path class="st5" d="M173,263.5c0,2.3-0.6,4.1-1.7,5.3c-1.1,1.2-2.8,1.9-4.9,1.9c-2.1,0-3.8-0.6-4.9-1.9c-1.1-1.2-1.7-3-1.7-5.4
		s0.6-4.1,1.7-5.3c1.1-1.2,2.8-1.8,4.9-1.8c2.1,0,3.8,0.6,4.9,1.9S173,261.2,173,263.5z M162.8,263.5c0,1.6,0.3,2.7,0.9,3.5
		c0.6,0.8,1.5,1.2,2.7,1.2c2.4,0,3.5-1.6,3.5-4.7c0-3.1-1.2-4.7-3.5-4.7c-1.2,0-2.1,0.4-2.7,1.2C163.1,260.8,162.8,262,162.8,263.5z
		"/>
	<path class="st5" d="M188.3,270.6h-3.8l-6.1-10.6h-0.1c0.1,1.9,0.2,3.2,0.2,4v6.6h-2.6v-14h3.7l6.1,10.5h0.1
		c-0.1-1.8-0.1-3.1-0.1-3.9v-6.6h2.7V270.6z"/>
	<path class="st5" d="M200,266.7c0,1.3-0.5,2.3-1.4,3c-0.9,0.7-2.2,1.1-3.8,1.1c-1.5,0-2.8-0.3-4-0.8v-2.8c0.9,0.4,1.7,0.7,2.4,0.9
		c0.7,0.2,1.3,0.3,1.8,0.3c0.6,0,1.1-0.1,1.5-0.4c0.3-0.2,0.5-0.6,0.5-1.1c0-0.3-0.1-0.5-0.2-0.7c-0.2-0.2-0.4-0.4-0.7-0.6
		c-0.3-0.2-0.9-0.5-1.8-0.9c-0.9-0.4-1.5-0.8-1.9-1.2s-0.8-0.8-1-1.3c-0.3-0.5-0.4-1.1-0.4-1.7c0-1.2,0.4-2.2,1.3-2.9s2-1.1,3.5-1.1
		c0.7,0,1.4,0.1,2.1,0.3s1.3,0.4,2.1,0.7l-1,2.3c-0.7-0.3-1.4-0.5-1.8-0.6c-0.5-0.1-1-0.2-1.4-0.2c-0.6,0-1,0.1-1.3,0.4
		c-0.3,0.3-0.4,0.6-0.4,1c0,0.3,0.1,0.5,0.2,0.7c0.1,0.2,0.3,0.4,0.6,0.6s0.9,0.5,1.9,1c1.3,0.6,2.2,1.3,2.7,1.9
		C199.8,265,200,265.8,200,266.7z"/>
	<path class="st5" d="M214,256.6v9c0,1-0.2,1.9-0.7,2.7c-0.5,0.8-1.1,1.4-2,1.8c-0.9,0.4-1.9,0.6-3.1,0.6c-1.8,0-3.2-0.5-4.2-1.4
		c-1-0.9-1.5-2.2-1.5-3.8v-9h3v8.6c0,1.1,0.2,1.9,0.6,2.4s1.1,0.8,2.2,0.8c1,0,1.7-0.3,2.1-0.8c0.4-0.5,0.7-1.3,0.7-2.4v-8.5H214z"
		/>
	<path class="st5" d="M217.4,270.6v-14h3v11.5h5.7v2.4H217.4z"/>
	<path class="st5" d="M233.8,270.6h-3V259h-3.8v-2.5h10.6v2.5h-3.8V270.6z"/>
	<path class="st5" d="M239.8,270.6v-14h3v14H239.8z"/>
	<path class="st5" d="M258.6,270.6h-3.8l-6.1-10.6h-0.1c0.1,1.9,0.2,3.2,0.2,4v6.6h-2.6v-14h3.7l6.1,10.5h0.1
		c-0.1-1.8-0.1-3.1-0.1-3.9v-6.6h2.7V270.6z"/>
	<path class="st5" d="M267.5,262.7h5.5v7.2c-0.9,0.3-1.7,0.5-2.5,0.6c-0.8,0.1-1.6,0.2-2.4,0.2c-2.1,0-3.7-0.6-4.8-1.9
		c-1.1-1.2-1.7-3-1.7-5.3c0-2.3,0.6-4,1.9-5.3c1.3-1.3,3.1-1.9,5.4-1.9c1.4,0,2.8,0.3,4.1,0.9l-1,2.4c-1-0.5-2.1-0.8-3.2-0.8
		c-1.3,0-2.3,0.4-3.1,1.3c-0.8,0.9-1.2,2-1.2,3.5c0,1.5,0.3,2.7,0.9,3.5c0.6,0.8,1.5,1.2,2.7,1.2c0.6,0,1.2-0.1,1.9-0.2v-2.9h-2.6
		V262.7z"/>
</g>
<g>
	<path class="st10" d="M8.6,49.7v-8.6h1.8v8.6H8.6z"/>
	<path class="st10" d="M15.9,49.7H14v-7.1h-2.3v-1.5h6.5v1.5h-2.3V49.7z"/>
	<path class="st10" d="M25.9,49.7h-1.8v-7.1h-2.3v-1.5h6.5v1.5h-2.3V49.7z"/>
	<path class="st10" d="M31.4,46.4v3.3h-1.8v-8.6h2.5c1.2,0,2,0.2,2.6,0.6s0.8,1.1,0.8,1.9c0,0.5-0.1,1-0.4,1.3s-0.7,0.7-1.2,0.9
		c1.3,1.9,2.1,3.2,2.5,3.7h-2l-2-3.3H31.4z M31.4,44.9H32c0.6,0,1-0.1,1.3-0.3s0.4-0.5,0.4-0.9c0-0.4-0.1-0.7-0.4-0.9
		s-0.7-0.3-1.3-0.3h-0.6V44.9z"/>
	<path class="st10" d="M42.7,49.7l-0.6-2H39l-0.6,2h-2l3-8.6h2.2l3,8.6H42.7z M41.7,46.1c-0.6-1.8-0.9-2.9-1-3.1s-0.1-0.4-0.2-0.6
		c-0.1,0.5-0.5,1.7-1.1,3.7H41.7z"/>
	<path class="st10" d="M53.4,49.7h-2.3l-3.7-6.5h-0.1c0.1,1.1,0.1,2,0.1,2.4v4h-1.6v-8.6h2.3l3.7,6.4h0c-0.1-1.1-0.1-1.9-0.1-2.4
		v-4.1h1.6V49.7z"/>
	<path class="st10" d="M60.6,47.3c0,0.8-0.3,1.4-0.8,1.8s-1.3,0.7-2.3,0.7c-0.9,0-1.7-0.2-2.4-0.5v-1.7c0.6,0.3,1.1,0.4,1.5,0.5
		s0.8,0.2,1.1,0.2c0.4,0,0.7-0.1,0.9-0.2s0.3-0.4,0.3-0.7c0-0.2,0-0.3-0.1-0.4s-0.2-0.3-0.4-0.4s-0.6-0.3-1.1-0.6
		c-0.5-0.2-0.9-0.5-1.2-0.7s-0.5-0.5-0.6-0.8s-0.2-0.7-0.2-1.1c0-0.8,0.3-1.4,0.8-1.8S57.1,41,58,41c0.4,0,0.9,0.1,1.3,0.2
		s0.8,0.3,1.3,0.4L59.9,43c-0.5-0.2-0.8-0.3-1.1-0.4s-0.6-0.1-0.9-0.1c-0.3,0-0.6,0.1-0.8,0.2s-0.3,0.4-0.3,0.6c0,0.2,0,0.3,0.1,0.4
		s0.2,0.2,0.4,0.3s0.5,0.3,1.2,0.6c0.8,0.4,1.3,0.8,1.6,1.2S60.6,46.8,60.6,47.3z"/>
	<path class="st10" d="M63.9,49.7h-1.8v-8.6H67v1.5h-3.1v2.2h2.9v1.5h-2.9V49.7z"/>
	<path class="st10" d="M76.5,45.4c0,1.4-0.4,2.5-1.1,3.3s-1.7,1.1-3,1.1s-2.3-0.4-3-1.1s-1.1-1.9-1.1-3.3s0.4-2.5,1.1-3.3
		s1.7-1.1,3-1.1s2.3,0.4,3,1.1S76.5,44,76.5,45.4z M70.2,45.4c0,1,0.2,1.7,0.5,2.2s0.9,0.7,1.6,0.7c1.4,0,2.2-1,2.2-2.9
		c0-1.9-0.7-2.9-2.2-2.9c-0.7,0-1.3,0.2-1.6,0.7S70.2,44.4,70.2,45.4z"/>
	<path class="st10" d="M80.1,46.4v3.3h-1.8v-8.6h2.5c1.2,0,2,0.2,2.6,0.6s0.8,1.1,0.8,1.9c0,0.5-0.1,1-0.4,1.3s-0.7,0.7-1.2,0.9
		c1.3,1.9,2.1,3.2,2.5,3.7h-2l-2-3.3H80.1z M80.1,44.9h0.6c0.6,0,1-0.1,1.3-0.3s0.4-0.5,0.4-0.9c0-0.4-0.1-0.7-0.4-0.9
		s-0.7-0.3-1.3-0.3h-0.6V44.9z"/>
	<path class="st10" d="M89.8,49.7L87.8,43h-0.1c0.1,1.4,0.1,2.3,0.1,2.7v4h-1.6v-8.6h2.5l2,6.6h0l2.2-6.6h2.5v8.6h-1.7v-4.1
		c0-0.2,0-0.4,0-0.7s0-0.9,0.1-2h-0.1l-2.2,6.7H89.8z"/>
	<path class="st10" d="M102.7,49.7l-0.6-2H99l-0.6,2h-2l3-8.6h2.2l3,8.6H102.7z M101.7,46.1c-0.6-1.8-0.9-2.9-1-3.1
		s-0.1-0.4-0.2-0.6c-0.1,0.5-0.5,1.7-1.1,3.7H101.7z"/>
	<path class="st10" d="M109.1,49.7h-1.8v-7.1h-2.3v-1.5h6.5v1.5h-2.3V49.7z"/>
	<path class="st10" d="M112.7,49.7v-8.6h1.8v8.6H112.7z"/>
	<path class="st10" d="M124.5,45.4c0,1.4-0.4,2.5-1.1,3.3s-1.7,1.1-3,1.1s-2.3-0.4-3-1.1s-1.1-1.9-1.1-3.3s0.4-2.5,1.1-3.3
		s1.7-1.1,3-1.1s2.3,0.4,3,1.1S124.5,44,124.5,45.4z M118.2,45.4c0,1,0.2,1.7,0.5,2.2s0.9,0.7,1.6,0.7c1.4,0,2.2-1,2.2-2.9
		c0-1.9-0.7-2.9-2.2-2.9c-0.7,0-1.3,0.2-1.6,0.7S118.2,44.4,118.2,45.4z"/>
	<path class="st10" d="M133.9,49.7h-2.3l-3.7-6.5h-0.1c0.1,1.1,0.1,2,0.1,2.4v4h-1.6v-8.6h2.3l3.7,6.4h0c-0.1-1.1-0.1-1.9-0.1-2.4
		v-4.1h1.6V49.7z"/>
</g>
<g>
	<path class="st10" d="M175.4,49.3v-8.6h1.8v8.6H175.4z"/>
	<path class="st10" d="M182.6,49.3h-1.8v-7.1h-2.3v-1.5h6.5v1.5h-2.3V49.3z"/>
	<path class="st10" d="M194.4,46.9c0,0.8-0.3,1.4-0.8,1.8s-1.3,0.7-2.3,0.7c-0.9,0-1.7-0.2-2.4-0.5v-1.7c0.6,0.3,1.1,0.4,1.5,0.5
		s0.8,0.2,1.1,0.2c0.4,0,0.7-0.1,0.9-0.2s0.3-0.4,0.3-0.7c0-0.2,0-0.3-0.1-0.4s-0.2-0.3-0.4-0.4s-0.6-0.3-1.1-0.6
		c-0.5-0.2-0.9-0.5-1.2-0.7s-0.5-0.5-0.6-0.8S189,43.4,189,43c0-0.8,0.3-1.4,0.8-1.8s1.2-0.7,2.1-0.7c0.4,0,0.9,0.1,1.3,0.2
		s0.8,0.3,1.3,0.4l-0.6,1.4c-0.5-0.2-0.8-0.3-1.1-0.4s-0.6-0.1-0.9-0.1c-0.3,0-0.6,0.1-0.8,0.2s-0.3,0.4-0.3,0.6
		c0,0.2,0,0.3,0.1,0.4s0.2,0.2,0.4,0.3s0.5,0.3,1.2,0.6c0.8,0.4,1.3,0.8,1.6,1.2S194.4,46.3,194.4,46.9z"/>
	<path class="st10" d="M199.3,49.3h-1.8v-7.1h-2.3v-1.5h6.5v1.5h-2.3V49.3z"/>
	<path class="st10" d="M204.8,46v3.3h-1.8v-8.6h2.5c1.2,0,2,0.2,2.6,0.6s0.8,1.1,0.8,1.9c0,0.5-0.1,1-0.4,1.3s-0.7,0.7-1.2,0.9
		c1.3,1.9,2.1,3.2,2.5,3.7h-2l-2-3.3H204.8z M204.8,44.5h0.6c0.6,0,1-0.1,1.3-0.3s0.4-0.5,0.4-0.9c0-0.4-0.1-0.7-0.4-0.9
		s-0.7-0.3-1.3-0.3h-0.6V44.5z"/>
	<path class="st10" d="M216.1,49.3l-0.6-2h-3.1l-0.6,2h-2l3-8.6h2.2l3,8.6H216.1z M215.1,45.7c-0.6-1.8-0.9-2.9-1-3.1
		s-0.1-0.4-0.2-0.6c-0.1,0.5-0.5,1.7-1.1,3.7H215.1z"/>
	<path class="st10" d="M222.5,49.3h-1.8v-7.1h-2.3v-1.5h6.5v1.5h-2.3V49.3z"/>
	<path class="st10" d="M231,49.3h-4.9v-8.6h4.9v1.5h-3.1v1.9h2.9v1.5h-2.9v2.2h3.1V49.3z"/>
	<path class="st10" d="M236.1,44.5h3.4v4.4c-0.6,0.2-1.1,0.3-1.6,0.4s-1,0.1-1.5,0.1c-1.3,0-2.3-0.4-3-1.1s-1-1.9-1-3.3
		c0-1.4,0.4-2.5,1.2-3.2s1.9-1.2,3.3-1.2c0.9,0,1.7,0.2,2.5,0.5l-0.6,1.5c-0.6-0.3-1.3-0.5-2-0.5c-0.8,0-1.4,0.3-1.9,0.8
		s-0.7,1.2-0.7,2.1c0,0.9,0.2,1.6,0.6,2.1s0.9,0.7,1.7,0.7c0.4,0,0.8,0,1.2-0.1V46h-1.6V44.5z"/>
	<path class="st10" d="M244.2,44.2l1.8-3.5h2l-2.8,5.2v3.3h-1.8V46l-2.8-5.3h2L244.2,44.2z"/>
</g>
<g>
	<path class="st10" d="M260.3,149.7c0,0.8-0.3,1.4-0.8,1.8s-1.3,0.7-2.3,0.7c-0.9,0-1.7-0.2-2.4-0.5V150c0.6,0.3,1.1,0.4,1.5,0.5
		c0.4,0.1,0.8,0.2,1.1,0.2c0.4,0,0.7-0.1,0.9-0.2s0.3-0.4,0.3-0.7c0-0.2,0-0.3-0.1-0.4s-0.2-0.3-0.4-0.4s-0.6-0.3-1.1-0.6
		c-0.5-0.2-0.9-0.5-1.2-0.7s-0.5-0.5-0.6-0.8s-0.2-0.7-0.2-1.1c0-0.8,0.3-1.4,0.8-1.8c0.5-0.4,1.2-0.7,2.1-0.7
		c0.4,0,0.9,0.1,1.3,0.2s0.8,0.3,1.3,0.4l-0.6,1.4c-0.5-0.2-0.8-0.3-1.1-0.4s-0.6-0.1-0.9-0.1c-0.3,0-0.6,0.1-0.8,0.2
		s-0.3,0.4-0.3,0.6c0,0.2,0,0.3,0.1,0.4s0.2,0.2,0.4,0.3s0.5,0.3,1.2,0.6c0.8,0.4,1.3,0.8,1.6,1.2S260.3,149.2,260.3,149.7z"/>
	<path class="st10" d="M269.6,147.8c0,1.4-0.4,2.5-1.1,3.3s-1.7,1.1-3,1.1s-2.3-0.4-3-1.1s-1.1-1.9-1.1-3.3s0.4-2.5,1.1-3.3
		s1.7-1.1,3-1.1s2.3,0.4,3,1.1S269.6,146.4,269.6,147.8z M263.4,147.8c0,1,0.2,1.7,0.5,2.2s0.9,0.7,1.6,0.7c1.4,0,2.2-1,2.2-2.9
		c0-1.9-0.7-2.9-2.2-2.9c-0.7,0-1.3,0.2-1.6,0.7S263.4,146.8,263.4,147.8z"/>
	<path class="st10" d="M271.4,152.1v-8.6h1.8v7.1h3.5v1.5H271.4z"/>
	<path class="st10" d="M285.2,143.5v5.5c0,0.6-0.1,1.2-0.4,1.7s-0.7,0.8-1.2,1.1s-1.2,0.4-1.9,0.4c-1.1,0-2-0.3-2.6-0.8
		s-0.9-1.3-0.9-2.3v-5.5h1.8v5.2c0,0.7,0.1,1.1,0.4,1.5s0.7,0.5,1.3,0.5c0.6,0,1-0.2,1.3-0.5s0.4-0.8,0.4-1.5v-5.2H285.2z"/>
	<path class="st10" d="M290.6,152.1h-1.8V145h-2.3v-1.5h6.5v1.5h-2.3V152.1z"/>
	<path class="st10" d="M294.2,152.1v-8.6h1.8v8.6H294.2z"/>
	<path class="st10" d="M306,147.8c0,1.4-0.4,2.5-1.1,3.3s-1.7,1.1-3,1.1s-2.3-0.4-3-1.1s-1.1-1.9-1.1-3.3s0.4-2.5,1.1-3.3
		s1.7-1.1,3-1.1s2.3,0.4,3,1.1S306,146.4,306,147.8z M299.7,147.8c0,1,0.2,1.7,0.5,2.2s0.9,0.7,1.6,0.7c1.4,0,2.2-1,2.2-2.9
		c0-1.9-0.7-2.9-2.2-2.9c-0.7,0-1.3,0.2-1.6,0.7S299.7,146.8,299.7,147.8z"/>
	<path class="st10" d="M315.3,152.1H313l-3.7-6.5h-0.1c0.1,1.1,0.1,2,0.1,2.4v4h-1.6v-8.6h2.3l3.7,6.4h0c-0.1-1.1-0.1-1.9-0.1-2.4
		v-4.1h1.6V152.1z"/>
</g>
<g>
	<path class="st10" d="M127.6,134.5c0,1.4-0.4,2.5-1.2,3.2s-2,1.1-3.5,1.1h-2.4v-8.6h2.7c1.4,0,2.5,0.4,3.3,1.1
		S127.6,133.2,127.6,134.5z M125.7,134.6c0-1.8-0.8-2.8-2.4-2.8h-1v5.6h0.8C124.9,137.4,125.7,136.4,125.7,134.6z"/>
	<path class="st10" d="M129.4,138.9v-8.6h1.8v8.6H129.4z"/>
	<path class="st10" d="M136.6,134.1h3.4v4.4c-0.6,0.2-1.1,0.3-1.6,0.4s-1,0.1-1.5,0.1c-1.3,0-2.3-0.4-3-1.1s-1-1.9-1-3.3
		c0-1.4,0.4-2.5,1.2-3.2s1.9-1.2,3.3-1.2c0.9,0,1.7,0.2,2.5,0.5l-0.6,1.5c-0.6-0.3-1.3-0.5-2-0.5c-0.8,0-1.4,0.3-1.9,0.8
		s-0.7,1.2-0.7,2.1c0,0.9,0.2,1.6,0.6,2.1s0.9,0.7,1.7,0.7c0.4,0,0.8,0,1.2-0.1v-1.8h-1.6V134.1z"/>
	<path class="st10" d="M142.1,138.9v-8.6h1.8v8.6H142.1z"/>
	<path class="st10" d="M149.4,138.9h-1.8v-7.1h-2.3v-1.5h6.5v1.5h-2.3V138.9z"/>
	<path class="st10" d="M158.2,138.9l-0.6-2h-3.1l-0.6,2h-2l3-8.6h2.2l3,8.6H158.2z M157.2,135.3c-0.6-1.8-0.9-2.9-1-3.1
		s-0.1-0.4-0.2-0.6c-0.1,0.5-0.5,1.7-1.1,3.7H157.2z"/>
	<path class="st10" d="M161.3,138.9v-8.6h1.8v7.1h3.5v1.5H161.3z"/>
	<path class="st10" d="M90.9,153.3h-1.8v-7.1h-2.3v-1.5h6.5v1.5h-2.3V153.3z"/>
	<path class="st10" d="M96.4,150v3.3h-1.8v-8.6H97c1.2,0,2,0.2,2.6,0.6s0.8,1.1,0.8,1.9c0,0.5-0.1,1-0.4,1.3s-0.7,0.7-1.2,0.9
		c1.3,1.9,2.1,3.2,2.5,3.7h-2l-2-3.3H96.4z M96.4,148.5h0.6c0.6,0,1-0.1,1.3-0.3s0.4-0.5,0.4-0.9c0-0.4-0.1-0.7-0.4-0.9
		s-0.7-0.3-1.3-0.3h-0.6V148.5z"/>
	<path class="st10" d="M107.7,153.3l-0.6-2H104l-0.6,2h-2l3-8.6h2.2l3,8.6H107.7z M106.7,149.7c-0.6-1.8-0.9-2.9-1-3.1
		s-0.1-0.4-0.2-0.6c-0.1,0.5-0.5,1.7-1.1,3.7H106.7z"/>
	<path class="st10" d="M118.3,153.3H116l-3.7-6.5h-0.1c0.1,1.1,0.1,2,0.1,2.4v4h-1.6v-8.6h2.3l3.7,6.4h0c-0.1-1.1-0.1-1.9-0.1-2.4
		v-4.1h1.6V153.3z"/>
	<path class="st10" d="M125.6,150.9c0,0.8-0.3,1.4-0.8,1.8s-1.3,0.7-2.3,0.7c-0.9,0-1.7-0.2-2.4-0.5v-1.7c0.6,0.3,1.1,0.4,1.5,0.5
		s0.8,0.2,1.1,0.2c0.4,0,0.7-0.1,0.9-0.2s0.3-0.4,0.3-0.7c0-0.2,0-0.3-0.1-0.4s-0.2-0.3-0.4-0.4s-0.6-0.3-1.1-0.6
		c-0.5-0.2-0.9-0.5-1.2-0.7s-0.5-0.5-0.6-0.8s-0.2-0.7-0.2-1.1c0-0.8,0.3-1.4,0.8-1.8s1.2-0.7,2.1-0.7c0.4,0,0.9,0.1,1.3,0.2
		s0.8,0.3,1.3,0.4l-0.6,1.4c-0.5-0.2-0.8-0.3-1.1-0.4s-0.6-0.1-0.9-0.1c-0.3,0-0.6,0.1-0.8,0.2s-0.3,0.4-0.3,0.6
		c0,0.2,0,0.3,0.1,0.4s0.2,0.2,0.4,0.3s0.5,0.3,1.2,0.6c0.8,0.4,1.3,0.8,1.6,1.2S125.6,150.3,125.6,150.9z"/>
	<path class="st10" d="M128.9,153.3h-1.8v-8.6h4.9v1.5h-3.1v2.2h2.9v1.5h-2.9V153.3z"/>
	<path class="st10" d="M141.5,149c0,1.4-0.4,2.5-1.1,3.3s-1.7,1.1-3,1.1s-2.3-0.4-3-1.1s-1.1-1.9-1.1-3.3s0.4-2.5,1.1-3.3
		s1.7-1.1,3-1.1s2.3,0.4,3,1.1S141.5,147.6,141.5,149z M135.2,149c0,1,0.2,1.7,0.5,2.2s0.9,0.7,1.6,0.7c1.4,0,2.2-1,2.2-2.9
		c0-1.9-0.7-2.9-2.2-2.9c-0.7,0-1.3,0.2-1.6,0.7S135.2,148,135.2,149z"/>
	<path class="st10" d="M145.1,150v3.3h-1.8v-8.6h2.5c1.2,0,2,0.2,2.6,0.6s0.8,1.1,0.8,1.9c0,0.5-0.1,1-0.4,1.3s-0.7,0.7-1.2,0.9
		c1.3,1.9,2.1,3.2,2.5,3.7h-2l-2-3.3H145.1z M145.1,148.5h0.6c0.6,0,1-0.1,1.3-0.3s0.4-0.5,0.4-0.9c0-0.4-0.1-0.7-0.4-0.9
		s-0.7-0.3-1.3-0.3h-0.6V148.5z"/>
	<path class="st10" d="M154.8,153.3l-2.1-6.7h-0.1c0.1,1.4,0.1,2.3,0.1,2.7v4h-1.6v-8.6h2.5l2,6.6h0l2.2-6.6h2.5v8.6h-1.7v-4.1
		c0-0.2,0-0.4,0-0.7s0-0.9,0.1-2h-0.1l-2.2,6.7H154.8z"/>
	<path class="st10" d="M167.7,153.3l-0.6-2H164l-0.6,2h-2l3-8.6h2.2l3,8.6H167.7z M166.7,149.7c-0.6-1.8-0.9-2.9-1-3.1
		s-0.1-0.4-0.2-0.6c-0.1,0.5-0.5,1.7-1.1,3.7H166.7z"/>
	<path class="st10" d="M174.1,153.3h-1.8v-7.1h-2.3v-1.5h6.5v1.5h-2.3V153.3z"/>
	<path class="st10" d="M177.7,153.3v-8.6h1.8v8.6H177.7z"/>
	<path class="st10" d="M189.5,149c0,1.4-0.4,2.5-1.1,3.3s-1.7,1.1-3,1.1s-2.3-0.4-3-1.1s-1.1-1.9-1.1-3.3s0.4-2.5,1.1-3.3
		s1.7-1.1,3-1.1s2.3,0.4,3,1.1S189.5,147.6,189.5,149z M183.2,149c0,1,0.2,1.7,0.5,2.2s0.9,0.7,1.6,0.7c1.4,0,2.2-1,2.2-2.9
		c0-1.9-0.7-2.9-2.2-2.9c-0.7,0-1.3,0.2-1.6,0.7S183.2,148,183.2,149z"/>
	<path class="st10" d="M198.8,153.3h-2.3l-3.7-6.5h-0.1c0.1,1.1,0.1,2,0.1,2.4v4h-1.6v-8.6h2.3l3.7,6.4h0c-0.1-1.1-0.1-1.9-0.1-2.4
		v-4.1h1.6V153.3z"/>
</g>
<g>
	<path class="st10" d="M314.6,48.9h-1.8v-7.1h-2.3v-1.5h6.5v1.5h-2.3V48.9z"/>
	<path class="st10" d="M323.2,48.9h-4.9v-8.6h4.9v1.5h-3.1v1.9h2.9v1.5h-2.9v2.2h3.1V48.9z"/>
	<path class="st10" d="M328.6,41.7c-0.7,0-1.2,0.3-1.6,0.8s-0.6,1.2-0.6,2.1c0,1.9,0.7,2.9,2.2,2.9c0.6,0,1.3-0.2,2.2-0.5v1.5
		c-0.7,0.3-1.5,0.4-2.4,0.4c-1.2,0-2.2-0.4-2.9-1.1s-1-1.8-1-3.3c0-0.9,0.2-1.7,0.5-2.3s0.8-1.2,1.4-1.5s1.3-0.5,2.1-0.5
		c0.8,0,1.7,0.2,2.5,0.6l-0.6,1.5c-0.3-0.2-0.6-0.3-1-0.4S328.9,41.7,328.6,41.7z"/>
	<path class="st10" d="M339.6,48.9h-1.8v-3.7h-3.4v3.7h-1.8v-8.6h1.8v3.4h3.4v-3.4h1.8V48.9z"/>
	<path class="st10" d="M349.4,48.9h-2.3l-3.7-6.5h-0.1c0.1,1.1,0.1,2,0.1,2.4v4h-1.6v-8.6h2.3l3.7,6.4h0c-0.1-1.1-0.1-1.9-0.1-2.4
		v-4.1h1.6V48.9z"/>
	<path class="st10" d="M359.3,44.6c0,1.4-0.4,2.5-1.1,3.3s-1.7,1.1-3,1.1s-2.3-0.4-3-1.1s-1.1-1.9-1.1-3.3s0.4-2.5,1.1-3.3
		s1.7-1.1,3-1.1s2.3,0.4,3,1.1S359.3,43.2,359.3,44.6z M353.1,44.6c0,1,0.2,1.7,0.5,2.2s0.9,0.7,1.6,0.7c1.4,0,2.2-1,2.2-2.9
		c0-1.9-0.7-2.9-2.2-2.9c-0.7,0-1.3,0.2-1.6,0.7S353.1,43.7,353.1,44.6z"/>
	<path class="st10" d="M361.1,48.9v-8.6h1.8v7.1h3.5v1.5H361.1z"/>
	<path class="st10" d="M375.6,44.6c0,1.4-0.4,2.5-1.1,3.3s-1.7,1.1-3,1.1s-2.3-0.4-3-1.1s-1.1-1.9-1.1-3.3s0.4-2.5,1.1-3.3
		s1.7-1.1,3-1.1s2.3,0.4,3,1.1S375.6,43.2,375.6,44.6z M369.4,44.6c0,1,0.2,1.7,0.5,2.2s0.9,0.7,1.6,0.7c1.4,0,2.2-1,2.2-2.9
		c0-1.9-0.7-2.9-2.2-2.9c-0.7,0-1.3,0.2-1.6,0.7S369.4,43.7,369.4,44.6z"/>
	<path class="st10" d="M380.7,44.1h3.4v4.4c-0.6,0.2-1.1,0.3-1.6,0.4s-1,0.1-1.5,0.1c-1.3,0-2.3-0.4-3-1.1s-1-1.9-1-3.3
		c0-1.4,0.4-2.5,1.2-3.2s1.9-1.2,3.3-1.2c0.9,0,1.7,0.2,2.5,0.5l-0.6,1.5c-0.6-0.3-1.3-0.5-2-0.5c-0.8,0-1.4,0.3-1.9,0.8
		s-0.7,1.2-0.7,2.1c0,0.9,0.2,1.6,0.6,2.1s0.9,0.7,1.7,0.7c0.4,0,0.8,0,1.2-0.1v-1.8h-1.6V44.1z"/>
	<path class="st10" d="M388.8,43.9l1.8-3.5h2l-2.8,5.2v3.3h-1.8v-3.3l-2.8-5.3h2L388.8,43.9z"/>
</g>
<line class="st13" x1="211.1" y1="241" x2="211.1" y2="118.6"/>
<polyline class="st13" points="143.2,221.5 143.2,231.1 153.7,241.6 "/>
<polyline class="st13" points="285.3,221 285.3,231.1 275.5,240.9 "/>
<polyline class="st13" points="123.3,263.9 109.1,263.9 71.7,226.5 71.7,118.6 "/>
<polyline class="st13" points="299.3,263.9 313.6,263.9 350.9,226.5 350.9,118.6 "/>
</svg>
