<?xml version="1.0" encoding="utf-8"?>
<!-- Generator: Adobe Illustrator 24.1.2, SVG Export Plug-In . SVG Version: 6.00 Build 0)  -->
<svg version="1.1" id="Layer_1" xmlns="http://www.w3.org/2000/svg" xmlns:xlink="http://www.w3.org/1999/xlink" x="0px" y="0px"
	 viewBox="0 0 402 322" style="enable-background:new 0 0 402 322;" xml:space="preserve">
<style type="text/css">
	.st0{fill:none;stroke:#AEE8FC;stroke-width:2;stroke-miterlimit:10;stroke-dasharray:2,2;}
	.st1{fill-rule:evenodd;clip-rule:evenodd;fill:#ED8B00;}
	.st2{fill-rule:evenodd;clip-rule:evenodd;fill:#FFFFFF;}
	.st3{fill-rule:evenodd;clip-rule:evenodd;fill:#FBB040;}
	.st4{fill-rule:evenodd;clip-rule:evenodd;fill:#110626;}
	.st5{fill-rule:evenodd;clip-rule:evenodd;fill:#D6EEFC;}
	.st6{fill-rule:evenodd;clip-rule:evenodd;fill:#70BEF2;}
	.st7{fill-rule:evenodd;clip-rule:evenodd;fill:#005EB8;}
	.st8{fill-rule:evenodd;clip-rule:evenodd;fill:#95C8EC;}
	.st9{fill-rule:evenodd;clip-rule:evenodd;fill:#E3AB80;}
	.st10{fill-rule:evenodd;clip-rule:evenodd;}
	.st11{fill-rule:evenodd;clip-rule:evenodd;fill:#0A84F2;}
	.st12{fill-rule:evenodd;clip-rule:evenodd;fill:#A2C6EB;}
	.st13{fill-rule:evenodd;clip-rule:evenodd;fill:#142D52;}
	.st14{fill-rule:evenodd;clip-rule:evenodd;fill:#DCECFB;}
	.st15{fill-rule:evenodd;clip-rule:evenodd;fill:#AEE8FC;}
	.st16{fill-rule:evenodd;clip-rule:evenodd;fill:#EECFC3;}
	.st17{fill-rule:evenodd;clip-rule:evenodd;fill:#192B33;}
	.st18{fill-rule:evenodd;clip-rule:evenodd;fill:#5373B5;}
	.st19{fill-rule:evenodd;clip-rule:evenodd;fill:#C6DCF3;}
	.st20{fill:#D6EEFC;}
	.st21{fill:#E8F5FC;}
</style>
<line class="st0" x1="203.6" y1="24.4" x2="203.6" y2="82.9"/>
<line class="st0" x1="297" y1="71.9" x2="297" y2="129.3"/>
<ellipse class="st1" cx="297.5" cy="53.1" rx="19.1" ry="19.1"/>
<path class="st2" d="M297.4,35.8c-9.5,0-17.2,7.7-17.2,17.2s7.7,17.2,17.2,17.2s17.2-7.7,17.2-17.2
	C314.7,43.6,306.9,35.8,297.4,35.8L297.4,35.8z M297.4,68.4c-8.5,0-15.4-6.8-15.4-15.4c0-8.5,6.8-15.4,15.4-15.4s15.4,6.8,15.4,15.4
	C312.8,61.6,305.9,68.4,297.4,68.4z"/>
<g>
	<path class="st2" d="M292.9,57.3l-7.4-3.3c-0.1,0-0.2-0.1-0.2-0.2v-1c0-0.1,0.1-0.2,0.1-0.2l7.4-3.8c0.2-0.1,0.4,0,0.4,0.2v1.7
		c0,0.1-0.1,0.2-0.2,0.2l-4.1,1.9c-0.2,0.1-0.2,0.4,0,0.6l4.1,1.7c0.1,0,0.2,0.1,0.2,0.2V57C293.3,57.1,293.1,57.4,292.9,57.3z"/>
	<path class="st2" d="M300.9,47.5l-4.1,11.3c0,0.1-0.1,0.2-0.3,0.2h-2.1c-0.2,0-0.3-0.2-0.3-0.4l4.1-11.3c0-0.1,0.1-0.2,0.3-0.2h2.1
		C300.9,47.1,301,47.3,300.9,47.5z"/>
	<path class="st2" d="M301.8,55l4.1-1.7c0.2-0.1,0.2-0.4,0-0.6l-4.1-1.9c-0.1,0-0.2-0.1-0.2-0.2v-1.5c0-0.2,0.2-0.3,0.4-0.2l7.4,3.8
		c0.1,0,0.1,0.1,0.1,0.2v1c0,0.1-0.1,0.2-0.2,0.2l-7.4,3.3c-0.2,0.1-0.4-0.1-0.4-0.2v-1.7C301.6,55.2,301.7,55,301.8,55z"/>
</g>
<path class="st3" d="M212.8,9.7c-1.9,0-4.8,1.5-7.2,3.3c1.4,1.1,2.7,2.1,3.1,2.5l0.4,0.3c2.4-1.5,3.5-1.9,3.8-1.9
	c1.8,0,3.1,1.4,3.1,3.1s-1.4,3.1-3.1,3.1c-0.1,0-1.2-0.2-3.8-1.9l-0.4,0.3c-0.4,0.4-1.7,1.4-3.1,2.5c2.4,1.8,5.3,3.3,7.2,3.3
	c4.2,0,7.5-3.4,7.5-7.5C220.3,13.1,217,9.7,212.8,9.7z"/>
<path class="st3" d="M194.7,9.7c-4.2,0-7.5,3.4-7.5,7.5s3.4,7.5,7.5,7.5c4.2,0,12.6-7.5,12.6-7.5S198.9,9.7,194.7,9.7L194.7,9.7z
	 M194.7,20.4c-1.8,0-3.1-1.4-3.1-3.1s1.4-3.1,3.1-3.1c0.1,0,1.8,0.3,5.5,3.1c0,0,0,0,0.1,0l-0.1,0.1C196.4,20,194.9,20.3,194.7,20.4
	z"/>
<g>
	<path class="st4" d="M128.9,130c0,0,23.3-5.9,26.3,17.5s-1.4,28.7-0.4,36.7s-18.9,10.8-26,5.5C121.8,184.5,120.6,140.2,128.9,130z"
		/>
	<g>
		<path class="st5" d="M114.6,318.2L114.6,318.2c1.3-0.4,2-1.7,1.5-2.9l-19.4-52.8l-5,0.6l19.9,53.7
			C111.9,317.9,113.3,318.4,114.6,318.2z"/>
		<path class="st5" d="M95.3,271.6h52.8c3.6,0,6.8-3,6.8-6.8l0,0c0-3.6-3-6.8-6.8-6.8H95.3c-3.6,0-6.8,3-6.8,6.8l0,0
			C88.5,268.5,91.4,271.6,95.3,271.6z"/>
		<path class="st5" d="M142.8,264.7h-5.1l19.2,52c0.4,1.1,1.9,1.9,3.1,1.4c1.3-0.4,2-1.7,1.5-2.9L142.8,264.7z"/>
		<path class="st5" d="M140.2,264.7l-18.6,50.6c-0.4,1.1,0.3,2.4,1.5,2.9c1.2,0.4,2.7-0.3,3.1-1.4l19.2-52L140.2,264.7L140.2,264.7z
			"/>
		<path class="st5" d="M97.5,264.7l-18.6,50.6c-0.4,1.1,0.3,2.4,1.5,2.9s2.7-0.3,3.1-1.4l19.2-52L97.5,264.7L97.5,264.7z"/>
	</g>
	<polygon class="st6" points="109.9,259.8 161.4,255.4 181.3,187.6 127.7,187.6 	"/>
	<path class="st7" d="M135.6,256.8L135.6,256.8c-21.9,1.3-28.2-3.9-25.7-16l1.9-8.5l43.6,0.9l-1,5.3
		C152,250.7,147.8,256.8,135.6,256.8z"/>
	<path class="st8" d="M163,232.5c10.9-41.2,17.2-44.9,17.2-44.9c2.1,0,3.9,2.1,3.1,4.1l-17.2,62.5c-1.5,5.9-7,9.9-13,9.9h-1.3h-23.2
		c-8.1-0.1-6.1-8.8,2-8.8C142.8,255.7,159.2,252.6,163,232.5z"/>
	<polygon class="st9" points="111,188.7 103.3,207 79.8,210.3 83.6,215.6 112.8,215.3 121.2,194.6 	"/>
	
		<ellipse transform="matrix(0.9976 -6.934684e-02 6.934684e-02 0.9976 -9.8942 9.7198)" class="st4" cx="135" cy="147.4" rx="16.5" ry="14"/>
	<path class="st9" d="M140.3,149c-0.7,0.3-1.4,0.6-2,0.9l-0.3-3.6c-0.3-3.9-3.5-6.8-7.5-6.5l-2.3,0.1c-3.9,0.3-6.8,3.5-6.5,7.5
		l0.6,8.8c0.3,3.9,3.5,6.8,7.5,6.5l0,0c1.9-0.1,3.5,1.3,3.6,3.1c0.1,2.5,0.3,5.1,0.4,7.6c3.1-0.7,6.3-1,9.4-0.9
		C141.6,164.7,140.6,156.8,140.3,149z"/>
	<path class="st10" d="M123.8,142c-3.5-2-4.3-6.8-1.3-9.6c0.1-0.1,0.4-0.4,0.6-0.6c2.5-2,6-2.4,9.1-2.4c4.6,0,9.6,0.9,12.8,4.3
		c1.1,1.3,2,3,2.7,4.5c0.7,1.9,1.1,4,0.4,6c-0.9,2.7-3.5,4.5-6.4,4.6c-1.3,0-2.4,0.9-3.6,0.6c-1.9-0.4-4-2.1-5.6-3
		C130.2,145.7,126.6,143.4,123.8,142z"/>
	<path class="st11" d="M145,169.6c-4.3,0.1-8.5,0.3-12.9,0.4c-3.3,0.1-6.4,0.1-9.6,1c-3.3,0.9-6.5,2.5-8.6,5.1
		c-1.5,1.9-2.4,4.1-3.1,6.3c-1.3,3.6-2.1,7.4-2.7,11l0.7,6.6l13.5-8.8c0,0-7.8,28.8-10.3,41.9c4.4,0.4,10.9,0.7,16.4,0.7l0,0
		c5.6,0.1,21.5-0.1,27.5-0.7c3.6-12.9,7.1-36.8,7.1-36.8S168.7,169.6,145,169.6z"/>
	<path class="st9" d="M131.9,169.7c0,0-1.3,9.3,4,9.3s10.6-9.3,10.6-9.3l-6.8-1.9L131.9,169.7z"/>
	<path class="st9" d="M144.5,151.9c-0.2-2.4-1.8-4.3-3.6-4.2c-1.8,0.1-3.2,2.2-3,4.6c0.2,2.4,1.8,4.3,3.6,4.2
		C143.3,156.5,144.6,154.4,144.5,151.9z"/>
	<path class="st12" d="M79,264.2h45.8c2.3,0,4.1-1.9,4.1-4.1l0,0c0-2.3-1.9-4.1-4.1-4.1H79c-2.3,0-4.1,1.9-4.1,4.1l0,0
		C74.9,262.3,76.6,264.2,79,264.2z"/>
	<path class="st4" d="M101.9,307.8l7.3-0.1l1.3,5.4c0.3,1,0.1,2-0.4,2.9c-0.4,0.6-1,0.9-1.5,0.9l-18.2,0.3c-1.9,0-3.3-5.3,2.4-6.8
		C92.8,310.2,99.5,307.8,101.9,307.8z"/>
	<path class="st4" d="M80,307.8l7.3-0.1l1.3,5.4c0.3,1,0.1,2-0.4,2.9c-0.4,0.6-1,0.9-1.5,0.9l-18.2,0.3c-1.9,0-3.3-5.3,2.4-6.8
		C70.7,310.2,77.6,307.8,80,307.8z"/>
	<path class="st7" d="M78.8,307.7l-0.9-46.8c-0.1-11,7.3-16.6,22-19.2l15-2.7l8.5,17l-25.5,0.9c-3.6,0.4-6.4,2.9-6.8,6.3l-4,44.6
		h-8.3L78.8,307.7L78.8,307.7z"/>
	<polygon class="st11" points="111.9,179 101.7,199.9 118.8,203 123.7,185.6 	"/>
	<polygon class="st9" points="142,188.7 134.2,207 110.8,210.3 114.6,215.6 143.6,215.3 152.1,194.6 	"/>
	<g>
		<path class="st13" d="M119.4,215.3H71c-1.1,0-2.1-1-2.1-2.1l0,0c0-1.1,1-2.1,2.1-2.1h48.4c1.1,0,2.1,1,2.1,2.1l0,0
			C121.6,214.3,120.6,215.3,119.4,215.3z"/>
		<path class="st14" d="M102.3,215.3H60.5c-2,0-4-1.5-4.5-3.5l-7.8-28.7c-0.6-2,0.6-3.5,2.5-3.5h41.8c2,0,4,1.5,4.5,3.5l7.8,28.7
			C105.4,213.5,104.3,215.3,102.3,215.3z"/>
		<path class="st7" d="M100.3,215.3H58.5c-2,0-4-1.5-4.5-3.5l-7.8-28.7c-0.6-2,0.6-3.5,2.5-3.5h41.8c2,0,4,1.5,4.5,3.5l7.8,28.7
			C103.5,213.5,102.3,215.3,100.3,215.3z"/>
		<path class="st14" d="M76.4,200.6h-4.2c-1.9,0-3.9-1.5-4.3-3.4l0,0c-0.6-1.9,0.6-3.4,2.4-3.4h4.1c1.9,0,3.9,1.5,4.3,3.4l0,0
			C79.4,199.1,78.2,200.6,76.4,200.6z"/>
	</g>
	<path class="st7" d="M135.2,238.5l-21.6,11.6c-7.6,4.1-12.3,10.3-13,17V308l8.8-0.3l2.5-35.1c1.9-6.3,8.9-10.4,16.6-13.9l6.4-2.1
		c8.1-2.7,8.8-12.4,1.4-17.3L135.2,238.5z"/>
</g>
<path class="st4" d="M197.8,307.2l7.4-0.1l1.3,5.4c0.3,1,0.1,2.1-0.4,2.9c-0.4,0.6-1,0.9-1.5,0.9l-18.5,0.3c-1.9,0-3.3-5.3,2.5-7
	C188.6,309.5,195.5,307.3,197.8,307.2z"/>
<path class="st4" d="M232.5,307.2l7.4-0.1l1.3,5.4c0.3,1,0.1,2.1-0.4,2.9c-0.4,0.6-1,0.9-1.5,0.9l-18.4,0.3c-1.9,0-3.3-5.3,2.5-7
	C223.1,309.5,230.2,307.3,232.5,307.2z"/>
<path class="st4" d="M245,307.2l7.4-0.1l1.3,5.4c0.3,1,0.1,2.1-0.4,2.9c-0.4,0.6-1,0.9-1.5,0.9l-18.5,0.3c-1.9,0-3.3-5.3,2.5-7
	C235.6,309.5,242.7,307.3,245,307.2z"/>
<polygon class="st1" points="195.8,182.2 193.3,307.2 206.4,307.2 221.3,187.2 "/>
<polygon class="st1" points="214.4,187.2 228.2,307.2 241.5,307.2 237.9,185.1 "/>
<path class="st15" d="M250.2,132.8c-0.1-2.4-0.6-5-1.7-7.1c-1.5-3-4.4-4.9-7.4-5.9s-6.3-1-9.4-1.1c-4.1-0.1-13.9-0.3-18.2-0.4
	c-0.1,0-0.1,0-0.3,0c-4.1,0.1-8.4,0.3-12.5,0.4c-3.1,0.1-6.4,0.1-9.4,1.1s-6,2.9-7.4,5.9c-1.1,2.1-1.4,4.6-1.7,7.1
	c-0.1,2.3-0.3,4.5-0.3,6.8c0,3,2.4,5.3,5.3,4.9l3.1-0.6c2.7-0.6,5.3,1.9,5.3,5c-0.3,8.8-0.6,25.5-0.4,36.8c0,2.5,1.9,4.5,4.1,4.6
	c3.9,0.3,8.4,0.4,12.3,0.4l0,0c4.6,0.1,15.9-0.1,23-0.6c2.3-0.1,4.1-2.3,4.3-4.6c0.1-12.3-0.3-31.8-0.6-40.9c-0.1-2.7,1.9-5,4.4-5
	l8-0.1C250.6,141.2,250.6,136.9,250.2,132.8z"/>
<path class="st16" d="M208.4,118.6c0,0,3.1,4.1,8.8,4.1c5.6,0,7-4.1,7-4.1l-7.8-2.1L208.4,118.6z"/>
<path class="st16" d="M190.4,129l-14.9,5.6c-2,0.9-4.3-0.6-4.4-2.9l-1.3-19.8l-7.4-4l-2.9,30.7c-0.7,7.8,6.4,13.9,14,12.3l21.8-10.4
	L190.4,129z"/>
<path class="st16" d="M163.7,101.1L163.7,101.1c2.5-0.4,4.9,1.3,5.4,3.6l1.3,7.3c0.4,2.5-1.3,4.9-3.6,5.4l0,0
	c-2.5,0.4-4.9-1.3-5.4-3.6l-1.3-7.3C159.5,104,161.2,101.6,163.7,101.1z"/>
<path class="st9" d="M245.7,188.5L245.7,188.5c2.1-1.3,5-0.6,6.3,1.7l3.6,6.4c1.3,2.1,0.6,5-1.7,6.3l0,0c-2.1,1.3-5,0.6-6.3-1.7
	l-3.6-6.4C242.7,192.6,243.6,189.7,245.7,188.5z"/>
<path class="st4" d="M211.3,103.7L211.3,103.7c-4.4,1.3-9.1-1.1-10.4-5.5l-1.4-4.5c-1.3-4.4,1.1-9.1,5.5-10.4l0,0
	c4.4-1.3,9.1,1.1,10.4,5.5l1.4,4.5C218.3,97.6,215.7,102.2,211.3,103.7z"/>
<path class="st16" d="M225.6,97.7c-0.9,0.1-4.1,0-4.9,0.1l0.4-4.3c0.4-4.4-2.7-8.3-7-8.8l-2.5-0.3c-4.4-0.4-8.3,2.7-8.8,7l-1.1,9.8
	c-0.4,4.4,2.7,8.3,7,8.8l0,0c2.1,0.3,3.6,2.1,3.4,4.3c-0.3,2.9-3,4-3.5,4.1h15.8C223.7,110.2,224.1,106.5,225.6,97.7z"/>
<path class="st4" d="M224.1,109.5c0,0,10.4-11.3,6.8-22.8c-3.5-11.5-23.5-13-25.7-3c-1.4,6.5,4.4,8.3,8.6,8.5
	c4.6,0.4,8.4,4.1,8.8,8.6v0.1L224.1,109.5z"/>
<path class="st16" d="M223.8,94.9c-2-0.2-3.8,1.4-4.1,3.6c-0.3,2.2,1.2,4.2,3.2,4.5c2,0.2,3.8-1.4,4.1-3.6
	C227.2,97.1,225.8,95.1,223.8,94.9z"/>
<path class="st15" d="M185.6,123.6l-8.1,8.9l6.3,16.9c21.3-13.3,17.9-7.8,29.8-15L185.6,123.6z"/>
<path class="st16" d="M236.5,142.8c0.4,1.4,7.1,29.9,7.1,29.9l-28.4,17.6l0.3,9.4l33.4-15.9c4.4-2.1,7-6.8,6.4-11.6l-2.7-20.8
	L236.5,142.8z"/>
<path class="st4" d="M213.2,77.2h-11c-1.7,0-3,1.5-2.5,3.3c1,4.3,3.9,11,11.9,11.9C220.1,93.3,213.2,77.2,213.2,77.2z"/>
<path class="st16" d="M168.3,113.1L168.3,113.1c-1,0.1-2-0.6-2.1-1.5l-2.4-17c-0.1-1,0.6-2,1.5-2.1l0,0c1-0.1,2,0.6,2.1,1.5l2.4,17
	C170,112,169.3,112.9,168.3,113.1z"/>
<g>
	<path class="st13" d="M277.2,215.3h-48.4c-1.1,0-2.1-1-2.1-2.1l0,0c0-1.1,1-2.1,2.1-2.1h48.4c1.1,0,2.1,1,2.1,2.1l0,0
		C279.1,214.3,278.3,215.3,277.2,215.3z"/>
	<path class="st13" d="M257.9,215.3h-41.8c-2,0-4-1.5-4.5-3.5l-7.8-28.7c-0.6-2,0.6-3.5,2.5-3.5h41.8c2,0,4,1.5,4.5,3.5l7.8,28.7
		C261,213.5,259.9,215.3,257.9,215.3z"/>
	<polygon class="st2" points="257.4,209 214.6,209 206.9,181.7 249.6,181.7 	"/>
	<g>
		<path class="st17" d="M224.3,195l1.7-10.4c-1.1-0.3-2.3-0.6-3.5-0.6c-6.3,0-10.1,5-8.8,11.3c1.3,6.3,7.4,11.3,13.6,11.3
			c2.3,0,4.3-0.7,5.9-1.9L224.3,195z"/>
		<path class="st18" d="M226.1,194.2l1.5-8.9c0,0,4.9,2.1,6.6,6.6L226.1,194.2z"/>
		<path class="st19" d="M227,195.6l7.6-2.3c2,2.7,1.4,8-0.9,9.8L227,195.6z"/>
	</g>
	<path class="st19" d="M249.1,187.5h-13.3c-0.4,0-1.1-0.4-1.4-0.9l0,0c-0.3-0.4,0-0.9,0.4-0.9h13.3c0.4,0,1.1,0.4,1.4,0.9l0,0
		C249.6,187.1,249.5,187.5,249.1,187.5z"/>
	<path class="st19" d="M250.9,191.7h-13.3c-0.4,0-1.1-0.4-1.4-0.9l0,0c-0.3-0.4,0-0.9,0.4-0.9h13.3c0.4,0,1.1,0.4,1.4,0.9l0,0
		C251.5,191.4,251.4,191.7,250.9,191.7z"/>
	<path class="st19" d="M252.6,196.1h-13.3c-0.4,0-1.1-0.4-1.4-0.9l0,0c-0.3-0.4,0-0.9,0.4-0.9h13.3c0.4,0,1.1,0.4,1.4,0.9l0,0
		C253.4,195.7,253.1,196.1,252.6,196.1z"/>
</g>
<path class="st5" d="M7.9,318.2L7.9,318.2c-1.3-0.4-2-1.7-1.5-2.9l35.9-97.4c0.4-1.1,1.9-1.9,3.1-1.4l0,0c1.3,0.4,2,1.7,1.5,2.9
	L11,316.8C10.6,317.9,9.2,318.4,7.9,318.2z"/>
<path class="st5" d="M81.1,318.2L81.1,318.2c1.3-0.4,2-1.7,1.5-2.9l-35.9-97.4c-0.4-1.1-1.9-1.9-3.1-1.4l0,0c-1.3,0.4-2,1.7-1.5,2.9
	L78,316.8C78.4,317.9,79.8,318.4,81.1,318.2z"/>
<path class="st5" d="M380.8,318.2L380.8,318.2c1.3-0.4,2-1.7,1.5-2.9l-35.9-97.4c-0.4-1.1-1.9-1.9-3.1-1.4l0,0
	c-1.3,0.4-2,1.7-1.5,2.9l35.9,97.4C378.1,317.9,379.6,318.4,380.8,318.2z"/>
<path class="st7" d="M305.7,256.8L305.7,256.8c-21.9,1.3-28-6.3-25.5-18.4l1-5.3h44.3l-1,5.3C322,250.7,317.9,256.8,305.7,256.8z"/>
<path class="st6" d="M355.3,222H24.8c-2,0-3.6-1.7-3.6-3.6l0,0c0-2,1.7-3.6,3.6-3.6h330.4c2,0,3.6,1.7,3.6,3.6l0,0
	C358.8,220.4,357.2,222,355.3,222z"/>
<path class="st16" d="M230.3,208.8L230.3,208.8c-0.3-2.5,1.7-4.6,4.1-5l7.4-0.6c2.5-0.1,4.6,1.7,5,4.3l0,0c0.3,2.5-1.7,4.6-4.1,5
	l-7.4,0.6C233,213.3,230.6,211.3,230.3,208.8z"/>
<path class="st4" d="M283.2,148.3h-3.4c-2.3,0-4.1-1.9-4.1-4.1v-0.9c0-2.3,1.9-4.1,4.1-4.1h3.4c2.3,0,4.1,1.9,4.1,4.1v0.9
	C287.3,146.4,285.4,148.3,283.2,148.3L283.2,148.3z M279.9,140.3c-1.5,0-3,1.3-3,3v0.9c0,1.5,1.3,3,3,3h3.4c1.5,0,3-1.3,3-3v-0.9
	c0-1.5-1.3-3-3-3H279.9z"/>
<path class="st16" d="M301.1,143.4c-0.7,0.3-1.5,0.6-2.3,0.9l-0.3-4.1c-0.3-4.3-3.9-7.5-8.1-7.3l-2.5,0.1c-4.3,0.3-7.5,3.9-7.3,8.1
	l0.6,9.6c0.3,4.3,3.9,7.5,8.1,7.3l0,0c2.1-0.1,3,0.7,4.1,3.6c1,2.5,1.1,5.1,1.1,8c3.4-0.7,7.6-1.4,11.3-1.3
	C304.1,159.8,301.2,152.2,301.1,143.4z"/>
<path class="st10" d="M283.7,140c-7.1-6.6,2.7-15,13.3-13c6.3,1.1,11.9,2.7,14,9.6c0.6,2.1,0.6,2,0.7,4.3c0.6,6-2.5,9.4-4,11.8
	c-5.1,9.3-14.8,5.9-16.6,3.1C289.6,153.8,286.1,142.3,283.7,140z"/>
<path class="st17" d="M313.2,165.5c-4.6-0.4-8.5-0.3-13.3-0.4c-4.6,0.1-9.4,0.3-14,0.4c-3.5,0.1-9.9,0-11.8,5.1
	c-1,3.1,3,14.6,3,14.6s2.4,39.2,3.1,52.8c5,0.4,36.7-0.1,43.1-0.7c0.4-9.8,5-41.7,4.4-52.1C326.6,170.6,317.3,165.9,313.2,165.5z"/>
<path class="st16" d="M291.7,165.3c0,0,3.4,2.1,8.8,2.1s6-2.1,6-2.1l-7.4-2L291.7,165.3z"/>
<path class="st16" d="M291.7,146.5c-0.1-2.7-1.9-4.8-3.9-4.7s-3.5,2.4-3.4,5c0.1,2.7,1.9,4.8,3.9,4.7
	C290.3,151.4,291.8,149.1,291.7,146.5z"/>
<path class="st16" d="M275.2,177.6l-6,13.8c-1.4,3.3-4.6,10.6-6.3,12.8l-20.2-0.6l-3.6,5.3l24.9,5.6c3.4,0.6,7-1.1,9.3-4.9
	c0,0,0,0,0-0.1l11.6-28.8L275.2,177.6z"/>
<polygon class="st17" points="290.2,178.8 275.7,204.6 263.3,199.5 273.9,170.6 "/>
<path class="st4" d="M277.4,143.7h16.4c0.6,0,1-0.4,1-1l0,0c0-0.6-0.4-1-1-1h-16.4c-0.6,0-1,0.4-1,1l0,0
	C276.5,143.3,276.9,143.7,277.4,143.7z"/>
<path class="st4" d="M273.5,307.8l7.3-0.1l1.3,5.4c0.3,1,0.1,2-0.4,2.9c-0.4,0.6-1,0.9-1.5,0.9l-18.2,0.3c-1.9,0-3.3-5.3,2.4-6.8
	C264.3,310.2,271.3,307.8,273.5,307.8z"/>
<path class="st7" d="M244,307.7l-0.9-46.8c-0.1-11,7.3-16.6,22-19.2l15-2.7l7.3,19h-24.9c-3.6,0.4-5.9,1.7-6.3,5.1l0.9,44.6H244z"/>
<path class="st7" d="M306.8,238.5l-21.5,11.6c-7.6,4.1-12.3,10.3-13,17V308l11.4-0.3v-35c1.9-6.3,8.9-10.4,16.6-13.9l6.4-2.1
	c8.1-2.7,8.8-12.4,1.4-17.3L306.8,238.5z"/>
<g>
	<path class="st5" d="M292.3,318.2L292.3,318.2c1.3-0.4,2-1.7,1.5-2.9l-19.4-52.8l-5,0.6l19.9,53.7
		C289.6,317.9,291.1,318.4,292.3,318.2z"/>
	<path class="st5" d="M273,271.6h52.8c3.6,0,6.8-3,6.8-6.8l0,0c0-3.6-3-6.8-6.8-6.8H273c-3.6,0-6.8,3-6.8,6.8l0,0
		C266.3,268.5,269.3,271.6,273,271.6z"/>
	<path class="st5" d="M320.6,264.7h-5.1l19.2,52c0.4,1.1,1.9,1.9,3.1,1.4c1.2-0.4,2-1.7,1.5-2.9L320.6,264.7z"/>
	<path class="st5" d="M317.9,264.7l-18.6,50.6c-0.4,1.1,0.3,2.4,1.5,2.9c1.3,0.4,2.7-0.3,3.1-1.4l19.2-52L317.9,264.7L317.9,264.7z"
		/>
	<path class="st5" d="M275.3,264.7l-18.6,50.6c-0.4,1.1,0.3,2.4,1.5,2.9c1.3,0.4,2.7-0.3,3.1-1.4l19.2-52L275.3,264.7L275.3,264.7z"
		/>
</g>
<g>
	<g>
		<path class="st8" d="M340.8,234.7c10.9-41.2,17.2-44.9,17.2-44.9c2.1,0,3.9,2.1,3.1,4.1l-17.2,62.5c-1.5,5.9-7,9.9-13,9.9h-1.3
			h-34.8l-0.7-5.3C295.2,252.3,334.2,267.7,340.8,234.7z"/>
		<path class="st8" d="M256.6,266.3h45.8c2.3,0,4.1-1.9,4.1-4.1l0,0c0-2.3-1.9-4.1-4.1-4.1h-45.8c-2.3,0-4.1,1.9-4.1,4.1l0,0
			C252.5,264.5,254.4,266.3,256.6,266.3z"/>
		<path class="st8" d="M287.6,261.8l51.6-4.4l19.8-67.7h-37.4c-9.4,0-17.5,6.4-19.8,15.5L287.6,261.8z"/>
	</g>
</g>
<polygon class="st15" points="232.5,135 237.9,160.6 255.4,156.4 250.1,131.3 "/>
<g>
	<path class="st7" d="M140.5,79.7h30.3c2.9,0,5.3-2.4,5.3-5.3l0.1-15.2c0-2.9-2.3-5.3-5.1-5.3h-30.3c-2.9,0-5.3,2.4-5.3,5.3
		l-0.1,15.2C135.4,77.3,137.6,79.7,140.5,79.7z"/>
	<path class="st7" d="M170.3,78.1l3.3,6.1c0.7,1.3-0.6,2.7-2,2.3l-22.4-8.4H170.3z"/>
	<g>
		<path class="st2" d="M147.6,67.1c0,1.7-1.4,3-3,3c-1.7,0-3-1.3-3-3c0-1.7,1.4-3,3-3C146.1,64.1,147.6,65.4,147.6,67.1z"/>
		<path class="st2" d="M158,67.1c0,1.7-1.4,3-3,3c-1.7,0-3-1.3-3-3c0-1.7,1.4-3,3-3S158,65.4,158,67.1z"/>
		<path class="st2" d="M168.5,67.1c0,1.7-1.4,3-3,3c-1.5,0-3-1.3-3-3c0-1.7,1.4-3,3-3C167.2,64.1,168.5,65.4,168.5,67.1z"/>
	</g>
</g>
<path class="st20" d="M35.7,30.6L31,32.2c-0.5,0.1-0.7,0.5-0.9,0.8l-2,4.6l-1.6-4.7c-0.1-0.5-0.5-0.7-0.8-0.9l-4.6-2l4.7-1.6
	c0.5-0.1,0.7-0.5,0.9-0.8l2-4.6l1.6,4.7c0.1,0.5,0.5,0.7,0.8,0.9L35.7,30.6z"/>
<path class="st20" d="M290.6,22.5l-4.7,1.6c-0.5,0.1-0.7,0.5-0.9,0.8l-2,4.6l-1.6-4.7c-0.1-0.5-0.5-0.7-0.8-0.9l-4.6-2l4.7-1.6
	c0.5-0.1,0.7-0.5,0.9-0.8l2-4.6l1.6,4.7c0.1,0.5,0.5,0.7,0.8,0.9L290.6,22.5z"/>
<path class="st20" d="M32.9,126.8l-4.7,1.6c-0.5,0.1-0.7,0.5-0.9,0.8l-2,4.6l-1.6-4.7c-0.1-0.5-0.5-0.7-0.8-0.9l-4.6-2l4.7-1.6
	c0.5-0.1,0.7-0.5,0.9-0.8l2-4.6l1.6,4.7c0.1,0.5,0.5,0.7,0.8,0.9L32.9,126.8z"/>
<path class="st21" d="M396.5,30l-4.7,1.6c-0.5,0.1-0.7,0.5-0.9,0.8l-2,4.6l-1.6-4.7c-0.1-0.5-0.5-0.7-0.8-0.9l-4.6-2l4.7-1.6
	c0.5-0.1,0.7-0.5,0.9-0.8l2-4.6l1.6,4.7c0.1,0.5,0.5,0.7,0.8,0.9L396.5,30z"/>
<path class="st21" d="M27,47l-6.5,2.3c-0.6,0.2-1,0.6-1.3,1.1l-2.8,6.4l-2.3-6.5c-0.2-0.6-0.6-1-1.1-1.3l-6.4-2.8l6.5-2.3
	c0.6-0.2,1-0.6,1.3-1.1l2.8-6.4l2.3,6.5c0.2,0.6,0.6,1,1.1,1.3L27,47z"/>
<path class="st21" d="M259.8,40.3l-6.5,2.3c-0.6,0.2-1,0.6-1.3,1.1l-2.8,6.4l-2.3-6.5c-0.2-0.6-0.6-1-1.1-1.3l-6.4-2.8l6.5-2.3
	c0.6-0.2,1-0.6,1.3-1.1l2.8-6.4l2.3,6.5c0.2,0.6,0.6,1,1.1,1.3L259.8,40.3z"/>
<path class="st20" d="M341.9,114.2l-4.7,1.6c-0.5,0.1-0.7,0.5-0.9,0.8l-2,4.6l-1.6-4.7c-0.1-0.5-0.5-0.7-0.8-0.9l-4.6-2l4.7-1.6
	c0.5-0.1,0.7-0.5,0.9-0.8l2-4.6l1.6,4.7c0.1,0.5,0.5,0.7,0.8,0.9L341.9,114.2z"/>
</svg>
