<svg version="1.1" id="1057696591" xmlns="http://www.w3.org/2000/svg" xmlns:xlink="http://www.w3.org/1999/xlink" x="0px" y="0px" viewBox="0 0 512 512" style="enable-background:new 0 0 512 512;" xml:space="preserve" class="svg u_1057696591" data-icon-custom="true" data-icon-name="customer service.svg"> <style type="text/css">.st0-1057696591{fill:#005EB8;}
	.st1-1057696591{fill:#ED8B00;}
	.st2-1057696591{fill:#FFFFFF;}
	.st3-1057696591{fill:#FFFFFF;stroke:#ED8B00;stroke-width:3;stroke-miterlimit:10;}
	.st4-1057696591{fill:#FBB040;}</style> 
 <rect x="47.6" y="234.9" class="st0-1057696591" width="19.8" height="19.8"></rect> 
 <circle class="st1-1057696591" cx="54" cy="211.9" r="13.4"></circle> 
 <circle class="st2-1057696591" cx="54" cy="206.7" r="4.3"></circle> 
 <path class="st2-1057696591" d="M54,221.4c3.5-0.1,6.7-2,8.4-5c-1.7-2.5-4.5-4-7.5-4h-1.8c-3,0.1-5.8,1.6-7.5,4C47.3,219.4,50.5,221.3,54,221.4
	z"></path> 
 <ellipse class="st3-1057696591" cx="256" cy="257.7" rx="236" ry="236.7"></ellipse> 
 <ellipse class="st4-1057696591" cx="256" cy="257.7" rx="217.1" ry="217.7"></ellipse> 
 <path class="st2-1057696591" d="M163.7,176.9c0.8,0.2,1.5,0.6,2.1,1.2l63.9,64.2l11.6-11.6l-63.9-64.2c-0.6-0.6-1-1.3-1.2-2.1l-4-16L145.3,133
	l-13,13.1l15.2,26.7L163.7,176.9z"></path> 
 <path class="st2-1057696591" d="M220.3,322.9l101.3-101.7c1.1-1.1,2.7-1.6,4.3-1.2c23.8,6.1,48-8.3,54.1-32.1c0.9-3.7,1.4-7.5,1.4-11.3
	c0-0.8,0-1.7,0-2.5l-23.6,23.6c-1.2,1.2-3,1.6-4.6,1.1l-26.8-8.9c-1.3-0.5-2.4-1.5-2.8-2.8l-8.9-26.9c-0.5-1.6-0.1-3.4,1.1-4.6
	l23.6-23.6c-24.6-1.5-45.7,17.2-47.2,41.8c-0.3,4.6,0.2,9.3,1.3,13.8c0.4,1.5-0.1,3.1-1.2,4.3L190.9,293.4c-1.1,1.1-2.7,1.5-4.3,1.2
	c-3.5-0.9-7.1-1.4-10.8-1.4c-24.9-0.2-45.3,19.8-45.6,44.7c-0.2,24.9,19.8,45.3,44.7,45.6c24.9,0.2,45.3-19.8,45.6-44.7
	c0-3.9-0.4-7.8-1.4-11.6C218.8,325.7,219.2,324,220.3,322.9z M186.7,355.9H165L154.3,338l10.7-17.9h21.7l10.7,17.9L186.7,355.9z
	 M204,303.5l98.3-98.6l6.3,6.3l-98.3,98.6L204,303.5z"></path> 
 <path class="st2-1057696591" d="M344.7,381.1c14,5.3,29.7-1.8,34.9-15.8c2.3-6.2,2.3-13,0-19.1L344.7,381.1z"></path> 
 <path class="st2-1057696591" d="M373.4,336.4l-50.2-50.3c-5.9,5-14.7,4.3-19.7-1.6c-4.4-5.2-4.4-12.9,0-18.1l-7.1-7.1l-38.3,38.5l7.1,7.2
	c5.9-5,14.7-4.3,19.7,1.6c4.4,5.2,4.4,12.9,0,18.1l50.1,50.3c0.6,0.6,1.1,1,1.7,1.6l38.2-38.3C374.4,337.6,374,336.9,373.4,336.4z
	 M346.9,354.7l-44.7-44.8l6.3-6.3l44.7,44.8L346.9,354.7z"></path> 
 <path class="st2-1057696591" d="M280.5,248.3c-0.2-2.6,0.8-5.1,2.6-6.9c2.2-1.8,4.9-2.6,7.7-2.4c2.7-0.2,5.4,0.7,7.4,2.4
	c1.8,1.8,2.8,4.4,2.6,6.9c0.1,2.6-0.8,5.1-2.6,6.9c-2,1.7-4.7,2.6-7.3,2.5c-2.8,0.2-5.5-0.7-7.6-2.4
	C281.4,253.4,280.3,250.9,280.5,248.3z"></path> 
</svg>