<svg version="1.1" id="1317480230" xmlns="http://www.w3.org/2000/svg" xmlns:xlink="http://www.w3.org/1999/xlink" x="0px" y="0px" viewBox="0 0 512 512" style="enable-background:new 0 0 512 512;" xml:space="preserve" class="svg u_1317480230" data-icon-custom="true" data-icon-name="pro support.svg"> <style type="text/css">.st0-1317480230{fill:#0F89DB;}
	.st1-1317480230{fill:#FFFFFF;}</style> 
 <path class="st0-1317480230" d="M22.4,380.1l2-249.3c0.9-59.6,48.8-108,107.3-108.5l244.8-1.6c58.5,0.1,105.3,48.1,105,107.7l-2,249.3
	c-0.9,59.6-48.8,108-107.3,108.5l-244.8,1.6C68.9,487.7,22.1,439.7,22.4,380.1z"></path> 
 <path class="st1-1317480230" d="M367.3,252.7c1.1-23,15-43.5,35.8-52.8c-5.7-18.8-14.8-36.3-26.8-51.7c-27.8,17.5-63.9,8.8-80.7-19.2
	c-6.5-11-9.4-23.9-8.1-36.8c-18.9-4.2-38.4-4.8-57.6-1.8c0.2,33-26,60.3-58.4,60.9c-12.4,0.2-24.5-3.5-34.6-10.7
	c-13.3,14.5-23.9,31.4-31.3,49.7c28.2,16,38,52.4,21.8,81.3c-6.3,11.3-16,20.3-27.6,25.6c5.4,18.9,14.3,36.5,26,52.1
	c27.7-17.7,63.9-9.4,80.8,18.5c7.1,11.7,10,25.6,8.1,39.3c18.9,4.4,38.5,5.2,57.8,2.3c-1.4-33,23.8-61.3,56.2-63.2
	c14-0.8,27.7,3.5,38.7,12.1c13.3-14.7,23.8-31.7,31.1-50.2C378.4,297.6,366.1,276,367.3,252.7z M303.2,316.5
	c-36.5,29.4-89,23.4-117.3-13.4c-28.3-36.8-21.7-90.3,14.8-119.7c36.4-29.3,88.9-23.4,117.2,13.3c28.4,36.7,21.9,90.3-14.6,119.7
	C303.3,316.4,303.2,316.4,303.2,316.5z"></path> 
</svg>