<svg id="1162601725" enable-background="new 0 0 509.58 509.58" height="512" viewBox="0 0 509.58 509.58" width="512" xmlns="http://www.w3.org/2000/svg" class="svg u_1162601725" data-icon-custom="true" data-icon-name="high-quality.svg"> <g> <path d="m375.015 239.58v270h-31.45l-88.54-93.46-.23.24v-176.78z" fill="#2fc0f0"></path> 
 <path d="m254.795 239.58v176.78l-88.04 93.22h-31.74v-270z" fill="#9ee2f8"></path> 
 <path d="m392.605 195.97 10.85 61.53-58.71 21.37-31.24 54.11-58.49-21.29v-311.51l47.64 39.98h62.48l10.85 61.53 47.86 40.17z" fill="#ff9f22"></path> 
 <path d="m255.015.18v311.51l-.22-.08-58.72 21.37-31.24-54.11-58.71-21.37 10.85-61.53-31.24-54.11 47.86-40.17 10.85-61.53h62.48l47.87-40.16z" fill="#ffda44"></path> 
 <path d="m318.795 149.08-63.78 47.83v-37.49l45.78-34.34z" fill="#fd5"></path> 
 <path d="m255.015 159.42v37.49l-27.47 20.6-39.14-45.67 22.77-19.52 20.86 24.33z" fill="#fff68e"></path> 
</g> 
</svg>