<svg version="1.1" id="1467329406" xmlns="http://www.w3.org/2000/svg" xmlns:xlink="http://www.w3.org/1999/xlink" x="0px" y="0px" viewBox="0 0 512 512" style="enable-background:new 0 0 512 512;" xml:space="preserve" class="svg u_1467329406" data-icon-custom="true" data-icon-name="security.svg"> <style type="text/css">.st0-1467329406{fill:#FFFFFF;stroke:#D0D8DC;stroke-width:1.77;stroke-miterlimit:10;}
	.st1-1467329406{fill:#71BE72;}
	.st2-1467329406{fill:#99CF8C;}
	.st3-1467329406{fill:#54B958;}
	.st4-1467329406{opacity:0.2;}
	.st5-1467329406{fill:#D0D8DC;}
	.st6-1467329406{fill:#FFFFFF;}
	.st7-1467329406{fill:#78909C;}</style> 
 <g id="_Group_5_1_"> <g id="_Group_6_1_"> <g id="_Group_7_1_"> <g id="_Group_8_1_"> <g id="_Group_9"> <g id="_Group_10"> <g id="_Group_11"> <g id="_Group_12"> <g id="_Group_13"> <g id="_Group_14"> <path id="_Path_12" class="st0-1467329406" d="M478.7,68C346.3,82,258.5,0,258.5,0s-87,82-220.2,68c0,0-41.3,370.5,220.2,444
											C519.7,437.7,478.7,68,478.7,68z"></path> 
</g> 
</g> 
</g> 
</g> 
</g> 
</g> 
</g> 
</g> 
 <g id="_Group_15"> <g id="_Group_16"> <g id="_Group_17"> <g id="_Group_18"> <g id="_Group_19"> <g id="_Group_20"> <g id="_Group_21"> <g id="_Group_22"> <path id="_Path_13" class="st1-1467329406" d="M258.8,464.2C97,409.2,80.4,204.1,81.9,114.8c63.1-2.9,124.1-22.8,176.8-57.9
											c35.1,22.8,96.1,55,176.8,57.9C436.9,203.3,420.3,408.4,258.8,464.2z"></path> 
</g> 
</g> 
</g> 
</g> 
</g> 
</g> 
</g> 
</g> 
 <g id="_Group_23"> <g id="_Group_24"> <g id="_Group_25"> <g id="_Group_26"> <g id="_Group_27"> <g id="_Group_28"> <g id="_Group_29"> <g id="_Group_30"> <path id="_Path_14" class="st2-1467329406" d="M260.3,77.6L260.3,77.6v365l0,0C405.2,393.3,419.2,209.3,419,129
											C361.8,126.7,307.1,108.8,260.3,77.6z"></path> 
</g> 
</g> 
</g> 
</g> 
</g> 
</g> 
</g> 
</g> 
 <g id="_Group_31"> <g id="_Group_32"> <g id="_Group_33"> <g id="_Group_34"> <g id="_Group_35"> <g id="_Group_36"> <g id="_Group_37"> <g id="_Group_38"> <path id="_Compound_Path_2" class="st3-1467329406" d="M258.8,468.6l-1.8-0.8C92.1,411,76,201.5,77.3,114.5v-4.7h4.7
											c62.3-2.6,122.8-22.6,174.7-57.4l2.1-1.8l2.1,1.8C312.8,86.7,373,107,435.1,109.8h4.7v4.7c0.8,87.8-15.1,297-179.7,353.4
											L258.8,468.6z M86.4,118.4c-0.8,87.8,16.4,286.1,172.7,340.4c155-54.5,172.7-252.4,172.7-340.4
											c-61.5-3.6-121-22.8-172.7-56.6C207.4,95.5,147.9,114.8,86.4,118.4z"></path> 
</g> 
</g> 
</g> 
</g> 
</g> 
</g> 
</g> 
</g> 
</g> 
 <g id="_Group_39"> <g id="_Group_40"> <g id="_Group_41" class="st4-1467329406"> <g id="_Group_42"> <path id="_Compound_Path_3" d="M346.8,216.8h-8.8v-24.4c0-37.9-30.9-68.3-68.8-68.8h-1.8c-37.9,0-68.3,30.9-68.8,68.8v24.4
						h-8.8c-6,0-11.2,4.9-11.2,11.2v129.3c0,6,4.9,11.2,11.2,11.2h156.8c6,0,11.2-4.9,11.2-11.2V228
						C357.7,222,353,217.3,346.8,216.8z M220.9,216.8v-24.4c0-25.7,20.8-46.5,46.5-46.5l0,0h1.8c25.7,0,46.5,20.8,46.5,46.5
						c0,0,0,0,0,0.3v24.4L220.9,216.8z"></path> 
</g> 
</g> 
 <g id="_Group_43"> <g id="_Group_44"> <g id="_Group_45"> <g id="_Group_46"> <path id="_Path_15" class="st5-1467329406" d="M348.1,347.1c0,6-4.9,11.2-11.2,11.2H180.1c-6,0-11.2-4.9-11.2-11.2V217.8
								c0-6,4.9-11.2,11.2-11.2h156.6c6,0,11.2,4.9,11.2,11.2v129.3H348.1z"></path> 
</g> 
</g> 
</g> 
 <g id="_Group_47"> <g id="_Group_48"> <g id="_Group_49"> <g id="_Group_50"> <g id="_Group_51"> <g id="_Group_52"> <g id="_Group_53"> <g id="_Group_54"> <path id="_Path_16" class="st6-1467329406" d="M211.2,207.2v-24.4c0-25.7,20.8-46.5,46.5-46.5c0,0,0,0,0.3,0h1.8
													c25.7,0,46.5,20.8,46.5,46.5c0,0,0,0,0,0.3v24.4h21.8V183c0-37.9-30.9-68.3-68.8-68.8h-1.6c-37.9,0-68.3,30.9-68.8,68.8
													v24.4L211.2,207.2z"></path> 
</g> 
</g> 
</g> 
</g> 
</g> 
</g> 
</g> 
</g> 
 <g id="_Group_55"> <g id="_Group_56"> <g id="_Group_57"> <g id="_Group_58"> <g id="_Group_59"> <g id="_Group_60"> <g id="_Group_61"> <g id="_Group_62"> <path id="_Path_17" class="st7-1467329406" d="M283.2,269.5c-0.3-13.5-11.9-24.4-25.7-23.9c-13,0.3-23.4,10.6-23.9,23.9
													c0,10.4,6.5,19.7,16.4,22.8v33.2h16.9v-33.2C276.7,289.2,283.2,279.9,283.2,269.5z"></path> 
</g> 
</g> 
</g> 
</g> 
</g> 
</g> 
</g> 
</g> 
</g> 
</g> 
</g> 
</g> 
</svg>