<?xml version="1.0" encoding="utf-8"?>
<!-- Generator: Adobe Illustrator 24.1.2, SVG Export Plug-In . SVG Version: 6.00 Build 0)  -->
<svg version="1.1" id="Layer_1" xmlns="http://www.w3.org/2000/svg" xmlns:xlink="http://www.w3.org/1999/xlink" x="0px" y="0px"
	 viewBox="0 0 960 280" style="enable-background:new 0 0 960 280;" xml:space="preserve">
<style type="text/css">
	.st0{fill:#F7F7F7;}
	.st1{fill:#C3ECFC;}
	.st2{fill:none;stroke:#ED8B00;stroke-width:3;stroke-linecap:square;stroke-miterlimit:10;}
	.st3{fill:#1AA1FC;}
	.st4{fill:#E2F4FD;}
	.st5{fill:#9AD9FC;}
	.st6{fill:#005EB8;}
	.st7{fill:#FFFFFF;}
	.st8{fill:#ED8B00;}
	.st9{fill:#FBB040;}
	.st10{fill:#FFFFFF;stroke:#ED8B00;stroke-width:3;stroke-miterlimit:10;}
	.st11{fill:#CCCCCC;}
	.st12{fill:#DDDDDD;}
	.st13{fill:#E2B691;}
	.st14{fill:#DE9C86;}
	.st15{fill:#033D6D;}
	.st16{fill:#9CD6F7;}
	.st17{fill:#2B4249;}
	.st18{fill:#04579B;}
	.st19{fill:#D5876E;}
	.st20{fill:none;stroke:#EFEFEF;stroke-width:4;stroke-miterlimit:10;}
	.st21{fill:#A2734E;}
	.st22{fill:#0095D6;}
</style>
<path class="st0" d="M700.9,118.9h23.3c3.2,0,5.8,2.6,5.8,5.8v30.2l0,0h-34.9l0,0v-30.2C695.1,121.4,697.7,118.9,700.9,118.9z"/>
<path class="st0" d="M776.7,154.8h-34.9v-48.3c0-3.2,2.6-5.8,5.8-5.8h23.3c3.2,0,5.8,2.6,5.8,5.8L776.7,154.8z"/>
<path class="st0" d="M879.3,154.8V24.1c0-3.2,2.6-5.8,5.8-5.8h23.3c3.2,0,5.8,2.6,5.8,5.8v130.7H879.3z"/>
<path class="st0" d="M960,5.8v149h-34.8V5.8c0-3.2,2.6-5.8,5.8-5.8c0,0,0,0,0,0h23.3C957.4,0,960,2.6,960,5.8z"/>
<path class="st1" d="M960,50.1l-34.9-2.6l10.1,13.1c-54.7,43.9-118.9,63.3-186.6,64.4c67.8,3.9,136.8-8.8,195.8-52.5l10,13L960,50.1
	z"/>
<path class="st1" d="M412.3,56.3c2.9,0,5.8,0.3,8.6,0.9c2.2-10.8,9.1-19.9,18.9-25c9.8-5,21.4-5.2,31.4-0.5
	c8.5-25,35.6-38.5,60.7-30s38.5,35.6,30,60.7c-0.2,0.6-0.4,1.3-0.7,1.9c22,1.4,38.8,20.5,37.3,42.5c-1.3,20.5-18,36.6-38.5,37.4
	H412.2c-24.2,0-43.9-19.7-43.8-43.9S388,56.3,412.3,56.3L412.3,56.3L412.3,56.3z"/>
<line class="st2" x1="142.9" y1="137.1" x2="824.9" y2="137.1"/>
<line class="st2" x1="140.4" y1="137.1" x2="140.4" y2="156.6"/>
<line class="st2" x1="824.9" y1="137.1" x2="824.9" y2="156.6"/>
<g id="_Group_6">
	<path id="_Path_4" class="st3" d="M289.3,105.1c-2.2,0-4,1.8-4,4l0,0v100.1c0,2.2,1.8,4,4,4h155.3c2.2,0,4-1.8,4-4l0,0V109.1
		c0-2.2-1.8-4-4-4l0,0L289.3,105.1z"/>
	<polygon class="st4" points="292.5,206 292.5,112.3 441.3,112.4 441.3,206 	"/>
	<path id="_Path_5" class="st5" d="M276.3,217.9h181c4.8,0,8.6-3.9,8.7-8.7H267.7C267.7,214,271.5,217.9,276.3,217.9
		C276.3,217.9,276.3,217.9,276.3,217.9z"/>
	<path id="_Path_6" class="st6" d="M269.1,213.9c1.5,2.5,4.3,4,7.2,4h181c3,0.1,5.7-1.5,7.2-4H269.1z"/>
	<circle id="_Path_7" class="st6" cx="283.3" cy="211.4" r="1"/>
	<circle id="_Path_8" class="st6" cx="280.7" cy="211.4" r="1"/>
	<circle id="_Path_9" class="st6" cx="278" cy="211.4" r="1"/>
</g>
<rect x="292.5" y="111.6" class="st6" width="149.1" height="8.6"/>
<circle class="st7" cx="299.3" cy="116" r="1.9"/>
<circle class="st7" cx="305.4" cy="116" r="1.9"/>
<circle class="st7" cx="311.6" cy="116" r="1.9"/>
<rect x="302.5" y="131.4" class="st6" width="97.2" height="4.9"/>
<circle class="st6" cx="415.9" cy="125.7" r="1.3"/>
<circle class="st5" cx="410.9" cy="125.7" r="1.3"/>
<circle class="st8" cx="420.8" cy="125.7" r="1.3"/>
<rect x="302.5" y="159.4" class="st3" width="26.6" height="12.3"/>
<rect x="302.5" y="154.5" class="st5" width="37.1" height="2.4"/>
<rect x="333.8" y="159.5" class="st5" width="62.8" height="12.2"/>
<path class="st9" d="M395.7,174.5h-13.4c-0.5,0-0.9,0.4-0.9,0.9c0,0,0,0,0,0v2.4c0,0.5,0.4,0.9,0.9,0.9c0,0,0,0,0,0h13.4
	c0.5,0,0.9-0.4,0.9-0.9c0,0,0,0,0,0v-2.4C396.6,174.9,396.2,174.5,395.7,174.5C395.7,174.5,395.7,174.5,395.7,174.5z"/>
<circle class="st5" cx="391.7" cy="155.7" r="1.3"/>
<circle class="st5" cx="388" cy="155.7" r="1.3"/>
<circle class="st5" cx="395.4" cy="155.7" r="1.3"/>
<rect x="302.5" y="181.1" class="st5" width="37.1" height="2.4"/>
<rect x="333.8" y="186" class="st5" width="62.8" height="12.3"/>
<path class="st9" d="M395.7,200.1h-13.4c-0.5,0-0.9,0.4-0.9,0.9c0,0,0,0,0,0v2.4c0,0.5,0.4,0.9,0.9,0.9c0,0,0,0,0,0h13.4
	c0.5,0,0.9-0.4,0.9-0.9c0,0,0,0,0,0v-2.4C396.6,200.6,396.2,200.2,395.7,200.1C395.7,200.1,395.7,200.1,395.7,200.1z"/>
<circle class="st5" cx="391.7" cy="182.4" r="1.3"/>
<circle class="st5" cx="388" cy="182.4" r="1.3"/>
<circle class="st5" cx="395.4" cy="182.4" r="1.3"/>
<rect x="302.5" y="186" class="st9" width="26.6" height="12.3"/>
<path class="st8" d="M318.8,195h-6c-0.5,0-0.8-0.4-0.9-0.9v-4.1c0-0.5,0.4-0.8,0.9-0.9h6c0.5,0,0.8,0.4,0.9,0.9v4.1
	C319.7,194.6,319.3,195,318.8,195z"/>
<polygon class="st7" points="315,190.8 317.1,192.1 315,193.5 "/>
<rect x="302.5" y="141.3" class="st6" width="130.5" height="7.4"/>
<rect x="310.3" y="143.9" class="st7" width="7.4" height="2.1"/>
<rect x="322.7" y="143.9" class="st7" width="7.4" height="2.1"/>
<rect x="335" y="143.9" class="st7" width="7.4" height="2.1"/>
<rect x="347.3" y="143.9" class="st7" width="7.4" height="2.1"/>
<rect x="359.6" y="143.9" class="st7" width="7.4" height="2.1"/>
<rect x="371.9" y="143.9" class="st7" width="7.4" height="2.1"/>
<rect x="384.3" y="143.9" class="st7" width="7.4" height="2.1"/>
<rect x="302.3" y="124.7" class="st6" width="7.5" height="2.2"/>
<rect x="339.5" y="124.7" class="st5" width="7.5" height="2.2"/>
<rect x="327.2" y="124.7" class="st5" width="7.5" height="2.2"/>
<rect x="314.9" y="124.7" class="st5" width="7.5" height="2.2"/>
<rect x="403.3" y="131.4" class="st5" width="25.2" height="4.9"/>
<rect x="428.1" y="131.4" class="st6" width="4.9" height="4.9"/>
<rect x="403.2" y="154.5" class="st3" width="29.8" height="5"/>
<rect x="410.6" y="162.2" class="st5" width="22.3" height="1.3"/>
<rect x="410.6" y="165.9" class="st5" width="19.7" height="1.3"/>
<rect x="410.6" y="169.8" class="st5" width="19.6" height="1.3"/>
<rect x="410.6" y="173.5" class="st5" width="17.5" height="1.3"/>
<rect x="410.6" y="177.2" class="st5" width="21.3" height="1.3"/>
<rect x="410.6" y="180.9" class="st5" width="18.8" height="1.3"/>
<rect x="410.6" y="184.9" class="st5" width="19.5" height="1.3"/>
<rect x="410.6" y="188.5" class="st5" width="18.2" height="1.3"/>
<rect x="403.1" y="162.2" class="st5" width="4.9" height="4.9"/>
<rect x="403.1" y="169.7" class="st5" width="4.9" height="4.9"/>
<rect x="403.1" y="177.1" class="st5" width="4.9" height="4.9"/>
<rect x="403.1" y="184.9" class="st5" width="4.9" height="4.9"/>
<rect x="410.6" y="192.7" class="st5" width="21.3" height="1.3"/>
<rect x="410.6" y="196.4" class="st5" width="18.8" height="1.3"/>
<rect x="410.6" y="200.4" class="st5" width="19.5" height="1.3"/>
<rect x="410.6" y="204.1" class="st5" width="18.2" height="1.3"/>
<rect x="403.1" y="192.7" class="st5" width="4.9" height="4.9"/>
<rect x="403.1" y="200.4" class="st5" width="4.9" height="4.9"/>
<circle class="st8" cx="429.6" cy="125.7" r="3.3"/>
<circle class="st7" cx="429.6" cy="124.4" r="1.1"/>
<path class="st7" d="M429.6,128.1c0.9,0,1.7-0.5,2.1-1.3c-0.4-0.6-1.1-1-1.9-1h-0.5c-0.7,0-1.4,0.4-1.9,1
	C428,127.5,428.8,128,429.6,128.1z"/>
<rect x="500.7" y="151.3" class="st6" width="151.4" height="95.3"/>
<rect x="509.5" y="157.5" class="st4" width="133.7" height="89"/>
<rect x="509.5" y="157.5" class="st5" width="133.7" height="10.4"/>
<polygon class="st3" points="488.8,151.3 576.5,124.1 662.9,151.3 "/>
<rect x="582.7" y="202.8" class="st3" width="51.4" height="27"/>
<path class="st5" d="M636,186.8h-55.3c-1.2,0-2.2,0.9-2.2,2.1c0,0,0,0,0,0.1v14c0,1.2,0.9,2.2,2.1,2.2c0,0,0,0,0.1,0H636
	c1.2,0,2.2-0.9,2.2-2.1c0,0,0,0,0-0.1v-14c0-1.2-0.9-2.2-2.1-2.2C636.1,186.8,636,186.8,636,186.8z"/>
<rect x="608" y="190" class="st1" width="27" height="11.8"/>
<rect x="608" y="199.6" class="st7" width="27" height="2.2"/>
<circle class="st1" cx="586.7" cy="195.9" r="3.1"/>
<circle class="st3" cx="597.4" cy="195.9" r="3.1"/>
<path class="st5" d="M636,207.3h-55.3c-1.2,0-2.2,0.9-2.2,2.1c0,0,0,0,0,0.1v14.1c0,1.2,0.9,2.2,2.1,2.2c0,0,0,0,0.1,0H636
	c1.2,0,2.2-0.9,2.2-2.1c0,0,0,0,0-0.1v-14C638.2,208.4,637.3,207.4,636,207.3C636.1,207.3,636,207.3,636,207.3z"/>
<rect x="608" y="210.7" class="st1" width="27" height="11.8"/>
<rect x="608" y="220.3" class="st7" width="27" height="2.2"/>
<circle class="st1" cx="586.7" cy="216.7" r="3.1"/>
<circle class="st3" cx="597.4" cy="216.7" r="3.1"/>
<path class="st5" d="M636,228h-55.3c-1.2,0-2.2,0.9-2.2,2.1c0,0,0,0,0,0.1v14c0,1.2,0.9,2.2,2.1,2.2c0,0,0,0,0.1,0H636
	c1.2,0,2.2-0.9,2.2-2.1c0,0,0,0,0-0.1v-14C638.2,229,637.2,228,636,228z"/>
<rect x="608" y="231.4" class="st1" width="27" height="11.8"/>
<rect x="608" y="240.9" class="st7" width="27" height="2.2"/>
<circle class="st1" cx="586.7" cy="237.2" r="3.1"/>
<circle class="st3" cx="597.4" cy="237.2" r="3.1"/>
<rect x="518.9" y="202.8" class="st3" width="51.4" height="27"/>
<path class="st5" d="M572.2,186.8h-55.3c-1.2,0-2.2,0.9-2.2,2.1c0,0,0,0,0,0.1v14c0,1.2,0.9,2.2,2.1,2.2c0,0,0,0,0.1,0h55.3
	c1.2,0,2.2-0.9,2.2-2.1c0,0,0,0,0-0.1v-14c0-1.2-0.9-2.2-2.1-2.2C572.3,186.8,572.2,186.8,572.2,186.8z"/>
<rect x="544.2" y="190" class="st1" width="27" height="11.8"/>
<rect x="544.2" y="199.6" class="st7" width="27" height="2.2"/>
<circle class="st1" cx="522.8" cy="195.9" r="3.1"/>
<circle class="st3" cx="533.5" cy="195.9" r="3.1"/>
<path class="st5" d="M572.2,207.3h-55.3c-1.2,0-2.2,0.9-2.2,2.1c0,0,0,0,0,0.1v14.1c0,1.2,0.9,2.2,2.1,2.2c0,0,0,0,0.1,0h55.3
	c1.2,0,2.2-0.9,2.2-2.1c0,0,0,0,0-0.1v-14C574.4,208.4,573.5,207.4,572.2,207.3C572.3,207.3,572.2,207.3,572.2,207.3z"/>
<rect x="544.2" y="210.7" class="st1" width="27" height="11.8"/>
<rect x="544.2" y="220.3" class="st7" width="27" height="2.2"/>
<circle class="st1" cx="522.8" cy="216.7" r="3.1"/>
<circle class="st3" cx="533.5" cy="216.7" r="3.1"/>
<path class="st5" d="M572.2,228h-55.3c-1.2,0-2.2,0.9-2.2,2.1c0,0,0,0,0,0.1v14c0,1.2,0.9,2.2,2.1,2.2c0,0,0,0,0.1,0h55.3
	c1.2,0,2.2-0.9,2.2-2.1c0,0,0,0,0-0.1v-14C574.4,229,573.4,228,572.2,228z"/>
<rect x="544.2" y="231.4" class="st1" width="27" height="11.8"/>
<rect x="544.2" y="240.9" class="st7" width="27" height="2.2"/>
<circle class="st1" cx="522.8" cy="237.2" r="3.1"/>
<circle class="st3" cx="533.5" cy="237.2" r="3.1"/>
<rect x="544.5" y="192.5" class="st6" width="63.7" height="33.5"/>
<path class="st3" d="M610.7,172.5h-68.5c-1.5,0-2.7,1.2-2.7,2.7v17.3c0,1.5,1.2,2.7,2.7,2.7h68.5c1.5,0,2.7-1.2,2.7-2.7v-17.3
	C613.4,173.7,612.2,172.5,610.7,172.5z"/>
<rect x="575.8" y="176.6" class="st9" width="33.5" height="14.6"/>
<rect x="575.8" y="188.5" class="st7" width="33.5" height="2.7"/>
<circle class="st9" cx="549.4" cy="184" r="3.8"/>
<circle class="st6" cx="562.7" cy="184" r="3.8"/>
<path class="st3" d="M610.7,198.1h-68.5c-1.5,0-2.7,1.2-2.7,2.7v17.3c0,1.5,1.2,2.7,2.7,2.7h68.5c1.5,0,2.7-1.2,2.7-2.7v-17.3
	C613.4,199.3,612.2,198.1,610.7,198.1z"/>
<rect x="575.8" y="202.2" class="st9" width="33.5" height="14.6"/>
<rect x="575.8" y="214.2" class="st7" width="33.5" height="2.7"/>
<circle class="st9" cx="549.4" cy="209.6" r="3.8"/>
<circle class="st6" cx="562.7" cy="209.6" r="3.8"/>
<path class="st3" d="M610.7,223.7h-68.5c-1.5,0-2.7,1.2-2.7,2.7v17.3c0,1.5,1.2,2.7,2.7,2.7h68.5c1.5,0,2.7-1.2,2.7-2.7v-17.3
	C613.4,224.9,612.2,223.7,610.7,223.7z"/>
<rect x="575.8" y="227.8" class="st9" width="33.5" height="14.6"/>
<rect x="575.8" y="239.8" class="st7" width="33.5" height="2.7"/>
<circle class="st9" cx="549.4" cy="235" r="3.8"/>
<circle class="st6" cx="562.7" cy="235" r="3.8"/>
<rect x="480.3" y="246.5" class="st6" width="192.2" height="3.1"/>
<ellipse class="st10" cx="480" cy="137.1" rx="58.8" ry="59"/>
<ellipse class="st9" cx="480" cy="137.1" rx="54.1" ry="54.3"/>
<g id="surface1">
	<path class="st7" d="M457,116.9c0.2,0,0.4,0.1,0.5,0.3l15.9,16l2.9-2.9l-15.9-16c-0.1-0.1-0.2-0.3-0.3-0.5l-1-4l-6.7-3.8l-3.3,3.3
		l3.8,6.7L457,116.9z"/>
	<path class="st7" d="M471.1,153.4l25.3-25.4c0.3-0.3,0.7-0.4,1.1-0.3c5.9,1.5,12-2.1,13.5-8c0.2-0.9,0.3-1.9,0.3-2.8
		c0-0.2,0-0.4,0-0.6l-5.9,5.9c-0.3,0.3-0.7,0.4-1.1,0.3l-6.7-2.2c-0.3-0.1-0.6-0.4-0.7-0.7l-2.2-6.7c-0.1-0.4,0-0.8,0.3-1.1l5.9-5.9
		c-6.1-0.4-11.4,4.3-11.8,10.4c-0.1,1.2,0,2.3,0.3,3.4c0.1,0.4,0,0.8-0.3,1.1L463.8,146c-0.3,0.3-0.7,0.4-1.1,0.3
		c-0.9-0.2-1.8-0.3-2.7-0.4c-6.2-0.1-11.3,4.9-11.4,11.1c-0.1,6.2,4.9,11.3,11.1,11.4s11.3-4.9,11.4-11.1c0-1-0.1-1.9-0.3-2.9
		C470.7,154,470.8,153.6,471.1,153.4z M462.7,161.6h-5.4l-2.7-4.5l2.7-4.5h5.4l2.7,4.5L462.7,161.6z M467,148.5l24.5-24.6l1.6,1.6
		l-24.5,24.6L467,148.5z"/>
	<path class="st7" d="M502.1,167.9c3.5,1.3,7.4-0.5,8.7-4c0.6-1.5,0.6-3.2,0-4.8L502.1,167.9z"/>
	<path class="st7" d="M509.3,156.7l-12.5-12.6c-1.5,1.2-3.7,1.1-4.9-0.4c-1.1-1.3-1.1-3.2,0-4.5l-1.8-1.8l-9.6,9.6l1.8,1.8
		c1.5-1.2,3.7-1.1,4.9,0.4c1.1,1.3,1.1,3.2,0,4.5l12.5,12.5c0.1,0.1,0.3,0.3,0.4,0.4l9.5-9.6C509.5,157,509.4,156.8,509.3,156.7z
		 M502.7,161.3l-11.1-11.2l1.6-1.6l11.1,11.2L502.7,161.3z"/>
</g>
<g id="character2">
	<path class="st0" d="M55.1,268.5c1.3,0,2.4-1.1,2.4-2.4l0,0v-40.7c0-1.3-1.1-2.4-2.4-2.4c-1.3,0-2.4,1.1-2.4,2.4v40.7
		C52.7,267.4,53.8,268.5,55.1,268.5L55.1,268.5z"/>
	<path class="st0" d="M27.6,278.4c1,0,1.8-0.8,1.8-1.8l0,0v-4.4c0.1-1.4,1.4-2.4,2.8-2.3H78c1.4-0.1,2.6,0.9,2.8,2.3v3.8
		c0.1,1,0.9,1.7,1.9,1.7c0.9-0.1,1.6-0.8,1.7-1.7v-3.9c-0.2-3.4-3-6-6.4-5.8H32.1c-3.4-0.1-6.2,2.5-6.4,5.9v4.4
		C25.8,277.6,26.6,278.4,27.6,278.4C27.6,278.4,27.6,278.4,27.6,278.4z"/>
	<path class="st0" d="M22.8,276c0,0.1,0,0.1,0,0.2c0,2.2,1.9,4,4.1,3.9s4-1.9,3.9-4.1s-1.9-4-4.1-3.9
		C24.6,272.1,22.8,273.9,22.8,276z"/>
	<path class="st0" d="M80.4,276c-0.3,2.2,1.2,4.2,3.4,4.5c2.2,0.3,4.2-1.2,4.5-3.4c0-0.4,0-0.7,0-1.1c0-0.1,0-0.1,0-0.2
		c-0.4-2.2-2.4-3.7-4.6-3.3C82,272.8,80.7,274.2,80.4,276L80.4,276z"/>
	<path class="st11" d="M46,205.9H28.4c-3,0-5.6-2.2-6-5.2l-6.1-43.8c-0.5-3.3,1.8-6.3,5.1-6.8c0.3,0,0.6-0.1,0.9-0.1H44
		c3.2,0,5.9,2.5,6,5.8l2,43.8c0.2,3.3-2.4,6.1-5.7,6.3C46.2,205.9,46.1,205.9,46,205.9z"/>
	<path class="st11" d="M28.8,229h52.7c2,0,3.6-1.6,3.6-3.6c0-2-1.6-3.6-3.6-3.6c0,0,0,0,0,0H28.8c-2,0-3.6,1.6-3.6,3.6
		C25.2,227.4,26.8,229,28.8,229z"/>
	<path class="st0" d="M40.9,276c0.3,2.2,2.2,3.8,4.4,3.5c1.8-0.2,3.2-1.6,3.5-3.4c0,0,0-0.1,0-0.1c0.3-2.2-1.2-4.2-3.4-4.5
		c-2.2-0.3-4.2,1.2-4.5,3.4C40.8,275.3,40.8,275.6,40.9,276z"/>
	<path class="st0" d="M44.8,276.5c1,0,1.8-0.8,1.8-1.8l0,0v-6.6c0.1-1-0.7-1.8-1.7-1.9s-1.8,0.7-1.9,1.7c0,0.1,0,0.2,0,0.3v6.6
		C43,275.7,43.8,276.5,44.8,276.5z"/>
	<path class="st0" d="M60.2,276c0.2,2.2,2.2,3.8,4.4,3.6c1.8-0.2,3.2-1.5,3.5-3.3c0-0.1,0-0.2,0-0.3c0.3-2.2-1.2-4.2-3.4-4.5
		c-2.2-0.3-4.2,1.2-4.5,3.4C60.2,275.3,60.2,275.6,60.2,276L60.2,276z"/>
	<path class="st0" d="M64.2,277.2c1,0,1.8-0.8,1.8-1.8c0,0,0,0,0,0v-7.3c0.1-1-0.7-1.8-1.7-1.9c-1-0.1-1.8,0.7-1.9,1.7
		c0,0.1,0,0.2,0,0.3v7.3C62.4,276.4,63.2,277.2,64.2,277.2z"/>
	<path class="st12" d="M60.2,276c0.2,2.2,2.2,3.8,4.4,3.6c1.8-0.2,3.2-1.5,3.5-3.3l-7.8-1.4C60.3,275.3,60.2,275.6,60.2,276z"/>
	<path class="st12" d="M40.9,276c0.3,2.2,2.2,3.8,4.4,3.5c1.8-0.2,3.2-1.6,3.5-3.4l-7.7-1.4C40.9,275.1,40.9,275.6,40.9,276z"/>
	<path class="st12" d="M22.8,276.2c0,2.2,1.7,4,3.9,4.1c2.2,0,4-1.7,4.1-3.9c0-0.5-0.1-0.9-0.2-1.4L22.8,276.2z"/>
	<path class="st12" d="M80.4,276c-0.3,2.2,1.2,4.2,3.4,4.5c2.2,0.3,4.2-1.2,4.5-3.4c0-0.4,0-0.7,0-1.1c0-0.1,0-0.1,0-0.2l-7.8-0.7
		C80.5,275.4,80.4,275.7,80.4,276z"/>
	<path class="st12" d="M67.9,232.6h-25c-1.1,0-2-0.9-2-2v-1.9l0,0h29l0,0v1.9C69.9,231.7,69,232.6,67.9,232.6L67.9,232.6z"/>
	<path class="st12" d="M51.7,263.4v-13.6c0-0.8,0.7-1.5,1.5-1.5h0H57c0.8,0,1.5,0.7,1.5,1.5l0,0v13.6c0,0.8,0.6,1.5,1.5,1.6
		c0,0,0,0,0,0h6.7c0.8,0,1.5,0.7,1.5,1.5v2.8c0,0.8-0.7,1.5-1.5,1.5h-24c-0.8,0-1.5-0.7-1.5-1.5v-2.8c0-0.8,0.7-1.5,1.5-1.5
		c0,0,0,0,0.1,0h7.4C51,265,51.7,264.3,51.7,263.4C51.7,263.5,51.7,263.5,51.7,263.4z"/>
	<path class="st12" d="M50.3,231.4v0.9v1v0.4l0,0l0,0c0,0-0.1,0.1-0.1,0.1h-0.1h-0.3H49l-1.8,0.1l-3.9,0.1l-10.5,0.4
		c-0.7,0-1.2,0.6-1.2,1.3s0.6,1.2,1.3,1.2l0,0H33l10.5-0.9l3.9-0.3l1.8-0.2l0.8-0.1h0.2h0.1h0.2c0.7-0.1,1.2-0.6,1.4-1.2
		c0,0,0-0.1,0-0.1v-0.1v-0.4l0,0v-0.3v-1v-0.9c0-0.4-0.3-0.7-0.7-0.7S50.4,231,50.3,231.4L50.3,231.4z"/>
	<path class="st13" d="M85.4,172.9c0.4,1.7,1.9,7.2,3,8.7s27.2,4.4,28.1,5.4c0.3,0.4,3.2,7.5-4.1,7.5H78.5c-1.9,0-7.7-11.1-7.5-13.9
		C71.6,171.2,84.5,169.4,85.4,172.9z"/>
	<path class="st1" d="M16.5,175.4c0.4,2,13.9,3.2,14.9,3.2c0.4,0,0.6,19.2,0.8,20.2c0.1,0.4,7.2,0.9,15.5,1.2l2,0.1
		c6.9,0.2,14.3,0.3,19.2,0.1c0.7,0,1.4-0.1,2-0.1c1.9-0.2,3-0.4,3.2-0.7c0.9-2.1-0.9-15.5-0.9-19.2c1.8-0.5,12.1-4.5,12.4-7
		s-7.2-22.8-8.9-25.3c-1.1-1.6-6.7-4.1-11.6-5.7c-1.4-0.4-2.7-0.8-3.6-1.1l-1.4-0.4l-3.5-0.8L45.9,139c0,0-2.3,0.7-5.3,1.7l-2.2,0.7
		c-5.9,2-13.3,4.8-14.9,6.8C21.1,150.9,16.1,173.5,16.5,175.4z"/>
	<path class="st0" d="M84.4,166.8L84.4,166.8c0.2,0,0.3-0.2,0.3-0.4c-1.9-6.5-4.5-12.9-7.7-18.9c-1.1-1.7-6.4-4.1-11-5.6
		c-0.2,0-0.3,0.1-0.4,0.2c0,0.1,0,0.3,0.2,0.3c5.2,1.6,9.8,3.9,10.7,5.3c3.2,6,5.7,12.2,7.6,18.7C84.1,166.7,84.3,166.8,84.4,166.8z
		"/>
	<path class="st0" d="M41,140.8L41,140.8l2.2-0.7c0.2-0.1,0.2-0.2,0.2-0.4c-0.1-0.1-0.2-0.2-0.3-0.2l-2.2,0.7
		c-0.2,0.1-0.2,0.2-0.2,0.4C40.8,140.7,40.9,140.8,41,140.8L41,140.8z"/>
	<path class="st0" d="M22.4,150.4c0.1,0,0.2-0.1,0.3-0.2c0.2-0.7,0.6-1.3,1-1.9c1.2-1.5,6.1-3.7,14-6.4c0.1-0.1,0.2-0.3,0.1-0.4
		c-0.1-0.1-0.2-0.2-0.3-0.2c-8.2,2.8-13,5-14.3,6.6c-0.5,0.6-0.8,1.4-1.1,2.1c-0.1,0.2,0,0.3,0.2,0.4c0,0,0,0,0,0L22.4,150.4z"/>
	<path class="st3" d="M61.4,141.2c3.9,2.6,6,9.2,6.7,14c0.8,6.1,0.8,36.6,0.8,44.8c0,1.2,0,2,0,2h2c0-0.2,0-1,0-2.2
		c0-8.5,0-38.7-0.8-45c-0.6-4.3-2.1-9.5-4.9-12.9c-1.4-0.4-2.7-0.8-3.6-1.1L61.4,141.2z"/>
	<path class="st14" d="M48.8,124.2c-0.7,4.3-1.7,8.5-3,12.7c-0.7,2.3,6.5,2.9,10.8,2.8c1.9-0.1,3.1,0.9,3-0.2
		c-0.3-2.7,0.6-11.1,0.6-11.1L48.8,124.2z"/>
	<path class="st15" d="M49.7,200c-4.1,6-8.1,17.6-7.2,21.6s65-2.5,65-2.5s4.7-9.9,3.4-11.3s-33.1-7.1-39.4-7.3L49.7,200z"/>
	<path class="st6" d="M35.9,200.2c-4.1,6-1.2,17.3-0.3,21.3s54.2,2.4,54.2,2.4s4.7-9.9,3.4-11.3s-33-10.8-36.5-11.7
		S35.9,200.2,35.9,200.2z"/>
	<path class="st15" d="M110.9,207.8c3,1.3,20.8,52.6,20.8,52.6l-5.5,3.3c0,0-18.2-20.7-21-27.2s-1.1-20.3-1.1-20.3L110.9,207.8z"/>
	<path class="st6" d="M93.2,212.6c3,1.2,27.2,51.7,27.2,51.7l-5.4,3.5c0,0-23-20.9-25.9-27.2s0.6-19.1,0.6-19.1L93.2,212.6z"/>
	<path class="st16" d="M59.5,137.4c-0.4,0-2,1.8-2.9,1.8c-2.8-0.1-9.5-4.9-10-5s-3.3,4.3-3.2,4.7c0.1,1,10,6.4,10.1,6.4
		c0.3,0,2.5-5.6,3.1-5.6c0.4,0,3.2,5.3,3.5,5.6c0,0,3.3-3.8,3.1-3.9S60.3,137.4,59.5,137.4z"/>
	<path class="st16" d="M59.9,145.6c-0.4-0.6-0.8-1.2-1.2-1.9c-0.7-1.2-1.4-2.4-2.2-3.6c-0.7,1-1.2,2.1-1.7,3.3
		c-0.9,2-1.1,2.2-1.3,2.3c-0.1,0-0.2,0-1.8-0.9c-1.1-0.6-2.3-1.3-3.4-2c-5-3-5.2-3.6-5.3-3.7s-0.2-0.4,1.2-2.5
		c0.6-0.9,1.2-1.7,2-2.5c0.1-0.1,0.3-0.1,0.4,0c0.1,0.1,0.1,0.3,0,0.4c0,0,0,0-0.1,0c-1.2,1.3-2.2,2.7-2.9,4.3
		c0.6,0.9,8.4,5.5,9.8,6.1c0.2-0.3,0.6-1.2,0.9-1.9c1.3-2.8,1.8-3.7,2.3-3.7s0.7,0.5,2.7,3.9c0.3,0.5,0.7,1.1,0.9,1.5
		c1.2-1.4,2.4-2.8,2.8-3.3c-0.1-0.1-0.3-0.4-0.6-0.8c-0.8-1.1-1.6-2.1-2.6-3c-0.1-0.1-0.2-0.2-0.1-0.4c0.1-0.1,0.2-0.2,0.4-0.1
		c0,0,0,0,0.1,0c1.1,0.9,2,2,2.8,3.1c0.3,0.4,0.6,0.8,0.7,0.8c0.1,0,0.1,0.1,0.1,0.2c0,0.2,0.1,0.3-1.6,2.3
		c-0.8,0.9-1.6,1.9-1.6,1.9c-0.1,0.1-0.1,0.1-0.2,0.1l0,0C60.1,145.6,60,145.6,59.9,145.6z M43.6,138.9L43.6,138.9z"/>
	<path class="st17" d="M48.1,109c1.8-2.1,4.7-2.6,7.1-1.3c2.5-2.6,9.1-3.4,13.2,1.2c4.7,5.2,1.8,14.3,0,15c-1.1,0.5-3-3.6-3.9-5.6
		c-1.2,1.1-1.3,6.4,0.7,6.7c0.5-0.5,0.9,10.6-6.4,10.9c-5.2,0.2-10.7-4.7-10-11.7C46.3,126.3,44.5,113.3,48.1,109z"/>
	<path class="st13" d="M61.1,125.6c-1.5-0.2-8-0.9-9.5-5.4c-0.6-1.7,0.3-5.1,1.1-6.4c1.7-2.5,12.8,2.3,13,3.3
		c0.3,2.6,0.1,5.3-0.5,7.8C64.7,125.4,62.6,125.8,61.1,125.6z"/>
	<path class="st3" d="M38.3,141.3c3.4,2.8,5.7,8.6,6.5,13c1.1,6.3,2.7,39.1,3,45.6c-0.1,0.3,2,0.6,2,0.1c-0.3-6.3-1.8-39.5-3-46.1
		c-0.8-4.6-3-10.1-6.3-13.4L38.3,141.3z"/>
	<path class="st16" d="M62,200.5c0.2,0,0.3-0.1,0.3-0.3c0.3-4.6,0.2-17.4-0.3-29.3c-0.4-10.8-1.3-24.4-3.2-28.5
		c0-0.2-0.2-0.2-0.4-0.2s-0.2,0.2-0.2,0.4c0,0,0,0,0,0.1c3.3,7.1,3.9,48.4,3.4,57.5C61.7,200.4,61.8,200.5,62,200.5L62,200.5z"/>
	<path class="st16" d="M58.5,200.4c0.2,0,0.3-0.1,0.3-0.3c0.3-4.6,0.2-17.4-0.3-29.3c-0.4-10.8-1.3-24.4-3.2-28.5
		c0-0.2-0.2-0.2-0.4-0.2s-0.2,0.2-0.2,0.4c0,0,0,0,0,0.1c3.3,7.1,3.9,48.4,3.4,57.5C58.2,200.2,58.3,200.3,58.5,200.4L58.5,200.4z"
		/>
	<path class="st3" d="M56.7,141.2c0.8-0.4,0.9,1.4,0.3,1.5S56.1,141.4,56.7,141.2z"/>
	<path class="st16" d="M58.3,149c0.8-0.4,0.9,1.4,0.3,1.5S57.7,149.3,58.3,149z"/>
	<path class="st16" d="M59.2,157.7c0.8-0.4,0.9,1.4,0.3,1.5S58.5,158,59.2,157.7z"/>
	<path class="st16" d="M59.7,165.8c0.8-0.4,0.9,1.4,0.3,1.5S59,166.1,59.7,165.8z"/>
	<path class="st16" d="M59.9,173.9c0.8-0.4,0.9,1.4,0.3,1.5S59.3,174.2,59.9,173.9z"/>
	<path class="st16" d="M60.1,182c0.8-0.4,0.9,1.4,0.3,1.5S59.5,182.2,60.1,182z"/>
	<path class="st0" d="M60.4,189.5c0.8-0.4,0.9,1.4,0.3,1.5S59.8,189.8,60.4,189.5z"/>
	<path class="st0" d="M60.1,197.3c0.8-0.4,0.9,1.4,0.3,1.5S59.5,197.6,60.1,197.3z"/>
	<path class="st13" d="M131.7,260.4c1.5,3,3.1,5.5,4.4,6.1s16.9,0.9,17.2,2.6c0.1,0.4-19.6,6-21.6,4.8c-1.2-0.7-1.3-5.5-1.7-6
		c-0.9-1-3.1-3.5-3.8-4.2S131.2,259.5,131.7,260.4z"/>
	<path class="st18" d="M137.6,266.1c2.6-0.1,17.5,1,17.1,3c-0.3,1.5-21,6.1-23,6.1s-2-6.2-1.4-6.3s5,0.8,6.7,0.1
		S136.1,266.2,137.6,266.1z"/>
	<path class="st13" d="M120.6,265.1c1.5,3,3.1,5.5,4.4,6.1s16.9,0.9,17.2,2.6c0.1,0.4-19.6,6-21.6,4.8c-1.2-0.7-1.3-5.5-1.7-6
		c-0.9-1-3.1-3.5-3.8-4.2S120.2,264.2,120.6,265.1z"/>
	<path class="st6" d="M126.5,270.9c2.6-0.1,17.5,1,17.1,3c-0.3,1.5-21,6.1-23,6.1s-2-6.2-1.4-6.3s5,0.8,6.7,0.1
		S125.1,270.9,126.5,270.9z"/>
	<path class="st16" d="M84.2,167.3c1.4-1,2,0,2.1,0.9s1.2,1.3,1.3,2.2s-0.6,1.8-0.6,2.3s1,1.3,0.4,2.6c-1.4,2.9-10.8,5.5-14.2,5.9
		c0.2-4.2,0.1-7,0.1-7.6C75.8,172.7,81.7,169.1,84.2,167.3z"/>
	<path class="st16" d="M34.7,173.2c0.1,0,0.2-0.1,0.3-0.2c0.4-1.4,2-6.2,2.5-7.4c0-0.2-0.1-0.3-0.2-0.4c-0.1,0-0.3,0-0.3,0.1
		c-0.5,1.2-2.1,6.1-2.5,7.5C34.4,173,34.5,173.2,34.7,173.2C34.6,173.2,34.6,173.2,34.7,173.2L34.7,173.2z"/>
	<path class="st16" d="M73.3,173.2L73.3,173.2c0.2,0,0.3-0.1,0.3-0.3c0,0,0,0,0,0c0-0.4,0-1.1,0-2c-0.1-2.8-0.2-7.5-0.4-9
		c0-0.2-0.1-0.3-0.3-0.3c-0.2,0-0.3,0.1-0.3,0.3c0,0,0,0,0,0.1c0.2,1.5,0.3,6.2,0.4,9c0,0.9,0,1.6,0.1,2
		C73,173.1,73.1,173.2,73.3,173.2z"/>
	<path class="st13" d="M55.1,188c2.2,0,3.8-4.1,5.4-4.5c1.3-0.4,6.1,0.9,7,1.3s0.5,7.8-0.6,7.8H56.2L55.1,188z"/>
	<path class="st19" d="M67.7,186.9c0.2,0,0.3-0.1,0.3-0.3c0-0.1-0.1-0.2-0.2-0.3l-2.6-0.5c-0.2-0.1-0.3,0-0.4,0.2
		c-0.1,0.2,0,0.3,0.2,0.4c0,0,0.1,0,0.1,0L67.7,186.9L67.7,186.9z"/>
	<path class="st19" d="M67.4,189.4c0.2,0,0.3-0.1,0.3-0.3c0-0.1-0.1-0.2-0.2-0.3l-2.6-0.5c-0.2-0.1-0.3,0-0.4,0.2
		c-0.1,0.2,0,0.3,0.2,0.4c0,0,0.1,0,0.1,0L67.4,189.4L67.4,189.4z"/>
	<path class="st19" d="M67.1,191.9c0.2,0,0.3-0.1,0.3-0.3c0-0.1-0.1-0.2-0.2-0.3l-2.6-0.5c-0.2-0.1-0.3,0-0.4,0.2
		c-0.1,0.2,0,0.3,0.2,0.4c0,0,0.1,0,0.1,0L67.1,191.9L67.1,191.9z"/>
	<path class="st9" d="M49.2,122.4c-1.5,0-2.7-2.1-2.6-4.7s1.3-4.7,2.8-4.6S50.7,122.5,49.2,122.4z"/>
	<path class="st9" d="M49,113.3l0.7,0.1c0.4-2.5,1.7-4.8,3.7-6.4c2.1-1.8,5-2.4,7.6-1.5c0.6,0,1.3,0.1,1.9,0.2
		c-3.1-2.2-7.5-1.5-10.5,1.2C50.6,108.6,49.4,110.9,49,113.3z"/>
	<path class="st9" d="M59.1,129.8c0.3,0,0.6,0,0.9,0v-0.5c-5.1,0.5-9.7-3-10.7-8l-0.5,0.1c0.4,2.2,1.5,4.1,3.1,5.6
		C53.9,128.8,56.5,129.8,59.1,129.8z"/>
	<ellipse class="st7" cx="60.9" cy="129.4" rx="1.7" ry="1"/>
	<path class="st13" d="M17.2,175.4c-0.7,3.7-2.7,19.1,1.7,19.1h39.7c0,0,3-4.4-3.4-6.5c-6.1-2-18.2-7.4-23-5.3
		c-0.1-1.3-0.2-2.6-0.2-3.9C31.5,177.8,17.9,171.6,17.2,175.4z"/>
	<path class="st16" d="M34.2,173.4c0.7,0,1.2,0.6,1.2,1.2c0,0,0,0,0,0c0,0.5-0.8,0.4-0.8,0.7s0.3,0.8,0.3,1.4s-0.9,0.4-1,0.7
		s0.3,1.3-0.5,1.9s-6.5,0.2-12.2-1.4c-3.2-0.9-5.8-2.4-5.9-2.9s0.5-1.3,0.6-1.6s-0.5-0.5-0.7-1.5s1-1.3,1-1.6s-0.2-1.6,0.4-2.1
		s2.9,0.9,6.4,2.1S33.2,173.3,34.2,173.4z"/>
	<polygon class="st12" points="16,280 20.7,280 20.7,200.6 155.8,200.6 155.8,280 160.6,280 160.6,195.9 16,195.9 	"/>
	<path class="st0" d="M10.4,197.2H163c1.3,0,2.4-1.1,2.4-2.4c0-1.3-1.1-2.4-2.4-2.4H10.4c-1.3,0-2.4,1.1-2.4,2.4
		C8,196.1,9.1,197.2,10.4,197.2z"/>
	<path class="st6" d="M114.6,155.3l-11.1,35.3c-0.1,0.3-0.4,0.5-0.7,0.5H69.5c-0.4,0-0.7,0.3-0.7,0.6l0,0c0,0.4,0.3,0.6,0.7,0.6
		h82.7c0.5,0,1-0.3,1.1-0.8l11.4-36.1c0.1-0.4-0.1-0.9-0.5-1c-0.1,0-0.2,0-0.2,0h-48.3C115.2,154.5,114.7,154.8,114.6,155.3z"/>
</g>
<path class="st7" d="M605.2,69.5c0,3.5-0.8,6-2.3,7.6c-1.5,1.6-3.9,2.3-7.2,2.3c-0.8,0-1.7,0-2.5-0.1v-3.8c0.7,0.1,1.4,0.2,2.1,0.2
	c1.4,0.1,2.8-0.3,4-1.1c1-0.8,1.6-2.1,1.5-3.4h-0.2c-0.2,0.5-0.6,0.9-0.9,1.3c-0.3,0.3-0.7,0.5-1.1,0.6c-0.5,0.2-1.1,0.2-1.7,0.2
	c-1.4,0.1-2.7-0.5-3.6-1.6c-0.9-1.2-1.4-2.7-1.3-4.3c-0.3-3.2,2.1-6,5.3-6.3c0.3,0,0.7,0,1,0c1.9-0.1,3.8,0.7,5,2.2
	C604.8,65.1,605.4,67.3,605.2,69.5z M598.5,65c-0.5,0-1,0.2-1.3,0.6c-0.4,0.5-0.5,1.2-0.5,1.8c0,0.6,0.1,1.1,0.4,1.6
	c0.3,0.4,0.8,0.6,1.3,0.6c0.5,0,1-0.2,1.4-0.6c0.4-0.4,0.6-0.9,0.6-1.4c0-0.7-0.2-1.3-0.5-1.9C599.6,65.3,599.1,65,598.5,65z"/>
<path class="st7" d="M606.4,71.6c-0.1-2.1,0.3-4.1,1.1-6c0.6-1.5,1.7-2.7,3.1-3.4c1.6-0.8,3.3-1.2,5.1-1.1c0.8,0,1.7,0.1,2.5,0.2V65
	c-0.9-0.2-1.8-0.2-2.6-0.2c-1.3-0.1-2.6,0.3-3.6,1.1c-0.9,0.9-1.3,2.2-1.3,3.5h0.2c0.6-1.3,2-2.2,3.5-2.1c1.4-0.1,2.8,0.5,3.7,1.5
	c0.9,1.2,1.4,2.7,1.3,4.2c0.1,1.7-0.5,3.4-1.7,4.6c-2.8,2.4-7,2.3-9.6-0.3C606.9,75.7,606.3,73.6,606.4,71.6z M613,75.6
	c0.5,0,0.9-0.2,1.3-0.6c0.4-0.5,0.5-1.2,0.5-1.8c0-1.4-0.6-2.2-1.7-2.2c-0.5,0-1,0.2-1.3,0.6c-0.3,0.4-0.5,0.9-0.5,1.4
	c0,0.7,0.1,1.3,0.5,1.9C612,75.3,612.5,75.6,613,75.6L613,75.6z"/>
<path class="st7" d="M620.7,77.1c0-0.6,0.2-1.3,0.7-1.7c0.5-0.4,1.2-0.7,1.9-0.6c0.7,0,1.3,0.2,1.8,0.6c0.5,0.5,0.7,1.1,0.7,1.7
	c0,0.6-0.2,1.3-0.7,1.7c-0.5,0.4-1.2,0.7-1.8,0.6c-0.7,0-1.4-0.2-1.9-0.6C620.9,78.4,620.7,77.8,620.7,77.1z"/>
<path class="st7" d="M627.2,71.6c-0.1-2.1,0.3-4.1,1.1-6c0.6-1.5,1.7-2.7,3.1-3.4c1.6-0.8,3.3-1.2,5.1-1.1c0.8,0,1.7,0.1,2.5,0.2V65
	c-0.9-0.2-1.8-0.2-2.6-0.2c-1.3-0.1-2.6,0.3-3.6,1.1c-0.9,0.9-1.3,2.2-1.3,3.5h0.2c0.6-1.3,2-2.2,3.5-2.1c1.4-0.1,2.8,0.5,3.7,1.5
	c0.9,1.2,1.4,2.7,1.3,4.3c0.1,1.7-0.5,3.4-1.7,4.6c-2.8,2.4-7,2.3-9.6-0.3C627.7,75.7,627.1,73.6,627.2,71.6z M633.8,75.6
	c0.5,0,0.9-0.2,1.3-0.6c0.4-0.5,0.5-1.2,0.5-1.8c0-1.4-0.6-2.2-1.7-2.2c-0.5,0-1,0.2-1.3,0.6c-0.3,0.4-0.5,0.9-0.5,1.4
	c0,0.7,0.1,1.3,0.5,1.9C632.8,75.3,633.3,75.6,633.8,75.6L633.8,75.6z"/>
<line class="st20" x1="230.4" y1="165" x2="230.4" y2="185"/>
<line class="st20" x1="220.4" y1="175" x2="240.4" y2="175"/>
<line class="st20" x1="417.1" y1="257.5" x2="417.1" y2="272.5"/>
<line class="st20" x1="409.6" y1="265" x2="424.6" y2="265"/>
<line class="st20" x1="32.5" y1="9.3" x2="32.5" y2="24.3"/>
<line class="st20" x1="25" y1="16.8" x2="40" y2="16.8"/>
<line class="st20" x1="217.6" y1="83.1" x2="217.6" y2="98.1"/>
<line class="st20" x1="210.1" y1="90.6" x2="225.1" y2="90.6"/>
<line class="st20" x1="741.9" y1="212.9" x2="741.9" y2="227.9"/>
<line class="st20" x1="734.4" y1="220.4" x2="749.4" y2="220.4"/>
<line class="st20" x1="718.1" y1="227" x2="718.1" y2="247"/>
<line class="st20" x1="708.1" y1="237" x2="728.1" y2="237"/>
<rect y="52" class="st0" width="60.4" height="19.5"/>
<circle class="st9" cx="11.6" cy="61.7" r="6.4"/>
<path class="st7" d="M12.5,62.8h-1.7l-0.3-5h2.3L12.5,62.8z M10.5,64.6c0-0.3,0.1-0.5,0.3-0.7c0.2-0.2,0.5-0.3,0.8-0.3
	c0.3,0,0.6,0.1,0.8,0.3c0.2,0.2,0.3,0.5,0.3,0.7c0,0.3-0.1,0.5-0.3,0.7c-0.2,0.2-0.5,0.3-0.8,0.3c-0.3,0-0.6-0.1-0.8-0.3
	C10.6,65.1,10.5,64.9,10.5,64.6L10.5,64.6z"/>
<rect x="24.2" y="63.4" class="st12" width="29.1" height="3.7"/>
<rect x="24.2" y="56.3" class="st12" width="29.1" height="3.7"/>
<path class="st16" d="M26.2,77.2c0.4,0.6,0.6,1.2,0.6,1.9c0,0.7-0.2,1.4-0.6,2c-0.5,0.7-1.1,1.3-1.8,1.7c-0.6,0.4-1.1,0.7-1.8,0.9
	c-0.5,0.2-1.1,0.3-1.7,0.4l-1.5-2.4c0.7-0.1,1.3-0.2,2-0.4c0.6-0.2,1.1-0.5,1.6-0.8c0.3-0.2,0.6-0.4,0.7-0.8
	c0.1-0.2,0.1-0.5-0.1-0.7c-0.1-0.1-0.2-0.2-0.3-0.3c-0.2-0.1-0.4-0.1-0.5-0.1c-0.2,0-0.8,0.1-1.7,0.2c-0.7,0.1-1.3,0.1-2,0.1
	c-0.5-0.1-0.9-0.2-1.3-0.5c-0.4-0.3-0.7-0.7-1-1.1c-0.6-0.8-0.7-1.8-0.4-2.8c0.5-1.1,1.2-1.9,2.3-2.5c1.1-0.7,2.3-1.1,3.6-1.3
	l0.5,2.6c-1,0.1-1.9,0.4-2.8,0.9c-0.3,0.1-0.5,0.4-0.6,0.7c-0.1,0.2-0.1,0.4,0,0.6c0.1,0.2,0.4,0.3,0.6,0.3c0.7,0,1.4-0.1,2.2-0.2
	c0.8-0.2,1.7-0.1,2.6,0.1C25.3,76.1,25.9,76.6,26.2,77.2z"/>
<path class="st16" d="M35.8,68.4c1,1.3,1.4,2.9,1.2,4.6c-0.4,1.5-1.4,2.8-2.8,3.6c-1.3,0.9-2.9,1.3-4.4,0.9c-1.6-0.5-2.9-1.6-3.6-3
	c-1-1.3-1.4-2.9-1.2-4.6c0.4-1.5,1.4-2.8,2.8-3.6c1.3-0.9,2.9-1.3,4.4-1C33.7,65.9,35,67,35.8,68.4z M29,72.7
	c1.2,1.9,2.5,2.4,3.8,1.6c0.6-0.3,1-1,1.1-1.7c0-0.9-0.3-1.8-0.9-2.5c-0.4-0.8-1.1-1.5-1.9-1.9c-0.6-0.3-1.4-0.2-1.9,0.2
	C27.8,69.4,27.8,70.8,29,72.7z"/>
<path class="st16" d="M40.7,72.3l-6.2-9.9l2.7-1.7l4.9,7.7l3.8-2.4l1.4,2.2L40.7,72.3z"/>
<path class="st16" d="M48.1,53.8l3-1.9l3,11.9l-3.2,2L41.5,58l3-1.9l4.5,4.1c0.7,0.6,1.3,1.3,1.9,2c-0.2-0.3-0.4-0.8-0.6-1.3
	c-0.2-0.5-0.4-1-0.5-1.3L48.1,53.8z"/>
<path class="st16" d="M64.3,57.4l-5.9,3.7l-6.2-9.9l5.8-3.7l1.3,2.2l-3.2,2l1,1.6l3-1.9l1.3,2.2l-3,1.9l1.2,1.9l3.2-2L64.3,57.4z"/>
<path class="st16" d="M71.1,45.9c1,1.4,1.3,3,1,4.7c-0.5,1.6-1.5,3-3,3.8l-3.2,2l-6.2-9.9l3.4-2.2c1.3-0.9,2.9-1.3,4.4-1.1
	C69.1,43.5,70.4,44.5,71.1,45.9z M68.4,47.7c-0.4-0.8-1-1.4-1.8-1.7c-0.7-0.2-1.4-0.1-2,0.4l-0.8,0.5l3.5,5.5l0.6-0.4
	c0.7-0.4,1.2-1,1.3-1.8C69.3,49.3,69,48.4,68.4,47.7z"/>
<rect x="71.4" y="11.5" class="st0" width="51.8" height="16.7"/>
<circle class="st9" cx="81.4" cy="19.9" r="5.5"/>
<path class="st7" d="M82.1,20.8h-1.5l-0.2-4.3h1.9L82.1,20.8z M80.4,22.4c0-0.2,0.1-0.5,0.2-0.6c0.2-0.2,0.5-0.2,0.7-0.2
	c0.3,0,0.5,0.1,0.7,0.2c0.2,0.2,0.3,0.4,0.2,0.6c0,0.2-0.1,0.5-0.3,0.6c-0.2,0.2-0.4,0.2-0.7,0.2c-0.3,0-0.5-0.1-0.7-0.2
	C80.5,22.8,80.4,22.6,80.4,22.4z"/>
<rect x="92.2" y="21.4" class="st12" width="25" height="3.1"/>
<rect x="92.2" y="15.3" class="st12" width="25" height="3.1"/>
<path class="st16" d="M79.8,8.5c-0.1,0.6-0.4,1.2-0.9,1.7c-0.5,0.5-1.1,0.8-1.7,0.9c-0.8,0.2-1.6,0.2-2.3,0
	c-0.6-0.1-1.2-0.3-1.8-0.5c-0.5-0.2-1-0.5-1.4-0.8L72.3,7c0.5,0.4,1,0.7,1.6,1c0.5,0.3,1,0.5,1.6,0.6c0.3,0.1,0.7,0.1,1,0
	c0.2-0.1,0.4-0.3,0.4-0.5c0-0.1,0-0.3,0-0.4c-0.1-0.2-0.2-0.3-0.3-0.4c-0.2-0.1-0.6-0.5-1.3-1c-0.5-0.4-1-0.8-1.4-1.3
	c-0.3-0.3-0.5-0.8-0.6-1.2c-0.1-0.5-0.1-1,0-1.4c0.2-0.9,0.8-1.7,1.6-2C75.9,0,77-0.1,78,0.2c1.2,0.3,2.3,0.8,3.2,1.5l-1.3,2
	c-0.7-0.6-1.5-1-2.4-1.2c-0.3-0.1-0.6-0.1-0.9,0c-0.2,0.1-0.3,0.2-0.4,0.4c0,0.2,0,0.5,0.2,0.6c0.5,0.5,1,0.9,1.6,1.3
	c0.7,0.4,1.2,1,1.6,1.7C79.9,7.2,80,7.8,79.8,8.5z"/>
<path class="st16" d="M91.9,8.8c-0.2,1.5-1,2.9-2.2,3.8c-1.2,0.8-2.8,1-4.2,0.6c-1.4-0.2-2.7-1-3.6-2.2c-0.7-1.3-0.9-2.9-0.5-4.4
	c0.2-1.5,1-2.9,2.2-3.8c1.2-0.8,2.8-1,4.2-0.6c1.4,0.2,2.7,1,3.6,2.2C92.2,5.8,92.3,7.3,91.9,8.8z M84.6,7.3
	c-0.4,2.1,0.1,3.3,1.5,3.6c0.6,0.2,1.3,0,1.8-0.4c0.5-0.6,0.9-1.4,1-2.2c0.2-0.8,0.2-1.7,0-2.5c-0.3-0.6-0.8-1-1.4-1.1
	C85.9,4.3,85,5.2,84.6,7.3z"/>
<path class="st16" d="M92.7,14.6L95,3.9l2.9,0.6l-1.8,8.4l4.1,0.9L99.7,16L92.7,14.6z"/>
<path class="st16" d="M109.7,7l3.2,0.7l-5.8,9.9l-3.4-0.7l-1.2-11.4l3.2,0.7l0.3,5.7c0.1,0.9,0.1,1.7,0,2.6c0.1-0.3,0.3-0.7,0.5-1.2
	s0.4-0.9,0.5-1.1L109.7,7z"/>
<path class="st16" d="M118.1,19.9l-6.3-1.3L114,7.9l6.3,1.3l-0.5,2.3l-3.4-0.7l-0.3,1.7l3.2,0.7l-0.5,2.3l-3.2-0.7l-0.4,2l3.4,0.7
	L118.1,19.9z"/>
<path class="st16" d="M130.2,16.7c-0.2,1.5-1.1,2.9-2.3,3.8c-1.3,0.8-2.9,1-4.4,0.6l-3.5-0.7l2.3-10.7l3.7,0.8
	c1.5,0.2,2.8,1,3.7,2.2C130.4,13.8,130.6,15.3,130.2,16.7z M127.2,16.1c0.2-0.8,0.2-1.6-0.1-2.3c-0.3-0.6-0.9-1-1.6-1.1l-0.8-0.2
	l-1.3,6l0.6,0.1c0.7,0.2,1.5,0.1,2.1-0.4C126.7,17.8,127.1,17,127.2,16.1L127.2,16.1z"/>
<polygon class="st0" points="175.6,125.9 138.1,125.9 116.1,136.8 116.1,125.9 108,125.9 108,104.1 175.6,104.1 "/>
<circle class="st9" cx="121" cy="115" r="7.1"/>
<path class="st7" d="M122,116.2h-1.9l-0.3-5.6h2.5L122,116.2z M119.8,118.2c0-0.3,0.1-0.6,0.3-0.8c0.3-0.2,0.6-0.3,0.9-0.3
	c0.3,0,0.7,0.1,0.9,0.3c0.2,0.2,0.3,0.5,0.3,0.8c0,0.3-0.1,0.6-0.3,0.8c-0.2,0.2-0.6,0.3-0.9,0.3c-0.3,0-0.7-0.1-0.9-0.3
	C119.9,118.8,119.8,118.5,119.8,118.2L119.8,118.2z"/>
<rect x="135.1" y="116.9" class="st12" width="32.5" height="4.1"/>
<rect x="135.1" y="108.9" class="st12" width="32.5" height="4.1"/>
<path class="st16" d="M127.3,93c-0.3,0.7-0.7,1.3-1.3,1.7c-0.6,0.4-1.4,0.7-2.1,0.7c-0.9,0-1.8-0.1-2.7-0.5
	c-0.7-0.2-1.3-0.6-1.9-0.9c-0.5-0.4-1-0.8-1.4-1.2l1.2-2.8c0.5,0.5,1,1,1.6,1.5c0.5,0.4,1.1,0.7,1.7,1c0.4,0.2,0.8,0.2,1.1,0.2
	c0.3-0.1,0.5-0.3,0.5-0.6c0.1-0.2,0.1-0.3,0-0.5c-0.1-0.2-0.2-0.4-0.3-0.5c-0.1-0.2-0.6-0.7-1.3-1.4c-0.5-0.5-1-1.1-1.3-1.7
	c-0.3-0.5-0.4-1-0.4-1.5c0-0.6,0.1-1.1,0.3-1.6c0.3-1,1.2-1.8,2.2-2.1c1.2-0.3,2.5-0.2,3.6,0.4c1.3,0.5,2.5,1.3,3.4,2.3l-1.9,2.1
	c-0.7-0.8-1.6-1.4-2.6-1.9c-0.3-0.1-0.7-0.2-1-0.1c-0.2,0.1-0.4,0.2-0.5,0.4c-0.1,0.3,0,0.5,0.1,0.8c0.5,0.6,1.1,1.3,1.7,1.8
	c0.7,0.6,1.2,1.4,1.6,2.3C127.7,91.5,127.7,92.3,127.3,93z"/>
<path class="st16" d="M141.2,95.7c-0.5,1.7-1.7,3.1-3.2,4c-3.3,1.1-6.9-0.3-8.6-3.3c-0.9-3.5,0.5-7.1,3.5-9.1
	c3.3-1.1,6.9,0.3,8.6,3.3C142,92.3,141.9,94.1,141.2,95.7z M133,92.5c-0.9,2.3-0.5,3.8,1.1,4.4c0.7,0.3,1.5,0.3,2.1-0.1
	c1.4-1.4,2.2-3.3,2-5.2c-0.2-0.7-0.7-1.3-1.4-1.5C135.2,89.3,133.9,90.2,133,92.5z"/>
<path class="st16" d="M141,102.4l4.6-11.8l3.2,1.2l-3.6,9.3l4.6,1.8l-1,2.6L141,102.4z"/>
<path class="st16" d="M161.9,96.9l3.6,1.4l-8.5,10.3l-3.8-1.5l0.8-13.4l3.6,1.4l-0.7,6.6c-0.1,1-0.3,2-0.5,3
	c0.2-0.4,0.4-0.8,0.8-1.3s0.6-0.9,0.8-1.2L161.9,96.9z"/>
<path class="st16" d="M169.2,113.4l-7-2.7l4.6-11.8l7,2.7l-1,2.6l-3.8-1.5l-0.7,1.9l3.6,1.4l-1,2.6l-3.6-1.4l-0.9,2.2l3.8,1.5
	L169.2,113.4z"/>
<path class="st16" d="M183.8,112c-0.5,1.7-1.8,3.2-3.4,3.9c-1.7,0.6-3.6,0.6-5.2-0.2l-3.8-1.5l4.6-11.8l4.1,1.6
	c1.6,0.5,3,1.7,3.8,3.2C184.5,108.7,184.5,110.5,183.8,112z M180.4,110.8c0.4-0.8,0.5-1.8,0.3-2.7c-0.3-0.7-0.9-1.3-1.6-1.6
	l-0.9-0.4l-2.6,6.6l0.7,0.3c0.8,0.4,1.7,0.4,2.5,0C179.5,112.6,180.1,111.7,180.4,110.8L180.4,110.8z"/>
<g id="character1">
	<path class="st0" d="M887.8,268.8c-1.3,0-2.3-1-2.3-2.3v0v-40c0-1.3,1.1-2.3,2.3-2.3c1.3,0,2.3,1,2.3,2.3v40
		C890.1,267.7,889.1,268.7,887.8,268.8z"/>
	<path class="st0" d="M914.8,278.5c-1,0-1.8-0.7-1.8-1.7c0,0,0,0,0,0v-4.3c-0.1-1.4-1.4-2.4-2.7-2.3h-45c-1.4-0.1-2.6,0.9-2.7,2.3
		v3.8c-0.1,1-0.9,1.7-1.9,1.6c-0.9-0.1-1.6-0.8-1.6-1.6v-3.8c0.1-3.3,2.9-5.9,6.2-5.8c0,0,0,0,0,0h45.1c3.3-0.1,6.1,2.4,6.2,5.7
		c0,0,0,0,0,0v4.3C916.5,277.7,915.8,278.4,914.8,278.5z"/>
	<path class="st0" d="M919.5,276.1c0,0.1,0,0.1,0,0.2c0,2.2-1.8,3.9-4,3.8s-3.9-1.8-3.8-4s1.8-3.9,4-3.8
		C917.8,272.3,919.5,274,919.5,276.1z"/>
	<path class="st0" d="M862.8,276.1c0.1,2.2-1.5,4-3.7,4.1c-2.2,0.1-4-1.5-4.1-3.7c0-0.1,0-0.3,0-0.4c0-0.1,0-0.1,0-0.2
		c0.1-2.1,2-3.8,4.2-3.6C861.2,272.4,862.8,274.1,862.8,276.1z"/>
	<path class="st11" d="M896.6,207.3H914c3,0,5.5-2.2,5.9-5.1l6-43.1c0.5-3.2-1.8-6.3-5.1-6.7c-0.3,0-0.5-0.1-0.8-0.1h-21.4
		c-3.2,0-5.8,2.5-5.9,5.7l-2,43.1c-0.2,3.3,2.4,6.1,5.7,6.2C896.5,207.3,896.5,207.3,896.6,207.3z"/>
	<path class="st11" d="M913.6,229.9h-50.4c-1.9-0.1-3.4-1.8-3.2-3.8c0.1-1.7,1.5-3.1,3.2-3.2h50.4c1.9,0.1,3.4,1.8,3.2,3.8
		C916.7,228.4,915.4,229.8,913.6,229.9z"/>
	<path class="st0" d="M901.7,276.1c-0.1,2.2-1.9,3.8-4,3.8c-2-0.1-3.6-1.6-3.8-3.6c0,0,0-0.1,0-0.1c-0.1-2.2,1.5-4,3.7-4.1
		c2.2-0.1,4,1.5,4.1,3.7C901.7,275.8,901.7,276,901.7,276.1z"/>
	<path class="st0" d="M897.8,276.6c-1,0-1.8-0.8-1.8-1.8c0,0,0,0,0,0v-6.5c0.1-1,0.9-1.7,1.9-1.6c0.9,0.1,1.6,0.8,1.6,1.6v6.5
		C899.6,275.8,898.8,276.6,897.8,276.6z"/>
	<path class="st0" d="M882.7,276.1c-0.1,2.2-1.9,3.8-4,3.8c-2-0.1-3.6-1.6-3.8-3.5c0-0.1,0-0.2,0-0.3c-0.1-2.2,1.5-4,3.7-4.1
		c2.2-0.1,4,1.5,4.1,3.7C882.7,275.8,882.7,276,882.7,276.1L882.7,276.1z"/>
	<path class="st0" d="M878.8,277.3c-1,0-1.8-0.8-1.8-1.8c0,0,0,0,0,0v-7.2c0.1-1,0.9-1.7,1.9-1.6c0.9,0.1,1.6,0.8,1.6,1.6v7.2
		C880.6,276.5,879.8,277.3,878.8,277.3z"/>
	<path class="st12" d="M882.7,276.1c-0.1,2.2-1.9,3.8-4,3.8c-2-0.1-3.6-1.6-3.8-3.5l7.6-1.3C882.7,275.4,882.7,275.7,882.7,276.1z"
		/>
	<path class="st12" d="M901.7,276.1c-0.1,2.2-1.9,3.8-4,3.8c-2-0.1-3.6-1.6-3.8-3.6l7.6-1.4C901.7,275.2,901.7,275.7,901.7,276.1z"
		/>
	<path class="st12" d="M919.5,276.3c-0.1,2.2-1.9,3.8-4,3.8c-2.2-0.1-3.8-1.9-3.8-4c0-0.3,0.1-0.6,0.1-0.9L919.5,276.3z"/>
	<path class="st12" d="M862.8,276.1c0.1,2.2-1.5,4-3.7,4.1c-2.2,0.1-4-1.5-4.1-3.7c0-0.1,0-0.3,0-0.4c0-0.1,0-0.1,0-0.2l7.7-0.7
		C862.8,275.5,862.8,275.8,862.8,276.1z"/>
	<path class="st12" d="M873.2,229.6h28.5l0,0v1.9c0,1.1-0.9,2-2,2h-24.5c-1.1,0-2-0.9-2-2L873.2,229.6L873.2,229.6z"/>
	<path class="st12" d="M891.1,263.8v-13.4c0-0.8-0.7-1.5-1.5-1.5h-3.7c-0.8,0-1.5,0.7-1.5,1.5v13.4c0,0.8-0.7,1.5-1.5,1.5h-6.6
		c-0.8,0-1.5,0.7-1.5,1.5v2.8c0,0.8,0.7,1.5,1.5,1.5h23.6c0.8,0,1.5-0.7,1.5-1.5v-2.8c0-0.8-0.7-1.5-1.5-1.5h-7.3
		C891.8,265.3,891.1,264.6,891.1,263.8z"/>
	<path class="st12" d="M892.4,232.3v0.9v1v0.4l0,0l0,0c0,0,0.1,0.1,0.1,0.1h0.1h0.4h0.8l1.8,0.1l3.8,0.1l10.4,0.4
		c0.7,0,1.2,0.6,1.2,1.3c0,0.7-0.6,1.2-1.3,1.2l0,0h-0.1l-10.3-0.9l-3.8-0.3l-1.8-0.1l-0.8-0.1h-0.2h-0.1h-0.2
		c-0.7-0.1-1.2-0.6-1.4-1.2c0,0,0-0.1,0-0.1v-0.1v-0.4l0,0v-0.3v-1v-0.9c0-0.4,0.3-0.7,0.7-0.7S892.4,231.9,892.4,232.3L892.4,232.3
		z"/>
	<path class="st6" d="M851.2,270.7c0.7,0.9,1.1,2.1,1.1,3.3c0,1.4-0.9,2.7-1.1,3.5c-0.4,1.8,0.1,2.5-0.8,2.5h-19
		c-0.6,0-0.6-1.9,0.3-2.5c2.5-1.2,5-2.1,7.7-2.6C842.5,274.2,850.5,270.3,851.2,270.7z"/>
	<path class="st21" d="M844.5,253c1,8.7,1.8,14.5,1.1,16.7c-0.5,1.8-8.3,5.7-7.3,6.4c1.3,1,11.6-1.8,12.7-5.3
		c0.1-3.2,0.9-9.9,1.8-16.7L844.5,253z"/>
	<path class="st6" d="M863.3,271.3l-3.7,7c-0.3,0.6-0.1,1.3,0.5,1.6c0.2,0.1,0.3,0.1,0.5,0.1h7.5c0.7,0,1.2-0.5,1.2-1.2
		c0,0,0-0.1,0-0.1c0,0,0-6.1-0.8-7.9C868,269.5,863.3,271.3,863.3,271.3z"/>
	<path class="st21" d="M861.9,253c1.3,7.2,2.2,13.5,2.1,16.5c-3.1,6.5-3,9.1-0.4,9.5c5.3,1,4.8-4.4,5-7.4c0.3-5.4,1.6-12.3,2.7-18.6
		L861.9,253z"/>
	<path class="st6" d="M860.3,280c-0.5,0-0.9-0.4-0.9-0.9c0-0.2,0.1-0.4,0.2-0.5c1.2-1.6,3.1-2.9,4.9-2.7c1.9,0.1,3.6,1.2,4.5,2.8
		c0.2,0.4,0.1,1-0.4,1.2c-0.1,0.1-0.3,0.1-0.4,0.1L860.3,280z"/>
	<path class="st17" d="M877.4,141.8c0.3-1.9-0.7-4.1-0.2-5.9c1.1-2.9,3.2-5.2,6-6.6c4.1-2,9.7-2,12.6,1.3c1.5,1.6,2.4,3.7,2.5,5.8
		c0,1.6-1.1,3.4-0.1,4.7c0.8,1.1,3.7,1.9,4.2,4.1c0.4,1.7-0.9,3.6-0.6,4.7c0.5,1.6,2,1.3,2.7,3.5s-1.6,4.5-1.9,5.3
		c-0.2,0.6-5.2,7.1-7,7.2c-3.3,0.1-16.9-1.4-18.3-6.8c-0.7-2.9,1.9-4.4,1.8-6.1s-2.8-2.9-3.1-6.1C876,145,877.3,143.1,877.4,141.8z"
		/>
	<path class="st21" d="M913.8,192.7c-0.3,0.7-4.4,1.7-9.3,1.9c-10.1,0.5-25.3,0.3-25.3,0.3s20.3-5,25.1-6.7c0.6-0.2,1-0.5,1-0.5
		c-0.6-2.7-1.4-5.4-2.4-8c-5.1-2.8-6.8-9.2-6.8-9.2l-1.1-13.9l-10.1,1.3l-5,9.6c0,0-2.6,23.8-5.2,26.2c-6.4,6.1-30.6-0.7-29.9-1.5
		s21.9-3.1,22.8-4.4s5.6-24.1,6.8-25.8c0.7-1.1,7.3-4.4,10.3-5.9l1.5-0.7h8.3c0.6,0.3,1.2,0.6,1.9,0.8c4.6,1.9,10.3,4,11.5,6.4
		C909.8,166.1,915,189.9,913.8,192.7z"/>
	<path class="st1" d="M878.9,195.6c0.1-2.9,1.5-10.2,0.5-11.9c-1.8-0.8-2.9-2.6-2.8-4.5c-0.1-2,2.1-9,2.1-9l2.5-12.6
		c0.5-0.4,4.8-2.5,5.1-2.2c2.8-0.2,5.5-0.2,8.3,0c1.7,0.5,3.3,1.2,4.8,2c0,0-0.8,13,3.6,22.3c-0.8,4.9-1.1,9.8-1,14.8
		c0.1,2.6,2.8,10.1,2.8,10.1l-26.3,1.1C878.5,205.6,878.7,201.4,878.9,195.6z"/>
	<path class="st22" d="M892.1,204.6c0,0-14.8-0.7-17.8,0s-32.4,4.7-35,10.6c-2.2,5,5.4,45.6,6,52.8c0.1,0.7,6.3,0.8,6.5,0
		c1.3-6.3,6.2-25,5.2-32c-0.5-3.9-3.3-8.6-5.7-11.9c15.4,0.3,47.1,0.4,47.7-2.1C899.7,218.7,895.5,209.7,892.1,204.6z"/>
	<path class="st21" d="M893.7,141.4c0,4.7,0.3,9.3,0.9,13.9c-1.3,2.9-8,6.3-8.3,0c0.8-2.6,0.8-11.6,0.8-11.6L893.7,141.4z"/>
	<path class="st21" d="M880.5,136.6c-2.1,5.9,3.2,14.6,5.5,14.6c3.6,0,7.3-4.2,7.3-8.8c0.9,0,2.5-3.6,1.3-4.1
		c-0.9-0.4-1.5,0.6-1.6,1c-2.3,0.9-2.7-1.8-4-2.3c-1.5-0.6-2.6,0.6-3.9,0.3C884.3,137,881.4,134.2,880.5,136.6z"/>
	<path class="st3" d="M904.8,204.6c0,0-14.8-0.7-17.8,0s-27.1,6-28.7,9.9c-1.2,3,3.6,44.1,4.7,53.5c0.1,0.8,6.2,0.6,6.3-0.1
		c1.5-7.7,7.8-23.8,6.8-30.8c-0.5-4.1-4-9.3-6.7-12.9c12.8,0.2,36.1,0.3,37-2C908.3,217,907,209.4,904.8,204.6z"/>
	<path class="st5" d="M893,185.1c-0.8,0-1.5-0.1-2.2-0.3c-1.9-0.4-3.4-1.9-3.8-3.8c0-0.2,0.1-0.4,0.3-0.5c0.2,0,0.4,0.1,0.5,0.3
		c0.4,1.6,1.6,2.8,3.2,3.1c2.2,0.6,4.8,0.1,5.9-1.1c0.2-0.2,0.4-0.2,0.6,0c0.2,0.2,0.2,0.4,0,0.6C896.3,184.6,894.7,185.2,893,185.1
		z"/>
	<path class="st21" d="M905.3,187.7c-9.2,3.2-22.6,3.2-22.6,3.2v3.1c0,0,17.2,2.1,22.1,1.4c2-0.3,8.9-1.9,9-2.8
		S905.3,187.7,905.3,187.7z"/>
	<path class="st21" d="M886,190.8c-1.6-0.6-3.8-2.7-4.6-2.7s-3.8,2.1-4,2.7s1.6,2.4,1.6,2.4l7,0.4L886,190.8z"/>
	<path class="st5" d="M881.9,184.5c-1.1,0-2.2-0.2-3.1-0.7c-1.8-1.1-2.7-3.2-2.5-5.2c0.1-0.7,0.7-3.1,1.4-6.1
		c1.1-4.5,2.6-10.6,3.3-14.6c0-0.2,0.3-0.4,0.5-0.3c0.2,0,0.4,0.3,0.3,0.5c-0.7,4-2.2,10.1-3.3,14.6c-0.7,3-1.3,5.4-1.4,6.1
		c-0.2,1.7,0.6,3.4,2,4.4c1.3,0.7,2.9,0.8,4.3,0.4c0.2-0.1,0.5,0,0.6,0.2c0.1,0.2,0,0.5-0.2,0.6l0,0
		C883.2,184.4,882.5,184.5,881.9,184.5z"/>
	<path class="st5" d="M879.7,188.5L879.7,188.5c-0.3,0-0.4-0.3-0.4-0.5c0,0,0,0,0,0c0.1-1.4,0-2.9-0.2-4.3c-0.1-0.2,0.1-0.4,0.3-0.5
		s0.4,0.1,0.5,0.3c0.3,1.5,0.4,3.1,0.2,4.7C880,188.4,879.8,188.5,879.7,188.5z"/>
	<path class="st5" d="M902.6,179.3c-0.1,0-0.3-0.1-0.4-0.2c-2.6-4.8-3.7-16.6-3.3-21.3c0-0.2,0.2-0.4,0.4-0.4s0.4,0.2,0.4,0.4
		c-0.3,4.5,0.7,16.2,3.2,20.8c0.1,0.2,0,0.4-0.2,0.6C902.8,179.3,902.7,179.3,902.6,179.3L902.6,179.3z"/>
	<path class="st9" d="M894.3,134.7l-0.7,0.1c-0.5-3.1-2.6-5.8-5.7-6.8c-2.7-1-5.7,0.2-7,2.8c-0.4,0.3-0.8,0.7-1.2,1.1
		c1.6-5,6.3-5.9,9.9-3.9C892.2,129.3,894,131.8,894.3,134.7z"/>
	<path class="st9" d="M885.7,148.8c-0.3,0-0.5,0-0.8,0v-0.5c4.4,0.4,8.3-2.6,9.1-6.9l0.5,0.1c-0.4,1.9-1.3,3.7-2.8,5
		C890.1,148,887.9,148.8,885.7,148.8z"/>
	<path class="st9" d="M894.1,142.5c1.3,0,2.3-1.8,2.3-4.1s-1.1-4-2.4-4S892.9,142.5,894.1,142.5z"/>
	<ellipse class="st7" cx="884.2" cy="148.5" rx="1.4" ry="0.8"/>
	<polygon class="st12" points="933.3,280 928.6,280 928.6,202 795.8,202 795.8,280 791.1,280 791.1,197.3 933.3,197.3 	"/>
	<path class="st0" d="M938.8,198.6h-150c-1.3,0-2.3-1.1-2.3-2.3c0-1.3,1-2.3,2.3-2.3h150c1.3,0,2.3,1.1,2.3,2.3
		C941.1,197.6,940.1,198.6,938.8,198.6z"/>
	<path class="st6" d="M847.9,157.4l11,34.8c0.1,0.3,0.3,0.4,0.6,0.4h32.7c0.4,0,0.6,0.3,0.6,0.6v0l0,0c0,0.4-0.3,0.6-0.6,0.6l0,0
		h-81.3c-0.5,0-1-0.3-1.1-0.8l-11.2-35.5c-0.1-0.4,0.1-0.9,0.5-1c0.1,0,0.2,0,0.2,0h47.4C847.2,156.6,847.7,156.9,847.9,157.4z"/>
</g>
</svg>
