<?xml version="1.0" encoding="utf-8"?>
<!-- Generator: Adobe Illustrator 24.1.2, SVG Export Plug-In . SVG Version: 6.00 Build 0)  -->
<svg version="1.1" id="Layer_1" xmlns="http://www.w3.org/2000/svg" xmlns:xlink="http://www.w3.org/1999/xlink" x="0px" y="0px"
	 viewBox="0 0 512 512" style="enable-background:new 0 0 512 512;" xml:space="preserve">
<style type="text/css">
	.st0{fill:#5191FA;}
</style>
<g>
	<circle class="st0" cx="254.9" cy="255" r="60.4"/>
	<path class="st0" d="M254.9,120.1C180.4,120.1,120,180.6,120,255s60.4,134.9,134.9,134.9S389.8,329.5,389.8,255
		S329.4,120.1,254.9,120.1z M254.9,345.3c-49.7,0-90.2-40.6-90.2-90.2s40.6-90.2,90.2-90.2s90.2,40.6,90.2,90.2
		S304.6,345.3,254.9,345.3z"/>
	<path class="st0" d="M494.1,240.1h-15.7C475.1,186.3,451.9,135.9,413,97s-89.4-61.2-143.2-65.4V15.9c0-8.3-6.6-14.9-14.9-14.9h-0.8
		c-8.3,0-14.9,6.6-14.9,14.9v15.7C185.4,34.9,134.9,58.1,96,97s-61.2,89.4-65.4,143.2H14.9C6.6,240.1,0,246.8,0,255v0.8
		c0,8.3,6.6,14.9,14.9,14.9h15.7C33.9,324.6,57.1,375.1,96,414c38.9,38.9,89.4,61.2,143.2,65.4v15.7c0,8.3,6.6,14.9,14.9,14.9h0.8
		c8.3,0,14.9-6.6,14.9-14.9v-15.7C323.6,476,374.1,452.8,413,414c38.9-38.9,61.2-89.4,65.4-143.2h15.7c8.3,0,14.9-6.6,14.9-14.9V255
		C508.2,246.8,501.6,240.1,494.1,240.1z M269.8,448.7v-14.9c0-8.3-6.6-14.9-14.9-14.9h-0.8c-8.3,0-14.9,6.6-14.9,14.9v14.9
		C144,441.3,67.9,365.1,60.4,269.9h14.9c8.3,0,14.9-6.6,14.9-14.9v-0.8c0-8.3-6.6-14.9-14.9-14.9H60.4C67.9,144.1,144,68,239.2,60.5
		v14.9c0,8.3,6.6,14.9,14.9,14.9h0.8c8.3,0,14.9-6.6,14.9-14.9V60.5C365,68,441.1,144.1,448.6,239.3h-14.9
		c-8.3,0-14.9,6.6-14.9,14.9v0.8c0,8.3,6.6,14.9,14.9,14.9h14.9C441.1,365.1,365,441.3,269.8,448.7z"/>
</g>
</svg>
