<svg id="design" xmlns="http://www.w3.org/2000/svg" viewBox="0 0 200 200"><defs><style>.cls-1{fill:#f2f2f2;}.cls-2{fill:#fff;}.cls-3{fill:#0f89db;}.cls-4,.cls-9{fill:#e0e0e0;}.cls-5{fill:#005eb8;}.cls-6{fill:#ed8b00;}.cls-7{fill:#fbb040;}.cls-8{fill:#d4eefc;}.cls-9{stroke:#e0e0e0;stroke-miterlimit:10;stroke-width:3px;}.cls-10{fill:#cecece;}</style></defs><title>benefits-of-it-outsourcing</title><path class="cls-1" d="M107.62,83.57H35a36.33,36.33,0,1,1,72.65,0Z"/><path class="cls-2" d="M51.14,53.14,55,50.95,58,56a2.23,2.23,0,0,1-.84,3.07h0a2.23,2.23,0,0,1-3-.83Z"/><path class="cls-2" d="M96.5,66.29l5.13-3,2.19,3.9-5.08,2.95a2.23,2.23,0,0,1-3.07-.84h0A2.23,2.23,0,0,1,96.5,66.29Z"/><path class="cls-2" d="M38.68,67.3l2.19-3.9,5.13,3a2.23,2.23,0,0,1,.83,3h0a2.23,2.23,0,0,1-3.07.84Z"/><path class="cls-2" d="M84.61,56l2.95-5.08,3.9,2.19-3,5.13a2.23,2.23,0,0,1-3,.83h0A2.23,2.23,0,0,1,84.61,56Z"/><path class="cls-3" d="M72.34,77.1l6.37-10.81a2.26,2.26,0,0,1,3.08-.8h0a2.26,2.26,0,0,1,.8,3.1l-6.35,10.7Z"/><path class="cls-2" d="M70.3,47.14h2.19a1.19,1.19,0,0,1,1.19,1.19V53a2.28,2.28,0,0,1-2.28,2.28h0A2.28,2.28,0,0,1,69.11,53V48.33A1.19,1.19,0,0,1,70.3,47.14Z"/><path class="cls-4" d="M32.19,86.25V83.57A39.16,39.16,0,0,1,99,55.82,39.77,39.77,0,0,1,110.5,83.56v2.69Zm72.61-5.47a33.62,33.62,0,0,0-67,0Z"/><path class="cls-4" d="M71.3,44.86A38.8,38.8,0,0,1,98.69,56.18,39.2,39.2,0,0,1,110,83.57v2.19H32.69V83.57A38.47,38.47,0,0,1,71.3,44.86m-34,36.42h68.09a34.12,34.12,0,0,0-68.09,0m34-37.42a39.48,39.48,0,0,0-39.61,39.7v3.19H111V83.57A40.27,40.27,0,0,0,99.4,55.48,39.8,39.8,0,0,0,71.3,43.86Zm-33,36.42a33.12,33.12,0,0,1,65.92,0Z"/><path class="cls-4" d="M70.8,86.25V80.69h34A33.61,33.61,0,0,0,71.3,49.93h-.5V44.36h.5a39,39,0,0,1,39.11,39.2v2.69Z"/><path class="cls-4" d="M71.3,44.86a38.47,38.47,0,0,1,38.61,38.7v2.19H71.3V81.19h34a34.11,34.11,0,0,0-34-31.76V44.86m0-1h-1v6.56h1a33.12,33.12,0,0,1,33,29.76h-34v6.56h40.61V83.57A39.47,39.47,0,0,0,71.3,43.86Z"/><path class="cls-3" d="M79.48,83.28a7.81,7.81,0,0,1-1.14,4.09,8.39,8.39,0,0,1-6.94,4h0a8.06,8.06,0,0,1-4.09-1.14,7.84,7.84,0,0,1-3.71-4.94,8,8,0,0,1,.86-6.09,7.84,7.84,0,0,1,4.94-3.71,7.24,7.24,0,0,1,2-.29,8.12,8.12,0,0,1,7.8,6.09,6.32,6.32,0,0,1,.29,2Z"/><path class="cls-5" d="M79.48,83.28a7.81,7.81,0,0,1-1.14,4.09,8.39,8.39,0,0,1-6.94,4V75.2a8.12,8.12,0,0,1,7.8,6.09,6.32,6.32,0,0,1,.29,2Z"/><path class="cls-6" d="M184.66,133.2c.31-.21.72-.41.82-.92l1.64-4.83,2.05,4.73c.21.31.41.72.92.82l4.83,1.64-4.73,2.05c-.31.21-.72.41-.82.92l-1.64,4.83-2.05-4.73c-.21-.31-.41-.72-.92-.82l-4.83-1.64Z"/><path class="cls-7" d="M170.71,146.4a2.32,2.32,0,0,0,1.08-1.27l2.25-6.37,2.75,6.27a2.32,2.32,0,0,0,1.27,1.08l6.37,2.25-6.27,2.75a2.32,2.32,0,0,0-1.08,1.27l-2.25,6.37-2.75-6.27a2.32,2.32,0,0,0-1.27-1.08l-6.37-2.25Z"/><path class="cls-7" d="M127.44,40.26l-4.83,1.64c-.51.1-.72.51-.92.82l-2.05,4.73L118,42.62c-.1-.51-.51-.72-.82-.92l-4.73-2.05L117.27,38c.51-.1.72-.51.92-.82l2.05-4.73,1.64,4.83c.1.51.51.72.82.92Z"/><path class="cls-6" d="M32.31,108.11l-3.23,1.08a1,1,0,0,0-.65.65l-1.4,3L26,109.62a1,1,0,0,0-.65-.65l-3-1.4,3.23-1.08a1,1,0,0,0,.65-.65l1.4-3,1.08,3.23a1,1,0,0,0,.65.65Z"/><path class="cls-8" d="M196.56,112.82H91.35a52.6,52.6,0,1,1,105.21,0Z"/><path class="cls-2" d="M114.76,68.76l5.65-3.17,4.27,7.35a3.24,3.24,0,0,1-1.21,4.45h0a3.24,3.24,0,0,1-4.38-1.2Z"/><path class="cls-2" d="M180.45,87.81l7.43-4.32L191,89.14l-7.35,4.27a3.24,3.24,0,0,1-4.45-1.21h0A3.24,3.24,0,0,1,180.45,87.81Z"/><path class="cls-2" d="M96.72,89.28l3.17-5.65,7.43,4.32a3.24,3.24,0,0,1,1.2,4.38h0a3.24,3.24,0,0,1-4.45,1.21Z"/><path class="cls-2" d="M163.23,72.94l4.27-7.35,5.65,3.17-4.32,7.43a3.24,3.24,0,0,1-4.38,1.2h0A3.24,3.24,0,0,1,163.23,72.94Z"/><path class="cls-7" d="M145.47,103.46l9.23-15.65a3.27,3.27,0,0,1,4.46-1.16h0a3.27,3.27,0,0,1,1.16,4.49l-9.2,15.49Z"/><path class="cls-2" d="M142.51,60.08h3.17a1.72,1.72,0,0,1,1.72,1.72v6.82a3.3,3.3,0,0,1-3.3,3.3h0a3.3,3.3,0,0,1-3.3-3.3V61.8A1.72,1.72,0,0,1,142.51,60.08Z"/><path class="cls-5" d="M183.61,73.16A55.91,55.91,0,0,0,88,112.82V116H200v-3.17a56.77,56.77,0,0,0-16.39-39.66Zm-89,36.35a49.41,49.41,0,0,1,98.6,0Z"/><path class="cls-5" d="M199.86,112.82V116H144v-6.61h49.3a49.39,49.39,0,0,0-49.3-46V56.78a55.72,55.72,0,0,1,55.91,56Z"/><path class="cls-7" d="M155.8,112.41a11.31,11.31,0,0,1-1.65,5.92,12.15,12.15,0,0,1-10.05,5.78h0a11.67,11.67,0,0,1-5.92-1.65,11.35,11.35,0,0,1-5.37-7.16,11.56,11.56,0,0,1,1.24-8.81,11.35,11.35,0,0,1,7.16-5.37,10.48,10.48,0,0,1,2.89-.41,11.75,11.75,0,0,1,11.29,8.81,9.15,9.15,0,0,1,.41,2.89Z"/><path class="cls-6" d="M155.8,112.41a11.31,11.31,0,0,1-1.65,5.92,12.15,12.15,0,0,1-10.05,5.78V100.7a11.75,11.75,0,0,1,11.29,8.81,9.15,9.15,0,0,1,.41,2.89Z"/><polygon class="cls-9" points="52.23 143.72 71.35 143.72 71.35 140.53 71.35 140.53 71.35 137.35 52.23 137.35 52.23 138.41 52.23 138.41 52.23 143.72"/><path class="cls-6" d="M0,140.54a9.57,9.57,0,0,0,9.56,9.56h6.37l3.82-9.56h2.55l-1.59-2.39,1.59-4-3.57,1L15.93,131H9.56A9.57,9.57,0,0,0,0,140.54Z"/><polygon class="cls-7" points="15.97 140.53 15.93 140.54 15.93 150.1 58.61 150.1 58.61 140.54 58.57 140.53 58.6 140.53 58.6 130.97 15.93 130.97 15.93 140.53 15.97 140.53"/><path class="cls-10" d="M100.15,175.7A35.16,35.16,0,1,0,65,140.54,35.16,35.16,0,0,0,100.15,175.7Zm0-61.23h0a26.08,26.08,0,0,1,26.08,26.08h0a26.08,26.08,0,1,1-52.15,0h0A26.08,26.08,0,0,1,100.15,114.47Z"/><line class="cls-10" x1="100.15" y1="114.47" x2="100.15" y2="114.47"/><path class="cls-1" d="M74.07,140.54a26.08,26.08,0,1,0,52.15,0h0a26.08,26.08,0,0,0-52.15,0h0Z"/></svg>