<?xml version="1.0" encoding="utf-8"?>
<!-- Generator: Adobe Illustrator 24.1.2, SVG Export Plug-In . SVG Version: 6.00 Build 0)  -->
<svg version="1.1" id="design" xmlns="http://www.w3.org/2000/svg" xmlns:xlink="http://www.w3.org/1999/xlink" x="0px" y="0px"
	 viewBox="0 0 200 200" style="enable-background:new 0 0 200 200;" xml:space="preserve">
<style type="text/css">
	.st0{fill:#E0E0E0;}
	.st1{fill:#FFFFFF;}
	.st2{fill:#CECECE;}
	.st3{fill:#ED8B00;}
	.st4{fill:#0F89DB;}
	.st5{fill:#005EB8;}
	.st6{fill:#FBB040;}
	.st7{fill:#F4F4F4;}
	.st8{fill:#EAEAEA;}
</style>
<circle class="st0" cx="157.2" cy="133" r="42.7"/>
<circle class="st1" cx="157.2" cy="133" r="36.4"/>
<path class="st2" d="M157.2,160.7c-15.3,0-27.7-12.4-27.7-27.7c0-15.3,12.4-27.7,27.7-27.7c15.3,0,27.6,12.4,27.7,27.6
	C184.8,148.3,172.4,160.7,157.2,160.7z"/>
<path class="st1" d="M157.2,152c-10.5,0-19-8.5-19-19s8.5-19,19-19s19,8.5,19,19S167.7,152,157.2,152L157.2,152z"/>
<path class="st3" d="M157.2,143.3c-5.7,0-10.2-4.6-10.2-10.3s4.6-10.2,10.3-10.2c5.6,0,10.2,4.6,10.2,10.2
	C167.4,138.7,162.8,143.3,157.2,143.3C157.2,143.3,157.2,143.3,157.2,143.3z"/>
<path class="st4" d="M192.3,101.3l-33.5,33.5c-0.9,0.9-2.4,0.9-3.3,0l0,0c-0.9-0.9-0.9-2.4,0-3.3L188.9,98L192.3,101.3z"/>
<path class="st5" d="M192.3,101.3l-33.5,33.5c-0.9,0.9-2.4,0.9-3.3,0l0,0l35.2-35.2L192.3,101.3z"/>
<polygon class="st6" points="173,103.2 185.9,90.3 188.9,98 176,110.9 "/>
<polygon class="st3" points="175.9,100.2 177.9,98.3 180.9,106.1 178.9,108 "/>
<polygon class="st3" points="180.7,95.5 182.6,93.6 185.6,101.3 183.7,103.3 "/>
<polygon class="st3" points="192.3,101.3 179.4,114.2 187.1,117.2 200,104.3 "/>
<polygon class="st6" points="188.9,104.7 187,106.6 194.7,109.6 196.7,107.7 "/>
<polygon class="st6" points="184.2,109.4 182.3,111.3 190,114.3 191.9,112.4 "/>
<path class="st3" d="M165.1,43.1l-4.8,1.6c-0.5,0.1-0.7,0.5-0.9,0.8l-2.1,4.7l-1.6-4.8c-0.1-0.5-0.5-0.7-0.8-0.9l-4.7-2l4.8-1.6
	c0.5-0.1,0.7-0.5,0.9-0.8l2.1-4.7l1.6,4.8c0.1,0.5,0.5,0.7,0.8,0.9L165.1,43.1z"/>
<path class="st6" d="M180.6,57l-6.4,2.3c-0.5,0.2-1,0.6-1.2,1.1l-2.8,6.3l-2.3-6.4c-0.2-0.5-0.6-1-1.1-1.2l-6.3-2.8L167,54
	c0.5-0.2,1-0.6,1.3-1.1l2.7-6.3l2.3,6.4c0.2,0.5,0.6,1,1.1,1.3L180.6,57z"/>
<path class="st4" d="M136.1,52.4H29.3c-3.4-0.1-6.1,2.6-6.2,6c0,0.1,0,0.1,0,0.2v110.9c-0.1,3.4,2.6,6.1,6,6.2c0.1,0,0.1,0,0.2,0
	h106.6c3.4,0.1,6.1-2.6,6.2-6c0-0.1,0-0.1,0-0.2v-111C142.1,55.2,139.4,52.5,136.1,52.4z"/>
<path class="st2" d="M129.1,63.6l-0.3-0.1H36.6l-0.3,0.1c-2,0.3-3.5,2-3.5,4v99.5c-0.1,2.2,1.7,4,3.9,4.1c0.1,0,0.1,0,0.2,0h91.5
	c2.2,0.1,4-1.7,4.1-3.9c0-0.1,0-0.1,0-0.2V67.6C132.6,65.6,131.1,63.8,129.1,63.6z"/>
<path class="st0" d="M129.1,61.6l-0.3-0.1H36.6l-0.3,0.1c-2,0.3-3.5,2-3.5,4v99.5c-0.1,2.2,1.7,4,3.9,4.1c0.1,0,0.1,0,0.2,0h91.5
	c2.2,0.1,4-1.7,4.1-3.9c0-0.1,0-0.1,0-0.2V65.6C132.6,63.6,131.1,61.8,129.1,61.6z"/>
<path class="st7" d="M132.6,62.6v99.5c0.1,2.2-1.7,4-3.9,4.1c-0.1,0-0.1,0-0.2,0H57.1l-24.2-24.1V62.6c-0.1-2.2,1.7-4,3.9-4.1
	c0.1,0,0.2,0,0.2,0h91.9C130.9,58.8,132.5,60.5,132.6,62.6z"/>
<path class="st5" d="M108.1,44.3h-6.7c-0.7-1.7-1.8-3.2-3.2-4.4c-2.8-2.8-6.6-4.4-10.5-4.4H77.2c-5.8,0-11.1,3.4-13.4,8.7h-6.7
	c-3.2,0-5.8,2.6-5.8,5.8v11.4c0,3.2,2.6,5.8,5.8,5.8h50.7c3.2,0,5.8-2.6,5.8-5.8V50.1c0.3-2.9-1.8-5.5-4.7-5.8
	C108.6,44.3,108.3,44.3,108.1,44.3z"/>
<path class="st4" d="M80.1,82.3h34.6c0.8,0,1.5,0.7,1.5,1.5v0c0,0.8-0.7,1.5-1.5,1.5H80.1c-0.8,0-1.5-0.7-1.5-1.5v0
	C78.6,83,79.3,82.3,80.1,82.3z"/>
<path class="st4" d="M80.1,88.4h34.6c0.8,0,1.5,0.7,1.5,1.5v0c0,0.8-0.7,1.5-1.5,1.5H80.1c-0.8,0-1.5-0.7-1.5-1.5v0
	C78.6,89.1,79.3,88.4,80.1,88.4z"/>
<path class="st3" d="M57.1,95.1c-0.6,0-1.2-0.2-1.6-0.7l-6.2-6.2l3.3-3.3l4.6,4.6L68,78.6l3.3,3.3L58.8,94.4
	C58.3,94.8,57.7,95.1,57.1,95.1z"/>
<path class="st4" d="M80.1,107.8h34.6c0.8,0,1.5,0.7,1.5,1.5v0c0,0.8-0.7,1.5-1.5,1.5H80.1c-0.8,0-1.5-0.7-1.5-1.5v0
	C78.6,108.5,79.3,107.8,80.1,107.8z"/>
<path class="st4" d="M80.1,113.9h34.6c0.8,0,1.5,0.7,1.5,1.5v0c0,0.8-0.7,1.5-1.5,1.5H80.1c-0.8,0-1.5-0.7-1.5-1.5v0
	C78.6,114.6,79.3,113.9,80.1,113.9z"/>
<path class="st3" d="M57.1,120.6c-0.6,0-1.2-0.2-1.6-0.7l-6.2-6.2l3.3-3.3l4.6,4.6L68,104.1l3.3,3.3l-12.5,12.5
	C58.3,120.3,57.7,120.6,57.1,120.6z"/>
<path class="st4" d="M80.1,133.3h34.6c0.8,0,1.5,0.7,1.5,1.5v0c0,0.8-0.7,1.5-1.5,1.5H80.1c-0.8,0-1.5-0.7-1.5-1.5v0
	C78.6,134,79.3,133.3,80.1,133.3z"/>
<path class="st4" d="M80.1,139.4h34.6c0.8,0,1.5,0.7,1.5,1.5v0c0,0.8-0.7,1.5-1.5,1.5H80.1c-0.8,0-1.5-0.7-1.5-1.5v0
	C78.6,140,79.3,139.4,80.1,139.4z"/>
<path class="st3" d="M57.1,146.1c-0.6,0-1.2-0.2-1.6-0.7l-6.2-6.2l3.3-3.3l4.6,4.6L68,129.6l3.3,3.3l-12.5,12.5
	C58.3,145.8,57.7,146.1,57.1,146.1z"/>
<path class="st8" d="M57.1,147.8c0.1-3.4-2.6-6.1-6-6.2c-0.1,0-0.1,0-0.2,0h-18l24.2,24.2V147.8z"/>
<path class="st6" d="M123.7,161l-4.8,1.6c-0.5,0.1-0.7,0.5-0.9,0.8l-2.1,4.7l-1.6-4.8c-0.1-0.5-0.5-0.7-0.8-0.9l-4.7-2.1l4.8-1.6
	c0.5-0.1,0.7-0.5,0.9-0.8l2.1-4.7l1.6,4.8c0.1,0.5,0.5,0.7,0.8,0.9L123.7,161z"/>
<path class="st3" d="M10,90.7l-3.2,1.1c-0.3,0.1-0.6,0.3-0.7,0.7l-1.4,3l-1.1-3.2c-0.1-0.3-0.3-0.6-0.7-0.7l-3-1.4l3.2-1.1
	c0.3-0.1,0.6-0.3,0.7-0.7l1.4-3l1.1,3.2C6.5,89,6.7,89.2,7,89.3L10,90.7z"/>
</svg>
