<svg version="1.1" id="1236728562" xmlns="http://www.w3.org/2000/svg" xmlns:xlink="http://www.w3.org/1999/xlink" x="0px" y="0px" viewBox="0 0 512 512" style="enable-background:new 0 0 512 512;" xml:space="preserve" class="svg u_1236728562" data-icon-custom="true" data-icon-name="004-cloud-server.svg"> <style type="text/css">.st0-1236728562{fill:#1AA1FC;}
	.st1-1236728562{fill:#9AD9FC;}
	.st2-1236728562{fill:#C3ECFC;}
	.st3-1236728562{fill:#FFFFFF;}
	.st4-1236728562{fill:#FBB040;}
	.st5-1236728562{fill:#005EB8;}</style> 
 <rect x="90.3" y="181.5" class="st0-1236728562" width="342.7" height="179.9"></rect> 
 <path class="st1-1236728562" d="M445.8,74.3H76.9c-8-0.1-14.6,6.3-14.7,14.3c0,0.1,0,0.3,0,0.4v93.4c-0.1,8,6.3,14.6,14.3,14.7
	c0.1,0,0.3,0,0.4,0h368.9c8,0.1,14.6-6.3,14.7-14.3c0-0.1,0-0.3,0-0.4V89.2c0.3-8-6-14.7-14-14.9C446.2,74.3,446,74.3,445.8,74.3z"></path> 
 <rect x="258.8" y="96" class="st2-1236728562" width="179.9" height="78.5"></rect> 
 <rect x="258.8" y="159.8" class="st3-1236728562" width="179.9" height="14.7"></rect> 
 <path class="st1-1236728562" d="M445.8,211.5H76.9c-8-0.1-14.6,6.3-14.7,14.3c0,0.1,0,0.3,0,0.4V320c-0.1,8,6.3,14.6,14.3,14.7
	c0.1,0,0.3,0,0.4,0h368.9c8,0.1,14.6-6.3,14.7-14.3c0-0.1,0-0.3,0-0.4v-93.4c0.3-8.1-6-14.8-14.1-15.1
	C446.2,211.5,446,211.5,445.8,211.5z"></path> 
 <rect x="258.8" y="233.8" class="st2-1236728562" width="179.9" height="78.5"></rect> 
 <rect x="258.8" y="298.3" class="st3-1236728562" width="179.9" height="14.7"></rect> 
 <path class="st1-1236728562" d="M445.8,349.3H76.9c-8-0.1-14.6,6.3-14.7,14.3c0,0.1,0,0.3,0,0.4v93.4c-0.1,8,6.3,14.6,14.3,14.7
	c0.1,0,0.3,0,0.4,0h368.9c8,0.1,14.6-6.3,14.7-14.3c0-0.1,0-0.3,0-0.4V364C460.4,356,453.8,349.5,445.8,349.3z"></path> 
 <rect x="258.8" y="371.7" class="st2-1236728562" width="179.9" height="78.5"></rect> 
 <rect x="258.8" y="435.5" class="st3-1236728562" width="179.9" height="14.7"></rect> 
 <circle class="st4-1236728562" cx="293.9" cy="55.6" r="25.7"></circle> 
 <circle class="st5-1236728562" cx="382.8" cy="55.6" r="25.7"></circle> 
 <circle class="st4-1236728562" cx="293.9" cy="226.3" r="25.7"></circle> 
 <circle class="st5-1236728562" cx="382.8" cy="226.3" r="25.7"></circle> 
 <circle class="st4-1236728562" cx="293.9" cy="396.2" r="25.7"></circle> 
 <circle class="st5-1236728562" cx="382.8" cy="396.2" r="25.7"></circle> 
</svg>