<?xml version="1.0" encoding="utf-8"?>
<!-- Generator: Adobe Illustrator 24.1.2, SVG Export Plug-In . SVG Version: 6.00 Build 0)  -->
<svg version="1.1" id="Layer_1" xmlns="http://www.w3.org/2000/svg" xmlns:xlink="http://www.w3.org/1999/xlink" x="0px" y="0px"
	 viewBox="0 0 987 315.5" style="enable-background:new 0 0 987 315.5;" xml:space="preserve">
<style type="text/css">
	.st0{fill:none;stroke:#AEE8FC;stroke-width:2;stroke-miterlimit:10;stroke-dasharray:2,2;}
	.st1{fill-rule:evenodd;clip-rule:evenodd;fill:#ED8B00;}
	.st2{fill-rule:evenodd;clip-rule:evenodd;fill:#FFFFFF;}
	.st3{fill-rule:evenodd;clip-rule:evenodd;fill:#FBB040;}
	.st4{fill:#FBB040;}
	.st5{fill:#EAEAEA;}
	.st6{fill:#DDDDDD;}
	.st7{fill:#F7F7F7;}
	.st8{fill:#CCCCCC;}
	.st9{fill-rule:evenodd;clip-rule:evenodd;fill:#005EB8;}
	.st10{fill-rule:evenodd;clip-rule:evenodd;fill:#110626;}
	.st11{fill-rule:evenodd;clip-rule:evenodd;fill:#D6EEFC;}
	.st12{fill-rule:evenodd;clip-rule:evenodd;fill:#70BEF2;}
	.st13{fill-rule:evenodd;clip-rule:evenodd;fill:#95C8EC;}
	.st14{fill-rule:evenodd;clip-rule:evenodd;fill:#E3AB80;}
	.st15{fill-rule:evenodd;clip-rule:evenodd;}
	.st16{fill-rule:evenodd;clip-rule:evenodd;fill:#0A84F2;}
	.st17{fill-rule:evenodd;clip-rule:evenodd;fill:#A2C6EB;}
	.st18{fill-rule:evenodd;clip-rule:evenodd;fill:#142D52;}
	.st19{fill-rule:evenodd;clip-rule:evenodd;fill:#DCECFB;}
	.st20{fill-rule:evenodd;clip-rule:evenodd;fill:#AEE8FC;}
	.st21{fill-rule:evenodd;clip-rule:evenodd;fill:#EECFC3;}
	.st22{fill-rule:evenodd;clip-rule:evenodd;fill:#192B33;}
	.st23{fill-rule:evenodd;clip-rule:evenodd;fill:#5373B5;}
	.st24{fill-rule:evenodd;clip-rule:evenodd;fill:#C6DCF3;}
	.st25{fill:#100F28;}
	.st26{fill:#21333A;}
	.st27{fill:#299EC6;}
	.st28{fill:#FFAA82;}
	.st29{fill:#FFB285;}
	.st30{fill:#FFFFFF;}
	.st31{fill:#D6EEFC;}
	.st32{fill:#E8F5FC;}
</style>
<line class="st0" x1="848.7" y1="112.6" x2="848.7" y2="161.4"/>
<line class="st0" x1="915.2" y1="55.3" x2="915.2" y2="102.1"/>
<line class="st0" x1="393" y1="15.3" x2="393" y2="73.8"/>
<line class="st0" x1="486.4" y1="62.8" x2="486.4" y2="120.2"/>
<line class="st0" x1="748.4" y1="54.2" x2="748.4" y2="129.7"/>
<g>
	
		<ellipse transform="matrix(0.9966 -8.248047e-02 8.248047e-02 0.9966 -1.967 40.3033)" class="st1" cx="486.8" cy="44" rx="19.1" ry="19.1"/>
	<path class="st2" d="M486.8,26.7c-9.5,0-17.2,7.7-17.2,17.2c0,9.5,7.7,17.2,17.2,17.2s17.2-7.7,17.2-17.2
		C504.1,34.5,496.3,26.7,486.8,26.7L486.8,26.7z M486.8,59.3c-8.5,0-15.4-6.8-15.4-15.4c0-8.5,6.8-15.4,15.4-15.4
		s15.4,6.8,15.4,15.4C502.2,52.5,495.3,59.3,486.8,59.3z"/>
	<g>
		<path class="st2" d="M482.3,48.2l-7.4-3.3c-0.1,0-0.2-0.1-0.2-0.2v-1c0-0.1,0.1-0.2,0.1-0.2l7.4-3.8c0.2-0.1,0.4,0,0.4,0.2v1.7
			c0,0.1-0.1,0.2-0.2,0.2l-4.1,1.9c-0.2,0.1-0.2,0.4,0,0.6l4.1,1.7c0.1,0,0.2,0.1,0.2,0.2v1.7C482.7,48,482.5,48.3,482.3,48.2z"/>
		<path class="st2" d="M490.3,38.4l-4.1,11.3c0,0.1-0.1,0.2-0.3,0.2l-2.1,0c-0.2,0-0.3-0.2-0.3-0.4l4.1-11.3c0-0.1,0.1-0.2,0.3-0.2
			l2.1,0C490.3,38,490.4,38.2,490.3,38.4z"/>
		<path class="st2" d="M491.2,45.9l4.1-1.7c0.2-0.1,0.2-0.4,0-0.6l-4.1-1.9c-0.1,0-0.2-0.1-0.2-0.2V40c0-0.2,0.2-0.3,0.4-0.2
			l7.4,3.8c0.1,0,0.1,0.1,0.1,0.2v1c0,0.1-0.1,0.2-0.2,0.2l-7.4,3.3c-0.2,0.1-0.4-0.1-0.4-0.2v-1.7C491,46.1,491.1,45.9,491.2,45.9z
			"/>
	</g>
</g>
<g>
	<g>
		<path class="st3" d="M838.3,94.7c0.7-0.2,1.4-0.1,2,0.4l2,2l4.5-4.5l-2-2c-0.6-0.6-0.7-1.3-0.4-2c0.6-1.4,0.6-3.2-1-4.8
			c-2.1-2.1-5-3-7.3-3c-0.4,0-0.8,0.6-0.3,1l3.4,3.4c0.4,0.4,0.4,1.3,0,1.8l-2.3,2.3c-0.4,0.4-1.3,0.4-1.8,0l-3.4-3.4
			c-0.3-0.3-0.9-0.1-1,0.3c0,2.4,0.8,5.2,2.9,7.4C835.1,95.3,836.8,95.3,838.3,94.7z"/>
		<path class="st3" d="M852.2,98.1l-4.5,4.5l9.6,9.6c1.2,1.2,3.2,1.3,4.4,0.2c1.3-1.2,1.4-3.3,0.1-4.6L852.2,98.1z"/>
	</g>
	<path class="st3" d="M854.1,87.3l-0.7,1.7l-11.9,12l-1.2-1.2c-0.2-0.2-0.7-0.2-0.9,0l-0.8,0.8c-0.2,0.2-0.2,0.7,0,0.9l0.1,0.1
		l-7.3,7.4c-0.6,0.6-0.6,1.3,0,1.9l2.8,2.8c0.6,0.6,1.3,0.6,1.9,0l7.3-7.4l0.1,0.1c0.2,0.2,0.7,0.2,0.9,0l0.8-0.8
		c0.2-0.2,0.2-0.7,0-0.9l-1.2-1.2l11.9-12l1.5-0.7c0.9-0.3,1.7-0.9,2.1-1.8l3.3-5c0.2-0.3,0.1-0.7-0.1-1l-0.7-0.7l-0.7-0.7
		c-0.2-0.2-0.7-0.3-0.9-0.1l-5,3.4C854.9,85.7,854.4,86.4,854.1,87.3z"/>
</g>
<g>
	<polygon class="st1" points="921.4,40.9 903.6,40.9 903.6,47.5 921.4,47.5 921.4,45.3 928.9,45.3 928.9,54.2 921.4,54.2 921.4,52 
		903.6,52 903.6,58.6 921.4,58.6 921.4,56.4 931.1,56.4 931.1,43.1 921.4,43.1 	"/>
	<polygon class="st1" points="918.4,17.7 918.4,13 906.6,13 906.6,24.8 918.4,24.8 918.4,19.9 928.9,19.9 928.9,32.1 921.4,32.1 
		921.4,29.9 903.6,29.9 903.6,36.5 921.4,36.5 921.4,34.3 931.1,34.3 931.1,17.7 	"/>
	<polygon class="st1" points="894,45.3 903.6,45.3 903.6,43.1 896.2,43.1 896.2,34.3 903.6,34.3 903.6,32.1 894,32.1 	"/>
</g>
<g>
	<path class="st3" d="M402.2,0.6c-1.9,0-4.8,1.5-7.2,3.3c1.4,1.1,2.7,2.1,3.1,2.5l0.4,0.3c2.4-1.5,3.5-1.9,3.8-1.9
		c1.8,0,3.1,1.4,3.1,3.1S404,11,402.3,11c-0.1,0-1.2-0.2-3.8-1.9l-0.4,0.3c-0.4,0.4-1.7,1.4-3.1,2.5c2.4,1.8,5.3,3.3,7.2,3.3
		c4.2,0,7.5-3.4,7.5-7.5C409.7,4,406.4,0.6,402.2,0.6z"/>
	<path class="st3" d="M384.1,0.6c-4.2,0-7.5,3.4-7.5,7.5s3.4,7.5,7.5,7.5c4.2,0,12.6-7.5,12.6-7.5S388.3,0.6,384.1,0.6L384.1,0.6z
		 M384.1,11.3c-1.8,0-3.1-1.4-3.1-3.1c0-1.7,1.4-3.1,3.1-3.1c0.1,0,1.8,0.3,5.5,3.1c0,0,0,0,0.1,0l-0.1,0.1
		C385.8,10.9,384.3,11.2,384.1,11.3z"/>
</g>
<g>
	<path class="st3" d="M742,39.6h-12.8v16.2h16.2V43C745.5,41.2,743.9,39.6,742,39.6z"/>
</g>
<g>
	<g>
		<path class="st3" d="M766,19.1h-3.3v2.2h1.1v1.2h2.2V19.1L766,19.1L766,19.1z M760.5,19.1h-3.3v2.2h3.3V19.1L760.5,19.1
			L760.5,19.1z M755,19.1h-3.3v2.2h3.3V19.1L755,19.1L755,19.1z M749.4,19.1h-3.3v2.2h3.3V19.1L749.4,19.1L749.4,19.1z M743.9,19.1
			h-3.3v2.2h3.3V19.1L743.9,19.1L743.9,19.1z M738.4,19.1h-3.3v2.2h3.3V19.1L738.4,19.1L738.4,19.1z M732.9,19.1h-3.3V21l-0.3,0v3.3
			l2.2,0v-3h1.4V19.1L732.9,19.1L732.9,19.1z M731.4,26.5h-2.2v3.3h2.2V26.5L731.4,26.5L731.4,26.5z M731.4,32h-2.2v3.3h2.2V32
			L731.4,32L731.4,32z M731.4,37.5h-2.2v3.3h2.2V37.5L731.4,37.5L731.4,37.5z M731.4,43.1h-2.2v3.3h2.2V43.1L731.4,43.1L731.4,43.1z
			 M731.4,48.6h-2.2v3.3h2.2V48.6L731.4,48.6L731.4,48.6z M730.8,53.7h-1.5v0.4l0,0v-0.4v0.4l0,0v1.8h2.2l0,0l0,0l0,0v-1.8l-0.7,0
			V53.7L730.8,53.7L730.8,53.7z M736.3,53.7H733v2.2h3.3V53.7L736.3,53.7L736.3,53.7z M741.8,53.7h-3.3v2.2h3.3V53.7L741.8,53.7
			L741.8,53.7z M747.3,53.7H744v2.2h3.3V53.7L747.3,53.7L747.3,53.7z M752.9,53.7h-3.3v2.2h3.3V53.7L752.9,53.7L752.9,53.7z
			 M758.4,53.7h-3.3v2.2h3.3V53.7L758.4,53.7L758.4,53.7z M766,52.3h-2.2v1.3h-3.1v2.2h3.3v-0.2h2V52.3L766,52.3L766,52.3z
			 M766,46.8h-2.2v3.3h2.2V46.8L766,46.8L766,46.8z M766,41.3h-2.2v3.3h2.2V41.3L766,41.3L766,41.3z M766,35.8h-2.2v3.3l2.2,0V35.8
			L766,35.8L766,35.8z M766,30.2h-2.2v3.3h2.2V30.2L766,30.2L766,30.2z M766,24.7h-2.2V28h2.2V24.7L766,24.7z"/>
	</g>
</g>
<g>
	<g>
		<g>
			
				<rect x="743" y="32.3" transform="matrix(0.7038 -0.7104 0.7104 0.7038 198.437 543.6425)" class="st4" width="16.3" height="3"/>
		</g>
		<g>
			<g>
				<polygon class="st3" points="759,31.8 761.1,23.8 753.2,25.9 				"/>
			</g>
		</g>
	</g>
</g>
<g>
	<g>
		<path class="st5" d="M745.4,115c0,0,22.6-5.8,25.6,17c3,22.7-1.4,27.9-0.3,35.6c0.9,7.7-18.3,10.4-25.3,5.5
			C738.5,168.2,737.2,125.2,745.4,115z"/>
		<g>
			<path class="st5" d="M731.3,297.8L731.3,297.8c1.2-0.3,2-1.7,1.5-2.7l-18.9-51.3l-4.8,0.6l19.2,52.1
				C728.8,297.6,730.1,298.2,731.3,297.8z"/>
			<path class="st5" d="M712.6,252.7h51.3c3.6,0,6.7-3,6.7-6.7l0,0c0-3.6-3-6.7-6.7-6.7h-51.3c-3.6,0-6.7,3-6.7,6.7l0,0
				C706,249.6,708.9,252.7,712.6,252.7z"/>
			<path class="st5" d="M758.7,246h-5l18.6,50.4c0.5,1.1,1.8,1.7,3,1.4c1.2-0.3,2-1.7,1.5-2.7L758.7,246z"/>
			<path class="st5" d="M756.2,246L738,295.1c-0.5,1.1,0.3,2.3,1.5,2.7c1.2,0.3,2.6-0.3,3-1.4l18.6-50.4L756.2,246L756.2,246z"/>
			<path class="st5" d="M714.8,246l-18.2,49.1c-0.5,1.1,0.3,2.3,1.5,2.7c1.2,0.3,2.6-0.3,3-1.4l18.6-50.4L714.8,246L714.8,246z"/>
		</g>
		<polygon class="st6" points="726.8,241.2 776.8,236.9 796,171.2 744.2,171.2 		"/>
		<path class="st5" d="M751.8,238.4L751.8,238.4c-21.2,1.2-27.3-3.6-25-15.6l1.8-8.3l42.2,0.9l-1.1,5.1
			C767.7,232.4,763.7,238.4,751.8,238.4z"/>
		<path class="st5" d="M778.4,214.8c10.6-40,16.7-43.6,16.7-43.6c2.1,0,3.6,2,3,4.1L781.5,236c-1.5,5.8-6.7,9.7-12.6,9.7h-1.2h-22.6
			c-7.9-0.2-5.9-8.6,2-8.5C758.7,237.1,774.6,234.2,778.4,214.8z"/>
		<polygon class="st7" points="728,172.1 720.4,189.8 697.7,193.2 701.4,198.3 729.5,197.8 737.8,177.9 		"/>
		
			<ellipse transform="matrix(0.9976 -6.935303e-02 6.935303e-02 0.9976 -7.3555 52.4042)" class="st5" cx="751" cy="132.1" rx="15.9" ry="13.8"/>
		<path class="st7" d="M756.5,133.5c-0.6,0.3-1.4,0.5-2,0.8l-0.3-3.6c-0.3-3.8-3.5-6.5-7.3-6.4l-2.3,0.2c-3.8,0.3-6.5,3.5-6.4,7.3
			l0.6,8.5c0.3,3.8,3.5,6.5,7.3,6.4l0,0c1.8-0.2,3.5,1.2,3.6,3c0.2,2.4,0.3,5,0.5,7.4c3-0.6,6.1-0.9,9.1-0.9
			C757.5,148.8,756.6,141.2,756.5,133.5z"/>
		<path class="st5" d="M740.3,126.8c-3.5-2-4.1-6.7-1.4-9.4c0.2-0.2,0.5-0.3,0.6-0.5c2.4-1.8,5.8-2.3,8.9-2.3
			c4.5,0,9.4,0.9,12.4,4.2c1.2,1.2,2,2.9,2.6,4.5c0.6,1.8,1.1,3.9,0.5,5.8c-0.8,2.6-3.5,4.5-6.2,4.5c-1.2,0-2.4,0.9-3.6,0.5
			c-1.8-0.5-3.8-2.1-5.6-2.9C746.5,130.3,742.8,128.2,740.3,126.8z"/>
		<path class="st5" d="M760.9,153.6c-4.1,0.2-8.3,0.3-12.4,0.3c-3.2,0.2-6.2,0.2-9.4,1.1c-3.2,0.8-6.4,2.4-8.5,5
			c-1.5,1.8-2.4,3.9-3,6.1c-1.2,3.6-2.1,7.1-2.7,10.8l0.6,6.4l13-8.5c0,0-7.6,28-10,40.6c4.4,0.5,10.6,0.6,15.9,0.6l0,0
			c5.6,0.2,21-0.2,26.8-0.8c3.5-12.6,6.8-35.7,6.8-35.7S783.9,153.6,760.9,153.6z"/>
		<path class="st7" d="M748.3,153.8c0,0-1.2,8.9,3.8,8.9c5,0,10.3-8.9,10.3-8.9l-6.7-1.8L748.3,153.8z"/>
		
			<ellipse transform="matrix(0.9976 -6.935138e-02 6.935138e-02 0.9976 -7.6557 52.834)" class="st7" cx="757.1" cy="136.7" rx="3.2" ry="4.2"/>
		<path class="st5" d="M696.8,245.5h44.7c2.3,0,3.9-1.8,3.9-3.9l0,0c0-2.3-1.8-3.9-3.9-3.9h-44.7c-2.3,0-3.9,1.8-3.9,3.9l0,0
			C692.7,243.7,694.5,245.5,696.8,245.5z"/>
		<path class="st5" d="M719.1,287.8l7.1-0.2l1.2,5.3c0.2,0.9,0.2,2-0.5,2.7c-0.5,0.5-0.9,0.9-1.5,0.9l-17.7,0.2
			c-1.7,0-3.2-5.1,2.4-6.7C710.1,290.1,716.8,287.8,719.1,287.8z"/>
		<path class="st5" d="M697.7,287.8l7.1-0.2l1.2,5.3c0.2,0.9,0.2,2-0.5,2.7c-0.5,0.5-0.9,0.9-1.5,0.9l-17.7,0.2
			c-1.7,0-3.2-5.1,2.4-6.7C688.8,290.1,695.4,287.8,697.7,287.8z"/>
		<path class="st5" d="M696.5,287.8l-0.8-45.6c-0.2-10.8,7-16.2,21.5-18.6l14.7-2.7l8.2,16.5l-24.8,0.9c-3.6,0.3-6.2,2.9-6.5,6.1
			l-3.9,43.3h-8.3V287.8z"/>
		<polygon class="st5" points="728.8,162.7 718.9,183 735.4,186 740.3,169.2 		"/>
		<polygon class="st7" points="758,172.1 750.4,189.8 727.5,193.2 731.3,198.3 759.5,197.8 767.7,177.9 		"/>
		<g>
			<path class="st6" d="M736,197.8h-47.1c-1.1,0-2-0.9-2-2l0,0c0-1.1,0.9-2,2-2H736c1.1,0,2,0.9,2,2l0,0
				C738.1,196.9,737.2,197.8,736,197.8z"/>
			<path class="st5" d="M719.4,197.8h-40.6c-2,0-3.9-1.5-4.4-3.5l-7.6-27.9c-0.5-2,0.6-3.5,2.6-3.5H710c2,0,3.9,1.5,4.4,3.5
				l7.6,27.9C722.4,196.3,721.3,197.8,719.4,197.8z"/>
			<path class="st6" d="M717.6,197.8H677c-2,0-3.9-1.5-4.4-3.5l-7.6-27.9c-0.5-2,0.6-3.5,2.6-3.5h40.6c2,0,3.9,1.5,4.4,3.5l7.6,27.9
				C720.6,196.3,719.4,197.8,717.6,197.8z"/>
			<path class="st5" d="M694.2,183.8h-4.1c-1.8,0-3.6-1.5-4.2-3.3l0,0c-0.5-1.8,0.6-3.3,2.4-3.3h4.1c1.8,0,3.6,1.5,4.2,3.3l0,0
				C697.1,182.2,696.1,183.8,694.2,183.8z"/>
		</g>
		<path class="st5" d="M751.3,220.6l-20.9,11.4c-7.4,4.1-12,9.8-12.7,16.7v39.4l8.5-0.3l2.6-34.1c1.8-6.1,8.6-10,16.2-13.5l6.2-2.1
			c7.9-2.6,8.6-12.1,1.4-16.8L751.3,220.6z"/>
	</g>
	<g>
		<path class="st5" d="M668.5,294.9L668.5,294.9c-1.2-0.3-1.8-1.5-1.5-2.6l33.6-91.2c0.5-1.1,1.7-1.7,2.9-1.4l0,0
			c1.2,0.3,1.8,1.5,1.5,2.6l-33.6,91.2C671.1,294.8,669.7,295.2,668.5,294.9z"/>
		<path class="st5" d="M736.9,294.9L736.9,294.9c1.2-0.3,1.8-1.5,1.5-2.6L704.7,201c-0.5-1.1-1.7-1.7-2.9-1.4l0,0
			c-1.2,0.3-1.8,1.5-1.5,2.6l33.6,91.2C734.4,294.8,735.7,295.2,736.9,294.9z"/>
		<path class="st5" d="M748.7,294.9L748.7,294.9c-1.2-0.3-1.8-1.5-1.5-2.6l33.6-91.2c0.5-1.1,1.7-1.7,2.9-1.4l0,0
			c1.2,0.3,1.8,1.5,1.5,2.6l-33.6,91.2C751.2,294.8,749.8,295.2,748.7,294.9z"/>
		<path class="st5" d="M817,294.9L817,294.9c1.2-0.3,1.8-1.5,1.5-2.6l-33.6-91.2c-0.5-1.1-1.7-1.7-2.9-1.4l0,0
			c-1.2,0.3-1.8,1.5-1.5,2.6l33.6,91.2C814.6,294.8,815.8,295.2,817,294.9z"/>
	</g>
	<path class="st5" d="M814.5,205.7H671.2c-2.1,0-3.9-1.8-3.9-3.9l0,0c0-2.1,1.8-3.9,3.9-3.9h143.2c2.1,0,3.9,1.8,3.9,3.9l0,0
		C818.3,204.1,816.6,205.7,814.5,205.7z"/>
</g>
<g>
	<g>
		<path class="st6" d="M912.9,132.5L912.9,132.5c-4.4,1.3-9-1.1-10.3-5.2l-1.4-4.3c-1.4-4.2,1.1-8.6,5.5-9.8l0,0
			c4.4-1.3,9,1.1,10.3,5.2l1.4,4.3C919.7,126.8,917.2,131.3,912.9,132.5z"/>
		<g>
			<path class="st6" d="M897.5,296.6L897.5,296.6c1.4-0.4,2-1.7,1.6-2.7l-20.4-52.3l-5.1,0.6l20.7,53.2
				C894.7,296.3,896.2,297,897.5,296.6z"/>
			<path class="st6" d="M877.4,250.5h55.2c3.9,0,7.1-3,7.1-6.8l0,0c0-3.7-3.1-6.8-7.1-6.8h-55.2c-3.9,0-7.1,3-7.1,6.8l0,0
				C870.3,247.5,873.5,250.5,877.4,250.5z"/>
			<path class="st6" d="M927.1,243.7h-5.4l20.1,51.5c0.5,1.2,1.9,1.8,3.3,1.4c1.4-0.4,2-1.7,1.6-2.7L927.1,243.7z"/>
			<path class="st6" d="M924.2,243.7l-19.4,50.1c-0.5,1.2,0.3,2.4,1.6,2.7c1.4,0.4,2.8-0.2,3.3-1.4l20.1-51.5h-5.5V243.7z"/>
			<path class="st6" d="M879.8,243.7l-19.4,50.1c-0.5,1.2,0.3,2.4,1.6,2.7c1.4,0.4,2.8-0.2,3.3-1.4l20.1-51.5h-5.5V243.7z"/>
		</g>
		<polygon class="st8" points="892.7,238.8 946.4,234.4 967.1,167.4 911.3,167.4 		"/>
		<path class="st5" d="M919.5,236L919.5,236c-22.8,1.2-29.3-3.8-26.8-15.8l2-8.4l45.4,0.8l-1.1,5.2C936.6,229.8,932.3,236,919.5,236
			z"/>
		<path class="st6" d="M948.1,211.8c11.4-40.8,17.9-44.5,17.9-44.5c2.3,0,3.9,2,3.4,4.2l-17.9,61.8c-1.6,5.8-7.3,9.9-13.5,9.9h-1.4
			h-24.2c-8.4-0.1-6.3-8.8,2.1-8.7C927.1,234.7,944.1,231.7,948.1,211.8z"/>
		<polygon class="st7" points="894,168.4 885.8,186.5 861.4,189.8 865.2,195.1 895.6,194.6 904.5,174.4 		"/>
		<path class="st6" d="M929.2,149.5c-4.5,0.1-8.9,0.2-13.4,0.4c-3.4,0.1-6.8,0.2-10.2,1.1c-3.4,0.8-6.9,2.5-9.2,5.1
			c-1.6,1.9-2.5,4-3.3,6.2c-1.3,3.7-2.3,7.4-2.9,10.9l0.8,6.5l14-8.7c0,0-8.2,28.7-10.8,41.4c4.6,0.5,11.4,0.6,17.1,0.6l0,0
			c6,0.1,22.6-0.1,28.7-0.7c3.8-12.8,7.4-36.5,7.4-36.5S954,149.5,929.2,149.5z"/>
		<path class="st7" d="M915.8,149.8c0,0-1.4,9.2,4.1,9.2s11-9.2,11-9.2l-7.1-1.8L915.8,149.8z"/>
		
			<ellipse transform="matrix(0.9963 -8.588256e-02 8.588256e-02 0.9963 -7.9312 79.9563)" class="st7" cx="925.3" cy="132.2" rx="3.5" ry="4.4"/>
		<path class="st6" d="M860.4,243.2h47.9c2.4,0,4.3-1.8,4.3-4l0,0c0-2.3-1.9-4-4.3-4h-47.9c-2.4,0-4.3,1.8-4.3,4l0,0
			C856.1,241.4,858,243.2,860.4,243.2z"/>
		<path class="st6" d="M884.3,286.4l7.6-0.1l1.4,5.4c0.3,1,0.1,2-0.5,2.7c-0.4,0.5-1,0.8-1.6,0.8l-19.1,0.2c-1.9,0-3.4-5.2,2.6-6.8
			C874.6,288.7,881.9,286.4,884.3,286.4z"/>
		<path class="st6" d="M861.4,286.4l7.6-0.1l1.4,5.4c0.3,1,0.1,2-0.5,2.7c-0.4,0.5-1,0.8-1.6,0.8l-19.1,0.2c-1.9,0-3.4-5.2,2.6-6.8
			C851.7,288.7,859,286.4,861.4,286.4z"/>
		<path class="st5" d="M860.1,286.3l-0.9-46.4c-0.1-10.9,7.5-16.5,23.1-18.9l15.7-2.7l8.9,16.9l-26.7,0.8c-3.9,0.4-6.8,2.9-7,6.2
			l-4.1,44.1H860.1z"/>
		<polygon class="st6" points="894.7,158.9 884.2,179.6 902,182.6 907.1,165.5 		"/>
		<polygon class="st7" points="926.2,168.4 918,186.5 893.6,189.8 897.5,195.1 927.8,194.6 936.7,174.4 		"/>
		<g>
			<path class="st8" d="M902.6,194.6h-50.5c-1.3,0-2.1-1-2.1-2l0,0c0-1.2,1-2,2.1-2h50.5c1.3,0,2.1,1,2.1,2l0,0
				C904.7,193.8,903.9,194.6,902.6,194.6z"/>
			<path class="st6" d="M884.7,194.6H841c-2,0-4.3-1.5-4.8-3.6l-8.2-28.4c-0.6-1.9,0.6-3.6,2.8-3.6h43.6c2,0,4.3,1.5,4.8,3.6
				l8.2,28.4C887.9,193,886.7,194.6,884.7,194.6z"/>
			<path class="st8" d="M882.7,194.6H839c-2,0-4.3-1.5-4.8-3.6l-8.2-28.4c-0.6-1.9,0.6-3.6,2.8-3.6h43.6c2,0,4.3,1.5,4.8,3.6
				l8.2,28.4C885.9,193,884.7,194.6,882.7,194.6z"/>
			<path class="st6" d="M857.7,180.2h-4.4c-2,0-4-1.5-4.5-3.3l0,0c-0.5-1.9,0.6-3.3,2.5-3.3h4.4c2,0,4,1.5,4.5,3.3l0,0
				C860.7,178.8,859.6,180.2,857.7,180.2z"/>
		</g>
		<path class="st5" d="M919,217.8l-22.6,11.5c-8,4.2-12.8,10.1-13.7,16.9v40.3l9.2-0.2l2.8-34.8c2-6.2,9.3-10.2,17.4-13.8l6.6-2.1
			c8.4-2.7,9.2-12.2,1.4-17.2L919,217.8z"/>
		<path class="st6" d="M927.3,135.6c0,0,9.5-9.8,6.3-19.7c-3.3-10-21.7-11.3-23.6-2.5c-1.3,5.7,4,7.1,7.9,7.5
			c4.3,0.4,7.6,3.6,8.2,7.6v0.1L927.3,135.6z"/>
		<path class="st6" d="M914.6,107.7h-10.9c-1.6,0-3,1.4-2.5,3.1c1,3.9,3.8,10.5,11.9,11.3C921.7,122.8,914.6,107.7,914.6,107.7z"/>
		<path class="st7" d="M924.4,129.1c-0.8,0.2-1.4,0.5-2.1,0.8l-0.3-3.7c-0.3-3.8-3.8-6.7-7.8-6.4l-2.4,0.1c-4,0.2-7,3.6-6.8,7.4
			l0.6,8.7c0.3,3.8,3.8,6.7,7.8,6.4l0,0c2-0.1,3.6,1.2,3.9,3.1c0.3,2.5,0.4,5.1,0.5,7.6c3.3-0.6,6.5-1,9.8-0.8
			C925.8,144.6,924.7,136.9,924.4,129.1z"/>
		<path class="st6" d="M927.4,114.4h-10.9c-1.6,0-3,1.4-2.5,3.1c1,3.9,3.8,10.5,11.9,11.3C934.3,129.7,927.4,114.4,927.4,114.4z"/>
	</g>
	<g>
		<path class="st6" d="M812.6,294.1L812.6,294.1c-1.3-0.4-2-1.5-1.5-2.6l36.2-93.2c0.4-1.1,1.9-1.7,3.1-1.3l0,0
			c1.3,0.4,2,1.5,1.5,2.6l-36.2,93.2C815.3,293.9,814,294.5,812.6,294.1z"/>
		<path class="st6" d="M886.3,294.1L886.3,294.1c1.3-0.4,2-1.5,1.5-2.6l-36.2-93.2c-0.4-1.1-1.9-1.7-3.1-1.3l0,0
			c-1.3,0.4-2,1.5-1.5,2.6l36.2,93.2C883.7,293.9,885.1,294.5,886.3,294.1z"/>
	</g>
	<g>
		<path class="st5" d="M815.5,194.9c-2.4,0-4.3,1.8-4.3,4s1.9,4,4.3,4H987v-8H815.5V194.9z"/>
	</g>
</g>
<g>
	<g>
		<path class="st9" d="M111.2,7.6c-18.9,0-33.9,13.8-33.9,30.7c0,10.6,6,19.8,14.8,25.5c-1.8,5.1-4.4,9.7-8.3,12
			c0,0,14.5,2.9,25-6.5c0.7,0,1.8,0.2,2.4,0.2c18.6,0,33.9-13.8,33.9-30.7C145.2,22,129.8,7.6,111.2,7.6z"/>
	</g>
	<g>
		<path class="st2" d="M106.5,43.8v-2.1c0-1.5,0.2-2.9,1-3.9c0.7-1.1,1.8-2.1,3.3-3c1.2-0.8,2.2-1.5,2.8-2.2
			c0.6-0.7,0.8-1.3,0.8-2.2c0-0.7-0.2-1.2-0.8-1.5c-0.6-0.4-1.3-0.6-2.3-0.6c-2.3,0-5.1,0.8-8.2,2.4l-3.3-6.4
			c3.9-2.2,8-3.3,12.2-3.3c3.4,0,6.2,0.8,8.2,2.3c1.9,1.5,3,3.5,3,6.3c0,1.9-0.4,3.5-1.3,5c-0.8,1.3-2.3,2.8-4.2,4
			c-1.7,1.1-2.5,1.8-3,2.3c-0.4,0.6-0.7,1.1-0.7,1.8v1.2h-7.4V43.8L106.5,43.8z M105.4,52c0-1.3,0.4-2.5,1.2-3.3
			c0.8-0.8,2.1-1.2,3.6-1.2c1.5,0,2.8,0.4,3.5,1.2c0.8,0.8,1.2,1.9,1.2,3.3c0,1.3-0.4,2.4-1.2,3.3c-0.8,0.8-2.1,1.2-3.5,1.2
			c-1.5,0-2.8-0.4-3.6-1.1C105.9,54.6,105.4,53.5,105.4,52z"/>
	</g>
</g>
<g>
	<g>
		<path class="st10" d="M318.3,120.9c0,0,23.3-5.9,26.3,17.5c3,23.4-1.4,28.7-0.4,36.7c1,8-18.9,10.8-26,5.5
			C311.2,175.4,310,131.1,318.3,120.9z"/>
		<g>
			<path class="st11" d="M304,309.1L304,309.1c1.3-0.4,2-1.7,1.5-2.9l-19.4-52.8l-5,0.6l19.9,53.7
				C301.3,308.8,302.7,309.3,304,309.1z"/>
			<path class="st11" d="M284.7,262.5h52.8c3.6,0,6.8-3,6.8-6.8l0,0c0-3.6-3-6.8-6.8-6.8l-52.8,0c-3.6,0-6.8,3-6.8,6.8l0,0
				C277.9,259.4,280.8,262.5,284.7,262.5z"/>
			<path class="st11" d="M332.2,255.6h-5.1l19.2,52c0.4,1.1,1.9,1.9,3.1,1.4c1.3-0.4,2-1.7,1.5-2.9L332.2,255.6z"/>
			<path class="st11" d="M329.6,255.6L311,306.2c-0.4,1.1,0.3,2.4,1.5,2.9c1.2,0.4,2.7-0.3,3.1-1.4l19.2-52L329.6,255.6L329.6,255.6
				z"/>
			<path class="st11" d="M286.9,255.6l-18.6,50.6c-0.4,1.1,0.3,2.4,1.5,2.9s2.7-0.3,3.1-1.4l19.2-52L286.9,255.6L286.9,255.6z"/>
		</g>
		<polygon class="st12" points="299.3,250.7 350.8,246.3 370.7,178.5 317.1,178.5 		"/>
		<path class="st9" d="M325,247.7L325,247.7c-21.9,1.3-28.2-3.9-25.7-16l1.9-8.5l43.6,0.9l-1,5.3C341.4,241.6,337.2,247.7,325,247.7
			z"/>
		<path class="st13" d="M352.4,223.4c10.9-41.2,17.2-44.9,17.2-44.9c2.1,0,3.9,2.1,3.1,4.1l-17.2,62.5c-1.5,5.9-7,9.9-13,9.9h-1.3
			H318c-8.1-0.1-6.1-8.8,2-8.8C332.2,246.6,348.6,243.5,352.4,223.4z"/>
		<polygon class="st14" points="300.4,179.6 292.7,197.9 269.2,201.2 273,206.5 302.2,206.2 310.6,185.5 		"/>
		
			<ellipse transform="matrix(0.9976 -6.934735e-02 6.934735e-02 0.9976 -8.8109 22.8272)" class="st10" cx="324.4" cy="138.3" rx="16.5" ry="14"/>
		<path class="st14" d="M329.7,139.9c-0.7,0.3-1.4,0.6-2,0.9l-0.3-3.6c-0.3-3.9-3.5-6.8-7.5-6.5l-2.3,0.1c-3.9,0.3-6.8,3.5-6.5,7.5
			l0.6,8.8c0.3,3.9,3.5,6.8,7.5,6.5l0,0c1.9-0.1,3.5,1.3,3.6,3.1c0.1,2.5,0.3,5.1,0.4,7.6c3.1-0.7,6.3-1,9.4-0.9
			C331,155.6,330,147.7,329.7,139.9z"/>
		<path class="st15" d="M313.2,132.9c-3.5-2-4.3-6.8-1.3-9.6c0.1-0.1,0.4-0.4,0.6-0.6c2.5-2,6-2.4,9.1-2.4c4.6,0,9.6,0.9,12.8,4.3
			c1.1,1.3,2,3,2.7,4.5c0.7,1.9,1.1,4,0.4,6c-0.9,2.7-3.5,4.5-6.4,4.6c-1.3,0-2.4,0.9-3.6,0.6c-1.9-0.4-4-2.1-5.6-3
			C319.6,136.6,316,134.3,313.2,132.9z"/>
		<path class="st16" d="M334.4,160.5c-4.3,0.1-8.5,0.3-12.9,0.4c-3.3,0.1-6.4,0.1-9.6,1c-3.3,0.9-6.5,2.5-8.6,5.1
			c-1.5,1.9-2.4,4.1-3.1,6.3c-1.3,3.6-2.1,7.4-2.7,11l0.7,6.6l13.5-8.8c0,0-7.8,28.8-10.3,41.9c4.4,0.4,10.9,0.7,16.4,0.7l0,0
			c5.6,0.1,21.5-0.1,27.5-0.7c3.6-12.9,7.1-36.8,7.1-36.8S358.1,160.5,334.4,160.5z"/>
		<path class="st14" d="M321.3,160.6c0,0-1.3,9.3,4,9.3c5.3,0,10.6-9.3,10.6-9.3l-6.8-1.9L321.3,160.6z"/>
		<path class="st14" d="M333.9,142.8c-0.2-2.4-1.8-4.3-3.6-4.2c-1.8,0.1-3.2,2.2-3,4.6c0.2,2.4,1.8,4.3,3.6,4.2
			C332.7,147.4,334,145.3,333.9,142.8z"/>
		<path class="st17" d="M268.4,255.1h45.8c2.3,0,4.1-1.9,4.1-4.1l0,0c0-2.3-1.9-4.1-4.1-4.1h-45.8c-2.3,0-4.1,1.9-4.1,4.1l0,0
			C264.3,253.2,266,255.1,268.4,255.1z"/>
		<path class="st10" d="M291.3,298.7l7.3-0.1l1.3,5.4c0.3,1,0.1,2-0.4,2.9c-0.4,0.6-1,0.9-1.5,0.9l-18.2,0.3c-1.9,0-3.3-5.3,2.4-6.8
			C282.2,301.1,288.9,298.7,291.3,298.7z"/>
		<path class="st10" d="M269.4,298.7l7.3-0.1l1.3,5.4c0.3,1,0.1,2-0.4,2.9c-0.4,0.6-1,0.9-1.5,0.9l-18.2,0.3c-1.9,0-3.3-5.3,2.4-6.8
			C260.1,301.1,267,298.7,269.4,298.7z"/>
		<path class="st9" d="M268.2,298.6l-0.9-46.8c-0.1-11,7.3-16.6,22-19.2l15-2.7l8.5,17l-25.5,0.9c-3.6,0.4-6.4,2.9-6.8,6.3l-4,44.6
			l-8.3,0V298.6z"/>
		<polygon class="st16" points="301.3,169.9 291.1,190.8 308.2,193.9 313.1,176.5 		"/>
		<polygon class="st14" points="331.4,179.6 323.6,197.9 300.2,201.2 304,206.5 333,206.2 341.5,185.5 		"/>
		<g>
			<path class="st18" d="M308.8,206.2h-48.4c-1.1,0-2.1-1-2.1-2.1l0,0c0-1.1,1-2.1,2.1-2.1h48.4c1.1,0,2.1,1,2.1,2.1l0,0
				C311,205.2,310,206.2,308.8,206.2z"/>
			<path class="st19" d="M291.7,206.2h-41.8c-2,0-4-1.5-4.5-3.5l-7.8-28.7c-0.6-2,0.6-3.5,2.5-3.5l41.8,0c2,0,4,1.5,4.5,3.5
				l7.8,28.7C294.8,204.4,293.7,206.2,291.7,206.2z"/>
			<path class="st9" d="M289.7,206.2h-41.8c-2,0-4-1.5-4.5-3.5l-7.8-28.7c-0.6-2,0.6-3.5,2.5-3.5l41.8,0c2,0,4,1.5,4.5,3.5l7.8,28.7
				C292.9,204.4,291.7,206.2,289.7,206.2z"/>
			<path class="st19" d="M265.8,191.5h-4.2c-1.9,0-3.9-1.5-4.3-3.4l0,0c-0.6-1.9,0.6-3.4,2.4-3.4h4.1c1.9,0,3.9,1.5,4.3,3.4l0,0
				C268.8,190,267.6,191.5,265.8,191.5z"/>
		</g>
		<path class="st9" d="M324.6,229.4L303,241c-7.6,4.1-12.3,10.3-13,17l0,40.9l8.8-0.3l2.5-35.1c1.9-6.3,8.9-10.4,16.6-13.9l6.4-2.1
			c8.1-2.7,8.8-12.4,1.4-17.3L324.6,229.4z"/>
	</g>
	<path class="st10" d="M387.2,298.1l7.4-0.1l1.3,5.4c0.3,1,0.1,2.1-0.4,2.9c-0.4,0.6-1,0.9-1.5,0.9l-18.5,0.3c-1.9,0-3.3-5.3,2.5-7
		C378,300.4,384.9,298.2,387.2,298.1z"/>
	<path class="st10" d="M421.9,298.1l7.4-0.1l1.3,5.4c0.3,1,0.1,2.1-0.4,2.9c-0.4,0.6-1,0.9-1.5,0.9l-18.4,0.3c-1.9,0-3.3-5.3,2.5-7
		C412.5,300.4,419.6,298.2,421.9,298.1z"/>
	<path class="st10" d="M434.4,298.1l7.4-0.1l1.3,5.4c0.3,1,0.1,2.1-0.4,2.9c-0.4,0.6-1,0.9-1.5,0.9l-18.5,0.3c-1.9,0-3.3-5.3,2.5-7
		C425,300.4,432.1,298.2,434.4,298.1z"/>
	<polygon class="st1" points="385.2,173.1 382.7,298.1 395.8,298.1 410.7,178.1 	"/>
	<polygon class="st1" points="403.8,178.1 417.6,298.1 430.9,298.1 427.3,176 	"/>
	<path class="st20" d="M439.6,123.7c-0.1-2.4-0.6-5-1.7-7.1c-1.5-3-4.4-4.9-7.4-5.9c-3-1-6.3-1-9.4-1.1c-4.1-0.1-13.9-0.3-18.2-0.4
		c-0.1,0-0.1,0-0.3,0c-4.1,0.1-8.4,0.3-12.5,0.4c-3.1,0.1-6.4,0.1-9.4,1.1c-3,1-6,2.9-7.4,5.9c-1.1,2.1-1.4,4.6-1.7,7.1
		c-0.1,2.3-0.3,4.5-0.3,6.8c0,3,2.4,5.3,5.3,4.9l3.1-0.6c2.7-0.6,5.3,1.9,5.3,5c-0.3,8.8-0.6,25.5-0.4,36.8c0,2.5,1.9,4.5,4.1,4.6
		c3.9,0.3,8.4,0.4,12.3,0.4l0,0c4.6,0.1,15.9-0.1,23-0.6c2.3-0.1,4.1-2.3,4.3-4.6c0.1-12.3-0.3-31.8-0.6-40.9c-0.1-2.7,1.9-5,4.4-5
		l8-0.1C440,132.1,440,127.8,439.6,123.7z"/>
	<path class="st21" d="M397.8,109.5c0,0,3.1,4.1,8.8,4.1c5.6,0,7-4.1,7-4.1l-7.8-2.1L397.8,109.5z"/>
	<path class="st21" d="M379.8,119.9l-14.9,5.6c-2,0.9-4.3-0.6-4.4-2.9l-1.3-19.8l-7.4-4l-2.9,30.7c-0.7,7.8,6.4,13.9,14,12.3
		l21.8-10.4L379.8,119.9z"/>
	<path class="st21" d="M353.1,92L353.1,92c2.5-0.4,4.9,1.3,5.4,3.6l1.3,7.3c0.4,2.5-1.3,4.9-3.6,5.4l0,0c-2.5,0.4-4.9-1.3-5.4-3.6
		l-1.3-7.3C348.9,94.9,350.6,92.5,353.1,92z"/>
	<path class="st14" d="M435.1,179.4L435.1,179.4c2.1-1.3,5-0.6,6.3,1.7l3.6,6.4c1.3,2.1,0.6,5-1.7,6.3l0,0c-2.1,1.3-5,0.6-6.3-1.7
		l-3.6-6.4C432.1,183.5,433,180.6,435.1,179.4z"/>
	<path class="st10" d="M400.7,94.6L400.7,94.6c-4.4,1.3-9.1-1.1-10.4-5.5l-1.4-4.5c-1.3-4.4,1.1-9.1,5.5-10.4l0,0
		c4.4-1.3,9.1,1.1,10.4,5.5l1.4,4.5C407.7,88.5,405.1,93.1,400.7,94.6z"/>
	<path class="st21" d="M415,88.6c-0.9,0.1-4.1,0-4.9,0.1l0.4-4.3c0.4-4.4-2.7-8.3-7-8.8l-2.5-0.3c-4.4-0.4-8.3,2.7-8.8,7l-1.1,9.8
		c-0.4,4.4,2.7,8.3,7,8.8l0,0c2.1,0.3,3.6,2.1,3.4,4.3c-0.3,2.9-3,4-3.5,4.1h15.8C413.1,101.1,413.5,97.4,415,88.6z"/>
	<path class="st10" d="M413.5,100.4c0,0,10.4-11.3,6.8-22.8c-3.5-11.5-23.5-13-25.7-3c-1.4,6.5,4.4,8.3,8.6,8.5
		c4.6,0.4,8.4,4.1,8.8,8.6v0.1L413.5,100.4z"/>
	<path class="st21" d="M413.2,85.8c-2-0.2-3.8,1.4-4.1,3.6c-0.3,2.2,1.2,4.2,3.2,4.5c2,0.2,3.8-1.4,4.1-3.6
		C416.6,88,415.2,86,413.2,85.8z"/>
	<path class="st20" d="M375,114.5l-8.1,8.9l6.3,16.9c21.3-13.3,17.9-7.8,29.8-15L375,114.5z"/>
	<path class="st21" d="M425.9,133.7c0.4,1.4,7.1,29.9,7.1,29.9l-28.4,17.6l0.3,9.4l33.4-15.9c4.4-2.1,7-6.8,6.4-11.6l-2.7-20.8
		L425.9,133.7z"/>
	<path class="st10" d="M402.6,68.1h-11c-1.7,0-3,1.5-2.5,3.3c1,4.3,3.9,11,11.9,11.9C409.5,84.2,402.6,68.1,402.6,68.1z"/>
	<path class="st21" d="M357.7,104L357.7,104c-1,0.1-2-0.6-2.1-1.5l-2.4-17c-0.1-1,0.6-2,1.5-2.1l0,0c1-0.1,2,0.6,2.1,1.5l2.4,17
		C359.4,102.9,358.7,103.8,357.7,104z"/>
	<g>
		<path class="st18" d="M466.6,206.2h-48.4c-1.1,0-2.1-1-2.1-2.1l0,0c0-1.1,1-2.1,2.1-2.1h48.4c1.1,0,2.1,1,2.1,2.1l0,0
			C468.5,205.2,467.7,206.2,466.6,206.2z"/>
		<path class="st18" d="M447.3,206.2h-41.8c-2,0-4-1.5-4.5-3.5l-7.8-28.7c-0.6-2,0.6-3.5,2.5-3.5l41.8,0c2,0,4,1.5,4.5,3.5l7.8,28.7
			C450.4,204.4,449.3,206.2,447.3,206.2z"/>
		<polygon class="st2" points="446.8,199.9 404,199.9 396.3,172.6 439,172.6 		"/>
		<g>
			<path class="st22" d="M413.7,185.9l1.7-10.4c-1.1-0.3-2.3-0.6-3.5-0.6c-6.3,0-10.1,5-8.8,11.3c1.3,6.3,7.4,11.3,13.6,11.3
				c2.3,0,4.3-0.7,5.9-1.9L413.7,185.9z"/>
			<path class="st23" d="M415.5,185.1l1.5-8.9c0,0,4.9,2.1,6.6,6.6L415.5,185.1z"/>
			<path class="st24" d="M416.4,186.5l7.6-2.3c2,2.7,1.4,8-0.9,9.8L416.4,186.5z"/>
		</g>
		<path class="st24" d="M438.5,178.4h-13.3c-0.4,0-1.1-0.4-1.4-0.9l0,0c-0.3-0.4,0-0.9,0.4-0.9h13.3c0.4,0,1.1,0.4,1.4,0.9l0,0
			C439,178,438.9,178.4,438.5,178.4z"/>
		<path class="st24" d="M440.3,182.6H427c-0.4,0-1.1-0.4-1.4-0.9l0,0c-0.3-0.4,0-0.9,0.4-0.9h13.3c0.4,0,1.1,0.4,1.4,0.9l0,0
			C440.9,182.3,440.8,182.6,440.3,182.6z"/>
		<path class="st24" d="M442,187h-13.3c-0.4,0-1.1-0.4-1.4-0.9l0,0c-0.3-0.4,0-0.9,0.4-0.9H441c0.4,0,1.1,0.4,1.4,0.9l0,0
			C442.8,186.6,442.5,187,442,187z"/>
	</g>
	<path class="st11" d="M197.3,309.1L197.3,309.1c-1.3-0.4-2-1.7-1.5-2.9l35.9-97.4c0.4-1.1,1.9-1.9,3.1-1.4l0,0
		c1.3,0.4,2,1.7,1.5,2.9l-35.9,97.4C200,308.8,198.6,309.3,197.3,309.1z"/>
	<path class="st11" d="M270.5,309.1L270.5,309.1c1.3-0.4,2-1.7,1.5-2.9l-35.9-97.4c-0.4-1.1-1.9-1.9-3.1-1.4l0,0
		c-1.3,0.4-2,1.7-1.5,2.9l35.9,97.4C267.8,308.8,269.2,309.3,270.5,309.1z"/>
	<path class="st11" d="M570.2,309.1L570.2,309.1c1.3-0.4,2-1.7,1.5-2.9l-35.9-97.4c-0.4-1.1-1.9-1.9-3.1-1.4l0,0
		c-1.3,0.4-2,1.7-1.5,2.9l35.9,97.4C567.5,308.8,569,309.3,570.2,309.1z"/>
	<path class="st9" d="M495.1,247.7L495.1,247.7c-21.9,1.3-28-6.3-25.5-18.4l1-5.3h44.3l-1,5.3C511.4,241.6,507.3,247.7,495.1,247.7z
		"/>
	<path class="st12" d="M544.7,212.9H214.2c-2,0-3.6-1.7-3.6-3.6l0,0c0-2,1.7-3.6,3.6-3.6h330.4c2,0,3.6,1.7,3.6,3.6l0,0
		C548.2,211.3,546.6,212.9,544.7,212.9z"/>
	<path class="st21" d="M419.7,199.7L419.7,199.7c-0.3-2.5,1.7-4.6,4.1-5l7.4-0.6c2.5-0.1,4.6,1.7,5,4.3l0,0c0.3,2.5-1.7,4.6-4.1,5
		l-7.4,0.6C422.4,204.2,420,202.2,419.7,199.7z"/>
	<path class="st10" d="M472.6,139.2h-3.4c-2.3,0-4.1-1.9-4.1-4.1v-0.9c0-2.3,1.9-4.1,4.1-4.1h3.4c2.3,0,4.1,1.9,4.1,4.1v0.9
		C476.7,137.3,474.8,139.2,472.6,139.2L472.6,139.2z M469.3,131.2c-1.5,0-3,1.3-3,3v0.9c0,1.5,1.3,3,3,3h3.4c1.5,0,3-1.3,3-3l0-0.9
		c0-1.5-1.3-3-3-3H469.3z"/>
	<path class="st21" d="M490.5,134.3c-0.7,0.3-1.5,0.6-2.3,0.9l-0.3-4.1c-0.3-4.3-3.9-7.5-8.1-7.3l-2.5,0.1c-4.3,0.3-7.5,3.9-7.3,8.1
		l0.6,9.6c0.3,4.3,3.9,7.5,8.1,7.3l0,0c2.1-0.1,3,0.7,4.1,3.6c1,2.5,1.1,5.1,1.1,8c3.4-0.7,7.6-1.4,11.3-1.3
		C493.5,150.7,490.6,143.1,490.5,134.3z"/>
	<path class="st15" d="M473.1,130.9c-7.1-6.6,2.7-15,13.3-13c6.3,1.1,11.9,2.7,14,9.6c0.6,2.1,0.6,2,0.7,4.3c0.6,6-2.5,9.4-4,11.8
		c-5.1,9.3-14.8,5.9-16.6,3.1C479,144.7,475.5,133.2,473.1,130.9z"/>
	<path class="st22" d="M502.6,156.4c-4.6-0.4-8.5-0.3-13.3-0.4c-4.6,0.1-9.4,0.3-14,0.4c-3.5,0.1-9.9,0-11.8,5.1
		c-1,3.1,3,14.6,3,14.6s2.4,39.2,3.1,52.8c5,0.4,36.7-0.1,43.1-0.7c0.4-9.8,5-41.7,4.4-52.1C516,161.5,506.7,156.8,502.6,156.4z"/>
	<path class="st21" d="M481.1,156.2c0,0,3.4,2.1,8.8,2.1s6-2.1,6-2.1l-7.4-2L481.1,156.2z"/>
	<path class="st21" d="M481.1,137.4c-0.1-2.7-1.9-4.8-3.9-4.7c-2,0.1-3.5,2.4-3.4,5c0.1,2.7,1.9,4.8,3.9,4.7
		C479.7,142.3,481.2,140,481.1,137.4z"/>
	<path class="st21" d="M464.6,168.5l-6,13.8c-1.4,3.3-4.6,10.6-6.3,12.8l-20.2-0.6l-3.6,5.3l24.9,5.6c3.4,0.6,7-1.1,9.3-4.9
		c0,0,0,0,0-0.1l11.6-28.8L464.6,168.5z"/>
	<polygon class="st22" points="479.6,169.7 465.1,195.5 452.7,190.4 463.3,161.5 	"/>
	<path class="st10" d="M466.8,134.6h16.4c0.6,0,1-0.4,1-1l0,0c0-0.6-0.4-1-1-1h-16.4c-0.6,0-1,0.4-1,1l0,0
		C465.9,134.2,466.3,134.6,466.8,134.6z"/>
	<path class="st10" d="M462.9,298.7l7.3-0.1l1.3,5.4c0.3,1,0.1,2-0.4,2.9c-0.4,0.6-1,0.9-1.5,0.9l-18.2,0.3c-1.9,0-3.3-5.3,2.4-6.8
		C453.7,301.1,460.7,298.7,462.9,298.7z"/>
	<path class="st9" d="M433.4,298.6l-0.9-46.8c-0.1-11,7.3-16.6,22-19.2l15-2.7l7.3,19l-24.9,0c-3.6,0.4-5.9,1.7-6.3,5.1l0.9,44.6
		H433.4z"/>
	<path class="st9" d="M496.2,229.4L474.7,241c-7.6,4.1-12.3,10.3-13,17l0,40.9l11.4-0.3v-35c1.9-6.3,8.9-10.4,16.6-13.9l6.4-2.1
		c8.1-2.7,8.8-12.4,1.4-17.3L496.2,229.4z"/>
	<g>
		<path class="st11" d="M481.7,309.1L481.7,309.1c1.3-0.4,2-1.7,1.5-2.9l-19.4-52.8l-5,0.6l19.9,53.7
			C479,308.8,480.5,309.3,481.7,309.1z"/>
		<path class="st11" d="M462.4,262.5h52.8c3.6,0,6.8-3,6.8-6.8l0,0c0-3.6-3-6.8-6.8-6.8l-52.8,0c-3.6,0-6.8,3-6.8,6.8l0,0
			C455.7,259.4,458.7,262.5,462.4,262.5z"/>
		<path class="st11" d="M510,255.6h-5.1l19.2,52c0.4,1.1,1.9,1.9,3.1,1.4c1.2-0.4,2-1.7,1.5-2.9L510,255.6z"/>
		<path class="st11" d="M507.3,255.6l-18.6,50.6c-0.4,1.1,0.3,2.4,1.5,2.9c1.3,0.4,2.7-0.3,3.1-1.4l19.2-52L507.3,255.6L507.3,255.6
			z"/>
		<path class="st11" d="M464.7,255.6l-18.6,50.6c-0.4,1.1,0.3,2.4,1.5,2.9c1.3,0.4,2.7-0.3,3.1-1.4l19.2-52L464.7,255.6L464.7,255.6
			z"/>
	</g>
	<g>
		<g>
			<path class="st13" d="M530.2,225.6c10.9-41.2,17.2-44.9,17.2-44.9c2.1,0,3.9,2.1,3.1,4.1l-17.2,62.5c-1.5,5.9-7,9.9-13,9.9h-1.3
				h-34.8l-0.7-5.3C484.6,243.2,523.6,258.6,530.2,225.6z"/>
			<path class="st13" d="M446,257.2h45.8c2.3,0,4.1-1.9,4.1-4.1l0,0c0-2.3-1.9-4.1-4.1-4.1H446c-2.3,0-4.1,1.9-4.1,4.1l0,0
				C441.9,255.4,443.8,257.2,446,257.2z"/>
			<path class="st13" d="M477,252.7l51.6-4.4l19.8-67.7H511c-9.4,0-17.5,6.4-19.8,15.5L477,252.7z"/>
		</g>
	</g>
	<polygon class="st20" points="421.9,125.9 427.3,151.5 444.8,147.3 439.5,122.2 	"/>
	<g>
		<path class="st9" d="M329.9,70.6h30.3c2.9,0,5.3-2.4,5.3-5.3l0.1-15.2c0-2.9-2.3-5.3-5.1-5.3h-30.3c-2.9,0-5.3,2.4-5.3,5.3
			l-0.1,15.2C324.8,68.2,327,70.6,329.9,70.6z"/>
		<path class="st9" d="M359.7,69l3.3,6.1c0.7,1.3-0.6,2.7-2,2.3L338.6,69H359.7z"/>
		<g>
			<path class="st2" d="M337,58c0,1.7-1.4,3-3,3c-1.7,0-3-1.3-3-3c0-1.7,1.4-3,3-3C335.5,55,337,56.3,337,58z"/>
			<path class="st2" d="M347.4,58c0,1.7-1.4,3-3,3c-1.7,0-3-1.3-3-3c0-1.7,1.4-3,3-3S347.4,56.3,347.4,58z"/>
			<path class="st2" d="M357.9,58c0,1.7-1.4,3-3,3c-1.5,0-3-1.3-3-3c0-1.7,1.4-3,3-3C356.6,55,357.9,56.3,357.9,58z"/>
		</g>
	</g>
</g>
<g>
	<path class="st25" d="M68.3,300.6l-7.9-0.1l-1.3,5.8c-0.3,1-0.1,2.2,0.4,3.1c0.4,0.6,1,0.9,1.7,0.9l19.6,0.3c1.9,0,3.5-5.7-2.6-7.4
		C78.4,303,71,300.6,68.3,300.6z"/>
	<path class="st25" d="M30.7,300.6l-7.9-0.1l-1.3,5.8c-0.3,1-0.1,2.2,0.4,3.1c0.4,0.6,1,0.9,1.7,0.9l19.6,0.3c1.9,0,3.5-5.7-2.6-7.4
		C40.7,303,33.1,300.6,30.7,300.6z"/>
	<polygon class="st26" points="73.3,168 73.3,300.6 59.2,300.6 46.2,173.3 	"/>
	<polygon class="st26" points="50.9,173.3 36.3,300.6 22.2,300.6 26,171.1 	"/>
	<path class="st27" d="M11.9,112.2c0.3-2.6,0.6-5.2,1.9-7.6c1.7-3.1,5.1-5.1,8.6-6.1c3.5-1,7.1-1.2,10.8-1.2
		c4.8-0.1,16.1-0.3,21.1-0.4c0.1,0,0.1,0,0.3,0c4.8,0.1,9.6,0.3,14.4,0.4c3.6,0.1,7.3,0.3,10.8,1.2s6.8,3.1,8.6,6.1
		c1.3,2.3,1.7,4.9,1.9,7.6c0.3,2.3,0.3,4.8,0.3,7.1c0,3.2-2.9,5.5-6,5.1l-3.6-0.6c-3.2-0.6-6.1,2-6,5.2c0.3,9.3,0.7,27.1,0.4,39
		c0,2.6-2.2,4.8-4.8,4.9c-4.5,0.3-9.6,0.4-14.1,0.4l0,0c-5.4,0.1-18.3-0.1-26.5-0.6c-2.6-0.1-4.8-2.3-4.8-5.1
		c-0.3-12.9,0.4-33.8,0.7-43.5c0.1-2.9-2.2-5.2-5.1-5.2l-9-0.1C11.3,120.9,11.5,116.5,11.9,112.2z"/>
	<path class="st28" d="M59.8,97.1c0,0-3.2,4.4-9.3,4.4c-6,0-7.4-4.4-7.4-4.4l8.3-2.2L59.8,97.1z"/>
	<path class="st29" d="M27.5,118l-8.6,19.2c-1.9,4.2-3.3,9.7-3.3,9.7l18.2,6l0.6,8.3l-24.9-4.9c-4.5-0.9-7.3-5.2-6.4-9.6
		c1-4.7,2.2-9.9,2.8-12.1l6.7-26.3L27.5,118z"/>
	<path class="st29" d="M90,110.9l7.7,15.1c1,2,3.8,2.5,5.5,0.9l15-14.5l8.7,2.2l-19.6,26.2c-4.9,6.7-15,6.5-19.8-0.3l-14.8-21.1
		L90,110.9z"/>
	<path class="st29" d="M134.2,111.6L134.2,111.6c-0.7-2.6-3.3-4.2-6-3.5l-7.6,1.9c-2.6,0.7-4.2,3.3-3.5,6l0,0c0.7,2.6,3.3,4.2,6,3.5
		l7.6-1.9C133.2,116.8,134.8,114.2,134.2,111.6z"/>
	<path class="st25" d="M56.6,81.2L56.6,81.2c4.7,1.5,9.6-1.2,11.1-5.8l1.5-4.8c1.5-4.7-1.2-9.6-5.8-11.1l0,0
		c-4.7-1.5-9.6,1.2-11.1,5.8l-1.5,4.8C49.3,74.8,52.1,79.7,56.6,81.2z"/>
	<path class="st29" d="M41.6,74.9c0.9,0.1,4.4,0,5.1,0.1l-0.4-4.5c-0.6-4.7,2.8-8.7,7.4-9.3l2.8-0.3c4.7-0.6,8.7,2.8,9.3,7.4
		l1.2,10.5c0.6,4.7-2.8,8.7-7.4,9.3l0,0c-2.3,0.3-3.9,2.3-3.6,4.5c0.3,3.1,2.9,3.8,3.5,4.1l-15.6,2C43.3,89.9,43.2,84.2,41.6,74.9z"
		/>
	<path d="M43.2,87.3c0,0-10.9-11.9-7.3-24.1s25-13.8,27.3-3.1c2.3,10.8-13.5,9.2-13.5,9.2s-6.3,2.5-6.8,9.2L43.2,87.3z"/>
	<ellipse transform="matrix(0.9936 -0.1132 0.1132 0.9936 -8.3476 5.4784)" class="st29" cx="44.1" cy="76.2" rx="3.9" ry="4.4"/>
	<path class="st25" d="M46.7,78.1L46.7,78.1c0.9-0.1,1.5-0.9,1.3-1.7l-0.6-5.5c-0.1-0.9-0.9-1.5-1.7-1.3l0,0
		c-0.9,0.1-1.5,0.9-1.3,1.7l0.6,5.5C45.1,77.7,45.8,78.3,46.7,78.1z"/>
	<polygon class="st27" points="11.3,109 5.2,134.9 19.5,140.7 31.1,114.9 14.1,104.8 	"/>
	<path class="st27" d="M87.7,103.9l12.2,22.5l-3.8,19.5c-8.6,0.6-18.3-14.5-28.2-29L87.7,103.9z"/>
	<path class="st30" d="M98.8,145.3l3.6-17.6c0.3-1.2-0.4-2.2-1.6-2.5l0,0c-1.2-0.3-2.2,0.4-2.5,1.6l-3.6,17.6
		c-0.3,1.2,0.4,2.2,1.6,2.5l0,0C97.4,147.2,98.6,146.5,98.8,145.3z"/>
	<path class="st30" d="M4.8,138.9l13.2,4.7c1,0.4,2.3-0.1,2.6-1.3l0,0c0.4-1-0.1-2.3-1.3-2.6L6.1,135c-1-0.4-2.3,0.1-2.6,1.3l0,0
		C3.2,137.3,3.6,138.5,4.8,138.9z"/>
	<polygon class="st30" points="56.4,93.1 64.6,97.2 56.4,108.1 50.5,101.4 	"/>
	<polygon class="st30" points="43.5,92 36.6,97.2 44.9,108.1 50.9,101.4 	"/>
	<path class="st29" d="M37.9,153.4l-1.2-1.9c-1-1.7-3.3-2.5-5.1-1.3l-2.5,1.5c-1.7,1-2.5,3.3-1.3,5.1l1.2,1.9c1,1.7,3.3,2.5,5.1,1.3
		l2.5-1.5C38.4,157.4,39,155.1,37.9,153.4z"/>
</g>
<g>
	<path class="st31" d="M225.1,21.5l-4.7,1.6c-0.5,0.1-0.7,0.5-0.9,0.8l-2,4.6l-1.6-4.7c-0.1-0.5-0.5-0.7-0.8-0.9l-4.6-2l4.7-1.6
		c0.5-0.1,0.7-0.5,0.9-0.8l2-4.6l1.6,4.7c0.1,0.5,0.5,0.7,0.8,0.9L225.1,21.5z"/>
	<path class="st31" d="M480,13.4l-4.7,1.6c-0.5,0.1-0.7,0.5-0.9,0.8l-2,4.6l-1.6-4.7c-0.1-0.5-0.5-0.7-0.8-0.9l-4.6-2l4.7-1.6
		c0.5-0.1,0.7-0.5,0.9-0.8l2-4.6l1.6,4.7c0.1,0.5,0.5,0.7,0.8,0.9L480,13.4z"/>
	<path class="st31" d="M107.2,211.2l-4.7,1.6c-0.5,0.1-0.7,0.5-0.9,0.8l-2,4.6l-1.6-4.7c-0.1-0.5-0.5-0.7-0.8-0.9l-4.6-2l4.7-1.6
		c0.5-0.1,0.7-0.5,0.9-0.8l2-4.6l1.6,4.7c0.1,0.5,0.5,0.7,0.8,0.9L107.2,211.2z"/>
	<path class="st31" d="M710.1,207l-4.7,1.6c-0.5,0.1-0.7,0.5-0.9,0.8l-2,4.6l-1.6-4.7c-0.1-0.5-0.5-0.7-0.8-0.9l-4.6-2l4.7-1.6
		c0.5-0.1,0.7-0.5,0.9-0.8l2-4.6l1.6,4.7c0.1,0.5,0.5,0.7,0.8,0.9L710.1,207z"/>
	<path class="st31" d="M222.3,117.7l-4.7,1.6c-0.5,0.1-0.7,0.5-0.9,0.8l-2,4.6l-1.6-4.7c-0.1-0.5-0.5-0.7-0.8-0.9l-4.6-2l4.7-1.6
		c0.5-0.1,0.7-0.5,0.9-0.8l2-4.6l1.6,4.7c0.1,0.5,0.5,0.7,0.8,0.9L222.3,117.7z"/>
	<path class="st32" d="M14.6,197.3l-4.7,1.6c-0.5,0.1-0.7,0.5-0.9,0.8l-2,4.6l-1.6-4.7c-0.1-0.5-0.5-0.7-0.8-0.9l-4.6-2l4.7-1.6
		c0.5-0.1,0.7-0.5,0.9-0.8l2-4.6l1.6,4.7c0.1,0.5,0.5,0.7,0.8,0.9L14.6,197.3z"/>
	<path class="st32" d="M135.4,255.9l-4.7,1.6c-0.5,0.1-0.7,0.5-0.9,0.8l-2,4.6l-1.6-4.7c-0.1-0.5-0.5-0.7-0.8-0.9l-4.6-2l4.7-1.6
		c0.5-0.1,0.7-0.5,0.9-0.8l2-4.6l1.6,4.7c0.1,0.5,0.5,0.7,0.8,0.9L135.4,255.9z"/>
	<path class="st32" d="M30.5,32.7l-4.7,1.6c-0.5,0.1-0.7,0.5-0.9,0.8l-2,4.6L21.3,35c-0.1-0.5-0.5-0.7-0.8-0.9l-4.6-2l4.7-1.6
		c0.5-0.1,0.7-0.5,0.9-0.8l2-4.6l1.6,4.7c0.1,0.5,0.5,0.7,0.8,0.9L30.5,32.7z"/>
	<path class="st32" d="M585.9,20.9l-4.7,1.6c-0.5,0.1-0.7,0.5-0.9,0.8l-2,4.6l-1.6-4.7c-0.1-0.5-0.5-0.7-0.8-0.9l-4.6-2l4.7-1.6
		c0.5-0.1,0.7-0.5,0.9-0.8l2-4.6l1.6,4.7c0.1,0.5,0.5,0.7,0.8,0.9L585.9,20.9z"/>
	<path class="st31" d="M866.3,197.3l-4.7,1.6c-0.5,0.1-0.7,0.5-0.9,0.8l-2,4.6l-1.6-4.7c-0.1-0.5-0.5-0.7-0.8-0.9l-4.6-2l4.7-1.6
		c0.5-0.1,0.7-0.5,0.9-0.8l2-4.6l1.6,4.7c0.1,0.5,0.5,0.7,0.8,0.9L866.3,197.3z"/>
	<path class="st32" d="M806.7,96.7l-4.7,1.6c-0.5,0.1-0.7,0.5-0.9,0.8l-2,4.6l-1.6-4.7c-0.1-0.5-0.5-0.7-0.8-0.9l-4.6-2l4.7-1.6
		c0.5-0.1,0.7-0.5,0.9-0.8l2-4.6l1.6,4.7c0.1,0.5,0.5,0.7,0.8,0.9L806.7,96.7z"/>
	<path class="st32" d="M216.4,37.9l-6.5,2.3c-0.6,0.2-1,0.6-1.3,1.1l-2.8,6.4l-2.3-6.5c-0.2-0.6-0.6-1-1.1-1.3l-6.4-2.8l6.5-2.3
		c0.6-0.2,1-0.6,1.3-1.1l2.8-6.4l2.3,6.5c0.2,0.6,0.6,1,1.1,1.3L216.4,37.9z"/>
	<path class="st31" d="M970.2,121.3l-4.7,1.6c-0.5,0.1-0.7,0.5-0.9,0.8l-2,4.6l-1.6-4.7c-0.1-0.5-0.5-0.7-0.8-0.9l-4.6-2l4.7-1.6
		c0.5-0.1,0.7-0.5,0.9-0.8l2-4.6l1.6,4.7c0.1,0.5,0.5,0.7,0.8,0.9L970.2,121.3z"/>
	<path class="st32" d="M943.7,229.7l-6.5,2.3c-0.6,0.2-1,0.6-1.3,1.1l-2.8,6.4l-2.3-6.5c-0.2-0.6-0.6-1-1.1-1.3l-6.4-2.8l6.5-2.3
		c0.6-0.2,1-0.6,1.3-1.1l2.8-6.4l2.3,6.5c0.2,0.6,0.6,1,1.1,1.3L943.7,229.7z"/>
	<path class="st32" d="M449.2,31.2l-6.5,2.3c-0.6,0.2-1,0.6-1.3,1.1l-2.8,6.4l-2.3-6.5c-0.2-0.6-0.6-1-1.1-1.3l-6.4-2.8l6.5-2.3
		c0.6-0.2,1-0.6,1.3-1.1l2.8-6.4l2.3,6.5c0.2,0.6,0.6,1,1.1,1.3L449.2,31.2z"/>
	<path class="st31" d="M531.3,105.1l-4.7,1.6c-0.5,0.1-0.7,0.5-0.9,0.8l-2,4.6l-1.6-4.7c-0.1-0.5-0.5-0.7-0.8-0.9l-4.6-2l4.7-1.6
		c0.5-0.1,0.7-0.5,0.9-0.8l2-4.6l1.6,4.7c0.1,0.5,0.5,0.7,0.8,0.9L531.3,105.1z"/>
	<path class="st31" d="M657.5,126.9l-4.7,1.6c-0.5,0.1-0.7,0.5-0.9,0.8l-2,4.6l-1.6-4.7c-0.1-0.5-0.5-0.7-0.8-0.9l-4.6-2l4.7-1.6
		c0.5-0.1,0.7-0.5,0.9-0.8l2-4.6l1.6,4.7c0.1,0.5,0.5,0.7,0.8,0.9L657.5,126.9z"/>
	<path class="st32" d="M957.1,18.8l-6.5,2.3c-0.6,0.2-1,0.6-1.3,1.1l-2.8,6.4l-2.3-6.5c-0.2-0.6-0.6-1-1.1-1.3l-6.4-2.8l6.5-2.3
		c0.6-0.2,1-0.6,1.3-1.1l2.8-6.4l2.3,6.5c0.2,0.6,0.6,1,1.1,1.3L957.1,18.8z"/>
	<path class="st32" d="M145.6,161l-6.5,2.3c-0.6,0.2-1,0.6-1.3,1.1l-2.8,6.4l-2.3-6.5c-0.2-0.6-0.6-1-1.1-1.3l-6.4-2.8l6.5-2.3
		c0.6-0.2,1-0.6,1.3-1.1l2.8-6.4l2.3,6.5c0.2,0.6,0.6,1,1.1,1.3L145.6,161z"/>
	<path class="st32" d="M623.5,38.5l-6.5,2.3c-0.6,0.2-1,0.6-1.3,1.1l-2.8,6.4l-2.3-6.5c-0.2-0.6-0.6-1-1.1-1.3l-6.4-2.8l6.5-2.3
		c0.6-0.2,1-0.6,1.3-1.1l2.8-6.4l2.3,6.5c0.2,0.6,0.6,1,1.1,1.3L623.5,38.5z"/>
	<path class="st32" d="M893,130l-6.5,2.3c-0.6,0.2-1,0.6-1.3,1.1l-2.8,6.4l-2.3-6.5c-0.2-0.6-0.6-1-1.1-1.3l-6.4-2.8l6.5-2.3
		c0.6-0.2,1-0.6,1.3-1.1l2.8-6.4l2.3,6.5c0.2,0.6,0.6,1,1.1,1.3L893,130z"/>
</g>
<path class="st0" d="M591.7,209.2"/>
<text transform="matrix(1 0 0 1 306 396)" style="font-family:'MyriadPro-Regular'; font-size:12px;">We offer dependable IT support, available around the clock.</text>
</svg>
