<svg version="1.1" id="1716338703" xmlns="http://www.w3.org/2000/svg" xmlns:xlink="http://www.w3.org/1999/xlink" x="0px" y="0px" viewBox="0 0 512 512" style="enable-background:new 0 0 512 512;" xml:space="preserve" class="svg u_1716338703" data-icon-custom="true" data-icon-name="desktop.svg"> <style type="text/css">.st0-1716338703{fill:#ADACA7;}
	.st1-1716338703{fill:#8F8F8B;}
	.st2-1716338703{fill:#CBC9C2;}
	.st3-1716338703{fill:#404242;}
	.st4-1716338703{fill:#565959;}
	.st5-1716338703{fill:#4B88D5;}
	.st6-1716338703{fill:#219FFA;}
	.st7-1716338703{fill:#FFFFFF;}</style> 
 <g> <path class="st0-1716338703" d="M283.9,413.1L197.2,444l-3.3,11.5c-4.7,16.3-22.4,29.7-39.4,29.7v7.7h179.8L283.9,413.1z"></path> 
 <path class="st1-1716338703" d="M318.1,455.5L306,413.1l-50-30.9l-50,30.9l-8.8,30.9h86.7l3.3,11.5c4.7,16.3,22.4,29.7,39.4,29.7l15.5,7.7
		l15.5-7.7C340.5,485.2,322.7,471.8,318.1,455.5z"></path> 
 <path class="st0-1716338703" d="M450.2,413.1h30.9c17,0,30.9-13.9,30.9-30.9v-61.8l-61.8-61.8V413.1z"></path> 
 <path class="st2-1716338703" d="M0,382.2c0,17,13.9,30.9,30.9,30.9h419.3c17,0,30.9-13.9,30.9-30.9V196.8L0,320.4V382.2z"></path> 
 <path class="st3-1716338703" d="M481.1,11.3h-30.9l30.9,309.1H512V42.2C512,25.2,498.1,11.3,481.1,11.3z"></path> 
 <path class="st4-1716338703" d="M481.1,42.2c0-17-13.9-30.9-30.9-30.9H30.9C13.9,11.3,0,25.2,0,42.2v278.1h481.1v-30.9L256,165.8L481.1,42.2z"></path> 
 <path class="st5-1716338703" d="M481.1,42.2l-30.9,0c0,0-194.2,123.6-194.2,123.6s194.2,123.6,194.2,123.6l30.9,0
		C481.1,289.5,481.1,42.2,481.1,42.2L481.1,42.2z"></path> 
 <path class="st6-1716338703" d="M450.2,42.2L31,42.2c0,0,0,247.3-0.1,247.3c0,0,419.3,0,419.3,0C450.2,289.5,450.1,42.2,450.2,42.2L450.2,42.2
		z"></path> 
 <circle class="st7-1716338703" cx="256" cy="366.7" r="15.5"></circle> 
 <path class="st1-1716338703" d="M415.7,500.7H96.3c-4.3,0-7.7-3.5-7.7-7.7s3.5-7.7,7.7-7.7h319.4c4.3,0,7.7,3.5,7.7,7.7
		S419.9,500.7,415.7,500.7z"></path> 
</g> 
</svg>