<svg id="1882371375" enable-background="new 0 0 24 24" height="512" viewBox="0 0 24 24" width="512" xmlns="http://www.w3.org/2000/svg" class="svg u_1882371375" data-icon-custom="true" data-icon-name="business-and-finance.svg"> <path d="m5.75 14h-3.5c-.689 0-1.25.561-1.25 1.25v8c0 .414.336.75.75.75h4.5c.414 0 .75-.336.75-.75v-8c0-.689-.561-1.25-1.25-1.25z" fill="#90caf9"></path> 
 <path d="m13.75 10h-3.5c-.689 0-1.25.561-1.25 1.25v12c0 .414.336.75.75.75h4.5c.414 0 .75-.336.75-.75v-12c0-.689-.561-1.25-1.25-1.25z" fill="#64b5f6"></path> 
 <path d="m21.75 6h-3.5c-.689 0-1.25.561-1.25 1.25v16c0 .414.336.75.75.75h4.5c.414 0 .75-.336.75-.75v-16c0-.689-.561-1.25-1.25-1.25z" fill="#2196f3"></path> 
 <path d="m20 6h-1.75c-.689 0-1.25.561-1.25 1.25v16c0 .414.336.75.75.75h2.25z" fill="#1d83d4"></path> 
 <path d="m12 10h-1.75c-.689 0-1.25.561-1.25 1.25v12c0 .414.336.75.75.75h2.25z" fill="#579ed6"></path> 
 <path d="m4 14h-1.75c-.689 0-1.25.561-1.25 1.25v8c0 .414.336.75.75.75h2.25z" fill="#7db0d9"></path> 
 <path d="m23.25 24h-22.5c-.414 0-.75-.336-.75-.75s.336-.75.75-.75h22.5c.414 0 .75.336.75.75s-.336.75-.75.75z" fill="#607d8b"></path> 
 <path d="m24 23.25h-24c0 .414.336.75.75.75h22.5c.414 0 .75-.336.75-.75z" fill="#546d79"></path> 
 <path d="m3 11c-.256 0-.512-.098-.707-.293-.391-.391-.391-1.023 0-1.414l6.906-6.906c.391-.391 1.023-.391 1.414 0s.391 1.023 0 1.414l-6.906 6.906c-.195.195-.451.293-.707.293z" fill="#4caf50"></path> 
 <path d="m11.25 6c-.195 0-.387-.076-.53-.22l-3.5-3.5c-.215-.214-.279-.537-.163-.817s.39-.463.693-.463h3.5c.414 0 .75.336.75.75v3.5c0 .303-.183.577-.463.693-.093.038-.19.057-.287.057z" fill="#4caf50"></path> 
 <g fill="#429846"> <path d="m8.97 4.03-6.677 6.677c.195.195.451.293.707.293s.512-.098.707-.293l5.97-5.97z"></path> 
 <path d="m11.78 1.22-2.81 2.81.707.707 1.043 1.043c.143.144.335.22.53.22.097 0 .194-.019.287-.057.28-.116.463-.39.463-.693v-3.5c0-.207-.084-.395-.22-.53z"></path> 
</g> 
</svg>