<?xml version="1.0" encoding="utf-8"?>
<!-- Generator: Adobe Illustrator 24.1.2, SVG Export Plug-In . SVG Version: 6.00 Build 0)  -->
<svg version="1.1" id="Layer_1" xmlns="http://www.w3.org/2000/svg" xmlns:xlink="http://www.w3.org/1999/xlink" x="0px" y="0px"
	 viewBox="0 0 960 310" style="enable-background:new 0 0 960 310;" xml:space="preserve">
<style type="text/css">
	.st0{fill:#9AD9FC;}
	.st1{fill:#FFFFFF;}
	.st2{opacity:0.4;fill:#E5F2FD;}
	.st3{fill:#70BEF2;}
	.st4{fill:#D2F1FC;}
	.st5{fill:#AEE8FC;}
	.st6{display:none;opacity:0.7;fill:#FFFFFF;}
	.st7{fill:#F5FAFE;stroke:#9AD9FC;stroke-width:1.4785;stroke-miterlimit:10;stroke-dasharray:2.2177,2.2177;}
	.st8{fill:#FBB040;}
	.st9{fill:#005EB8;}
	.st10{opacity:0.7;}
	.st11{fill:none;stroke:#9AD9FC;stroke-width:2;stroke-miterlimit:10;stroke-dasharray:3,3;}
	.st12{fill:#F5FAFE;stroke:#9AD9FC;stroke-width:2;stroke-miterlimit:10;stroke-dasharray:3,3;}
	.st13{fill:#0A84F2;}
	.st14{fill:#0F89DB;}
	.st15{fill:#ED8B00;}
	.st16{fill:#C3E9F4;}
	.st17{fill:#F5FAFE;}
	.st18{clip-path:url(#SVGID_2_);}
	.st19{clip-path:url(#SVGID_4_);}
	.st20{opacity:0.1;}
	.st21{fill:#FAA284;}
	.st22{fill:#F5F5F5;}
	.st23{fill:#493222;}
	.st24{fill:#3A271B;}
	.st25{fill:#664C3B;}
	.st26{fill:#3A3C76;}
	.st27{fill:#353B42;}
	.st28{fill:#1AA1FC;}
	.st29{fill:#EF8D72;}
	.st30{fill:#E9F3FF;}
	.st31{display:none;}
	.st32{display:inline;}
	.st33{fill:#21333A;}
	.st34{opacity:0.1;fill:#FFFFFF;}
	.st35{display:inline;fill:#502F26;}
	.st36{fill:#DB7C65;}
	.st37{fill:#72382A;}
	.st38{fill:#B22828;}
	.st39{fill:#8E6959;}
	.st40{fill:#7F503C;}
	.st41{fill:#693E2D;}
	.st42{fill:#D34645;}
	.st43{fill:#FBF3F3;}
	.st44{opacity:0.2;fill:#F5FAFE;}
	.st45{display:none;opacity:0.2;fill:#FFFFFF;}
	.st46{fill:none;stroke:#005EB8;stroke-width:2;stroke-miterlimit:10;}
	.st47{clip-path:url(#SVGID_6_);}
	.st48{clip-path:url(#SVGID_8_);}
</style>
<g>
	<path class="st0" d="M721.8,299H390.2V118.7c0-10.6,8.6-19.1,19.1-19.1h293.3c10.6,0,19.1,8.6,19.1,19.1V299z"/>
	
		<rect x="473.7" y="50.9" transform="matrix(-1.836970e-16 1 -1 -1.836970e-16 755.2884 -356.7116)" class="st1" width="164.6" height="296.8"/>
	
		<rect x="473.7" y="50.9" transform="matrix(-1.836970e-16 1 -1 -1.836970e-16 755.2884 -356.7116)" class="st2" width="164.6" height="296.8"/>
	<path class="st3" d="M348.5,299L348.5,299h414.9l0,0c0,6.1-4.9,11-11,11H359.5C353.5,310,348.5,305.1,348.5,299z"/>
	<path class="st4" d="M500.7,300.4V299h110.5v1.4c0,2.3-1.8,4.1-4.1,4.1H504.9C502.6,304.5,500.7,302.7,500.7,300.4z"/>
</g>
<g>
	<rect x="407.6" y="117" class="st5" width="296.8" height="20.2"/>
	<rect x="418.7" y="146.7" class="st5" width="171.3" height="55"/>
	<rect x="418.7" y="212.4" class="st5" width="51.5" height="42.9"/>
	<rect x="418.7" y="260.5" class="st4" width="51.5" height="10.8"/>
	<rect x="538.5" y="212.4" class="st5" width="51.5" height="42.9"/>
	<rect x="538.5" y="260.5" class="st4" width="51.5" height="10.8"/>
	<rect x="478.6" y="212.4" class="st5" width="51.5" height="42.9"/>
	<rect x="478.6" y="260.5" class="st4" width="51.5" height="10.8"/>
	<rect x="600.9" y="212.4" class="st5" width="89.8" height="59"/>
	<rect x="607.1" y="217.7" class="st4" width="77.4" height="37.5"/>
	<rect x="607.1" y="259.1" class="st4" width="77.4" height="7.5"/>
	<rect x="600.9" y="146.7" class="st4" width="89.8" height="9.5"/>
	<rect x="600.9" y="161.9" class="st4" width="89.8" height="9.5"/>
	<rect x="600.9" y="177.1" class="st4" width="89.8" height="9.5"/>
	<rect x="600.9" y="192.2" class="st4" width="89.8" height="9.5"/>
	<g>
		<circle class="st1" cx="695" cy="127.1" r="2.8"/>
		<circle class="st1" cx="686.3" cy="127.1" r="2.8"/>
		<circle class="st1" cx="677.6" cy="127.1" r="2.8"/>
	</g>
</g>
<g>
	<g>
		<g>
			<path class="st5" d="M423.7,14.1h78.6c4.5,0,8.2,4.4,8.2,9.9v17l10.5,16.2h-10.5h-86.8c-4.5,0-8.2-4.4-8.2-9.9V23.9
				C415.5,18.5,419.2,14.1,423.7,14.1z"/>
			<circle class="st5" cx="463.1" cy="35.7" r="4.8"/>
			<circle class="st5" cx="480.5" cy="35.7" r="4.8"/>
			<circle class="st5" cx="445.8" cy="35.7" r="4.8"/>
		</g>
	</g>
	<g>
		<path class="st4" d="M425.5,12.3h78.6c4.5,0,8.2,4.4,8.2,9.9v17l10.5,16.2h-10.5h-86.8c-4.5,0-8.2-4.4-8.2-9.9V22.1
			C417.3,16.7,421,12.3,425.5,12.3z"/>
		<circle class="st1" cx="464.9" cy="33.9" r="4.8"/>
		<circle class="st1" cx="482.3" cy="33.9" r="4.8"/>
		<circle class="st1" cx="447.6" cy="33.9" r="4.8"/>
	</g>
</g>
<path class="st6" d="M916.4,203.8c-1.2,0-2.3,0.3-3.4,0.7c-0.6-2.1-2.1-3.8-4.1-4.6c0.4-0.6,0.7-1.3,0.7-2.1c0-1.9-1.5-3.4-3.4-3.4
	c-1.3,0-2.3,0.7-2.9,1.7l0,0l-4.1-17.5l-7.2,0.1l-0.9,12.2l0,0c-1.7,0.6-2.9,2.2-2.9,4.1c0,0.6,0.1,1.1,0.3,1.7
	c-0.4-0.1-0.9-0.1-1.3-0.1c-4.4,0-8,3.6-8,8c0,0.2,0,0.4,0,0.5c-1.3-0.8-2.8-1.3-4.4-1.3c-4.4,0-8,3.6-8,8s3.6,8,8,8h41.5
	c4.4,0,8-3.6,8-8S920.8,203.8,916.4,203.8z"/>
<path class="st7" d="M863.4,140.2h-55.7c-3,0-5.5-2.4-5.5-5.5V79c0-3,2.4-5.5,5.5-5.5h55.7c3,0,5.5,2.4,5.5,5.5v55.7
	C868.9,137.7,866.4,140.2,863.4,140.2z"/>
<g>
	<path class="st8" d="M862.2,99l-12.2-15.9c-0.8-1-2.3-1-3.1,0L834.8,99c-0.8,1-0.1,2.5,1.2,2.5h4.2v28.6c0,0.6,0.5,1.2,1.2,1.2
		h14.3c0.6,0,1.2-0.5,1.2-1.2v-28.6h4.2C862.3,101.6,863,100.1,862.2,99z"/>
	<g>
		<path class="st9" d="M835,109c0-0.8,2.3-3,2.9-3.4c-0.5-1.2-1.3-1-2-0.8c-0.8,0.2-1.6,0.5-2.2,0c-0.6-0.5-0.6-0.7-1.4-0.7
			s-0.8,0.2-1.4,0.7c-0.6,0.5-1.5,0.3-2.2,0c-0.8-0.2-1.5-0.4-2,0.8c0.5,0.5,2.9,2.6,2.9,3.4c-1.4,1.3-8.5,8-8.5,14
			c0,6,4.8,8.3,6.5,8.3c1.7,0,4.7,0,4.7,0s3,0,4.7,0s6.5-2.3,6.5-8.3C843.5,117,836.4,110.3,835,109z"/>
		<path class="st3" d="M835.3,109.6h-6.1c-0.4,0-0.8-0.4-0.8-0.8l0,0c0-0.4,0.4-0.8,0.8-0.8h6.1c0.4,0,0.8,0.4,0.8,0.8l0,0
			C836.1,109.3,835.7,109.6,835.3,109.6z"/>
		<g class="st10">
			<path class="st1" d="M831.6,125.3c-0.9,0-1.7-0.2-2.6-0.6v-2c0.5,0.2,1,0.4,1.5,0.6c0.6,0.2,1,0.2,1.5,0.2c0.3,0,0.6,0,0.8-0.1
				c0.2-0.1,0.2-0.2,0.2-0.4c0-0.1-0.1-0.2-0.2-0.3c-0.1-0.1-0.3-0.2-0.6-0.3c-0.3-0.1-0.6-0.3-1.1-0.4c-0.5-0.2-0.9-0.4-1.3-0.6
				c-0.3-0.2-0.5-0.5-0.7-0.8c-0.1-0.3-0.2-0.7-0.2-1.1c0-0.7,0.2-1.2,0.6-1.6s1.1-0.6,1.9-0.7v-0.8h1.3v0.8c0.8,0,1.6,0.2,2.4,0.6
				l-0.7,1.7c-0.9-0.4-1.6-0.6-2.3-0.6c-0.3,0-0.6,0-0.7,0.1c-0.1,0.1-0.2,0.2-0.2,0.4c0,0.1,0,0.2,0.1,0.3c0.1,0.1,0.3,0.2,0.5,0.3
				c0.2,0.1,0.6,0.2,1,0.4c0.8,0.3,1.5,0.6,1.8,1c0.4,0.4,0.6,0.9,0.6,1.5c0,0.7-0.2,1.2-0.7,1.7c-0.4,0.4-1.1,0.7-1.9,0.8v1.2h-1.3
				V125.3z"/>
		</g>
	</g>
	<g>
		<path class="st3" d="M819.1,114.6c0-0.6,1.8-2.2,2.1-2.6c-0.4-0.9-0.9-0.7-1.5-0.6c-0.6,0.2-1.2,0.4-1.7,0c-0.5-0.4-0.5-0.5-1-0.5
			c-0.6,0-0.6,0.2-1,0.5c-0.5,0.4-1.1,0.2-1.7,0c-0.6-0.2-1.1-0.3-1.5,0.6c0.4,0.4,2.1,2,2.1,2.6c-1.1,0.9-6.4,6-6.4,10.5
			c0,4.5,3.6,6.2,4.9,6.2s3.6,0,3.6,0s2.3,0,3.6,0s4.9-1.7,4.9-6.2C825.5,120.5,820.2,115.5,819.1,114.6z"/>
		<path class="st9" d="M819.3,115h-4.6c-0.3,0-0.6-0.3-0.6-0.6l0,0c0-0.3,0.3-0.6,0.6-0.6h4.6c0.3,0,0.6,0.3,0.6,0.6l0,0
			C819.9,114.7,819.7,115,819.3,115z"/>
		<g class="st10">
			<path class="st1" d="M816.6,126.8c-0.7,0-1.3-0.2-1.9-0.4v-1.5c0.4,0.2,0.7,0.3,1.2,0.5c0.4,0.1,0.8,0.2,1.1,0.2
				c0.3,0,0.4,0,0.6-0.1c0.1-0.1,0.2-0.2,0.2-0.3c0-0.1,0-0.2-0.1-0.3c-0.1-0.1-0.2-0.1-0.4-0.2c-0.2-0.1-0.5-0.2-0.8-0.3
				c-0.4-0.1-0.7-0.3-0.9-0.5c-0.2-0.2-0.4-0.4-0.5-0.6c-0.1-0.2-0.2-0.5-0.2-0.8c0-0.5,0.2-0.9,0.5-1.2s0.8-0.5,1.5-0.5V120h0.9
				v0.6c0.6,0,1.2,0.2,1.8,0.4l-0.5,1.3c-0.6-0.3-1.2-0.4-1.7-0.4c-0.2,0-0.4,0-0.5,0.1c-0.1,0.1-0.1,0.1-0.1,0.3
				c0,0.1,0,0.2,0.1,0.2c0.1,0.1,0.2,0.1,0.4,0.2c0.2,0.1,0.4,0.2,0.7,0.3c0.6,0.2,1.1,0.5,1.4,0.8c0.3,0.3,0.4,0.7,0.4,1.1
				c0,0.5-0.2,0.9-0.5,1.3c-0.3,0.3-0.8,0.5-1.4,0.6v0.9h-0.9V126.8z"/>
		</g>
	</g>
</g>
<path class="st4" d="M296.4,102.2l1-5.2l1,5.2c0.4,2,2,3.6,4,4l5.2,1l-5.2,1c-2,0.4-3.6,2-4,4l-1,5.2l-1-5.2c-0.4-2-2-3.6-4-4
	l-5.2-1l5.2-1C294.4,105.8,296,104.2,296.4,102.2z"/>
<path class="st4" d="M402.7,66.9l1-5.2l1,5.2c0.4,2,2,3.6,4,4l5.2,1l-5.2,1c-2,0.4-3.6,2-4,4l-1,5.2l-1-5.2c-0.4-2-2-3.6-4-4l-5.2-1
	l5.2-1C400.8,70.5,402.3,68.9,402.7,66.9z"/>
<path class="st4" d="M18.9,107.4l1-5.2l1,5.2c0.4,2,2,3.6,4,4l5.2,1l-5.2,1c-2,0.4-3.6,2-4,4l-1,5.2l-1-5.2c-0.4-2-2-3.6-4-4l-5.2-1
	l5.2-1C16.9,111.1,18.5,109.5,18.9,107.4z"/>
<path class="st4" d="M628.3,68.4l1-5.2l1,5.2c0.4,2,2,3.6,4,4l5.2,1l-5.2,1c-2,0.4-3.6,2-4,4l-1,5.2l-1-5.2c-0.4-2-2-3.6-4-4l-5.2-1
	l5.2-1C626.3,72,627.9,70.5,628.3,68.4z"/>
<path class="st4" d="M927.8,85.1l1-5.2l1,5.2c0.4,2,2,3.6,4,4l5.2,1l-5.2,1c-2,0.4-3.6,2-4,4l-1,5.2l-1-5.2c-0.4-2-2-3.6-4-4l-5.2-1
	l5.2-1C925.8,88.7,927.4,87.1,927.8,85.1z"/>
<path class="st0" d="M662.1,20.4l0.8-4.1l0.8,4.1c0.3,1.6,1.6,2.9,3.2,3.2l4.1,0.8l-4.1,0.8c-1.6,0.3-2.9,1.6-3.2,3.2l-0.8,4.1
	l-0.8-4.1c-0.3-1.6-1.6-2.9-3.2-3.2l-4.1-0.8l4.1-0.8C660.5,23.3,661.8,22.1,662.1,20.4z"/>
<path class="st0" d="M895.9,19.6l0.8-4.1l0.8,4.1c0.3,1.6,1.6,2.9,3.2,3.2l4.1,0.8l-4.1,0.8c-1.6,0.3-2.9,1.6-3.2,3.2l-0.8,4.1
	l-0.8-4.1c-0.3-1.6-1.6-2.9-3.2-3.2l-4.1-0.8l4.1-0.8C894.4,22.4,895.6,21.2,895.9,19.6z"/>
<path class="st4" d="M57.8,261.9l1-5.2l1,5.2c0.4,2,2,3.6,4,4l5.2,1l-5.2,1c-2,0.4-3.6,2-4,4l-1,5.2l-1-5.2c-0.4-2-2-3.6-4-4l-5.2-1
	l5.2-1C55.9,265.5,57.4,263.9,57.8,261.9z"/>
<path class="st0" d="M34,205.4l0.8-4.1l0.8,4.1c0.3,1.6,1.6,2.9,3.2,3.2l4.1,0.8l-4.1,0.8c-1.6,0.3-2.9,1.6-3.2,3.2l-0.8,4.1
	l-0.8-4.1c-0.3-1.6-1.6-2.9-3.2-3.2l-4.1-0.8l4.1-0.8C32.4,208.3,33.7,207,34,205.4z"/>
<path class="st0" d="M267.5,53.9l0.8-4.1l0.8,4.1c0.3,1.6,1.6,2.9,3.2,3.2l4.1,0.8l-4.1,0.8c-1.6,0.3-2.9,1.6-3.2,3.2l-0.8,4.1
	l-0.8-4.1c-0.3-1.6-1.6-2.9-3.2-3.2l-4.1-0.8l4.1-0.8C265.9,56.8,267.2,55.5,267.5,53.9z"/>
<path class="st4" d="M780.1,230.9l1-5.2l1,5.2c0.4,2,2,3.6,4,4l5.2,1l-5.2,1c-2,0.4-3.6,2-4,4l-1,5.2l-1-5.2c-0.4-2-2-3.6-4-4
	l-5.2-1l5.2-1C778.1,234.5,779.7,233,780.1,230.9z"/>
<path class="st0" d="M751.3,182.7l0.8-4.1l0.8,4.1c0.3,1.6,1.6,2.9,3.2,3.2l4.1,0.8l-4.1,0.8c-1.6,0.3-2.9,1.6-3.2,3.2l-0.8,4.1
	l-0.8-4.1c-0.3-1.6-1.6-2.9-3.2-3.2l-4.1-0.8l4.1-0.8C749.7,185.5,750.9,184.3,751.3,182.7z"/>
<path class="st4" d="M368.3,270.7l0.5-2.7l0.5,2.7c0.2,1.1,1,1.9,2.1,2.1l2.7,0.5l-2.7,0.5c-1.1,0.2-1.9,1-2.1,2.1l-0.5,2.7
	l-0.5-2.7c-0.2-1.1-1-1.9-2.1-2.1l-2.7-0.5l2.7-0.5C367.3,272.6,368.1,271.8,368.3,270.7z"/>
<path class="st0" d="M342.5,250.7l0.7-3.6l0.7,3.6c0.3,1.4,1.4,2.5,2.8,2.8l3.6,0.7l-3.6,0.7c-1.4,0.3-2.5,1.4-2.8,2.8l-0.7,3.6
	l-0.7-3.6c-0.3-1.4-1.4-2.5-2.8-2.8l-3.6-0.7l3.6-0.7C341.1,253.2,342.2,252.1,342.5,250.7z"/>
<path class="st0" d="M462.4,77.7l0.7-3.6l0.7,3.6c0.3,1.4,1.4,2.5,2.8,2.8l3.6,0.7l-3.6,0.7c-1.4,0.3-2.5,1.4-2.8,2.8l-0.7,3.6
	l-0.7-3.6c-0.3-1.4-1.4-2.5-2.8-2.8l-3.6-0.7l3.6-0.7C461,80.2,462.1,79.1,462.4,77.7z"/>
<path class="st4" d="M373.6,150.3l0.5-2.7l0.5,2.7c0.2,1.1,1,1.9,2.1,2.1l2.7,0.5l-2.7,0.5c-1.1,0.2-1.9,1-2.1,2.1l-0.5,2.7
	l-0.5-2.7c-0.2-1.1-1-1.9-2.1-2.1l-2.7-0.5l2.7-0.5C372.6,152.2,373.4,151.4,373.6,150.3z"/>
<path class="st0" d="M376.5,129.8l0.7-3.6l0.7,3.6c0.3,1.4,1.4,2.5,2.8,2.8l3.6,0.7l-3.6,0.7c-1.4,0.3-2.5,1.4-2.8,2.8l-0.7,3.6
	l-0.7-3.6c-0.3-1.4-1.4-2.5-2.8-2.8l-3.6-0.7l3.6-0.7C375.1,132.3,376.2,131.2,376.5,129.8z"/>
<path class="st4" d="M26,283.9l0.7-3.5l0.7,3.5c0.3,1.4,1.3,2.4,2.7,2.7l3.5,0.7l-3.5,0.7c-1.4,0.3-2.4,1.3-2.7,2.7l-0.7,3.5
	l-0.7-3.5c-0.3-1.4-1.3-2.4-2.7-2.7l-3.5-0.7l3.5-0.7C24.7,286.3,25.8,285.3,26,283.9z"/>
<path class="st4" d="M902.2,130l1-5.2l1,5.2c0.4,2,2,3.6,4,4l5.2,1l-5.2,1c-2,0.4-3.6,2-4,4l-1,5.2l-1-5.2c-0.4-2-2-3.6-4-4l-5.2-1
	l5.2-1C900.2,133.6,901.8,132,902.2,130z"/>
<path class="st0" d="M742.8,88.2l0.8-4.1l0.8,4.1c0.3,1.6,1.6,2.9,3.2,3.2l4.1,0.8l-4.1,0.8c-1.6,0.3-2.9,1.6-3.2,3.2l-0.8,4.1
	l-0.8-4.1c-0.3-1.6-1.6-2.9-3.2-3.2l-4.1-0.8l4.1-0.8C741.2,91,742.5,89.8,742.8,88.2z"/>
<path class="st4" d="M850.7,283.9l0.7-3.5l0.7,3.5c0.3,1.4,1.3,2.4,2.7,2.7l3.5,0.7l-3.5,0.7c-1.4,0.3-2.4,1.3-2.7,2.7l-0.7,3.5
	l-0.7-3.5c-0.3-1.4-1.3-2.4-2.7-2.7l-3.5-0.7l3.5-0.7C849.4,286.3,850.4,285.3,850.7,283.9z"/>
<path class="st4" d="M147.3,34.7l0.5-2.7l0.5,2.7c0.2,1.1,1,1.9,2.1,2.1l2.7,0.5l-2.7,0.5c-1.1,0.2-1.9,1-2.1,2.1l-0.5,2.7l-0.5-2.7
	c-0.2-1.1-1-1.9-2.1-2.1l-2.7-0.5l2.7-0.5C146.3,36.5,147.1,35.7,147.3,34.7z"/>
<path class="st0" d="M150.2,14.1l0.7-3.6l0.7,3.6c0.3,1.4,1.4,2.5,2.8,2.8l3.6,0.7l-3.6,0.7c-1.4,0.3-2.5,1.4-2.8,2.8l-0.7,3.6
	l-0.7-3.6c-0.3-1.4-1.4-2.5-2.8-2.8l-3.6-0.7l3.6-0.7C148.8,16.6,149.9,15.5,150.2,14.1z"/>
<polyline class="st11" points="802.3,107.2 780.7,107.2 744.1,143.9 652.8,143.9 "/>
<path class="st7" d="M948.4,305h-55.7c-3,0-5.5-2.4-5.5-5.5v-55.7c0-3,2.4-5.5,5.5-5.5h55.7c3,0,5.5,2.4,5.5,5.5v55.7
	C953.9,302.5,951.4,305,948.4,305z"/>
<polyline class="st11" points="887.3,270.7 781.3,270.7 744.6,234 718.8,234 "/>
<path class="st6" d="M916.4-223.2c-1.2,0-2.3,0.3-3.4,0.7c-0.6-2.1-2.1-3.8-4.1-4.6c0.4-0.6,0.7-1.3,0.7-2.1c0-1.9-1.5-3.4-3.4-3.4
	c-1.3,0-2.3,0.7-2.9,1.7l0,0l-4.1-17.5l-7.2,0.1l-0.9,12.2l0,0c-1.7,0.6-2.9,2.2-2.9,4.1c0,0.6,0.1,1.1,0.3,1.7
	c-0.4-0.1-0.9-0.1-1.3-0.1c-4.4,0-8,3.6-8,8c0,0.2,0,0.4,0,0.5c-1.3-0.8-2.8-1.3-4.4-1.3c-4.4,0-8,3.6-8,8s3.6,8,8,8h41.5
	c4.4,0,8-3.6,8-8S920.8-223.2,916.4-223.2z"/>
<path class="st12" d="M281.7,275H127.5c-6,0-10.9-4.9-10.9-10.9v-23.2c0-6,4.9-10.9,10.9-10.9h154.2c6,0,10.9,4.9,10.9,10.9V264
	C292.6,270.1,287.7,275,281.7,275z"/>
<g>
	<path class="st12" d="M155.6,210.3H118c-5.9,0-10.7-4.8-10.7-10.7v-37.6c0-5.9,4.8-10.7,10.7-10.7h37.6c5.9,0,10.7,4.8,10.7,10.7
		v37.6C166.3,205.6,161.5,210.3,155.6,210.3z"/>
	<g>
		<g>
			<polygon class="st13" points="140,196.4 124.7,196.4 123.5,200.9 141.2,200.9 			"/>
			<path class="st13" d="M135,176.8h-2.6h-2.6c0,0-0.3,10.8-4.4,19.6c2.7,0,7,0,7,0s4.4,0,7,0C135.3,187.6,135,176.8,135,176.8z"/>
			<path class="st13" d="M132.4,167.3c-3.4,0-4.1,0.1-4.1,2.2c0,2.1,1.2,4.8,2.2,6.5c1.4,0,1.9,0,1.9,0s0.5,0,1.9,0
				c1.1-1.7,2.2-4.4,2.2-6.5C136.5,167.4,135.7,167.3,132.4,167.3z"/>
			<polygon class="st9" points="134.9,163.4 133.1,163.4 133.1,160.9 131.7,160.9 131.7,163.4 129.8,163.4 129.8,164.8 131.7,164.8 
				131.7,167.3 133.1,167.3 133.1,164.8 134.9,164.8 			"/>
			<path class="st9" d="M134.3,167.3c0,0,1.1,1.2,0,4.1c-1,2.6-3.2,2.2-5.4,1.5c0.4,1.1,1,2.3,1.5,3.1c1.4,0,1.9,0,1.9,0
				s0.5,0,1.9,0c1.1-1.7,2.2-4.4,2.2-6.5C136.5,167.8,136,167.4,134.3,167.3z"/>
			<path class="st9" d="M135,176.8h-2.6h-2.6c0,0,0,0.8-0.1,2.1h0c0,0,0.5,0,1.8,0c1.3,0,1.9,0.2,2.6,4.6s2,8.9,2.6,10.1
				c0.6,1.1,0.8,2.2-2.6,2.2c-2.5,0-6.5,0-8.3,0c-0.1,0.2-0.2,0.5-0.3,0.7c2.7,0,7,0,7,0s4.4,0,7,0C135.3,187.6,135,176.8,135,176.8
				z"/>
			<polygon class="st9" points="134.8,196.4 135.5,200.9 141.2,200.9 140,196.4 			"/>
			<path class="st14" d="M135.9,177.4h-7.1c-0.4,0-0.7-0.3-0.7-0.7V176c0-0.4,0.3-0.7,0.7-0.7h7.1c0.4,0,0.7,0.3,0.7,0.7v0.7
				C136.6,177,136.3,177.4,135.9,177.4z"/>
		</g>
		<g>
			<polygon class="st8" points="149,196.7 134.7,196.7 133.6,200.9 150.1,200.9 			"/>
			<polygon class="st15" points="144.1,196.7 144.8,200.9 150.1,200.9 149,196.7 			"/>
			<path class="st8" d="M136.6,196.7c0,0-1.5-1.6-1.5-2.9s1.8-2,2.9-5.4c1.1-3.3,1.3-4.7,1.2-5.1s-1.8-0.6-2.5,0.4
				c-0.7,1-0.5,1.1-1.8,1.1c-1.3,0-1.6-0.2-2.2-1.5c-0.5-1.2-0.7-1.7,0.3-2.5c0.9-0.9,4.6-3.8,6.1-4.8c1.5-0.9,1.9-0.7,2.7-0.7
				s1.6,0,1.6,0v-2.7c0,0,5.9,6.1,5.9,16.4c0,2.8,0.3,4.3-0.4,5.6s-1.1,2-1.1,2H136.6z"/>
			<path class="st15" d="M135.2,194.2c0.3,1.1,1.4,2.4,1.4,2.4h11.1c0,0,0.4-0.7,1.1-2c0.1-0.1,0.1-0.2,0.2-0.4H135.2z"/>
			<path class="st15" d="M146.1,188.6c-0.3,3.7-1.8,4.6-3.6,4.6c-1.8,0-7.2,0-7.2,0c-0.1,0.2-0.1,0.3-0.1,0.5c0,0.1,0,0.3,0.1,0.5
				c0,0,9.1,0,11.9,0c1-5.2,1.6-13.5-3.7-21.6C146.7,180.8,146.3,185,146.1,188.6z"/>
			<path class="st15" d="M140.8,183.5c-1.2,0-1.7-0.4-1.7-0.4l0,0c0.1,0,0.1,0.1,0.1,0.1c0.1,0.2,0.1,0.7-0.1,1.5
				c0.4,0.2,1,0.4,1.7,0.4c1.5,0,3.4-1.2,3.1-4.5C143.6,183.2,142.1,183.5,140.8,183.5z"/>
			<path class="st15" d="M134,182.5l-0.3-0.4c-0.1-0.1-0.1-0.3,0.1-0.4l0.8-0.5C134.6,181.3,134.2,181.8,134,182.5z"/>
			<path class="st15" d="M140.8,177c0,0-1.5,0.4-2,1c0,0,0,0.1,0,0.2c0.4,0.6,0.8,0.6,1.1,0.5c0.3-0.1,0.5-0.6,0.3-1
				C140.3,177.3,140.8,177,140.8,177z"/>
			<path class="st15" d="M145.8,176c-0.2,0.7-0.4,1.1-0.5,1.3c0,0.1-0.1,0.1-0.1,0.2l0.4,0.1c0,0,0,0,0,0c0,0,0,0,0-0.1
				c0.1-0.2,0.2-0.5,0.4-1C146,176.3,145.9,176.1,145.8,176z"/>
			<path class="st15" d="M146.8,177.9c-0.1-0.2-0.2-0.4-0.3-0.5c-0.3,0.9-0.7,1.4-0.7,1.4l0.1,0.2l-0.1-0.2l0.3,0.3
				C146.1,179,146.5,178.6,146.8,177.9z"/>
			<path class="st15" d="M147.3,179c-0.4,1.2-1,1.5-1,1.5l0.1,0.2l0.1,0.2c0,0,0.6-0.3,1-1.3C147.5,179.4,147.4,179.2,147.3,179z"/>
			<path class="st15" d="M148.3,182c0-0.2-0.1-0.3-0.1-0.5c-0.8,0.8-1.4,1.2-1.4,1.2l0.2,0.4C147.1,183.1,147.6,182.8,148.3,182z"/>
			<path class="st15" d="M148.8,184l-1.7,1.3l0.2,0.3l1.6-1.1C148.9,184.3,148.9,184.2,148.8,184z"/>
			<path class="st15" d="M149.2,186.8l-2,1.2l0.2,0.4l1.8-1.1C149.2,187.1,149.2,187,149.2,186.8z"/>
			<path class="st15" d="M149.3,189.9l-2.2,0.8l0.1,0.4l2-0.7C149.3,190.2,149.3,190,149.3,189.9z"/>
			<path class="st15" d="M149.4,192.7l-2.4,0.2l0,0.4l2.3-0.2C149.3,193,149.3,192.9,149.4,192.7z"/>
		</g>
	</g>
</g>
<g>
	<path class="st12" d="M297.4,209.9h-37.6c-5.9,0-10.7-4.8-10.7-10.7v-37.6c0-5.9,4.8-10.7,10.7-10.7h37.6c5.9,0,10.7,4.8,10.7,10.7
		v37.6C308,205.1,303.3,209.9,297.4,209.9z"/>
	<g>
		<polygon class="st16" points="274.5,187.7 274.5,196.9 276.4,198.3 280.8,198.3 282.7,196.9 282.7,187.7 		"/>
		<path class="st8" d="M290.2,172.1c0-6.4-5.1-11.6-11.5-11.7c-6.4-0.1-11.8,5.1-11.9,11.5c0,2.8,0.9,5.4,2.6,7.5
			c1.6,2,2.6,4.5,2.6,7.2v0.5c0,2.3,1.9,4.2,4.2,4.2h4.6c2.3,0,4.2-1.9,4.2-4.2v-0.3c0-2.7,1-5.3,2.6-7.4
			C289.3,177.4,290.2,174.8,290.2,172.1z"/>
		<g>
			<path class="st1" d="M272.4,178.1c-0.3,0-0.6-0.1-0.8-0.4c-1.3-1.6-2-3.6-2-5.7c0-3.1,1.7-5.9,4.3-7.5c0.5-0.3,1.1-0.1,1.4,0.3
				c0.3,0.5,0.1,1.1-0.3,1.4c-2,1.2-3.3,3.4-3.3,5.8c0,1.6,0.5,3.1,1.5,4.4c0.4,0.4,0.3,1.1-0.2,1.5
				C272.9,178,272.6,178.1,272.4,178.1z"/>
		</g>
		<g>
			<path class="st3" d="M282.9,197.8h-8.6c-0.5,0-0.9-0.3-1-0.8c-0.1-0.5,0.1-1,0.6-1.2l4.2-1.9h-3.8c-0.6,0-1-0.5-1-1
				c0-0.6,0.5-1,1-1h8.6c0.5,0,0.9,0.3,1,0.8c0.1,0.5-0.1,1-0.6,1.2l-4.2,1.9h3.8c0.6,0,1,0.5,1,1
				C283.9,197.3,283.5,197.8,282.9,197.8z"/>
		</g>
		<path class="st3" d="M278.6,200.4c1.2,0,2.2-1,2.2-2.2h-4.4C276.4,199.5,277.4,200.4,278.6,200.4z"/>
	</g>
</g>
<g>
	<path class="st12" d="M155.3,210.3h-37.6c-5.9,0-10.7-4.8-10.7-10.7v-37.6c0-5.9,4.8-10.7,10.7-10.7h37.6c5.9,0,10.7,4.8,10.7,10.7
		v37.6C166,205.6,161.2,210.3,155.3,210.3z"/>
	<g>
		<g>
			<path class="st8" d="M144.9,177.3l-0.5-1.6l1.1-1l0.1-0.6l-0.9-1.3l0.8-1.5l1.6,0.1l0.5-0.4l0.2-1.6l1.6-0.5l1,1.1l0.6,0.1
				l1.3-0.9l1.5,0.8l-0.1,1.6l0.4,0.5l1.6,0.2l0.5,1.6l-1.1,1l-0.1,0.6l0.9,1.3l-0.8,1.5l-1.6-0.1l-0.5,0.4l-0.2,1.6l-1.6,0.5
				l-1-1.1l-0.6-0.1l-1.3,0.9l-1.4-0.8l0.1-1.6l-0.4-0.5L144.9,177.3z"/>
			<ellipse class="st17" cx="150.2" cy="174.8" rx="2.9" ry="2.9"/>
			<path class="st15" d="M151.4,178c0,0-0.1,0-0.1,0c-0.9,0.3-1.8,0.2-2.6-0.2c-0.8-0.4-1.4-1.1-1.6-2c-0.6-1.8,0.5-3.6,2.2-4.2
				c0.9-0.3,1.8-0.2,2.6,0.2c0.8,0.4,1.4,1.1,1.6,2c0.3,0.9,0.2,1.8-0.2,2.6C152.8,177.1,152.2,177.7,151.4,178z M149.3,172.2
				c-1.4,0.5-2.1,1.9-1.7,3.3c0.2,0.7,0.7,1.2,1.3,1.6c0.6,0.3,1.4,0.4,2.1,0.2l0,0c0.7-0.2,1.2-0.7,1.6-1.3
				c0.3-0.6,0.4-1.4,0.2-2.1c-0.2-0.7-0.7-1.2-1.3-1.6c-0.6-0.3-1.4-0.4-2.1-0.2C149.4,172.2,149.4,172.2,149.3,172.2z"/>
		</g>
		<g>
			<defs>
				<rect id="SVGID_1_" x="133.3" y="173" width="10.1" height="20"/>
			</defs>
			<clipPath id="SVGID_2_">
				<use xlink:href="#SVGID_1_"  style="overflow:visible;"/>
			</clipPath>
			<g class="st18">
				<path class="st14" d="M124.1,187.1l-0.9-2.7l2-1.8l0.1-1l-1.6-2.2l1.3-2.5l2.7,0.1l0.8-0.7l0.4-2.7l2.7-0.9l1.8,2l1,0.1l2.2-1.6
					l2.5,1.3l-0.1,2.7l0.7,0.8l2.7,0.4l0.9,2.7l-2,1.8l-0.1,1.1l1.6,2.2l-1.3,2.5l-2.7-0.1l-0.8,0.7l-0.4,2.7l-2.7,0.9l-1.8-2
					l-1.1-0.1l-2.2,1.6l-2.5-1.3l0.1-2.7l-0.7-0.8L124.1,187.1z"/>
				<ellipse class="st17" cx="133.3" cy="182.8" rx="5" ry="5"/>
				<path class="st9" d="M135.2,188.2c-0.1,0-0.2,0.1-0.2,0.1c-1.5,0.4-3,0.3-4.4-0.4c-1.4-0.7-2.3-2-2.8-3.4
					c-0.9-3,0.8-6.2,3.9-7.2c1.5-0.4,3-0.3,4.4,0.4c1.4,0.7,2.3,2,2.8,3.4c0.4,1.5,0.3,3-0.4,4.4
					C137.7,186.8,136.6,187.8,135.2,188.2z M131.7,178.4c-2.3,0.8-3.6,3.3-2.9,5.7c0.4,1.2,1.1,2.1,2.3,2.7c1.1,0.6,2.3,0.7,3.5,0.3
					l0,0c1.2-0.4,2.1-1.1,2.7-2.3c0.6-1.1,0.7-2.3,0.3-3.5c-0.4-1.2-1.1-2.1-2.3-2.7c-1.1-0.6-2.3-0.7-3.5-0.3
					C131.8,178.4,131.8,178.4,131.7,178.4z"/>
			</g>
		</g>
		<g>
			<rect x="129.4" y="174" class="st14" width="2.5" height="2.5"/>
			<rect x="129.4" y="179.3" class="st9" width="2.5" height="2.5"/>
			<rect x="129.4" y="184.3" class="st14" width="2.5" height="2.5"/>
			<rect x="129.4" y="189.3" class="st14" width="2.5" height="2.5"/>
			<rect x="125.8" y="182.7" class="st9" width="2.5" height="2.5"/>
			<rect x="125.1" y="178.6" class="st14" width="2.5" height="2.5"/>
			<rect x="124.8" y="174.5" class="st9" width="2.5" height="2.5"/>
			<rect x="124.8" y="187.1" class="st9" width="2.5" height="2.5"/>
			<rect x="121.7" y="184" class="st14" width="2.5" height="2.5"/>
			<rect x="120.4" y="180.4" class="st14" width="2.5" height="2.5"/>
			<rect x="116.1" y="180.4" class="st14" width="2.5" height="2.5"/>
			<rect x="117.8" y="175.8" class="st9" width="2.5" height="2.5"/>
			<rect x="117.3" y="185.6" class="st9" width="2.5" height="2.5"/>
			<rect x="119.8" y="189.6" class="st14" width="2.5" height="2.5"/>
		</g>
	</g>
</g>
<g>
	<path class="st12" d="M83.3,107.5H45.7c-5.9,0-10.7-4.8-10.7-10.7V59.2c0-5.9,4.8-10.7,10.7-10.7h37.6c5.9,0,10.7,4.8,10.7,10.7
		v37.6C94,102.7,89.2,107.5,83.3,107.5z"/>
	<g>
		<path class="st9" d="M82.2,93.8H46.8c-1.3,0-2.3-1-2.3-2.3V67.7c0-1.3,1-2.3,2.3-2.3h35.4c1.3,0,2.3,1,2.3,2.3v23.8
			C84.5,92.8,83.5,93.8,82.2,93.8z"/>
		<path class="st14" d="M78.6,83.5H50.4c-3.3,0-5.9-2.7-5.9-5.9v-9.9c0-1.3,1-2.3,2.3-2.3h35.4c1.3,0,2.3,1,2.3,2.3v9.9
			C84.5,80.9,81.8,83.5,78.6,83.5z"/>
		<path class="st16" d="M65.2,86.2h-1.3c-0.7,0-1.3-0.6-1.3-1.3v-2.6c0-0.7,0.6-1.3,1.3-1.3h1.3c0.7,0,1.3,0.6,1.3,1.3v2.6
			C66.5,85.6,65.9,86.2,65.2,86.2z"/>
		<path class="st14" d="M63.8,85.2c-0.2,0-0.4-0.2-0.4-0.4v-2.6c0-0.2,0.2-0.4,0.4-0.4h1.3c0.2,0,0.4,0.2,0.4,0.4v2.6
			c0,0.2-0.2,0.4-0.4,0.4H63.8z"/>
		<path class="st9" d="M60.5,65.4v-3c0-0.1,0.1-0.2,0.2-0.2h7.7c0.1,0,0.2,0.1,0.2,0.2v3h2v-3c0-1.2-1-2.2-2.2-2.2h-7.7
			c-1.2,0-2.2,1-2.2,2.2v3H60.5z"/>
		<rect x="49.1" y="64.4" class="st9" width="6.8" height="1"/>
		<rect x="73" y="64.4" class="st9" width="6.8" height="1"/>
	</g>
</g>
<g>
	<path class="st12" d="M363.4,107.1h-37.6c-5.9,0-10.7-4.8-10.7-10.7V58.8c0-5.9,4.8-10.7,10.7-10.7h37.6c5.9,0,10.7,4.8,10.7,10.7
		v37.6C374.1,102.3,369.3,107.1,363.4,107.1z"/>
	<g>
		<g>
			<g>
				<g>
					<path class="st9" d="M344.6,95.5l-15.9-9.2V67.9l15.9-9.2l15.9,9.2v18.4L344.6,95.5z M330.2,85.5l14.5,8.4l14.5-8.4V68.7
						l-14.5-8.4l-14.5,8.4V85.5z"/>
				</g>
				<g>
					<rect x="343.9" y="62" class="st9" width="1.4" height="11"/>
				</g>
				<g>
					<rect x="343.9" y="81.2" class="st9" width="1.4" height="12"/>
				</g>
				<g>
					
						<rect x="330.2" y="81.4" transform="matrix(0.8879 -0.4601 0.4601 0.8879 -9.960238e-02 163.8354)" class="st9" width="11.7" height="1.4"/>
				</g>
				<g>
					
						<rect x="352.8" y="76.1" transform="matrix(0.4595 -0.8882 0.8882 0.4595 118.0224 358.4639)" class="st9" width="1.4" height="12.4"/>
				</g>
				<g>
					
						<rect x="347.4" y="71.2" transform="matrix(0.888 -0.4599 0.4599 0.888 6.554 170.6471)" class="st9" width="12.4" height="1.4"/>
				</g>
				<g>
					
						<rect x="335.3" y="65.9" transform="matrix(0.4595 -0.8882 0.8882 0.4595 117.6664 337.2733)" class="st9" width="1.4" height="12.1"/>
				</g>
				<g>
					<rect x="343.9" y="60.9" class="st9" width="1.4" height="13"/>
				</g>
				<g>
					<circle class="st8" cx="344.6" cy="59.6" r="2.5"/>
				</g>
				<g>
					<circle class="st8" cx="329.5" cy="68.3" r="2.5"/>
				</g>
				<g>
					<circle class="st8" cx="329.5" cy="85.6" r="2.5"/>
				</g>
				<g>
					<circle class="st8" cx="359.8" cy="68.3" r="2.5"/>
				</g>
				<g>
					<circle class="st8" cx="359.8" cy="85.6" r="2.5"/>
				</g>
				<g>
					<circle class="st8" cx="344.6" cy="94.6" r="2.5"/>
				</g>
				<g>
					<path class="st15" d="M344.6,72.6c-2.5,0-4.5,2-4.5,4.5s2,4.5,4.5,4.5c2.5,0,4.5-2,4.5-4.5S347.1,72.6,344.6,72.6z"/>
				</g>
			</g>
		</g>
	</g>
</g>
<g>
	<path class="st12" d="M223.4,107.1h-37.6c-5.9,0-10.7-4.8-10.7-10.7V58.8c0-5.9,4.8-10.7,10.7-10.7h37.6c5.9,0,10.7,4.8,10.7,10.7
		v37.6C234,102.3,229.3,107.1,223.4,107.1z"/>
	<g>
		<g>
			<polygon class="st13" points="207.8,93.1 192.5,93.1 191.2,97.6 209,97.6 			"/>
			<path class="st13" d="M202.8,73.5h-2.6h-2.6c0,0-0.3,10.8-4.4,19.6c2.7,0,7,0,7,0s4.4,0,7,0C203.1,84.3,202.8,73.5,202.8,73.5z"
				/>
			<path class="st13" d="M200.1,64.1c-3.4,0-4.1,0.1-4.1,2.2s1.2,4.8,2.2,6.5c1.4,0,1.9,0,1.9,0s0.5,0,1.9,0
				c1.1-1.7,2.2-4.4,2.2-6.5S203.5,64.1,200.1,64.1z"/>
			<polygon class="st9" points="202.7,60.1 200.8,60.1 200.8,57.6 199.4,57.6 199.4,60.1 197.6,60.1 197.6,61.5 199.4,61.5 
				199.4,64.1 200.8,64.1 200.8,61.5 202.7,61.5 			"/>
			<path class="st9" d="M202.1,64.1c0,0,1.1,1.2,0,4.1c-1,2.6-3.2,2.2-5.4,1.5c0.4,1.1,1,2.3,1.5,3.1c1.4,0,1.9,0,1.9,0s0.5,0,1.9,0
				c1.1-1.7,2.2-4.4,2.2-6.5C204.3,64.6,203.8,64.2,202.1,64.1z"/>
			<path class="st9" d="M202.8,73.5h-2.6h-2.6c0,0,0,0.8-0.1,2.1l0,0c0,0,0.5,0,1.8,0s1.9,0.2,2.6,4.6c0.6,4.4,2,8.9,2.6,10.1
				c0.6,1.1,0.8,2.2-2.6,2.2c-2.5,0-6.5,0-8.3,0c-0.1,0.2-0.2,0.5-0.3,0.7c2.7,0,7,0,7,0s4.4,0,7,0
				C203.1,84.3,202.8,73.5,202.8,73.5z"/>
			<polygon class="st9" points="202.5,93.1 203.3,97.6 209,97.6 207.8,93.1 			"/>
			<path class="st14" d="M203.7,74.1h-7.1c-0.4,0-0.7-0.3-0.7-0.7v-0.7c0-0.4,0.3-0.7,0.7-0.7h7.1c0.4,0,0.7,0.3,0.7,0.7v0.7
				C204.4,73.8,204.1,74.1,203.7,74.1z"/>
		</g>
		<g>
			<polygon class="st8" points="216.8,93.4 202.5,93.4 201.3,97.6 217.9,97.6 			"/>
			<polygon class="st15" points="211.9,93.4 212.5,97.6 217.9,97.6 216.8,93.4 			"/>
			<path class="st8" d="M204.4,93.4c0,0-1.5-1.6-1.5-2.9c0-1.2,1.8-2,2.9-5.4s1.3-4.7,1.2-5.1c-0.2-0.4-1.8-0.6-2.5,0.4
				c-0.7,1-0.5,1.1-1.8,1.1s-1.6-0.2-2.2-1.5c-0.5-1.2-0.7-1.7,0.3-2.5c0.9-0.9,4.6-3.8,6.1-4.8s1.9-0.7,2.7-0.7c0.8,0,1.6,0,1.6,0
				v-2.7c0,0,5.9,6.1,5.9,16.4c0,2.8,0.3,4.3-0.4,5.6c-0.7,1.3-1.1,2-1.1,2H204.4z"/>
			<path class="st15" d="M203,91c0.3,1.1,1.4,2.4,1.4,2.4h11.1c0,0,0.4-0.7,1.1-2c0.1-0.1,0.1-0.2,0.2-0.4H203z"/>
			<path class="st15" d="M213.8,85.4c-0.3,3.7-1.8,4.6-3.6,4.6c-1.8,0-7.2,0-7.2,0c-0.1,0.2-0.1,0.3-0.1,0.5c0,0.1,0,0.3,0.1,0.5
				c0,0,9.1,0,11.9,0c1-5.2,1.6-13.5-3.7-21.6C214.5,77.6,214.1,81.7,213.8,85.4z"/>
			<path class="st15" d="M208.6,80.3c-1.2,0-1.7-0.4-1.7-0.4l0,0c0.1,0,0.1,0.1,0.1,0.1c0.1,0.2,0.1,0.7-0.1,1.5
				c0.4,0.2,1,0.4,1.7,0.4c1.5,0,3.4-1.2,3.1-4.5C211.3,79.9,209.8,80.3,208.6,80.3z"/>
			<path class="st15" d="M201.8,79.3l-0.3-0.4c-0.1-0.1-0.1-0.3,0.1-0.4l0.8-0.5C202.3,78.1,202,78.6,201.8,79.3z"/>
			<path class="st15" d="M208.5,73.8c0,0-1.5,0.4-2,1c0,0,0,0.1,0,0.2c0.4,0.6,0.8,0.6,1.1,0.5c0.3-0.1,0.5-0.6,0.3-1
				C208,74.1,208.5,73.8,208.5,73.8z"/>
			<path class="st15" d="M213.5,72.7c-0.2,0.7-0.4,1.1-0.5,1.3c0,0.1-0.1,0.1-0.1,0.2l0.4,0.1c0,0,0,0,0,0c0,0,0,0,0-0.1
				c0.1-0.2,0.2-0.5,0.4-1C213.7,73,213.6,72.9,213.5,72.7z"/>
			<path class="st15" d="M214.5,74.6c-0.1-0.2-0.2-0.4-0.3-0.5c-0.3,0.9-0.7,1.4-0.7,1.4l0.1,0.2l-0.1-0.2l0.3,0.3
				C213.9,75.8,214.2,75.4,214.5,74.6z"/>
			<path class="st15" d="M215.1,75.8c-0.4,1.2-1,1.5-1,1.5l0.1,0.2l0.1,0.2c0,0,0.6-0.3,1-1.3C215.2,76.2,215.1,76,215.1,75.8z"/>
			<path class="st15" d="M216.1,78.8c0-0.2-0.1-0.3-0.1-0.5c-0.8,0.8-1.4,1.2-1.4,1.2l0.2,0.4C214.9,79.9,215.4,79.5,216.1,78.8z"/>
			<path class="st15" d="M216.6,80.8l-1.7,1.3l0.2,0.3l1.6-1.1C216.6,81.1,216.6,81,216.6,80.8z"/>
			<path class="st15" d="M217,83.6l-2,1.2l0.2,0.4l1.8-1.1C217,83.9,217,83.8,217,83.6z"/>
			<path class="st15" d="M217.1,86.7l-2.2,0.8l0.1,0.4l2-0.7C217.1,87,217.1,86.8,217.1,86.7z"/>
			<path class="st15" d="M217.1,89.5l-2.4,0.2l0,0.4l2.3-0.2C217.1,89.8,217.1,89.6,217.1,89.5z"/>
		</g>
	</g>
</g>
<g>
	<path class="st14" d="M147.1,247.7c-1.1,0-2,0.4-2.6,1.3c-0.6,0.8-0.9,2-0.9,3.5c0,3.1,1.2,4.7,3.5,4.7c1,0,2.2-0.2,3.6-0.7v2.5
		c-1.1,0.5-2.4,0.7-3.8,0.7c-2,0-3.6-0.6-4.7-1.8c-1.1-1.2-1.6-3-1.6-5.3c0-1.5,0.3-2.7,0.8-3.8c0.5-1.1,1.3-1.9,2.3-2.5
		c1-0.6,2.2-0.9,3.5-0.9c1.4,0,2.7,0.3,4.1,1l-1,2.4c-0.5-0.2-1-0.5-1.6-0.6C148.1,247.8,147.6,247.7,147.1,247.7z"/>
	<path class="st14" d="M166.3,252.4c0,2.3-0.6,4.1-1.7,5.3s-2.8,1.9-4.9,1.9s-3.8-0.6-4.9-1.9c-1.1-1.2-1.7-3-1.7-5.4
		c0-2.3,0.6-4.1,1.7-5.3c1.1-1.2,2.8-1.8,4.9-1.8s3.8,0.6,4.9,1.9C165.7,248.3,166.3,250.1,166.3,252.4z M156.1,252.4
		c0,1.6,0.3,2.7,0.9,3.5s1.5,1.2,2.7,1.2c2.4,0,3.5-1.6,3.5-4.7c0-3.1-1.2-4.7-3.5-4.7c-1.2,0-2.1,0.4-2.7,1.2
		C156.4,249.7,156.1,250.9,156.1,252.4z"/>
	<path class="st14" d="M181.6,259.4h-3.8l-6.1-10.6h-0.1c0.1,1.9,0.2,3.2,0.2,4v6.6h-2.6v-14h3.7l6.1,10.5h0.1
		c-0.1-1.8-0.1-3.1-0.1-3.9v-6.6h2.7V259.4z"/>
	<path class="st14" d="M193.3,255.5c0,1.3-0.5,2.3-1.4,3c-0.9,0.7-2.2,1.1-3.8,1.1c-1.5,0-2.8-0.3-4-0.8V256
		c0.9,0.4,1.7,0.7,2.4,0.9c0.7,0.2,1.3,0.3,1.8,0.3c0.6,0,1.1-0.1,1.5-0.4c0.3-0.2,0.5-0.6,0.5-1.1c0-0.3-0.1-0.5-0.2-0.7
		c-0.2-0.2-0.4-0.4-0.7-0.6c-0.3-0.2-0.9-0.5-1.8-0.9c-0.9-0.4-1.5-0.8-1.9-1.2c-0.4-0.4-0.8-0.8-1-1.3c-0.3-0.5-0.4-1.1-0.4-1.7
		c0-1.2,0.4-2.2,1.3-2.9c0.8-0.7,2-1.1,3.5-1.1c0.7,0,1.4,0.1,2.1,0.3c0.7,0.2,1.3,0.4,2.1,0.7l-1,2.3c-0.7-0.3-1.4-0.5-1.8-0.6
		c-0.5-0.1-1-0.2-1.4-0.2c-0.6,0-1,0.1-1.3,0.4c-0.3,0.3-0.4,0.6-0.4,1c0,0.3,0.1,0.5,0.2,0.7c0.1,0.2,0.3,0.4,0.6,0.6
		c0.3,0.2,0.9,0.5,1.9,1c1.3,0.6,2.2,1.3,2.7,1.9C193.1,253.9,193.3,254.6,193.3,255.5z"/>
	<path class="st14" d="M207.2,245.5v9c0,1-0.2,1.9-0.7,2.7c-0.5,0.8-1.1,1.4-2,1.8c-0.9,0.4-1.9,0.6-3.1,0.6c-1.8,0-3.2-0.5-4.2-1.4
		c-1-0.9-1.5-2.2-1.5-3.8v-9h3v8.6c0,1.1,0.2,1.9,0.6,2.4c0.4,0.5,1.1,0.8,2.2,0.8c1,0,1.7-0.3,2.1-0.8c0.4-0.5,0.7-1.3,0.7-2.4
		v-8.5H207.2z"/>
	<path class="st14" d="M210.7,259.4v-14h3V257h5.7v2.4H210.7z"/>
	<path class="st14" d="M227.1,259.4h-3v-11.5h-3.8v-2.5h10.6v2.5h-3.8V259.4z"/>
	<path class="st14" d="M233.1,259.4v-14h3v14H233.1z"/>
	<path class="st14" d="M251.9,259.4h-3.8l-6.1-10.6H242c0.1,1.9,0.2,3.2,0.2,4v6.6h-2.6v-14h3.7l6.1,10.5h0.1
		c-0.1-1.8-0.1-3.1-0.1-3.9v-6.6h2.7V259.4z"/>
	<path class="st14" d="M260.8,251.6h5.5v7.2c-0.9,0.3-1.7,0.5-2.5,0.6c-0.8,0.1-1.6,0.2-2.4,0.2c-2.1,0-3.7-0.6-4.8-1.9
		c-1.1-1.2-1.7-3-1.7-5.3c0-2.3,0.6-4,1.9-5.3s3.1-1.9,5.4-1.9c1.4,0,2.8,0.3,4.1,0.9l-1,2.4c-1-0.5-2.1-0.8-3.2-0.8
		c-1.3,0-2.3,0.4-3.1,1.3c-0.8,0.9-1.2,2-1.2,3.5c0,1.5,0.3,2.7,0.9,3.5c0.6,0.8,1.5,1.2,2.7,1.2c0.6,0,1.2-0.1,1.9-0.2V254h-2.6
		V251.6z"/>
</g>
<g>
	<path class="st3" d="M1.9,38.6V30h1.8v8.6H1.9z"/>
	<path class="st3" d="M9.1,38.6H7.3v-7.1H5V30h6.5v1.5H9.1V38.6z"/>
	<path class="st3" d="M19.2,38.6h-1.8v-7.1h-2.3V30h6.5v1.5h-2.3V38.6z"/>
	<path class="st3" d="M24.7,35.3v3.3h-1.8V30h2.5c1.2,0,2,0.2,2.6,0.6s0.8,1.1,0.8,1.9c0,0.5-0.1,1-0.4,1.3s-0.7,0.7-1.2,0.9
		c1.3,1.9,2.1,3.2,2.5,3.7h-2l-2-3.3H24.7z M24.7,33.8h0.6c0.6,0,1-0.1,1.3-0.3s0.4-0.5,0.4-0.9c0-0.4-0.1-0.7-0.4-0.9
		s-0.7-0.3-1.3-0.3h-0.6V33.8z"/>
	<path class="st3" d="M36,38.6l-0.6-2h-3.1l-0.6,2h-2l3-8.6h2.2l3,8.6H36z M35,35c-0.6-1.8-0.9-2.9-1-3.1s-0.1-0.4-0.2-0.6
		c-0.1,0.5-0.5,1.7-1.1,3.7H35z"/>
	<path class="st3" d="M46.6,38.6h-2.3l-3.7-6.5h-0.1c0.1,1.1,0.1,2,0.1,2.4v4H39V30h2.3l3.7,6.4h0C45,35.3,45,34.5,45,34.1V30h1.6
		V38.6z"/>
	<path class="st3" d="M53.9,36.2c0,0.8-0.3,1.4-0.8,1.8s-1.3,0.7-2.3,0.7c-0.9,0-1.7-0.2-2.4-0.5v-1.7c0.6,0.3,1.1,0.4,1.5,0.5
		s0.8,0.2,1.1,0.2c0.4,0,0.7-0.1,0.9-0.2s0.3-0.4,0.3-0.7c0-0.2,0-0.3-0.1-0.4s-0.2-0.3-0.4-0.4s-0.6-0.3-1.1-0.6
		c-0.5-0.2-0.9-0.5-1.2-0.7s-0.5-0.5-0.6-0.8s-0.2-0.7-0.2-1.1c0-0.8,0.3-1.4,0.8-1.8s1.2-0.7,2.1-0.7c0.4,0,0.9,0.1,1.3,0.2
		s0.8,0.3,1.3,0.4l-0.6,1.4c-0.5-0.2-0.8-0.3-1.1-0.4s-0.6-0.1-0.9-0.1c-0.3,0-0.6,0.1-0.8,0.2s-0.3,0.4-0.3,0.6
		c0,0.2,0,0.3,0.1,0.4s0.2,0.2,0.4,0.3s0.5,0.3,1.2,0.6c0.8,0.4,1.3,0.8,1.6,1.2S53.9,35.6,53.9,36.2z"/>
	<path class="st3" d="M57.2,38.6h-1.8V30h4.9v1.5h-3.1v2.2h2.9v1.5h-2.9V38.6z"/>
	<path class="st3" d="M69.8,34.3c0,1.4-0.4,2.5-1.1,3.3s-1.7,1.1-3,1.1s-2.3-0.4-3-1.1s-1.1-1.9-1.1-3.3s0.4-2.5,1.1-3.3
		s1.7-1.1,3-1.1s2.3,0.4,3,1.1S69.8,32.9,69.8,34.3z M63.5,34.3c0,1,0.2,1.7,0.5,2.2s0.9,0.7,1.6,0.7c1.4,0,2.2-1,2.2-2.9
		c0-1.9-0.7-2.9-2.2-2.9c-0.7,0-1.3,0.2-1.6,0.7S63.5,33.3,63.5,34.3z"/>
	<path class="st3" d="M73.4,35.3v3.3h-1.8V30H74c1.2,0,2,0.2,2.6,0.6s0.8,1.1,0.8,1.9c0,0.5-0.1,1-0.4,1.3s-0.7,0.7-1.2,0.9
		c1.3,1.9,2.1,3.2,2.5,3.7h-2l-2-3.3H73.4z M73.4,33.8H74c0.6,0,1-0.1,1.3-0.3s0.4-0.5,0.4-0.9c0-0.4-0.1-0.7-0.4-0.9
		s-0.7-0.3-1.3-0.3h-0.6V33.8z"/>
	<path class="st3" d="M83.1,38.6L81,31.9H81c0.1,1.4,0.1,2.3,0.1,2.7v4h-1.6V30h2.5l2,6.6h0l2.2-6.6h2.5v8.6h-1.7v-4.1
		c0-0.2,0-0.4,0-0.7s0-0.9,0.1-2H87l-2.2,6.7H83.1z"/>
	<path class="st3" d="M96,38.6l-0.6-2h-3.1l-0.6,2h-2l3-8.6H95l3,8.6H96z M95,35c-0.6-1.8-0.9-2.9-1-3.1s-0.1-0.4-0.2-0.6
		c-0.1,0.5-0.5,1.7-1.1,3.7H95z"/>
	<path class="st3" d="M102.4,38.6h-1.8v-7.1h-2.3V30h6.5v1.5h-2.3V38.6z"/>
	<path class="st3" d="M106,38.6V30h1.8v8.6H106z"/>
	<path class="st3" d="M117.8,34.3c0,1.4-0.4,2.5-1.1,3.3s-1.7,1.1-3,1.1s-2.3-0.4-3-1.1s-1.1-1.9-1.1-3.3s0.4-2.5,1.1-3.3
		s1.7-1.1,3-1.1s2.3,0.4,3,1.1S117.8,32.9,117.8,34.3z M111.5,34.3c0,1,0.2,1.7,0.5,2.2s0.9,0.7,1.6,0.7c1.4,0,2.2-1,2.2-2.9
		c0-1.9-0.7-2.9-2.2-2.9c-0.7,0-1.3,0.2-1.6,0.7S111.5,33.3,111.5,34.3z"/>
	<path class="st3" d="M127.1,38.6h-2.3l-3.7-6.5H121c0.1,1.1,0.1,2,0.1,2.4v4h-1.6V30h2.3l3.7,6.4h0c-0.1-1.1-0.1-1.9-0.1-2.4V30
		h1.6V38.6z"/>
</g>
<g>
	<path class="st3" d="M168.6,38.2v-8.6h1.8v8.6H168.6z"/>
	<path class="st3" d="M175.9,38.2h-1.8v-7.1h-2.3v-1.5h6.5v1.5h-2.3V38.2z"/>
	<path class="st3" d="M187.7,35.8c0,0.8-0.3,1.4-0.8,1.8s-1.3,0.7-2.3,0.7c-0.9,0-1.7-0.2-2.4-0.5v-1.7c0.6,0.3,1.1,0.4,1.5,0.5
		s0.8,0.2,1.1,0.2c0.4,0,0.7-0.1,0.9-0.2s0.3-0.4,0.3-0.7c0-0.2,0-0.3-0.1-0.4s-0.2-0.3-0.4-0.4s-0.6-0.3-1.1-0.6
		c-0.5-0.2-0.9-0.5-1.2-0.7s-0.5-0.5-0.6-0.8s-0.2-0.7-0.2-1.1c0-0.8,0.3-1.4,0.8-1.8s1.2-0.7,2.1-0.7c0.4,0,0.9,0.1,1.3,0.2
		s0.8,0.3,1.3,0.4l-0.6,1.4c-0.5-0.2-0.8-0.3-1.1-0.4s-0.6-0.1-0.9-0.1c-0.3,0-0.6,0.1-0.8,0.2s-0.3,0.4-0.3,0.6
		c0,0.2,0,0.3,0.1,0.4s0.2,0.2,0.4,0.3s0.5,0.3,1.2,0.6c0.8,0.4,1.3,0.8,1.6,1.2S187.7,35.2,187.7,35.8z"/>
	<path class="st3" d="M192.6,38.2h-1.8v-7.1h-2.3v-1.5h6.5v1.5h-2.3V38.2z"/>
	<path class="st3" d="M198,34.9v3.3h-1.8v-8.6h2.5c1.2,0,2,0.2,2.6,0.6s0.8,1.1,0.8,1.9c0,0.5-0.1,1-0.4,1.3s-0.7,0.7-1.2,0.9
		c1.3,1.9,2.1,3.2,2.5,3.7h-2l-2-3.3H198z M198,33.4h0.6c0.6,0,1-0.1,1.3-0.3s0.4-0.5,0.4-0.9c0-0.4-0.1-0.7-0.4-0.9
		s-0.7-0.3-1.3-0.3H198V33.4z"/>
	<path class="st3" d="M209.4,38.2l-0.6-2h-3.1l-0.6,2h-2l3-8.6h2.2l3,8.6H209.4z M208.3,34.6c-0.6-1.8-0.9-2.9-1-3.1
		s-0.1-0.4-0.2-0.6c-0.1,0.5-0.5,1.7-1.1,3.7H208.3z"/>
	<path class="st3" d="M215.7,38.2h-1.8v-7.1h-2.3v-1.5h6.5v1.5h-2.3V38.2z"/>
	<path class="st3" d="M224.3,38.2h-4.9v-8.6h4.9v1.5h-3.1V33h2.9v1.5h-2.9v2.2h3.1V38.2z"/>
	<path class="st3" d="M229.4,33.3h3.4v4.4c-0.6,0.2-1.1,0.3-1.6,0.4s-1,0.1-1.5,0.1c-1.3,0-2.3-0.4-3-1.1s-1-1.9-1-3.3
		c0-1.4,0.4-2.5,1.2-3.2s1.9-1.2,3.3-1.2c0.9,0,1.7,0.2,2.5,0.5l-0.6,1.5c-0.6-0.3-1.3-0.5-2-0.5c-0.8,0-1.4,0.3-1.9,0.8
		s-0.7,1.2-0.7,2.1c0,0.9,0.2,1.6,0.6,2.1s0.9,0.7,1.7,0.7c0.4,0,0.8,0,1.2-0.1v-1.8h-1.6V33.3z"/>
	<path class="st3" d="M237.5,33.1l1.8-3.5h2l-2.8,5.2v3.3h-1.8v-3.3l-2.8-5.3h2L237.5,33.1z"/>
</g>
<g>
	<path class="st3" d="M253.6,138.6c0,0.8-0.3,1.4-0.8,1.8s-1.3,0.7-2.3,0.7c-0.9,0-1.7-0.2-2.4-0.5v-1.7c0.6,0.3,1.1,0.4,1.5,0.5
		s0.8,0.2,1.1,0.2c0.4,0,0.7-0.1,0.9-0.2s0.3-0.4,0.3-0.7c0-0.2,0-0.3-0.1-0.4s-0.2-0.3-0.4-0.4s-0.6-0.3-1.1-0.6
		c-0.5-0.2-0.9-0.5-1.2-0.7s-0.5-0.5-0.6-0.8s-0.2-0.7-0.2-1.1c0-0.8,0.3-1.4,0.8-1.8s1.2-0.7,2.1-0.7c0.4,0,0.9,0.1,1.3,0.2
		s0.8,0.3,1.3,0.4l-0.6,1.4c-0.5-0.2-0.8-0.3-1.1-0.4s-0.6-0.1-0.9-0.1c-0.3,0-0.6,0.1-0.8,0.2s-0.3,0.4-0.3,0.6
		c0,0.2,0,0.3,0.1,0.4s0.2,0.2,0.4,0.3s0.5,0.3,1.2,0.6c0.8,0.4,1.3,0.8,1.6,1.2S253.6,138,253.6,138.6z"/>
	<path class="st3" d="M262.9,136.7c0,1.4-0.4,2.5-1.1,3.3s-1.7,1.1-3,1.1s-2.3-0.4-3-1.1s-1.1-1.9-1.1-3.3s0.4-2.5,1.1-3.3
		s1.7-1.1,3-1.1s2.3,0.4,3,1.1S262.9,135.3,262.9,136.7z M256.7,136.7c0,1,0.2,1.7,0.5,2.2s0.9,0.7,1.6,0.7c1.4,0,2.2-1,2.2-2.9
		c0-1.9-0.7-2.9-2.2-2.9c-0.7,0-1.3,0.2-1.6,0.7S256.7,135.7,256.7,136.7z"/>
	<path class="st3" d="M264.7,141v-8.6h1.8v7.1h3.5v1.5H264.7z"/>
	<path class="st3" d="M278.5,132.4v5.5c0,0.6-0.1,1.2-0.4,1.7s-0.7,0.8-1.2,1.1s-1.2,0.4-1.9,0.4c-1.1,0-2-0.3-2.6-0.8
		s-0.9-1.3-0.9-2.3v-5.5h1.8v5.2c0,0.7,0.1,1.1,0.4,1.5s0.7,0.5,1.3,0.5c0.6,0,1-0.2,1.3-0.5s0.4-0.8,0.4-1.5v-5.2H278.5z"/>
	<path class="st3" d="M283.9,141H282v-7.1h-2.3v-1.5h6.5v1.5h-2.3V141z"/>
	<path class="st3" d="M287.5,141v-8.6h1.8v8.6H287.5z"/>
	<path class="st3" d="M299.2,136.7c0,1.4-0.4,2.5-1.1,3.3s-1.7,1.1-3,1.1s-2.3-0.4-3-1.1s-1.1-1.9-1.1-3.3s0.4-2.5,1.1-3.3
		s1.7-1.1,3-1.1s2.3,0.4,3,1.1S299.2,135.3,299.2,136.7z M293,136.7c0,1,0.2,1.7,0.5,2.2s0.9,0.7,1.6,0.7c1.4,0,2.2-1,2.2-2.9
		c0-1.9-0.7-2.9-2.2-2.9c-0.7,0-1.3,0.2-1.6,0.7S293,135.7,293,136.7z"/>
	<path class="st3" d="M308.6,141h-2.3l-3.7-6.5h-0.1c0.1,1.1,0.1,2,0.1,2.4v4H301v-8.6h2.3l3.7,6.4h0c-0.1-1.1-0.1-1.9-0.1-2.4v-4.1
		h1.6V141z"/>
</g>
<g>
	<path class="st3" d="M120.9,123.4c0,1.4-0.4,2.5-1.2,3.2s-2,1.1-3.5,1.1h-2.4v-8.6h2.7c1.4,0,2.5,0.4,3.3,1.1
		S120.9,122.1,120.9,123.4z M119,123.4c0-1.8-0.8-2.8-2.4-2.8h-1v5.6h0.8C118.2,126.3,119,125.3,119,123.4z"/>
	<path class="st3" d="M122.7,127.8v-8.6h1.8v8.6H122.7z"/>
	<path class="st3" d="M129.9,123h3.4v4.4c-0.6,0.2-1.1,0.3-1.6,0.4s-1,0.1-1.5,0.1c-1.3,0-2.3-0.4-3-1.1s-1-1.9-1-3.3
		c0-1.4,0.4-2.5,1.2-3.2s1.9-1.2,3.3-1.2c0.9,0,1.7,0.2,2.5,0.5l-0.6,1.5c-0.6-0.3-1.3-0.5-2-0.5c-0.8,0-1.4,0.3-1.9,0.8
		s-0.7,1.2-0.7,2.1c0,0.9,0.2,1.6,0.6,2.1s0.9,0.7,1.7,0.7c0.4,0,0.8,0,1.2-0.1v-1.8h-1.6V123z"/>
	<path class="st3" d="M135.4,127.8v-8.6h1.8v8.6H135.4z"/>
	<path class="st3" d="M142.6,127.8h-1.8v-7.1h-2.3v-1.5h6.5v1.5h-2.3V127.8z"/>
	<path class="st3" d="M151.5,127.8l-0.6-2h-3.1l-0.6,2h-2l3-8.6h2.2l3,8.6H151.5z M150.5,124.2c-0.6-1.8-0.9-2.9-1-3.1
		s-0.1-0.4-0.2-0.6c-0.1,0.5-0.5,1.7-1.1,3.7H150.5z"/>
	<path class="st3" d="M154.6,127.8v-8.6h1.8v7.1h3.5v1.5H154.6z"/>
	<path class="st3" d="M84.2,142.2h-1.8v-7.1H80v-1.5h6.5v1.5h-2.3V142.2z"/>
	<path class="st3" d="M89.6,138.9v3.3h-1.8v-8.6h2.5c1.2,0,2,0.2,2.6,0.6s0.8,1.1,0.8,1.9c0,0.5-0.1,1-0.4,1.3s-0.7,0.7-1.2,0.9
		c1.3,1.9,2.1,3.2,2.5,3.7h-2l-2-3.3H89.6z M89.6,137.4h0.6c0.6,0,1-0.1,1.3-0.3s0.4-0.5,0.4-0.9c0-0.4-0.1-0.7-0.4-0.9
		s-0.7-0.3-1.3-0.3h-0.6V137.4z"/>
	<path class="st3" d="M101,142.2l-0.6-2h-3.1l-0.6,2h-2l3-8.6h2.2l3,8.6H101z M99.9,138.6c-0.6-1.8-0.9-2.9-1-3.1s-0.1-0.4-0.2-0.6
		c-0.1,0.5-0.5,1.7-1.1,3.7H99.9z"/>
	<path class="st3" d="M111.6,142.2h-2.3l-3.7-6.5h-0.1c0.1,1.1,0.1,2,0.1,2.4v4H104v-8.6h2.3l3.7,6.4h0c-0.1-1.1-0.1-1.9-0.1-2.4
		v-4.1h1.6V142.2z"/>
	<path class="st3" d="M118.8,139.8c0,0.8-0.3,1.4-0.8,1.8s-1.3,0.7-2.3,0.7c-0.9,0-1.7-0.2-2.4-0.5v-1.7c0.6,0.3,1.1,0.4,1.5,0.5
		s0.8,0.2,1.1,0.2c0.4,0,0.7-0.1,0.9-0.2s0.3-0.4,0.3-0.7c0-0.2,0-0.3-0.1-0.4s-0.2-0.3-0.4-0.4s-0.6-0.3-1.1-0.6
		c-0.5-0.2-0.9-0.5-1.2-0.7s-0.5-0.5-0.6-0.8s-0.2-0.7-0.2-1.1c0-0.8,0.3-1.4,0.8-1.8s1.2-0.7,2.1-0.7c0.4,0,0.9,0.1,1.3,0.2
		s0.8,0.3,1.3,0.4l-0.6,1.4c-0.5-0.2-0.8-0.3-1.1-0.4s-0.6-0.1-0.9-0.1c-0.3,0-0.6,0.1-0.8,0.2s-0.3,0.4-0.3,0.6
		c0,0.2,0,0.3,0.1,0.4s0.2,0.2,0.4,0.3s0.5,0.3,1.2,0.6c0.8,0.4,1.3,0.8,1.6,1.2S118.8,139.2,118.8,139.8z"/>
	<path class="st3" d="M122.2,142.2h-1.8v-8.6h4.9v1.5h-3.1v2.2h2.9v1.5h-2.9V142.2z"/>
	<path class="st3" d="M134.8,137.9c0,1.4-0.4,2.5-1.1,3.3s-1.7,1.1-3,1.1s-2.3-0.4-3-1.1s-1.1-1.9-1.1-3.3s0.4-2.5,1.1-3.3
		s1.7-1.1,3-1.1s2.3,0.4,3,1.1S134.8,136.4,134.8,137.9z M128.5,137.9c0,1,0.2,1.7,0.5,2.2s0.9,0.7,1.6,0.7c1.4,0,2.2-1,2.2-2.9
		c0-1.9-0.7-2.9-2.2-2.9c-0.7,0-1.3,0.2-1.6,0.7S128.5,136.9,128.5,137.9z"/>
	<path class="st3" d="M138.3,138.9v3.3h-1.8v-8.6h2.5c1.2,0,2,0.2,2.6,0.6s0.8,1.1,0.8,1.9c0,0.5-0.1,1-0.4,1.3s-0.7,0.7-1.2,0.9
		c1.3,1.9,2.1,3.2,2.5,3.7h-2l-2-3.3H138.3z M138.3,137.4h0.6c0.6,0,1-0.1,1.3-0.3s0.4-0.5,0.4-0.9c0-0.4-0.1-0.7-0.4-0.9
		s-0.7-0.3-1.3-0.3h-0.6V137.4z"/>
	<path class="st3" d="M148.1,142.2l-2.1-6.7H146c0.1,1.4,0.1,2.3,0.1,2.7v4h-1.6v-8.6h2.5l2,6.6h0l2.2-6.6h2.5v8.6h-1.7v-4.1
		c0-0.2,0-0.4,0-0.7s0-0.9,0.1-2H152l-2.2,6.7H148.1z"/>
	<path class="st3" d="M161,142.2l-0.6-2h-3.1l-0.6,2h-2l3-8.6h2.2l3,8.6H161z M160,138.6c-0.6-1.8-0.9-2.9-1-3.1s-0.1-0.4-0.2-0.6
		c-0.1,0.5-0.5,1.7-1.1,3.7H160z"/>
	<path class="st3" d="M167.3,142.2h-1.8v-7.1h-2.3v-1.5h6.5v1.5h-2.3V142.2z"/>
	<path class="st3" d="M171,142.2v-8.6h1.8v8.6H171z"/>
	<path class="st3" d="M182.7,137.9c0,1.4-0.4,2.5-1.1,3.3s-1.7,1.1-3,1.1s-2.3-0.4-3-1.1s-1.1-1.9-1.1-3.3s0.4-2.5,1.1-3.3
		s1.7-1.1,3-1.1s2.3,0.4,3,1.1S182.7,136.4,182.7,137.9z M176.5,137.9c0,1,0.2,1.7,0.5,2.2s0.9,0.7,1.6,0.7c1.4,0,2.2-1,2.2-2.9
		c0-1.9-0.7-2.9-2.2-2.9c-0.7,0-1.3,0.2-1.6,0.7S176.5,136.9,176.5,137.9z"/>
	<path class="st3" d="M192.1,142.2h-2.3l-3.7-6.5H186c0.1,1.1,0.1,2,0.1,2.4v4h-1.6v-8.6h2.3l3.7,6.4h0c-0.1-1.1-0.1-1.9-0.1-2.4
		v-4.1h1.6V142.2z"/>
</g>
<g>
	<path class="st3" d="M307.9,37.8h-1.8v-7.1h-2.3v-1.5h6.5v1.5h-2.3V37.8z"/>
	<path class="st3" d="M316.5,37.8h-4.9v-8.6h4.9v1.5h-3.1v1.9h2.9v1.5h-2.9v2.2h3.1V37.8z"/>
	<path class="st3" d="M321.9,30.6c-0.7,0-1.2,0.3-1.6,0.8s-0.6,1.2-0.6,2.1c0,1.9,0.7,2.9,2.2,2.9c0.6,0,1.3-0.2,2.2-0.5v1.5
		c-0.7,0.3-1.5,0.4-2.4,0.4c-1.2,0-2.2-0.4-2.9-1.1s-1-1.8-1-3.3c0-0.9,0.2-1.7,0.5-2.3s0.8-1.2,1.4-1.5s1.3-0.5,2.1-0.5
		c0.8,0,1.7,0.2,2.5,0.6l-0.6,1.5c-0.3-0.2-0.6-0.3-1-0.4S322.2,30.6,321.9,30.6z"/>
	<path class="st3" d="M332.9,37.8h-1.8v-3.7h-3.4v3.7h-1.8v-8.6h1.8v3.4h3.4v-3.4h1.8V37.8z"/>
	<path class="st3" d="M342.7,37.8h-2.3l-3.7-6.5h-0.1c0.1,1.1,0.1,2,0.1,2.4v4h-1.6v-8.6h2.3l3.7,6.4h0c-0.1-1.1-0.1-1.9-0.1-2.4
		v-4.1h1.6V37.8z"/>
	<path class="st3" d="M352.6,33.5c0,1.4-0.4,2.5-1.1,3.3s-1.7,1.1-3,1.1s-2.3-0.4-3-1.1s-1.1-1.9-1.1-3.3s0.4-2.5,1.1-3.3
		s1.7-1.1,3-1.1s2.3,0.4,3,1.1S352.6,32.1,352.6,33.5z M346.3,33.5c0,1,0.2,1.7,0.5,2.2s0.9,0.7,1.6,0.7c1.4,0,2.2-1,2.2-2.9
		c0-1.9-0.7-2.9-2.2-2.9c-0.7,0-1.3,0.2-1.6,0.7S346.3,32.5,346.3,33.5z"/>
	<path class="st3" d="M354.4,37.8v-8.6h1.8v7.1h3.5v1.5H354.4z"/>
	<path class="st3" d="M368.9,33.5c0,1.4-0.4,2.5-1.1,3.3s-1.7,1.1-3,1.1s-2.3-0.4-3-1.1s-1.1-1.9-1.1-3.3s0.4-2.5,1.1-3.3
		s1.7-1.1,3-1.1s2.3,0.4,3,1.1S368.9,32.1,368.9,33.5z M362.7,33.5c0,1,0.2,1.7,0.5,2.2s0.9,0.7,1.6,0.7c1.4,0,2.2-1,2.2-2.9
		c0-1.9-0.7-2.9-2.2-2.9c-0.7,0-1.3,0.2-1.6,0.7S362.7,32.5,362.7,33.5z"/>
	<path class="st3" d="M374,33h3.4v4.4c-0.6,0.2-1.1,0.3-1.6,0.4s-1,0.1-1.5,0.1c-1.3,0-2.3-0.4-3-1.1s-1-1.9-1-3.3
		c0-1.4,0.4-2.5,1.2-3.2s1.9-1.2,3.3-1.2c0.9,0,1.7,0.2,2.5,0.5l-0.6,1.5c-0.6-0.3-1.3-0.5-2-0.5c-0.8,0-1.4,0.3-1.9,0.8
		s-0.7,1.2-0.7,2.1c0,0.9,0.2,1.6,0.6,2.1s0.9,0.7,1.7,0.7c0.4,0,0.8,0,1.2-0.1v-1.8H374V33z"/>
	<path class="st3" d="M382.1,32.8l1.8-3.5h2l-2.8,5.2v3.3h-1.8v-3.3l-2.8-5.3h2L382.1,32.8z"/>
</g>
<line class="st11" x1="204.4" y1="229.9" x2="204.4" y2="107.5"/>
<polyline class="st11" points="136.5,210.3 136.5,220 147,230.5 "/>
<polyline class="st11" points="278.6,209.9 278.6,220 268.8,229.7 "/>
<polyline class="st11" points="116.6,252.7 102.3,252.7 65,215.4 65,107.5 "/>
<polyline class="st11" points="292.6,252.7 306.9,252.7 344.2,215.4 344.2,107.5 "/>
<g>
	<defs>
		<rect id="SVGID_3_" x="385.2" y="7.5" width="335.6" height="274.1"/>
	</defs>
	<clipPath id="SVGID_4_">
		<use xlink:href="#SVGID_3_"  style="overflow:visible;"/>
	</clipPath>
	<g class="st19">
		<ellipse class="st20" cx="557" cy="449" rx="81.8" ry="8.9"/>
		<g>
			<path class="st21" d="M416.6,135c0.2-1.1,1.5-1.8,2.9-1.6l-4.1-0.8c-1.4-0.3-2.4-1.3-2.2-2.5c0.2-1.3,1.5-1.8,2.9-1.6l-3.6-0.7
				c-1.4-0.3-2.4-1.5-2.1-2.8c0.2-1.3,1.6-2.1,3-1.8l3.1,0.6c-1.4-0.3-2.4-1.5-2.1-2.8c0.2-1.3,1.6-2.1,3-1.8l19.1,3.6l-3.6-5.5
				c-0.9-1.4-0.6-3,0.6-3.8l0.1,0c1.2-0.8,2.9-0.2,3.7,1.1l8.3,9.7c2.6,2.5,5.3,5.6,4.4,10.2c-0.9,4.8-5.5,7.8-10.3,6.9l-4.6-0.9
				l-3.3-0.6l-13.1-2.5C417.4,137.3,416.4,136.1,416.6,135z"/>
			<path class="st22" d="M520.5,156.1c0,0-16.7,22.2-28.8,26.1c0,0-15.5,6.5-50.1-38c0,0,0.5-8.8,11.6-13.1l34.4,24.5
				c28.4-42,34.1-42.2,34.1-42.2S528.1,138.7,520.5,156.1z"/>
		</g>
		<g>
			<path class="st23" d="M582,444.2h29.7c0,0,1.7-7.9-4.5-18.3l-20,0.3C587.2,426.1,581.5,434.3,582,444.2z"/>
			<rect x="582.1" y="444.2" class="st24" width="29.7" height="4.7"/>
			<path class="st25" d="M608.1,436c0,2-5,3.7-11.2,3.7c-6.2,0-11.2-1.6-11.2-3.7c0-2,5-3.7,11.2-3.7
				C603,432.3,608.1,433.9,608.1,436z"/>
		</g>
		<g>
			<path class="st23" d="M552.4,424.1c0,0,2.3,11.8,0.6,20.2h-56c0,0-1.9-12.1,22.4-12.1l15.6-10.6L552.4,424.1z"/>
			<path class="st24" d="M552.9,448.9h-18.8l-0.2-3.2c0,0-7.6,3.1-18.2,3.1c-5.2,0-18.5,0.2-18.5,0.2v-4.8h55.8V448.9z"/>
			<path class="st25" d="M517.8,432.2c0,0-0.8,8.6-20.1,8.2C497.7,440.4,500.4,432.5,517.8,432.2z"/>
		</g>
		<g>
			<path class="st26" d="M524.6,222.6l-1,203.3c0,0,15.2,7.6,29.5,1.7l5.5-161.8l4.2-0.2l20.7,162c0,0,11,4.9,27.1-1l-16.4-203.9
				H524.6z"/>
			<path class="st27" d="M524,351.2l-0.4,74.7c0,0,15.2,7.6,29.5,1.7l3.4-100C548.5,359.6,531.1,354.7,524,351.2z"/>
			<path class="st27" d="M603.3,339.4c-10.7,29.1-25,10.4-31,0l11.3,88.2c0,0,11,5,27.1-1L603.3,339.4z"/>
			<path class="st9" d="M524.3,223.9c0,0,25.2,7.4,70.7,0l0.4,9c0,0-37.3,6.9-71.1,0.1V223.9z"/>
			<rect x="551.9" y="226.8" class="st8" width="13" height="9.9"/>
			
				<rect x="536" y="229.6" transform="matrix(4.459948e-02 -0.999 0.999 4.459948e-02 286.1529 761.559)" class="st28" width="10.4" height="3.1"/>
			
				<rect x="576.2" y="225.4" transform="matrix(0.9977 -6.803105e-02 6.803105e-02 0.9977 -14.353 39.8385)" class="st28" width="3.1" height="10.4"/>
		</g>
		<g>
			<path class="st1" d="M607,114.5c0,0-11.7-5.1-26.5-8.3c-15.8-2.7-20.5-2.3-32.8,0.3c-6.7,1.1-19.3,3.8-26,6.9c0,0-4,17.8,0,110.5
				c0,0,26.2,9.2,74.6,0c0,0,0.5-42,6.8-67.3C603.2,156.5,605,130.5,607,114.5z"/>
			<path class="st22" d="M553.3,126.4l3.8-2.5l2.6,3.4l-10,75.3l6.8,7.8l9.2-11.5l-1.3-69.7l3.2-3.1l1.7,2c0,0,11.9-7.8,13.8-21.2
				c-0.9-0.2-1.7-0.4-2.6-0.6c-15.8-2.7-20.5-2.3-32.8,0.3c-0.5,0.1-1,0.2-1.6,0.3C546.2,106.7,545,115.2,553.3,126.4z"/>
			<g>
				<path class="st21" d="M554.2,101.1l-0.4,12.9l21.4,0.6l0.5-16.8C566.6,101.8,557.8,101.5,554.2,101.1z"/>
				<path class="st29" d="M575.6,97.8l0.4-12.9l-21.4-0.6l-0.5,16.8C557.8,101.5,566.6,101.8,575.6,97.8z"/>
			</g>
			<path class="st9" d="M553.4,120.3l4.5,7.5c0,0-4.7,13.4-6.8,30.6c-2.3,18.9-2.3,39.9-2.3,39.9l7.3,8.3l7.2-8.4l-0.7-70l6.3-6.3
				l-7-9L553.4,120.3z"/>
			<path class="st1" d="M554.2,101.1c0,0,1,8.8,7.8,11.8c0,0,12.7-3.5,13.6-11.8l7.2,5.6c0,0-4.7,13.9-14.5,17.6l-6.2-9.4l-8.4,7.8
				c0,0-8.1-9.8-7.4-15.9L554.2,101.1z"/>
		</g>
		<path class="st1" d="M607,114.5c0,0,7.5,7.3,38,41.3l-13.7,22.7l-28.1-22C603.2,156.5,604.8,135.6,607,114.5z"/>
		<path class="st1" d="M697.1,162.9c-2.2-5.3-8.4-7.9-13.7-5.6c-5.3,2.2-7.8,8.4-5.6,13.7c2.2,5.3,8.4,7.8,13.7,5.6
			C696.8,174.4,699.3,168.2,697.1,162.9z"/>
		<path class="st21" d="M700.4,168.6c-5.7,5.2-9.5,4.6-11.7,3.6l0,0c-4.3-2.3-3-7.7-0.5-12.2l4.3-8c2.4-4.6,6.5-3.7,10.8-1.4l0,0
			c4.3,2.3,7.4,5.1,4.6,10.3L700.4,168.6z"/>
		<g>
			<polygon class="st9" points="703.1,117.4 704.6,119.3 679.8,201.8 622.9,184.7 621,182 			"/>
			
				<rect x="619.2" y="119.7" transform="matrix(0.2877 -0.9577 0.9577 0.2877 328.1988 740.6094)" class="st28" width="85.5" height="60"/>
			
				<rect x="625.3" y="126.1" transform="matrix(0.2877 -0.9577 0.9577 0.2877 326.349 740.9599)" class="st30" width="72" height="50.1"/>
			<path class="st9" d="M675.8,108.1l0.3-0.9c0.3-0.9-0.2-1.8-1.1-2.1l-0.2-0.1c-0.9-0.3-1.8,0.2-2.1,1.1l-0.3,0.9l-7-2.1l-3.5,11.5
				l18,5.4l3.5-11.5L675.8,108.1z"/>
			
				<rect x="667.6" y="116.5" transform="matrix(0.2877 -0.9577 0.9577 0.2877 355.8951 730.248)" class="st5" width="2.6" height="18.8"/>
			
				<rect x="666.4" y="119.2" transform="matrix(0.2877 -0.9577 0.9577 0.2877 346.8543 734.5211)" class="st5" width="1.6" height="29.7"/>
			
				<rect x="665.1" y="121.1" transform="matrix(0.2877 -0.9577 0.9577 0.2877 341.5731 736.4214)" class="st5" width="1.6" height="34.9"/>
			
				<rect x="663.7" y="131.3" transform="matrix(0.2877 -0.9577 0.9577 0.2877 336.3099 738.3315)" class="st5" width="1.6" height="23.5"/>
			
				<rect x="662.4" y="130.1" transform="matrix(0.2877 -0.9577 0.9577 0.2877 331.0495 740.2435)" class="st5" width="1.6" height="34.9"/>
			
				<rect x="661" y="137.2" transform="matrix(0.2877 -0.9577 0.9577 0.2877 325.7762 742.1481)" class="st5" width="1.6" height="29.7"/>
			
				<rect x="659.7" y="139.1" transform="matrix(0.2877 -0.9577 0.9577 0.2877 320.4958 744.0491)" class="st5" width="1.6" height="34.9"/>
			
				<rect x="658.3" y="144.6" transform="matrix(0.2877 -0.9577 0.9577 0.2877 315.2532 745.9712)" class="st5" width="1.6" height="32.9"/>
			
				<rect x="657" y="148.1" transform="matrix(0.2877 -0.9577 0.9577 0.2877 309.9715 747.8705)" class="st5" width="1.6" height="34.9"/>
			
				<rect x="655.6" y="157.3" transform="matrix(0.2877 -0.9577 0.9577 0.2877 304.7113 749.7823)" class="st5" width="1.6" height="25.6"/>
		</g>
		<g>
			<g>
				<path class="st21" d="M705.1,157.2c-0.4-0.2-0.7-0.6-0.9-1c-2.2-4.6-11.5-9.7-15-11.3c-1.2-0.5-1.8-1.8-1.3-2.9
					c0.4-1.1,1.8-1.5,2.9-0.9c1.4,0.7,14.1,6.7,17.4,13.7c0.5,1.1,0.1,2.3-1.1,2.7C706.5,157.8,705.7,157.6,705.1,157.2z"/>
			</g>
			<g>
				<path class="st21" d="M702.2,159.6c-0.3-0.2-0.6-0.5-0.9-0.8c-4.4-6.7-16.8-11.1-16.9-11.1c-1.2-0.4-1.9-1.7-1.5-2.9
					c0.4-1.2,1.7-1.8,2.9-1.4c0.6,0.2,14.1,4.9,19.4,13c0.7,1.1,0.4,2.5-0.7,3.1C703.8,160,702.9,160,702.2,159.6z"/>
			</g>
			<g>
				<path class="st21" d="M696.9,159.7c-0.2-0.1-0.5-0.3-0.7-0.5c-4.6-4.6-11.7-7.3-11.8-7.3c-1.2-0.5-1.9-1.7-1.6-2.7
					c0.3-1.1,1.6-1.6,2.8-1.1c0.3,0.1,8.3,3.1,13.7,8.5c0.9,0.9,0.9,2.2,0,2.9C698.8,160.1,697.7,160.1,696.9,159.7z"/>
			</g>
			<g>
				<path class="st21" d="M694.3,163c-0.2-0.1-0.4-0.2-0.6-0.4c-4.3-4-8.9-5.9-9-5.9c-1.2-0.5-1.8-1.8-1.4-2.9
					c0.4-1.1,1.8-1.7,3-1.2c0.2,0.1,5.6,2.3,10.5,6.9c0.9,0.9,1,2.3,0.2,3.1C696.3,163.3,695.2,163.4,694.3,163z"/>
			</g>
		</g>
		<g class="st31">
			<g class="st32">
				<path class="st33" d="M599.7,40.4c-1.1-2.7-2.1-4.8-2.8-6.2c-1.5-3.6-8.6-11.1-26-19c-25.2-11.3-29.7,5.6-29.7,5.6
					c0.4-3.3,1.8-6,1.8-6c-8.8,5.9-3.4,39.3-3.4,39.3c24.8,17,52.9,11,52.9,11c1.4-7,3-16.6,4.1-22.7c1.8,1.5,3.1,3.2,3.1,3.2
					c-0.5-2.8-2-6.7-2-6.7L599.7,40.4z"/>
				<path class="st33" d="M560.4,43.3l-18.7-3.2c-0.9,0.1-2.2,0.4-3.5,0.7c0.5,7.4,1.4,13.4,1.4,13.4c24.8,17,52.9,11,52.9,11
					c1.2-6.2,2.7-14.5,3.7-20.6c-4-2.6-14.6-4.2-14.6-4.2L560.4,43.3z"/>
				<path class="st34" d="M547.8,37.1c0,0-5.7-22.9,12.9-24.1C560.7,13,546.5,14.9,547.8,37.1z"/>
				<path class="st34" d="M553.2,36.3c0,0,2-16.7,12.8-20.6C566,15.7,557.2,22.8,553.2,36.3z"/>
				<path class="st34" d="M560.4,33.9c0,0,5.3-13.4,23.6-9.4C584,24.5,569.2,23.2,560.4,33.9z"/>
				<path class="st34" d="M569.4,35c0,0,8.4-11.7,25.2-3.2C594.6,31.8,580.6,26.8,569.4,35z"/>
			</g>
			<g class="st32">
				<path class="st21" d="M590,60.7l-3.4,2.8c-0.7-1.7-1.3-3.4-1.7-5.2c-2.7-10.2-3.3-17.8-3.3-17.8c-22.2-3.1-40-0.4-40-0.4
					c0.3,3.4-2.1,14.2-2.1,14.2c0,9.2-0.2,24.7,6.1,34c2.7,3.9,6,7.2,11.7,8.1c24.6,3.8,30.9-20.2,30.9-20.2s7.7,2.1,9.3-9.3
					C598.8,57.5,590,60.7,590,60.7z"/>
				<path class="st29" d="M586.4,73.3c-2.1,6.1-9.9,21.1-26.6,20.2C550.6,93,546,87,543,82.8c0.7,2,1.6,3.8,2.7,5.4
					c2.7,3.9,6,7.2,11.7,8.1c24.6,3.8,30.9-20.2,30.9-20.2s5.9,1.6,8.5-5.9C592.2,77.9,586.4,73.3,586.4,73.3z"/>
			</g>
			<path class="st35" d="M553.1,63.6c0,2.1-1.3,3.7-2.9,3.6c-1.6-0.1-2.8-1.9-2.8-4.1c0-2.1,1.3-3.7,2.9-3.6
				C551.9,59.7,553.1,61.5,553.1,63.6z"/>
			<path class="st35" d="M574.6,63c0,2.1-1.3,3.7-2.9,3.6c-1.6-0.1-2.8-1.9-2.8-4.1c0-2.1,1.3-3.7,2.9-3.6
				C573.3,59.1,574.6,60.9,574.6,63z"/>
			<g class="st32">
				<path class="st36" d="M560.7,75.6c-4.7,1.9-7.3-0.3-7.5-2.6c-0.1-1.5,0.7-2.8,2.1-3.3c2.9-1.1,4.9-5.6,5-5.6l0,0
					c0,1-1,4.9-4.7,7c-0.8,0.5-1.3,0.9-1.2,1.7C554.5,74,556.3,75.9,560.7,75.6L560.7,75.6z"/>
			</g>
			<g class="st32">
				<path class="st37" d="M543.5,52.7l-0.2-1.4c0.3,0,5.2-1.4,11-0.9l0.1,2.2C549.6,52,543.5,52.7,543.5,52.7z"/>
			</g>
			<g class="st32">
				<path class="st37" d="M578.3,53.5c-3.8-1.5-11-1.8-11-1.8l0.5-2c0.3,0.1,6.7,0.3,11,2.6L578.3,53.5z"/>
			</g>
			<g class="st32">
				<path class="st38" d="M569,78.9c0,0-8.9,1.8-17.2,0c0,0,1.5,7.6,8.6,7.6C567.1,86.5,568.9,80.4,569,78.9z"/>
				<path class="st1" d="M560.2,82.6c-5.5,0-7.1-2.3-7.8-3.5c6.4,1.3,11.6,0.5,16.2,0C568,80.4,565.3,82.6,560.2,82.6z"/>
			</g>
		</g>
		<g>
			<path class="st29" d="M536.6,57.2c0,0-5.2,1-4.6,9.1c0.6,8.1,6.5,6.7,6.5,6.7s3.1-10.7,3.1-10.9S536.6,57.2,536.6,57.2z"/>
			<path class="st21" d="M591.1,57.2c0,0,6.5-0.1,6.5,7.9s-5.3,9.3-9.4,8.1C584,72.1,587.4,57.5,591.1,57.2z"/>
			<path class="st29" d="M588.2,71.1c-1.1-0.3-1.7-1.6-1.9-3.4c-0.2,2.8,0.3,5.1,1.9,5.5c4.1,1.1,9.4-0.2,9.4-8.1c0-0.3,0-0.7,0-1
				C597.1,71,592.1,72.1,588.2,71.1z"/>
			<path class="st21" d="M535.8,41.9c0,0,0.4,36.5,7.5,45.9s20.6,12.4,32.6,6c12-6.4,13.1-22.6,12.4-27.3c-0.7-4.7,2.8-9.3,2.8-9.3
				V43.8l-6.3-13.6l-31.5-7.5L535.8,41.9z"/>
			<path class="st29" d="M539.4,42c0,0-3.6,1.9,5.5,6.5c9,4.7,12-1,15.5-5c3.4-4,17.2-5.9,17.2-5.9l1.1-1.8l-24.9-0.6L539.4,42z"/>
			<path class="st39" d="M537.5,66.6c0,0,0.4-16.1,4.6-21.5s-6.2-3.2-6.2-3.2S536,54.3,537.5,66.6L537.5,66.6z"/>
			<path class="st40" d="M583.1,44.8c0,0,3.8,9.2,2.1,22.6c-1.7,13.4-5.2,16.8-11.8,13.6c-6.7-3.2-19.2-3.2-24.6,0.3
				c-5.4,3.5-7.3-2.2-10-6.6c1.1,5.6,2.6,10.4,4.6,13.1c7.1,9.5,20.6,12.4,32.6,6c12-6.4,13.1-22.6,12.4-27.3
				c-0.7-4.7,2.8-9.3,2.8-9.3V43.8l-5.8-1.8L583.1,44.8z"/>
			<path class="st39" d="M591.1,43.8l-5.8-1.8l-2.1,2.8c0,0,3.1,7.6,2.4,18.9h2.8c0,0,0,0,0,0c0.5-3.6,2.8-6.5,2.8-6.5V43.8z"/>
			<path class="st40" d="M524.7,27.1c0-9.7,10.9-18.9,18.9-18.9c8.1,0,15.2,7.9,15.2,7.9s16.7-4.5,22.3,6c6.7-1.9,16.7,9.9,10,21.7
				c-2.6,1.3-7.9,1-7.9,1s1.1-6.8-6.4-7.2c-7.5-0.4-18.9-1-21.6,3.3c-2.6,4.3-7.7,7.2-15.6,3.1S524.7,34.8,524.7,27.1z"/>
			<path class="st41" d="M566.4,30c-10.7,0-16.8,4.7-26,4.7c-9.2,0-15.7-6.8-15.7-6.8c0.5,7.2,7.2,12,14.9,16
				c7.9,4.2,12.9,1.3,15.6-3.1c2.6-4.3,14.1-3.8,21.6-3.3c2.8,0.2,4.4,1.2,5.3,2.4v0C581.8,37.6,577.1,30,566.4,30z"/>
			<path class="st29" d="M561.3,63.7v12.8c0,0-7,3.6-7-1s4.4-3.3,4.4-3.3S560.3,59.9,561.3,63.7z"/>
			<path class="st42" d="M552.6,81.3c-0.5,0-0.9,0.4-0.9,0.8c0,0,0,0,0,0c0,3.9,4,7.1,8.9,7.1c4.9,0,8.9-3.2,8.9-7.1c0,0,0,0,0,0
				c0-0.5-0.4-0.8-0.9-0.8H552.6z"/>
			<path class="st43" d="M569.4,83.2c0.1-0.3,0.1-0.7,0.1-1c0,0,0,0,0,0c0-0.5-0.4-0.8-0.9-0.8h-16.1c-0.5,0-0.9,0.4-0.9,0.8
				c0,0,0,0,0,0c0,0.4,0,0.7,0.1,1c2.5,0.7,5.5,1.2,8.8,1.2C563.9,84.4,566.9,83.9,569.4,83.2z"/>
			<ellipse class="st40" cx="548.8" cy="64.6" rx="2.9" ry="3.8"/>
			<ellipse class="st40" cx="571.6" cy="64.6" rx="2.9" ry="3.8"/>
			<g>
				<g>
					<path class="st40" d="M577.1,56.9c-2.8-1-7.2-0.5-8.2-0.4c-0.1,0-0.2-0.1-0.2-0.2l-0.1-1c0-0.1,0.1-0.2,0.2-0.2
						c1-0.1,5.7-0.6,8.8,0.5c0.1,0,0.1,0.1,0.1,0.2l-0.4,1C577.3,56.9,577.2,57,577.1,56.9z"/>
				</g>
			</g>
			<g>
				<g>
					<path class="st40" d="M543.1,56.8l-0.1-1c0-0.1,0.1-0.2,0.2-0.2c1-0.1,5.8-0.7,8.7-0.7c0.1,0,0.2,0.1,0.2,0.2v1
						c0,0.1-0.1,0.2-0.2,0.2c-2.8,0-7.6,0.6-8.5,0.7C543.2,57,543.1,56.9,543.1,56.8z"/>
				</g>
			</g>
		</g>
		<g>
			<path class="st44" d="M538.9,59.3v8.3c0,0,1.4,3.3,1.6,3.3s6.5,0.7,6.7,0.7c0.2,0,5.6-0.2,5.6-0.2l2.2-1.5L557,68l0.5-3.7
				c0,0-0.5-2-0.5-2.2s-1.6-2.7-1.6-2.7s-2.6-1.1-2.8-1.1c-0.2,0-4.1,0-4.5,0c-0.4,0-4.1,0.2-4.1,0.2l-4.8,0.4L538.9,59.3z"/>
			<path class="st44" d="M582.4,59.3v8.3c0,0-1.4,3.3-1.6,3.3s-6.5,0.7-6.7,0.7c-0.2,0-5.6-0.2-5.6-0.2l-2.2-1.5l-2.1-1.9l-0.5-3.7
				c0,0,0.5-2,0.5-2.2c0-0.1,1.6-2.7,1.6-2.7s2.6-1.1,2.8-1.1s4.1,0,4.5,0c0.4,0,4.1,0.2,4.1,0.2l4.8,0.4L582.4,59.3z"/>
			<polygon class="st45" points="546,71.7 542,71.7 545.4,58.2 549.4,58.2 			"/>
			<polygon class="st45" points="571,71.7 567,71.7 570.4,58.2 574.4,58.2 			"/>
			<path class="st9" d="M580.4,57.6h-11.8c-3.1,0-5.7,2.3-6.1,5.4h-4.2c-0.4-3-3-5.4-6.1-5.4h-10.8c-1.9,0-3.5,1.6-3.5,3.5v5.9
				c0,1.1,0.4,2.1,1.2,2.9l1.1,1c0.8,0.7,1.8,1.2,2.8,1.2h8.7c2.8,0,5.3-2,6.4-4.5c0.2-0.4,0.3-0.8,0.3-1.2v-2.1h4.1v2.1
				c0,0.4,0.1,0.8,0.3,1.2c1.2,2.5,3.7,4.5,6.4,4.5h9.7c1.1,0,2.1-0.4,2.8-1.2l1.1-1c0.8-0.8,1.2-1.8,1.2-2.9v-5.9
				C583.9,59.2,582.3,57.6,580.4,57.6z M557,66.4c0,0.2-0.1,0.4-0.1,0.6c-1.1,2.2-3.2,3.8-5.3,3.8h-8.7c-0.7,0-1.4-0.3-1.9-0.8
				l-1.1-1c-0.5-0.5-0.8-1.2-0.8-2v-5.9c0-1.2,1-2.2,2.2-2.2h10.8c2.7,0,4.9,2.2,4.9,4.9V66.4z M582.6,67.1c0,0.7-0.3,1.4-0.8,2
				l-1.1,1c-0.5,0.5-1.2,0.8-1.9,0.8h-9.7c-2.1,0-4.2-1.6-5.3-3.8c-0.1-0.2-0.1-0.4-0.1-0.6v-2.6c0-2.7,2.2-4.9,4.9-4.9h11.8
				c1.2,0,2.2,1,2.2,2.2V67.1z"/>
			<path class="st9" d="M569.1,72.7c-2.8,0-5.5-1.9-6.9-4.8c-0.2-0.4-0.3-0.9-0.3-1.4v-1.6h-3.1v1.6c0,0.5-0.1,1-0.3,1.4
				c-1.4,2.9-4.1,4.8-6.9,4.8h-8.7c-1.2,0-2.3-0.5-3.2-1.3l-1.1-1c-0.9-0.8-1.4-2-1.4-3.2v-5.9c0-2.2,1.8-4,4-4h10.8
				c3.2,0,5.9,2.3,6.5,5.4h3.3c0.6-3.1,3.3-5.4,6.5-5.4h11.8c2.2,0,4,1.8,4,4v5.9c0,1.2-0.5,2.4-1.4,3.2l-1.1,1
				c-0.9,0.8-2,1.3-3.2,1.3H569.1z M568.6,59.4c-2.4,0-4.4,2-4.4,4.4v2.6c0,0.2,0,0.3,0.1,0.4c1,2.1,3,3.5,4.8,3.5h9.7
				c0.6,0,1.1-0.2,1.6-0.6l1.1-1c0.4-0.4,0.7-1,0.7-1.6v-5.9c0-0.9-0.8-1.7-1.7-1.7H568.6z M541.3,59.4c-0.9,0-1.7,0.8-1.7,1.7v5.9
				c0,0.6,0.2,1.2,0.7,1.6l1.1,1c0.4,0.4,1,0.6,1.6,0.6h8.7c1.9,0,3.8-1.4,4.8-3.5c0.1-0.1,0.1-0.3,0.1-0.4v-2.6
				c0-2.4-2-4.4-4.4-4.4H541.3z"/>
			<path class="st46" d="M583.3,63.8c0,0,6.1-6.1,8.1-6.6"/>
		</g>
	</g>
</g>
<g>
	<g>
		<g>
			<g>
				<path class="st9" d="M897.8,281.4h-3.1c-0.3,0-0.6,0.2-0.6,0.6c0,0.3,0.2,0.6,0.6,0.6h3.1c0.3,0,0.6-0.2,0.6-0.6
					C898.4,281.8,898.1,281.4,897.8,281.4z"/>
			</g>
		</g>
		<g>
			<g>
				<path class="st9" d="M897.8,278.1c-1.2,0-2.3,1-2.3,2.3c0,1.2,1,2.3,2.3,2.3c0.1,0,0.1,0,0.1,0c1.1-0.1,2-1,2-2.3
					C900,279.2,899,278.1,897.8,278.1z M897.9,281.4L897.9,281.4c-0.7,0-1.1-0.5-1.1-1s0.5-1,1-1c0.6,0,1,0.5,1,1
					C898.9,281,898.4,281.4,897.9,281.4z"/>
			</g>
		</g>
		<g>
			<g>
				<rect x="897.8" y="281.4" class="st5" width="3.4" height="1.2"/>
			</g>
		</g>
		<g>
			<g>
				<path class="st9" d="M944.6,276.6h-2c-1.9,0-3.5,1.6-3.5,3.5c0,1.9,1.6,3.5,3.5,3.5h2c1.9,0,3.5-1.6,3.5-3.5
					C948.1,278,946.5,276.6,944.6,276.6z"/>
			</g>
		</g>
		<g>
			<g>
				<g>
					<path class="st9" d="M937.8,270.3c0,1.5,1.1,2.6,2.6,2.6c1.5,0,2.6-1.1,2.6-2.6l0,0v-5.2C940.2,265.1,937.8,267.5,937.8,270.3z
						"/>
				</g>
			</g>
		</g>
		<g>
			<g>
				<g>
					<circle class="st9" cx="910.5" cy="292.1" r="2.9"/>
				</g>
			</g>
			<g>
				<g>
					<circle class="st9" cx="913.7" cy="292.1" r="2.9"/>
				</g>
			</g>
			<g>
				<g>
					<circle class="st9" cx="930" cy="292.1" r="2.9"/>
				</g>
			</g>
			<g>
				<g>
					<circle class="st9" cx="933.2" cy="292.1" r="2.9"/>
				</g>
			</g>
			<g>
				<g>
					<path class="st13" d="M931.1,267.7h-17.6c-6.9,0-12.5,5.7-12.5,12.5c0,6.9,5.7,12.5,12.5,12.5h17.6c6.9,0,12.5-5.7,12.5-12.5
						C943.6,273.4,938,267.7,931.1,267.7z"/>
				</g>
			</g>
			<g>
				<g>
					<g>
						<path class="st9" d="M916,289.8c-6.5,0-11.9-5.3-11.9-11.8v-1c0-2.5,0.8-5,2.2-6.9c-3.1,2.2-5,5.8-5,9.8v1
							c0,6.5,5.3,11.8,11.9,11.8h18.5c4,0,7.5-1.9,9.6-5c-1.9,1.4-4.3,2.2-6.8,2.2L916,289.8L916,289.8z"/>
					</g>
				</g>
			</g>
		</g>
		<g>
			<g>
				<g>
					<path class="st9" d="M931,270.4c0,1.5,1.1,2.6,2.6,2.6s2.6-1.1,2.6-2.6l0,0v-5.2C933.3,265.2,931,267.5,931,270.4z"/>
				</g>
			</g>
		</g>
		<g>
			<g>
				<path class="st33" d="M929.6,268.5h-16.6c-0.8,0-1.4,0.6-1.4,1.4c0,0.8,0.6,1.4,1.4,1.4h16.6c0.8,0,1.4-0.6,1.4-1.4
					C931,269.1,930.4,268.5,929.6,268.5z"/>
			</g>
		</g>
		<g>
			<g>
				<defs>
					<rect id="SVGID_5_" x="901.7" y="246.3" width="29.9" height="24.8"/>
				</defs>
				<clipPath id="SVGID_6_">
					<use xlink:href="#SVGID_5_"  style="overflow:visible;"/>
				</clipPath>
				<g class="st47">
					<g>
						
							<ellipse transform="matrix(0.5215 -0.8532 0.8532 0.5215 210.4926 916.9278)" class="st15" cx="922.8" cy="270.8" rx="8.4" ry="8.4"/>
					</g>
					<g>
						
							<ellipse transform="matrix(0.5215 -0.8532 0.8532 0.5215 210.496 916.9033)" class="st8" cx="922.8" cy="270.8" rx="6.5" ry="6.5"/>
					</g>
					<path class="st1" d="M925.3,268.3l0.3-0.5c0.1-0.1,0-0.2-0.1-0.3l-0.8-0.5c-0.1-0.1-0.2,0-0.3,0.1l-0.2,0.5
						c-1-0.5-2-0.1-2.5,0.7c-0.8,1.2,0.1,2.4,0.7,3.1c0.7,0.8,0.8,1,0.6,1.5c-0.2,0.3-0.9,0.1-1.2-0.1c-0.3-0.2-0.7-0.6-0.8-0.9
						c-0.1-0.1-0.2-0.1-0.3-0.1l-0.9,0.5c-0.1,0.1-0.2,0.2-0.1,0.3c0.2,0.5,0.6,0.8,0.9,1.1l-0.2,0.5c-0.1,0.1,0,0.2,0.1,0.3
						l0.8,0.5c0.1,0.1,0.2,0,0.3-0.1l0.3-0.5c1,0.3,1.9,0,2.4-0.8c0.8-1.4-0.1-2.5-0.8-3.2c-0.7-0.8-0.8-1-0.6-1.2
						c0.2-0.3,0.8-0.1,1.1,0.1c0.5,0.2,0.8,0.7,0.9,1.1c0,0.1,0,0.1,0.1,0.1c0,0,0.1,0,0.2,0l0.9-0.2c0.1,0,0.2-0.1,0.2-0.3
						C926.1,269.4,925.8,268.7,925.3,268.3z"/>
				</g>
			</g>
			<g>
				<defs>
					<rect id="SVGID_7_" x="901.7" y="246.3" width="29.9" height="24.8"/>
				</defs>
				<clipPath id="SVGID_8_">
					<use xlink:href="#SVGID_7_"  style="overflow:visible;"/>
				</clipPath>
				<g class="st48">
					<g>
						
							<ellipse transform="matrix(0.7171 -0.697 0.697 0.7171 81.1897 709.5554)" class="st15" cx="914.6" cy="254.8" rx="8.4" ry="8.4"/>
					</g>
					<g>
						
							<ellipse transform="matrix(0.7171 -0.697 0.697 0.7171 81.2424 709.4529)" class="st8" cx="914.5" cy="254.7" rx="6.5" ry="6.5"/>
					</g>
					<path class="st1" d="M917.6,256.6c0.6-0.9,0.5-1.8-0.1-2.5c-1.1-1.1-2.4-0.5-3.3,0c-0.9,0.5-1.1,0.6-1.4,0.2
						c-0.3-0.3,0.1-0.8,0.5-1.1c0.3-0.3,0.9-0.6,1.4-0.6c0.1,0,0.1,0,0.2-0.1l0.1-0.1v-1c0-0.1-0.1-0.2-0.2-0.2
						c-0.6,0-1.2,0.1-1.8,0.5l-0.3-0.3c-0.1-0.1-0.2-0.1-0.3,0l-0.7,0.7c-0.1,0.1-0.1,0.2,0,0.3l0.3,0.3c-0.7,0.9-0.7,1.9,0,2.6
						c1,1.1,2.3,0.5,3.1,0c0.9-0.5,1.2-0.6,1.6-0.2c0.3,0.3-0.1,0.9-0.5,1.1c-0.3,0.2-0.7,0.6-1,0.6c-0.1,0-0.2,0.1-0.2,0.3l0.2,0.9
						c0,0.1,0.1,0.2,0.3,0.2c0.5-0.1,0.9-0.3,1.4-0.7l0.3,0.3c0.1,0.1,0.2,0.1,0.3,0l0.7-0.7c0.1-0.1,0.1-0.2,0-0.3L917.6,256.6z"/>
				</g>
			</g>
		</g>
	</g>
</g>
</svg>
