<svg version="1.1" id="1121780719" xmlns="http://www.w3.org/2000/svg" xmlns:xlink="http://www.w3.org/1999/xlink" x="0px" y="0px" viewBox="0 0 512 512" style="enable-background:new 0 0 512 512;" xml:space="preserve" class="svg u_1121780719" data-icon-custom="true" data-icon-name="cloud services.svg"> <style type="text/css">.st0-1121780719{fill:#5BCBFA;}
	.st1-1121780719{fill:#2488FF;}
	.st2-1121780719{fill:#E8E5FB;}
	.st3-1121780719{fill:#896FF7;}
	.st4-1121780719{fill:#B9B1F1;}
	.st5-1121780719{fill:#636263;}
	.st6-1121780719{fill:#BDFDFF;}
	.st7-1121780719{fill:#EC455A;}
	.st8-1121780719{fill:#57A4FF;}</style> 
 <g id="cloud-computer-data_base-server-Storage"> <path class="st0-1121780719" d="M432,320H264v-40h-16v40H80c-4.4,0-8,3.6-8,8v40h16v-32h160v32h16v-32h160v32h16v-40
		C440,323.6,436.4,320,432,320z"></path> 
 <path class="st1-1121780719" d="M64,24h384c8.8,0,16,7.2,16,16v192l0,0H48l0,0V40C48,31.2,55.2,24,64,24z"></path> 
 <path class="st2-1121780719" d="M40,232h432l0,0v32c0,8.8-7.2,16-16,16H56c-8.8,0-16-7.2-16-16V232L40,232z"></path> 
 <path class="st3-1121780719" d="M24,440c0,8.8,25,16,56,16s56-7.2,56-16v32c0,8.8-25,16-56,16s-56-7.2-56-16V440z"></path> 
 <path class="st3-1121780719" d="M80,392c31,0,56-7.2,56-16v32c0,8.8-25,16-56,16s-56-7.2-56-16v-32C24,384.8,49,392,80,392z"></path> 
 <ellipse class="st4-1121780719" cx="80" cy="376" rx="56" ry="16"></ellipse> 
 <path class="st3-1121780719" d="M200,440c0,8.8,25,16,56,16s56-7.2,56-16v32c0,8.8-25,16-56,16s-56-7.2-56-16V440z"></path> 
 <path class="st3-1121780719" d="M256,424c-31,0-56-7.2-56-16v-32c0,8.8,25,16,56,16s56-7.2,56-16v32C312,416.8,287,424,256,424z"></path> 
 <g> <ellipse class="st4-1121780719" cx="256" cy="376" rx="56" ry="16"></ellipse> 
 <path class="st4-1121780719" d="M24,408c0,8.8,25,16,56,16s56-7.2,56-16v32c0,8.8-25,16-56,16s-56-7.2-56-16V408z"></path> 
 <path class="st4-1121780719" d="M200,408c0,8.8,25,16,56,16s56-7.2,56-16v32c0,8.8-25,16-56,16s-56-7.2-56-16V408z"></path> 
</g> 
 <path class="st3-1121780719" d="M432,456c31,0,56-7.2,56-16v32c0,8.8-25,16-56,16s-56-7.2-56-16v-32C376,448.8,401,456,432,456z"></path> 
 <path class="st4-1121780719" d="M488,440c0,8.8-25,16-56,16s-56-7.2-56-16v-32c0,8.8,25,16,56,16s56-7.2,56-16V440z"></path> 
 <path class="st3-1121780719" d="M488,408c0,8.8-25,16-56,16s-56-7.2-56-16v-32c0,8.8,25,16,56,16s56-7.2,56-16V408z"></path> 
 <ellipse class="st4-1121780719" cx="432" cy="376" rx="56" ry="16"></ellipse> 
 <path class="st5-1121780719" d="M296,232l-8,24h-64l-8-24H296z"></path> 
 <path class="st6-1121780719" d="M288,192H176c-26.5,0-48-21.5-48-48s21.5-48,48-48c3.3,0,6.6,0.3,9.8,1c8.2-34.3,42.7-55.5,77-47.3
		c25.5,6.1,44.7,27.2,48.4,53.1c22.7-13.7,52.2-6.4,65.9,16.4s6.4,52.2-16.4,65.9c-7.5,4.5-16.1,6.9-24.8,6.9H288z"></path> 
 <path class="st7-1121780719" d="M247.1,160.1L224,120l-23.1,40.1H216V216h16v-55.9H247.1z"></path> 
 <path class="st7-1121780719" d="M296,120h-16v55.9h-15.1L288,216l23.1-40.1H296V120z"></path> 
 <path class="st8-1121780719" d="M432,72h16V48c0-4.4-3.6-8-8-8h-24v16h16V72z"></path> 
 <path class="st8-1121780719" d="M64,48v24h16V56h16V40H72C67.6,40,64,43.6,64,48z"></path> 
</g> 
</svg>