<svg version="1.1" id="1016827741" xmlns="http://www.w3.org/2000/svg" xmlns:xlink="http://www.w3.org/1999/xlink" x="0px" y="0px" viewBox="0 0 548 390.3" style="enable-background:new 0 0 548 390.3;" xml:space="preserve" class="svg u_1016827741" data-icon-custom="true" data-icon-name="onsite it services 2.svg"> <style type="text/css">.st0-1016827741{fill:none;stroke:#D0D8DC;stroke-width:2;stroke-miterlimit:10;}
	.st1-1016827741{fill:#D0D8DC;}
	.st2-1016827741{fill:#90A4AE;}
	.st3-1016827741{fill:#E4F2FB;}
	.st4-1016827741{fill:#B0BEC5;}
	.st5-1016827741{fill:#95C8EC;}
	.st6-1016827741{fill:#70B2E2;}
	.st7-1016827741{fill:#81C784;}
	.st8-1016827741{fill:#FFFFFF;}
	.st9-1016827741{fill:#58A6DA;}
	.st10-1016827741{fill:#3D82C4;}
	.st11-1016827741{fill:#BDDDF4;}
	.st12-1016827741{fill:#F7C9A4;}
	.st13-1016827741{fill:#FFD9B6;}
	.st14-1016827741{fill:#493030;}
	.st15-1016827741{fill:#546E7A;}
	.st16-1016827741{fill:#3F535C;}
	.st17-1016827741{fill:#EFC75E;}
	.st18-1016827741{fill:#F5F5F5;}</style> 
 <g> <polyline class="st0-1016827741" points="349.1,355.4 520.7,355.4 520.7,235.5 	"></polyline> 
 <path id="_Path_4" class="st1-1016827741" d="M382.5,351h-6.8v-1.6c0-2.6-2.1-4.7-4.7-4.7h-43c-2.6,0-4.7,2.1-4.7,4.7v1.6h-6.8v8.5h6.8v1.6
		c0,2.6,2.1,4.7,4.7,4.7h43c2.6,0,4.7-2.1,4.7-4.7v-1.6h6.8V351z"></path> 
 <path id="_Path_5" class="st1-1016827741" d="M524.7,269v-6.8h1.7c2.6,0,4.7-2.1,4.7-4.7v-43c0-2.6-2.1-4.7-4.7-4.7h-1.7V203h-8.4v6.8h-1.6
		c-2.6,0-4.7,2.1-4.7,4.7v43c0,2.6,2.1,4.7,4.7,4.7h1.6v6.8H524.7z"></path> 
</g> 
 <g> <path class="st2-1016827741" d="M80.1,132.1H9.7c-5.1,0-9.1,4.1-9.2,9.2v133.9c0,5.1,4.1,9.1,9.2,9.2h70.4c5.1,0,9.1-4.1,9.2-9.2V141.3
		C89.3,136.3,85.3,132.2,80.1,132.1C80.1,132.1,80.1,132.1,80.1,132.1z"></path> 
 <path class="st2-1016827741" d="M179.9,132.1h-70.4c-5.1,0-9.1,4.1-9.2,9.2v133.9c0,5.1,4.1,9.1,9.2,9.2h70.4c5.1,0,9.1-4.1,9.2-9.2V141.3
		c0-5-4-9.1-9.1-9.2H179.9z"></path> 
 <path class="st2-1016827741" d="M279.7,132.1h-70.4c-5.1,0-9.1,4.1-9.2,9.2v133.9c0,5.1,4.1,9.1,9.2,9.2h70.4c5.1,0,9.1-4.1,9.2-9.2V141.3
		c0-5-4-9.1-9.1-9.2C279.8,132.1,279.7,132.1,279.7,132.1z"></path> 
 <rect x="15.4" y="146.9" class="st3-1016827741" width="58.8" height="122.8"></rect> 
 <rect x="115.2" y="146.9" class="st3-1016827741" width="58.8" height="122.8"></rect> 
 <rect x="215" y="146.9" class="st3-1016827741" width="58.8" height="122.8"></rect> 
 <path class="st4-1016827741" d="M69.2,231.5H20.4v32.3h48.8V231.5z M64.5,258.8H25v-22.3h39.4v22.3H64.5z"></path> 
 <rect x="55.1" y="240.3" class="st5-1016827741" width="4.7" height="14.7"></rect> 
 <rect x="47.4" y="240.3" class="st6-1016827741" width="5" height="14.7"></rect> 
 <path class="st7-1016827741" d="M34.9,255.3c4.4-0.4,7.6-4.4,7.2-8.8c-0.4-3.8-3.4-6.8-7.2-7.2c-4.3-0.1-7.9,3.3-8,7.7c0,0.1,0,0.2,0,0.3
		C27,251.8,30.5,255.3,34.9,255.3z M34.9,244.4c1.6,0,2.9,1.3,2.9,2.9s-1.3,2.9-2.9,2.9l0,0c-1.6,0-2.9-1.3-2.9-2.9
		C31.9,245.8,33.2,244.4,34.9,244.4L34.9,244.4z"></path> 
 <path class="st4-1016827741" d="M69.2,192.4H20.4v32.2h48.8V192.4z M64.5,219.5H25V197h39.4v22.5H64.5z"></path> 
 <rect x="55.1" y="200.8" class="st5-1016827741" width="4.7" height="14.7"></rect> 
 <rect x="47.4" y="200.8" class="st6-1016827741" width="5" height="14.7"></rect> 
 <path class="st7-1016827741" d="M34.9,216.1c4.4,0,8-3.5,8-7.9v-0.1c-0.4-4.4-4.4-7.6-8.8-7.2c-3.8,0.4-6.8,3.4-7.2,7.2
		C27,212.4,30.5,216,34.9,216.1z M34.9,205.2c1.6,0,2.9,1.3,2.9,2.9c0,1.6-1.3,2.9-2.9,2.9s-2.9-1.3-2.9-2.9
		C32,206.5,33.3,205.2,34.9,205.2L34.9,205.2z"></path> 
 <path class="st4-1016827741" d="M69.2,152.9H20.4v32.2h48.8V152.9z M64.5,180.1H25v-22.5h39.4v22.5H64.5z"></path> 
 <rect x="55.1" y="161.4" class="st5-1016827741" width="4.7" height="14.7"></rect> 
 <rect x="47.4" y="161.4" class="st6-1016827741" width="5" height="14.7"></rect> 
 <path class="st7-1016827741" d="M34.9,176.6c4.4-0.4,7.6-4.4,7.2-8.8c-0.4-3.8-3.4-6.8-7.2-7.2c-4.3-0.1-7.9,3.3-8,7.7c0,0.1,0,0.2,0,0.3
		C27,173.1,30.5,176.6,34.9,176.6z M34.9,165.7c1.6,0,2.9,1.3,2.9,2.9c0,1.6-1.3,2.9-2.9,2.9c-1.6,0-2.9-1.3-2.9-2.9
		c-0.1-1.6,1.1-2.9,2.6-3C34.7,165.7,34.8,165.7,34.9,165.7L34.9,165.7z"></path> 
 <path class="st4-1016827741" d="M169,231.5h-48.8v32.3H169V231.5z M164.3,258.8h-39.5v-22.3h39.5V258.8z"></path> 
 <rect x="155" y="240.3" class="st5-1016827741" width="4.7" height="14.7"></rect> 
 <rect x="147.2" y="240.3" class="st6-1016827741" width="5" height="14.7"></rect> 
 <path class="st7-1016827741" d="M134.7,255.3c4.4,0,8-3.6,8-8s-3.6-8-8-8s-8,3.6-8,8S130.3,255.3,134.7,255.3z M134.7,244.4
		c1.6,0,2.9,1.3,2.9,2.9s-1.3,2.9-2.9,2.9l0,0c-1.6,0-2.9-1.3-2.9-2.9C131.8,245.8,133.1,244.4,134.7,244.4L134.7,244.4z"></path> 
 <path class="st4-1016827741" d="M169,192.4h-48.8v32.2H169V192.4z M164.3,219.5h-39.5V197h39.5V219.5z"></path> 
 <rect x="155" y="200.8" class="st5-1016827741" width="4.7" height="14.7"></rect> 
 <rect x="147.2" y="200.8" class="st6-1016827741" width="5" height="14.7"></rect> 
 <path class="st7-1016827741" d="M134.7,216.1c4.4,0,8-3.5,8-7.9v-0.1c0.1-4.3-3.3-7.9-7.7-8c-0.1,0-0.2,0-0.3,0c-4.4,0-8,3.5-8,7.9v0.1
		C126.7,212.5,130.3,216.1,134.7,216.1z M134.7,205.2c1.6,0,2.9,1.3,2.9,2.9c0,1.6-1.3,2.9-2.9,2.9s-2.9-1.3-2.9-2.9
		C131.8,206.5,133.1,205.2,134.7,205.2L134.7,205.2z"></path> 
 <path class="st4-1016827741" d="M169,152.9h-48.8v32.2H169V152.9z M164.3,180.1h-39.5v-22.5h39.5V180.1z"></path> 
 <rect x="155" y="161.4" class="st5-1016827741" width="4.7" height="14.7"></rect> 
 <rect x="147.2" y="161.4" class="st6-1016827741" width="5" height="14.7"></rect> 
 <path class="st7-1016827741" d="M134.7,176.6c4.4,0,8-3.6,8-8c0-4.4-3.6-8-8-8s-8,3.6-8,8C126.7,173,130.3,176.6,134.7,176.6z M134.7,165.7
		c1.6,0,3,1.3,3,2.9c0,1.6-1.3,3-2.9,3s-3-1.3-3-2.9l0,0c-0.1-1.6,1.1-2.9,2.6-3C134.6,165.7,134.6,165.7,134.7,165.7L134.7,165.7z"></path> 
 <path class="st4-1016827741" d="M268.8,231.5H220v32.3h48.8V231.5z M264.2,258.8h-39.5v-22.3h39.5V258.8z"></path> 
 <rect x="254.8" y="240.3" class="st5-1016827741" width="4.7" height="14.7"></rect> 
 <rect x="247" y="240.3" class="st6-1016827741" width="5" height="14.7"></rect> 
 <path class="st7-1016827741" d="M234.6,255.3c4.4,0,8-3.6,8-8s-3.6-8-8-8s-8,3.6-8,8S230.1,255.3,234.6,255.3z M234.6,244.4
		c1.6,0,2.9,1.3,2.9,2.9s-1.3,2.9-2.9,2.9l0,0c-1.6,0-2.9-1.3-2.9-2.9C231.6,245.8,232.9,244.4,234.6,244.4
		C234.5,244.4,234.5,244.4,234.6,244.4z"></path> 
 <path class="st4-1016827741" d="M268.8,192.4H220v32.2h48.8V192.4z M264.2,219.5h-39.5V197h39.5V219.5z"></path> 
 <rect x="254.8" y="200.8" class="st5-1016827741" width="4.7" height="14.7"></rect> 
 <rect x="247" y="200.8" class="st6-1016827741" width="5" height="14.7"></rect> 
 <path class="st7-1016827741" d="M234.6,216.1c4.4,0,8-3.5,8-7.9v-0.1c0.1-4.3-3.3-7.9-7.7-8c-0.1,0-0.2,0-0.3,0c-4.4,0-8,3.5-8,7.9v0.1
		C226.6,212.5,230.1,216.1,234.6,216.1z M234.6,205.2c1.6,0,2.9,1.3,2.9,2.9c0,1.6-1.3,2.9-2.9,2.9s-2.9-1.3-2.9-2.9
		C231.6,206.5,232.9,205.2,234.6,205.2C234.5,205.2,234.5,205.2,234.6,205.2z"></path> 
 <path class="st4-1016827741" d="M268.8,152.9H220v32.2h48.8V152.9z M264.2,180.1h-39.5v-22.5h39.5V180.1z"></path> 
 <rect x="254.8" y="161.4" class="st5-1016827741" width="4.7" height="14.7"></rect> 
 <rect x="247" y="161.4" class="st6-1016827741" width="5" height="14.7"></rect> 
 <path class="st7-1016827741" d="M234.6,176.6c4.4,0,8-3.6,8-8c0-4.4-3.6-8-8-8s-8,3.6-8,8C226.6,173,230.1,176.6,234.6,176.6z M234.6,165.7
		c1.6,0,2.9,1.3,2.9,2.9c0,1.6-1.3,2.9-2.9,2.9s-2.9-1.3-2.9-2.9c-0.1-1.6,1.1-2.9,2.7-3C234.4,165.7,234.5,165.7,234.6,165.7
		L234.6,165.7z"></path> 
</g> 
 <g> <polyline class="st0-1016827741" points="277.5,20.8 15.1,20.8 15.1,169.2 	"></polyline> 
 <path id="_Path_" class="st1-1016827741" d="M244.1,25h6.8v1.6c0,2.6,2.1,4.7,4.7,4.7h43c2.6,0,4.7-2.1,4.7-4.7V25h6.8v-8.5h-6.8v-1.6
		c0-2.6-2.1-4.7-4.7-4.7l0,0h-43c-2.6,0-4.7,2.1-4.7,4.7v1.6h-6.8V25z"></path> 
 <path id="_Path_2" class="st1-1016827741" d="M10.9,156v6.8H9.3c-2.6,0-4.7,2.1-4.7,4.7v43c0,2.6,2.1,4.7,4.7,4.7h1.6v6.8h8.5v-6.8h1.7
		c2.6,0,4.7-2.1,4.7-4.7v-43c0-2.6-2.1-4.7-4.7-4.7h-1.7V156H10.9z"></path> 
 <path id="_Path_3" class="st1-1016827741" d="M108.2,156v6.8h-1.6c-2.6,0-4.7,2.1-4.7,4.7v43c0,2.6,2.1,4.7,4.7,4.7h1.6v6.8h8.5v-6.8h1.6
		c2.6,0,4.7-2.1,4.7-4.7v-43c0-2.6-2.1-4.7-4.7-4.7h-1.6V156H108.2z"></path> 
 <polyline class="st0-1016827741" points="112.3,166 112.3,96.7 15.1,96.7 	"></polyline> 
 <circle class="st7-1016827741" cx="63.7" cy="96.7" r="22.9"></circle> 
 <path class="st8-1016827741" d="M79.2,89l-2.5-2.5C76.4,86.2,76,86,75.5,86l0,0c-0.5,0-0.9,0.2-1.2,0.5L60,100.8l-6.5-6.5
		c-0.3-0.3-0.7-0.5-1.2-0.5l0,0c-0.5,0-0.9,0.2-1.2,0.5l-2.5,2.5c-0.7,0.7-0.7,1.7,0,2.4l0,0l10.2,10.2c0.7,0.7,1.7,0.7,2.4,0l0,0
		L79,91.6l0.2-0.2C79.9,90.7,79.9,89.6,79.2,89z"></path> 
</g> 
 <g> <path class="st3-1016827741" d="M419.6,345.2v41.5c0,2.6-2.1,4.8-4.8,4.8l0,0H172.4c-2.6,0-4.8-2.1-4.8-4.8l0,0v-41.5
		c0-21.7,14.8-40.6,35.8-45.8l65.2-16.2h49.9l65.2,16.2C404.8,304.7,419.6,323.5,419.6,345.2z"></path> 
 <polygon class="st9-1016827741" points="310.2,391.5 277.1,391.5 284.2,340.7 285.5,331 301.8,331 303.1,340.7 	"></polygon> 
 <polygon class="st10-1016827741" points="303.1,340.7 284.2,340.7 285.5,331 301.8,331 	"></polygon> 
 <path class="st11-1016827741" d="M200.2,300.4c-12.1,11-19.7,29.3-19.7,44.9v46.3h-8.1c-2.6,0-4.8-2.1-4.8-4.8l0,0v-41.5
		C167.7,324.8,180.8,306.7,200.2,300.4z"></path> 
 <path class="st11-1016827741" d="M387.1,300.4c12.1,11,19.7,29.3,19.7,44.9v46.3h8.1c2.6,0,4.8-2.1,4.8-4.8l0,0v-41.5
		C419.6,324.8,406.5,306.7,387.1,300.4z"></path> 
 <path class="st9-1016827741" d="M281.7,332.6l-7.2-12.6c-1-1.7-1-3.8,0-5.5l7.3-12.5c1-1.7,2.8-2.7,4.7-2.7H301c2,0,3.8,1,4.7,2.7l7.3,12.5
		c1,1.7,1,3.8,0,5.5l-7.3,12.5c-1,1.7-2.8,2.7-4.7,2.7h-14.5C284.5,335.3,282.6,334.3,281.7,332.6z"></path> 
 <rect x="267.4" y="242.7" class="st12-1016827741" width="52.5" height="48.6"></rect> 
 <path class="st13-1016827741" d="M375.7,195.7c0,9.2-6.3,17.2-15.2,19.3c-1.5,0.4-3,0.5-4.5,0.5c-10.9,0-19.8-8.9-19.8-19.8
		c0-10.9,8.9-19.8,19.8-19.8C366.8,175.9,375.7,184.7,375.7,195.7L375.7,195.7z"></path> 
 <path class="st12-1016827741" d="M360.6,176.4v33.7c0,1.6-0.1,3.2-0.2,4.8c-1.5,0.4-3,0.5-4.5,0.5c-10.9,0.1-19.9-8.7-19.9-19.7
		c-0.1-10.9,8.7-19.9,19.7-19.9C357.3,175.8,359,176.1,360.6,176.4L360.6,176.4z"></path> 
 <path class="st13-1016827741" d="M251.2,195.7c0,10.9-8.9,19.8-19.8,19.8c-1.5,0-3.1-0.2-4.6-0.5c-10.6-2.5-17.2-13.2-14.7-23.8
		c1.7-7.2,7.3-12.9,14.5-14.7c1.5-0.4,3.1-0.6,4.7-0.6C242.3,175.8,251.2,184.7,251.2,195.7C251.2,195.6,251.2,195.6,251.2,195.7z"></path> 
 <path class="st12-1016827741" d="M251.2,195.7c0,10.9-8.9,19.8-19.8,19.8c-1.5,0-3.1-0.2-4.6-0.5c-0.1-1.6-0.2-3.2-0.2-4.8v-33.7
		c1.5-0.4,3.1-0.6,4.7-0.6C242.3,175.8,251.2,184.7,251.2,195.7C251.2,195.6,251.2,195.6,251.2,195.7z"></path> 
 <path class="st13-1016827741" d="M348.5,139.1v69.4c0,30.3-24.6,54.8-54.9,54.8s-54.8-24.5-54.8-54.8v-69.4H348.5z"></path> 
 <path class="st14-1016827741" d="M268.3,203.8c-2.4,0-4.3-1.9-4.3-4.3v-4.7c0.1-2.4,2.1-4.2,4.5-4.1c2.2,0.1,4,1.9,4.1,4.1v4.7
		C272.6,201.8,270.7,203.8,268.3,203.8z"></path> 
 <path class="st14-1016827741" d="M319,203.8c-2.4,0-4.3-1.9-4.3-4.3v-4.7c0.1-2.4,2.1-4.2,4.5-4.1c2.2,0.1,4,1.9,4.1,4.1v4.7
		C323.3,201.8,321.4,203.8,319,203.8z"></path> 
 <path class="st12-1016827741" d="M348.5,139.1v48.2l-18.4-3.1c-3.1-0.5-5.4-3.2-5.4-6.4v-7.2c0-1.2-0.9-2.3-2.1-2.4
		c-18.7-2.3-37.6-3.7-56.4-4.1c-1.4,0-2.5,1.1-2.5,2.4c0,0,0,0,0,0.1v11.2c0,3.2-2.3,5.9-5.5,6.4l-19.3,3v-48.1H348.5z"></path> 
 <path class="st15-1016827741" d="M361.9,116c-0.8,17.3-4.1,34.5-9.8,50.8c-1.1,3-2.2,6-3.5,9l-8.6-1.4c-0.8-0.1-1.6-0.5-2.3-1.1
		c-1.1-0.9-1.7-2.2-1.7-3.6v-6.9c0-2.3-1.7-4.3-4-4.7c-9.7-1.5-36.5-5.1-74.8-5.4c-2.6,0-4.8,2.1-4.8,4.7l0,0v12.2
		c0,2.3-1.7,4.3-4,4.7l-9.5,1.5c0,0-16.7-56.5,12.4-66.8c0,0,3.7-13.6,18.5-13.6h87.5c1.2,0,2.4,0.5,3.3,1.3c2,1.9,1.5,5.4,1.5,7.9
		C362.2,108.5,362.1,112.3,361.9,116C361.8,116.6,362.2,109.2,361.9,116z"></path> 
 <path class="st16-1016827741" d="M361.9,116c-0.8,17.3-4.1,34.5-9.8,50.8c-1.1,3-2.2,6-3.5,9l-8.6-1.4c-0.8-0.1-1.6-0.5-2.3-1.1
		c15.7-38.4,12.2-77.9,12.2-77.9h7.4c1.2,0,2.4,0.5,3.3,1.3c2,1.9,1.5,5.4,1.5,7.9C362.1,108.5,362,112.2,361.9,116
		C361.8,116.6,362.2,109.2,361.9,116z"></path> 
 <path class="st11-1016827741" d="M212.3,366.8v24.7h-8.9v-24.7c0.1-2.5,2.2-4.4,4.7-4.3C210.4,362.6,212.2,364.5,212.3,366.8L212.3,366.8z"></path> 
 <path class="st11-1016827741" d="M383.9,366.8v24.7H375v-24.7c0.1-2.5,2.2-4.4,4.7-4.3C381.9,362.6,383.8,364.5,383.9,366.8z"></path> 
 <path class="st11-1016827741" d="M260.7,271.4l32.9,19.8l-12.2,25.1c-1.2,2.4-4,3.3-6.4,2.2c-0.5-0.2-0.9-0.6-1.3-1l-24.3-25
		c-1.3-1.3-1.7-3.3-1-5.1l5.4-13.7c1-2.4,3.7-3.6,6.2-2.7C260.3,271.2,260.5,271.3,260.7,271.4z"></path> 
 <path class="st11-1016827741" d="M326.6,271.4l-32.9,19.8l12.3,25.1c1.2,2.4,4,3.3,6.4,2.2c0.5-0.2,0.9-0.6,1.3-1l24.3-25
		c1.3-1.3,1.7-3.3,1-5.1l-5.5-13.8c-1-2.4-3.8-3.6-6.2-2.6C327,271.2,326.8,271.3,326.6,271.4z"></path> 
 <path class="st15-1016827741" d="M355.8,342.1l-17.9,8.1l14.5,32l7.8-6.6l10.1-1.5L355.8,342.1z"></path> 
 <path class="st2-1016827741" d="M342.5,342.4l17.9,8.1l-14.5,32l-7.8-6.6l-10.1-1.4L342.5,342.4L342.5,342.4z"></path> 
 <path class="st17-1016827741" d="M372.4,346.3c0,1.7-2.5,3.2-2.8,4.8s1.3,4,0.6,5.6s-3.6,1.7-4.6,3s-0.6,4.2-1.9,5.3s-3.9,0-5.4,0.7
		s-2.3,3.5-3.9,3.9s-3.5-1.8-5.1-1.8s-3.6,2.1-5.2,1.8s-2.4-3.2-3.9-3.9s-4.1,0.4-5.4-0.7s-0.8-4-1.9-5.3s-3.9-1.5-4.6-3
		s0.9-3.9,0.6-5.6s-2.9-3.1-2.9-4.8s2.5-3.2,2.8-4.8s-1.3-4-0.6-5.6s3.6-1.7,4.6-3s0.6-4.2,1.9-5.3s3.9,0,5.4-0.7s2.3-3.5,3.9-3.9
		s3.5,1.8,5.1,1.8s3.6-2.1,5.2-1.8s2.4,3.2,3.9,3.9s4.1-0.4,5.4,0.7s0.8,4,1.9,5.3s3.9,1.5,4.6,3s-0.9,3.9-0.6,5.6
		S372.4,344.6,372.4,346.3z"></path> 
 <path class="st18-1016827741" d="M349.2,337c-5.1,0-9.3,4.2-9.3,9.3c0,5.1,4.2,9.3,9.3,9.3c5.1,0,9.3-4.2,9.3-9.3
		C358.5,341.2,354.3,337,349.2,337L349.2,337z M349.2,350.5c-2.3,0-4.2-1.9-4.2-4.2c0-2.3,1.9-4.2,4.2-4.2c2.3,0,4.2,1.9,4.2,4.2
		l0,0C353.4,348.6,351.5,350.5,349.2,350.5L349.2,350.5z M349.2,329.6c-9.2,0-16.7,7.5-16.7,16.7S340,363,349.2,363
		s16.7-7.5,16.7-16.7C365.9,337.1,358.4,329.6,349.2,329.6L349.2,329.6z M349.2,360.2c-7.7,0-13.9-6.2-13.9-13.9
		c0-7.7,6.2-13.9,13.9-13.9c7.7,0,13.9,6.2,13.9,13.9l0,0C363.1,354,356.9,360.2,349.2,360.2L349.2,360.2z"></path> 
 <g id="_Group_"> <path id="_Path__1_" class="st8-1016827741" d="M459.6,50.8c-47.1,0-85.6,28.4-85.6,63.2c0,27.3,23,50.3,55.3,59.3l-9.7,35.6l28.8-32
			c3.6,0.4,7.5,0.7,11.1,0.7c47.1,0,85.2-28.4,85.2-63.3C544.8,79.2,506.7,50.8,459.6,50.8z"></path> 
 <path id="_Compound_Path_" class="st4-1016827741" d="M459.6,174.4c23,0,43.5-6.8,58.6-18c14.7-10.8,23.7-25.9,23.7-42.4s-9-31.6-23.7-42.4
			c-15.1-11.1-35.6-18-58.6-18v-5.7c24.1,0,46,7.2,62.2,19S548,95.7,548,114s-10.1,35.2-26.2,47.1c-15.8,11.9-37.7,19.1-62.2,19.1
			V174.4L459.6,174.4z M459.6,53.7c-23,0-43.5,6.8-58.6,18c-14.7,10.8-23.7,25.8-23.7,42.4c0,12.6,5.4,24.4,14.4,34.2
			c9.4,10.1,23,18,38.8,22.6c1.5,0.5,2.4,2,2.2,3.6l0,0l-6.5,23.4l20.5-22.6c0.7-0.7,1.6-1,2.5-1.1c1.8,0,3.6,0.4,5.4,0.4h5.4v5.8
			h-5.8c-1.4,0.1-2.9-0.1-4.3-0.4l-28.4,30.9l0,0c-0.7,0.8-1.9,1.1-2.9,0.7c-1.5-0.5-2.4-2-2.2-3.6l9-32.7
			c-15.8-5-29.1-12.9-38.8-23.4c-10.1-10.8-15.8-23.7-15.8-38.1c0-18.3,10.1-35.2,26.2-47.1c15.8-11.9,37.7-19.1,62.2-19.1l0,0v6.1
			L459.6,53.7z"></path> 
</g> 
</g> 
 <g> <circle class="st7-1016827741" cx="459.4" cy="114" r="40.6"></circle> 
 <path class="st8-1016827741" d="M486.9,100.2l-4.4-4.4c-0.6-0.6-1.3-0.9-2.1-0.9l0,0c-0.8,0-1.6,0.3-2.1,0.9L453,121.1l-11.5-11.6
		c-0.6-0.6-1.3-0.9-2.1-0.9l0,0c-0.8,0-1.6,0.3-2.1,0.9l-4.4,4.4c-1.2,1.2-1.2,3.1,0,4.3l0,0l18.1,18.1c1.2,1.2,3.1,1.2,4.3,0l0,0
		l31.4-31.4l0.4-0.4C488.1,103.3,488.1,101.4,486.9,100.2z"></path> 
</g> 
</svg>