<svg id="svg" version="1.1" xmlns="http://www.w3.org/2000/svg" xmlns:xlink="http://www.w3.org/1999/xlink" width="400" height="248.125" viewBox="0, 0, 400,248.125"><g id="svgg"><path id="path0" d="M297.292 22.500 L 297.292 28.958 303.854 28.958 L 310.417 28.958 310.417 22.500 L 310.417 16.042 303.854 16.042 L 297.292 16.042 297.292 22.500 M313.542 27.708 L 313.542 31.250 317.396 31.250 L 321.250 31.250 321.250 27.708 L 321.250 24.167 317.396 24.167 L 313.542 24.167 313.542 27.708 M176.146 38.641 C 176.031 38.678,174.813 38.815,173.438 38.945 C 167.713 39.488,160.105 40.797,154.531 42.199 C 153.872 42.364,152.771 42.641,152.083 42.813 C 149.643 43.423,148.217 43.801,147.292 44.085 C 146.776 44.242,145.370 44.663,144.167 45.020 C 141.679 45.758,138.356 46.860,136.667 47.508 C 136.036 47.750,135.286 48.028,135.000 48.125 C 134.714 48.222,133.964 48.504,133.333 48.750 C 132.703 48.996,131.953 49.275,131.667 49.368 C 131.177 49.529,127.277 51.182,125.208 52.107 C 124.693 52.337,123.990 52.652,123.646 52.806 C 122.167 53.467,113.119 57.991,111.979 58.639 C 111.292 59.029,110.401 59.522,110.000 59.735 C 108.343 60.612,106.751 61.528,106.458 61.773 C 106.286 61.917,105.935 62.098,105.677 62.177 C 105.419 62.255,105.208 62.407,105.208 62.514 C 105.208 62.621,105.122 62.708,105.016 62.708 C 104.854 62.708,102.482 64.093,100.735 65.208 C 100.465 65.380,99.793 65.795,99.240 66.131 C 98.688 66.467,98.140 66.819,98.024 66.913 C 97.908 67.008,97.203 67.480,96.458 67.963 C 95.714 68.446,95.073 68.914,95.035 69.004 C 94.997 69.093,94.876 69.167,94.766 69.167 C 94.532 69.167,93.261 70.032,93.160 70.260 C 93.122 70.346,92.965 70.417,92.813 70.417 C 92.660 70.417,92.503 70.487,92.465 70.573 C 92.386 70.752,91.115 71.667,90.946 71.667 C 90.884 71.667,90.669 71.814,90.469 71.993 C 90.268 72.173,89.307 72.870,88.333 73.542 C 87.359 74.213,86.401 74.907,86.204 75.084 C 86.007 75.260,85.328 75.748,84.694 76.169 C 84.060 76.590,83.542 77.014,83.542 77.113 C 83.542 77.211,83.401 77.292,83.229 77.292 C 83.057 77.292,82.917 77.365,82.917 77.455 C 82.917 77.545,82.659 77.772,82.344 77.960 C 82.029 78.148,81.583 78.477,81.354 78.691 C 81.125 78.905,80.422 79.462,79.792 79.927 C 79.161 80.393,78.264 81.092,77.797 81.481 C 77.330 81.869,76.541 82.516,76.044 82.917 C 75.547 83.318,75.038 83.744,74.914 83.864 C 74.789 83.984,74.172 84.488,73.542 84.983 C 72.551 85.761,70.441 87.557,69.713 88.241 C 69.585 88.362,68.542 89.291,67.396 90.306 C 64.282 93.063,56.183 101.265,53.642 104.233 C 53.071 104.900,52.336 105.744,52.008 106.108 C 51.680 106.473,50.887 107.427,50.245 108.229 C 49.603 109.031,48.967 109.802,48.831 109.941 C 48.695 110.081,48.135 110.808,47.585 111.556 C 47.036 112.304,46.511 112.917,46.418 112.917 C 46.326 112.917,46.250 113.057,46.250 113.229 C 46.250 113.401,46.176 113.542,46.087 113.542 C 45.997 113.542,45.749 113.836,45.537 114.195 C 45.325 114.555,44.985 115.015,44.783 115.217 C 43.804 116.196,44.765 116.726,46.065 115.923 C 47.474 115.052,56.299 113.750,60.790 113.750 L 64.108 113.750 65.335 112.348 C 66.010 111.577,66.867 110.636,67.240 110.258 C 67.612 109.879,67.917 109.523,67.917 109.467 C 67.917 109.159,76.281 101.044,79.069 98.647 C 79.867 97.960,80.727 97.187,80.980 96.928 C 81.232 96.670,81.537 96.458,81.657 96.458 C 81.777 96.458,81.875 96.381,81.875 96.286 C 81.875 96.191,82.438 95.706,83.125 95.208 C 83.813 94.710,84.375 94.225,84.375 94.131 C 84.375 94.036,84.516 93.958,84.688 93.958 C 84.859 93.958,85.000 93.884,85.000 93.793 C 85.000 93.542,87.938 91.428,93.021 88.024 C 95.542 86.335,97.651 84.889,97.708 84.810 C 97.766 84.730,98.188 84.441,98.646 84.167 C 99.104 83.892,99.526 83.616,99.583 83.553 C 99.845 83.263,101.047 82.500,101.242 82.500 C 101.361 82.500,101.458 82.421,101.458 82.325 C 101.458 82.229,101.669 82.040,101.927 81.906 C 102.185 81.772,102.647 81.499,102.954 81.300 C 103.851 80.718,106.446 79.081,106.833 78.854 C 107.028 78.740,107.750 78.324,108.438 77.930 C 109.125 77.537,109.734 77.162,109.792 77.097 C 109.849 77.032,110.224 76.795,110.625 76.571 C 111.026 76.346,111.729 75.949,112.188 75.689 C 112.646 75.428,113.253 75.114,113.537 74.990 C 113.822 74.867,114.103 74.701,114.162 74.622 C 114.281 74.466,116.083 73.527,121.042 71.037 C 124.514 69.293,126.497 68.366,129.583 67.043 C 130.099 66.822,130.802 66.516,131.146 66.364 C 131.490 66.212,132.286 65.884,132.917 65.637 C 133.547 65.389,134.250 65.104,134.479 65.003 C 134.708 64.902,135.740 64.526,136.771 64.168 C 138.790 63.466,139.917 63.043,140.997 62.583 C 141.373 62.423,141.815 62.292,141.979 62.292 C 142.143 62.292,142.585 62.162,142.962 62.004 C 143.338 61.847,144.208 61.554,144.896 61.355 C 145.583 61.155,146.568 60.865,147.083 60.710 C 151.464 59.394,158.430 57.695,162.292 57.001 C 178.382 54.106,191.448 54.593,204.271 58.564 C 207.732 59.635,212.371 61.534,214.375 62.699 C 220.003 65.970,223.855 69.155,226.713 72.898 C 227.289 73.653,227.843 74.302,227.943 74.340 C 228.043 74.378,228.125 74.491,228.125 74.590 C 228.125 74.690,228.394 75.174,228.722 75.667 C 229.861 77.376,230.411 78.406,232.101 81.993 C 232.320 82.459,232.500 82.979,232.500 83.149 C 232.500 83.319,232.583 83.547,232.685 83.656 C 232.873 83.857,233.355 85.406,233.882 87.500 C 235.400 93.535,235.202 105.020,233.499 109.688 C 232.952 111.186,233.032 112.233,233.721 112.589 C 235.198 113.353,236.177 112.882,236.722 111.146 C 237.432 108.882,237.887 107.377,237.980 106.979 C 238.033 106.750,238.285 105.813,238.540 104.896 C 240.751 96.933,241.652 85.787,240.644 78.854 C 240.160 75.525,239.740 73.210,239.456 72.307 C 239.297 71.799,239.167 71.233,239.167 71.048 C 239.167 69.750,237.161 64.803,235.801 62.750 C 235.475 62.257,235.208 61.808,235.208 61.752 C 235.208 61.695,235.114 61.536,235.000 61.397 C 234.885 61.259,234.121 60.255,233.303 59.167 C 232.485 58.078,231.594 56.981,231.324 56.729 C 231.054 56.476,230.833 56.216,230.833 56.149 C 230.833 55.210,220.732 46.875,219.594 46.875 C 219.474 46.875,219.375 46.790,219.375 46.687 C 219.375 46.584,219.117 46.395,218.802 46.267 C 218.487 46.139,217.760 45.791,217.188 45.492 C 216.615 45.194,215.818 44.806,215.417 44.631 C 215.016 44.457,214.512 44.226,214.298 44.118 C 213.774 43.856,210.678 42.719,209.896 42.502 C 209.552 42.406,208.990 42.234,208.646 42.119 C 204.139 40.608,199.383 39.606,193.218 38.867 C 190.802 38.578,176.916 38.394,176.146 38.641 M313.542 44.167 L 313.542 47.917 317.396 47.917 L 321.250 47.917 321.250 44.167 L 321.250 40.417 317.396 40.417 L 313.542 40.417 313.542 44.167 M269.583 69.375 L 269.583 77.917 278.229 77.917 L 286.875 77.917 286.875 69.375 L 286.875 60.833 278.229 60.833 L 269.583 60.833 269.583 69.375 M170.329 119.498 C 168.885 119.959,168.071 120.652,167.318 122.065 L 166.667 123.287 166.667 152.165 L 166.667 181.042 171.771 181.042 L 176.875 181.042 176.875 159.063 C 176.875 146.974,176.926 137.083,176.988 137.083 C 177.051 137.083,178.373 138.372,179.926 139.948 C 206.966 167.368,220.172 180.465,221.371 181.049 C 223.990 182.326,226.925 181.677,228.472 179.479 C 229.626 177.840,229.583 179.032,229.583 148.087 L 229.583 119.583 224.375 119.583 L 219.167 119.583 219.167 141.571 L 219.167 163.558 211.854 156.310 C 207.832 152.324,200.023 144.563,194.501 139.063 C 177.608 122.237,175.633 120.337,174.493 119.811 C 173.163 119.198,171.633 119.082,170.329 119.498 M53.125 120.316 C 50.093 120.677,46.293 121.731,44.378 122.742 C 43.979 122.953,43.583 123.125,43.499 123.125 C 42.693 123.125,38.172 126.383,36.132 128.433 C 29.033 135.570,26.132 147.618,28.931 158.333 C 29.888 161.996,32.543 167.946,33.377 168.299 C 33.468 168.337,33.542 168.464,33.542 168.581 C 33.542 169.294,37.925 173.796,40.208 175.428 C 42.879 177.336,46.184 178.924,49.479 179.881 C 53.047 180.918,52.846 180.909,74.115 180.985 L 94.167 181.057 94.167 163.133 L 94.167 145.208 75.000 145.208 L 55.833 145.208 55.833 149.896 L 55.833 154.583 69.479 154.583 L 83.125 154.583 83.125 162.292 L 83.125 170.000 69.323 169.991 C 61.732 169.986,55.146 169.902,54.688 169.804 C 54.229 169.706,53.342 169.521,52.716 169.393 C 52.089 169.265,51.485 169.068,51.372 168.955 C 51.259 168.842,51.011 168.750,50.821 168.750 C 50.440 168.750,48.212 167.621,47.692 167.164 C 47.511 167.005,47.290 166.875,47.201 166.875 C 46.958 166.875,45.415 165.645,44.560 164.771 C 39.565 159.662,37.594 151.300,39.729 144.271 C 40.045 143.233,40.211 142.821,41.033 141.042 C 42.563 137.729,45.357 134.865,48.750 133.134 C 49.266 132.871,49.863 132.566,50.077 132.456 C 52.784 131.070,53.956 130.990,72.969 130.896 L 90.417 130.810 90.417 125.405 L 90.417 120.000 72.865 120.028 C 60.286 120.048,54.693 120.130,53.125 120.316 M103.593 150.469 L 103.646 180.938 130.781 180.990 L 157.917 181.043 157.917 175.522 L 157.917 170.000 136.146 170.000 L 114.375 170.000 114.375 150.417 L 114.375 130.833 136.146 130.833 L 157.917 130.833 157.917 125.417 L 157.917 120.000 130.728 120.000 L 103.540 120.000 103.593 150.469 M240.000 150.524 L 240.000 181.049 245.469 180.993 L 250.938 180.938 250.990 150.469 L 251.043 120.000 245.522 120.000 L 240.000 120.000 240.000 150.524 M260.630 137.344 C 260.635 157.876,260.757 160.111,262.146 165.208 C 263.459 170.029,266.864 174.470,271.362 177.230 C 272.024 177.637,274.792 178.958,274.981 178.958 C 275.077 178.958,275.566 179.138,276.067 179.358 C 283.625 182.666,302.441 182.512,311.862 179.063 C 319.223 176.369,323.873 170.863,325.499 162.917 C 326.327 158.870,326.329 158.823,326.403 139.219 L 326.477 120.000 321.051 120.000 L 315.625 120.000 315.625 138.718 C 315.625 160.506,315.597 160.812,313.278 164.468 C 312.928 165.021,310.556 167.496,310.375 167.498 C 310.295 167.499,309.826 167.761,309.333 168.079 C 308.392 168.688,307.780 168.941,305.729 169.570 C 298.795 171.698,285.624 171.395,280.104 168.982 C 278.910 168.459,277.708 167.795,277.708 167.657 C 277.708 167.570,277.606 167.500,277.481 167.500 C 277.231 167.500,274.841 165.129,274.430 164.473 C 272.106 160.763,272.083 160.519,272.083 138.718 L 272.083 120.000 266.354 120.000 L 260.625 120.000 260.630 137.344 M349.670 120.308 C 342.697 121.260,337.600 125.154,335.621 131.042 C 332.755 139.568,336.152 148.739,343.542 152.425 C 347.802 154.550,346.473 154.423,366.146 154.586 C 377.178 154.677,383.562 154.807,384.170 154.952 C 387.692 155.796,389.792 158.525,389.792 162.260 C 389.792 163.620,389.087 166.250,388.722 166.250 C 388.623 166.250,388.542 166.375,388.542 166.528 C 388.542 166.836,386.833 168.483,386.049 168.932 C 384.144 170.021,384.679 170.000,359.219 170.000 L 335.625 170.000 335.625 175.527 L 335.625 181.053 360.052 180.986 C 388.551 180.908,387.010 181.028,391.858 178.514 C 393.543 177.640,396.875 174.794,396.875 174.229 C 396.875 174.108,396.992 173.912,397.136 173.793 C 397.788 173.252,399.184 169.937,399.666 167.783 C 400.117 165.771,400.130 159.754,399.688 158.054 C 399.516 157.395,399.375 156.709,399.375 156.532 C 399.375 156.354,399.244 155.913,399.085 155.552 C 398.925 155.191,398.620 154.451,398.407 153.907 C 398.195 153.363,397.962 152.918,397.890 152.917 C 397.818 152.917,397.642 152.635,397.500 152.292 C 397.358 151.948,397.159 151.667,397.058 151.667 C 396.957 151.667,396.875 151.564,396.875 151.439 C 396.875 150.454,390.957 146.458,389.498 146.458 C 389.301 146.458,388.971 146.368,388.766 146.258 C 387.311 145.480,384.621 145.354,367.917 145.281 C 349.360 145.201,350.201 145.275,348.327 143.546 C 344.841 140.330,345.547 133.755,349.583 131.842 C 351.461 130.952,351.222 130.961,374.635 130.889 L 397.083 130.819 397.083 125.410 L 397.083 120.000 374.323 120.025 C 357.491 120.044,351.069 120.117,349.670 120.308 M121.875 149.896 L 121.875 154.583 138.750 154.583 L 155.625 154.583 155.625 149.896 L 155.625 145.208 138.750 145.208 L 121.875 145.208 121.875 149.896 " stroke="none" fill="#24ace4" fill-rule="evenodd"></path><path id="path1" d="M308.750 5.833 L 308.750 11.667 315.208 11.667 L 321.667 11.667 321.667 5.833 L 321.667 0.000 315.208 0.000 L 308.750 0.000 308.750 5.833 M224.167 24.334 C 224.167 24.532,224.913 24.936,226.667 25.688 C 232.329 28.117,237.063 30.752,240.653 33.473 C 243.895 35.930,247.620 39.671,249.952 42.813 C 250.547 43.615,251.130 44.384,251.247 44.523 C 251.364 44.662,251.569 45.014,251.701 45.305 C 251.833 45.595,252.021 45.833,252.117 45.833 C 252.213 45.833,252.292 45.929,252.292 46.046 C 252.292 46.163,252.545 46.655,252.854 47.140 C 253.672 48.422,255.544 52.264,256.329 54.271 C 259.264 61.775,260.539 72.696,259.395 80.521 C 258.651 85.612,258.026 88.673,256.973 92.396 C 256.811 92.969,256.524 94.000,256.336 94.688 C 256.148 95.375,255.899 96.172,255.782 96.458 C 255.666 96.745,255.498 97.260,255.408 97.604 C 255.216 98.338,254.835 99.424,254.445 100.344 C 254.292 100.705,254.167 101.100,254.167 101.222 C 254.167 101.344,254.035 101.752,253.873 102.128 C 253.712 102.505,253.279 103.563,252.913 104.479 C 251.980 106.808,250.047 111.321,249.682 112.020 C 249.081 113.173,248.732 113.125,257.624 113.125 C 266.497 113.125,266.600 113.113,267.279 112.026 C 268.364 110.290,271.312 98.993,272.403 92.396 C 272.593 91.250,272.893 89.516,273.071 88.542 C 274.180 82.482,273.563 80.938,270.036 80.938 C 268.316 80.938,267.673 80.859,267.281 80.600 L 266.771 80.262 266.712 69.225 C 266.665 60.432,266.707 58.146,266.920 57.982 C 267.067 57.870,267.750 57.657,268.438 57.511 C 270.642 57.042,270.793 56.256,269.219 53.448 C 268.674 52.477,267.714 50.743,267.083 49.594 C 266.453 48.445,265.867 47.504,265.781 47.503 C 265.695 47.501,265.625 47.402,265.625 47.283 C 265.625 47.037,264.768 45.765,264.531 45.660 C 264.445 45.622,264.375 45.502,264.375 45.394 C 264.375 45.124,262.867 43.125,262.664 43.125 C 262.574 43.125,262.500 43.033,262.500 42.920 C 262.500 42.625,259.571 39.516,257.580 37.699 C 255.927 36.189,252.298 33.542,251.882 33.542 C 251.783 33.542,251.670 33.468,251.632 33.378 C 251.475 33.006,247.499 30.908,244.896 29.823 C 243.979 29.441,243.052 29.034,242.836 28.919 C 242.205 28.584,236.940 26.894,234.896 26.370 C 231.734 25.560,227.432 24.660,225.883 24.484 C 225.280 24.416,224.647 24.306,224.477 24.241 C 224.306 24.176,224.167 24.218,224.167 24.334 M269.583 41.042 L 269.583 48.958 277.813 48.958 L 286.042 48.958 286.042 41.042 L 286.042 33.125 277.813 33.125 L 269.583 33.125 269.583 41.042 M302.708 37.917 L 302.708 41.458 306.563 41.458 L 310.417 41.458 310.417 37.917 L 310.417 34.375 306.563 34.375 L 302.708 34.375 302.708 37.917 M291.250 55.000 L 291.250 61.667 298.438 61.667 L 305.625 61.667 305.625 55.000 L 305.625 48.333 298.438 48.333 L 291.250 48.333 291.250 55.000 M13.004 143.145 C 12.619 143.646,9.667 149.493,8.648 151.771 C 7.447 154.455,6.987 155.534,6.559 156.667 C 6.364 157.182,6.089 157.839,5.946 158.125 C 5.628 158.764,3.293 166.071,2.834 167.865 C 1.480 173.145,1.065 175.343,0.320 181.146 C -0.116 184.546,-0.119 195.824,0.316 198.229 C 0.481 199.146,0.619 200.164,0.621 200.491 C 0.633 202.245,2.874 210.399,4.064 213.021 C 5.259 215.651,6.551 218.241,6.698 218.299 C 6.795 218.337,6.875 218.477,6.875 218.611 C 6.876 218.745,7.298 219.496,7.813 220.280 C 8.328 221.064,8.750 221.748,8.750 221.800 C 8.750 222.047,11.975 226.100,13.202 227.396 C 13.961 228.198,14.583 228.924,14.583 229.010 C 14.583 229.096,14.665 229.167,14.765 229.167 C 14.865 229.167,15.591 229.786,16.380 230.542 C 17.168 231.298,18.211 232.205,18.698 232.556 C 19.185 232.908,19.583 233.273,19.583 233.369 C 19.583 233.464,19.716 233.542,19.878 233.542 C 20.041 233.542,20.205 233.617,20.243 233.710 C 20.465 234.245,27.103 238.364,29.792 239.634 C 31.656 240.514,34.087 241.540,35.833 242.184 C 36.234 242.332,36.938 242.594,37.396 242.766 C 37.854 242.938,38.792 243.245,39.479 243.447 C 40.167 243.649,41.104 243.931,41.563 244.074 C 46.667 245.663,53.590 246.996,61.042 247.824 C 64.672 248.228,81.068 248.164,84.271 247.734 C 85.302 247.596,87.224 247.338,88.542 247.162 C 94.402 246.377,101.060 245.009,106.667 243.438 C 107.182 243.293,108.214 243.011,108.958 242.811 C 109.703 242.611,110.688 242.331,111.146 242.188 C 111.604 242.045,112.495 241.778,113.125 241.594 C 114.614 241.160,124.114 238.022,124.792 237.741 C 125.078 237.622,126.156 237.227,127.188 236.863 C 128.219 236.499,129.344 236.084,129.688 235.940 C 130.031 235.796,131.203 235.326,132.292 234.895 C 134.513 234.015,134.303 234.102,138.854 232.187 C 140.688 231.415,142.984 230.415,143.958 229.963 C 144.932 229.511,146.010 229.016,146.354 228.863 C 147.544 228.334,159.276 222.494,160.554 221.796 C 161.260 221.410,162.384 220.778,163.054 220.391 C 164.903 219.322,166.292 218.579,166.927 218.319 C 167.242 218.190,167.501 218.023,167.502 217.948 C 167.503 217.874,167.925 217.627,168.439 217.401 C 168.954 217.175,169.375 216.924,169.375 216.842 C 169.375 216.761,169.571 216.632,169.811 216.556 C 170.051 216.480,170.651 216.146,171.144 215.813 C 171.636 215.480,172.098 215.208,172.170 215.208 C 172.241 215.208,172.697 214.952,173.181 214.640 C 174.345 213.889,174.810 213.605,175.313 213.339 C 175.542 213.218,175.980 212.956,176.287 212.757 C 176.594 212.559,177.532 211.976,178.371 211.464 C 179.909 210.524,182.008 209.168,184.225 207.682 C 184.888 207.238,185.513 206.875,185.614 206.875 C 185.716 206.875,185.830 206.805,185.868 206.719 C 185.969 206.491,187.241 205.625,187.474 205.625 C 187.584 205.625,187.705 205.555,187.743 205.469 C 187.844 205.241,189.116 204.375,189.349 204.375 C 189.459 204.375,189.580 204.298,189.618 204.203 C 189.656 204.109,190.625 203.392,191.771 202.610 C 192.917 201.829,194.196 200.922,194.613 200.595 C 195.031 200.268,195.471 200.000,195.593 200.000 C 195.714 200.000,195.888 199.876,195.979 199.725 C 196.071 199.574,196.615 199.136,197.188 198.753 C 198.176 198.090,200.819 196.084,201.042 195.827 C 201.099 195.761,201.521 195.432,201.979 195.095 C 202.438 194.758,203.333 194.060,203.969 193.543 C 204.605 193.027,205.535 192.276,206.035 191.875 C 206.535 191.474,207.045 191.051,207.170 190.936 C 207.294 190.821,208.193 190.078,209.167 189.287 C 211.017 187.782,211.667 187.183,211.667 186.980 C 211.667 186.639,182.812 186.980,182.188 187.327 C 181.844 187.519,181.422 187.734,181.250 187.804 C 180.792 187.993,178.984 189.125,178.750 189.370 C 178.693 189.430,178.489 189.573,178.298 189.688 C 177.654 190.073,173.022 193.221,172.917 193.345 C 172.859 193.413,172.672 193.535,172.500 193.617 C 172.066 193.824,171.622 194.103,169.542 195.473 C 168.546 196.130,167.632 196.667,167.511 196.667 C 167.390 196.667,167.292 196.749,167.292 196.850 C 167.292 196.950,167.010 197.149,166.667 197.292 C 166.323 197.434,166.042 197.633,166.042 197.734 C 166.042 197.834,165.955 197.917,165.848 197.917 C 165.650 197.917,163.104 199.369,162.917 199.589 C 162.859 199.656,162.438 199.897,161.979 200.124 C 161.521 200.351,160.749 200.791,160.265 201.102 C 159.780 201.412,159.342 201.667,159.292 201.667 C 159.242 201.667,158.488 202.089,157.615 202.604 C 156.743 203.120,155.945 203.542,155.842 203.542 C 155.739 203.542,155.531 203.659,155.379 203.802 C 155.228 203.945,154.026 204.617,152.708 205.295 C 151.391 205.973,150.266 206.583,150.208 206.649 C 150.088 206.790,148.508 207.570,144.688 209.374 C 140.953 211.138,140.777 211.218,137.396 212.715 C 135.177 213.697,131.036 215.427,130.417 215.631 C 130.130 215.725,129.380 216.004,128.750 216.250 C 128.120 216.496,127.370 216.778,127.083 216.875 C 126.797 216.972,126.047 217.252,125.417 217.497 C 124.147 217.990,116.175 220.645,114.375 221.175 C 113.745 221.360,112.854 221.628,112.396 221.771 C 111.521 222.044,109.675 222.537,107.656 223.037 C 106.997 223.200,105.919 223.469,105.260 223.636 C 102.670 224.289,99.970 224.879,96.771 225.490 C 95.854 225.665,94.352 225.955,93.433 226.133 C 92.513 226.312,91.482 226.458,91.141 226.458 C 90.800 226.458,89.771 226.592,88.854 226.756 C 80.710 228.211,66.493 228.206,57.083 226.745 C 52.428 226.022,46.665 224.722,43.646 223.714 C 43.302 223.599,42.740 223.428,42.396 223.333 C 42.052 223.238,41.255 222.958,40.625 222.711 C 39.995 222.463,39.245 222.183,38.958 222.089 C 37.405 221.579,33.934 219.904,30.668 218.090 C 29.582 217.487,24.995 214.444,24.792 214.192 C 24.734 214.121,24.219 213.691,23.646 213.236 C 16.296 207.408,10.838 199.034,8.359 189.783 C 5.712 179.908,6.183 169.584,9.900 155.938 C 10.057 155.365,10.342 154.286,10.535 153.542 C 10.728 152.797,11.005 151.813,11.151 151.354 C 11.297 150.896,11.578 149.911,11.776 149.167 C 11.974 148.422,12.255 147.438,12.401 146.979 C 13.336 144.044,13.599 142.370,13.004 143.145 M217.292 189.792 L 217.292 191.250 220.938 191.250 L 224.583 191.250 224.583 197.396 L 224.583 203.542 226.563 203.542 L 228.542 203.542 228.542 197.396 L 228.542 191.250 232.083 191.250 L 235.625 191.250 235.625 189.792 L 235.625 188.333 226.458 188.333 L 217.292 188.333 217.292 189.792 M243.125 195.938 L 243.125 203.542 251.354 203.542 L 259.583 203.542 259.583 201.979 L 259.583 200.417 253.333 200.417 L 247.083 200.417 247.083 198.750 L 247.083 197.083 250.729 197.083 L 254.375 197.083 254.375 195.625 L 254.375 194.167 250.729 194.167 L 247.083 194.167 247.083 192.708 L 247.083 191.250 253.229 191.250 L 259.375 191.250 259.375 189.792 L 259.375 188.333 251.250 188.333 L 243.125 188.333 243.125 195.938 M268.497 188.760 C 267.340 189.371,267.251 189.960,267.329 196.467 C 267.419 203.963,266.911 203.542,275.858 203.542 C 283.952 203.542,284.579 203.241,284.582 199.357 L 284.583 197.985 283.336 197.638 C 282.651 197.448,281.760 197.292,281.357 197.292 L 280.625 197.292 280.625 198.854 L 280.625 200.417 275.938 200.417 L 271.250 200.417 271.250 195.938 L 271.250 191.458 275.938 191.458 L 280.625 191.458 280.625 192.813 C 280.625 193.557,280.695 194.163,280.781 194.158 C 280.867 194.153,281.734 194.032,282.708 193.888 L 284.479 193.627 284.531 192.595 C 284.627 190.663,284.173 189.347,283.225 188.810 C 282.018 188.126,269.776 188.085,268.497 188.760 M293.333 195.938 L 293.333 203.542 295.313 203.542 L 297.292 203.542 297.292 200.417 L 297.292 197.292 302.708 197.292 L 308.125 197.292 308.125 200.417 L 308.125 203.542 310.104 203.542 L 312.083 203.542 312.083 195.938 L 312.083 188.333 310.104 188.333 L 308.125 188.333 308.125 191.146 L 308.125 193.958 302.708 193.958 L 297.292 193.958 297.292 191.146 L 297.292 188.333 295.313 188.333 L 293.333 188.333 293.333 195.938 M338.333 195.938 L 338.333 203.542 340.208 203.542 L 342.083 203.542 342.083 195.938 L 342.083 188.333 340.208 188.333 L 338.333 188.333 338.333 195.938 M351.667 195.938 L 351.667 203.542 353.434 203.542 L 355.201 203.542 355.257 198.648 L 355.313 193.755 356.082 194.460 C 356.505 194.848,357.279 195.472,357.801 195.847 C 358.323 196.222,358.750 196.607,358.750 196.702 C 358.750 196.797,358.891 196.875,359.063 196.875 C 359.234 196.875,359.375 196.951,359.375 197.043 C 359.375 197.136,359.995 197.666,360.752 198.223 C 361.510 198.779,362.284 199.390,362.471 199.580 C 362.659 199.770,363.422 200.385,364.167 200.945 C 364.911 201.506,365.615 202.071,365.729 202.201 C 366.571 203.158,367.457 203.542,368.822 203.542 L 370.208 203.542 370.208 195.938 L 370.208 188.333 368.333 188.333 L 366.458 188.333 366.458 193.034 L 366.458 197.734 365.527 197.065 C 365.015 196.697,364.429 196.243,364.225 196.056 C 364.021 195.870,363.481 195.438,363.025 195.098 C 362.569 194.758,362.006 194.326,361.775 194.138 C 360.671 193.242,357.840 190.999,356.220 189.737 L 354.419 188.333 353.043 188.333 L 351.667 188.333 351.667 195.938 M380.715 188.648 C 379.373 189.237,379.167 190.191,379.167 195.811 C 379.167 203.708,378.978 203.542,387.917 203.542 C 396.090 203.542,396.667 203.230,396.667 198.810 L 396.667 197.967 395.322 197.629 C 394.582 197.444,393.645 197.292,393.238 197.292 L 392.500 197.292 392.500 198.854 L 392.500 200.417 387.813 200.417 L 383.125 200.417 383.125 195.938 L 383.125 191.458 387.813 191.458 L 392.500 191.458 392.500 192.839 L 392.500 194.220 393.385 194.067 C 393.872 193.983,394.786 193.854,395.417 193.780 L 396.563 193.646 396.491 192.168 C 396.301 188.250,396.494 188.336,387.917 188.354 C 382.894 188.364,381.204 188.433,380.715 188.648 " stroke="none" fill="#f4941c" fill-rule="evenodd"></path><path id="path2" d="" stroke="none" fill="#58a0e8" fill-rule="evenodd"></path><path id="path3" d="" stroke="none" fill="#58a0e8" fill-rule="evenodd"></path><path id="path4" d="" stroke="none" fill="#58a0e8" fill-rule="evenodd"></path></g></svg>