<svg version="1.1" id="1283621096" xmlns="http://www.w3.org/2000/svg" xmlns:xlink="http://www.w3.org/1999/xlink" x="0px" y="0px" viewBox="0 0 600 600" style="enable-background:new 0 0 600 600;" xml:space="preserve" class="svg u_1283621096" data-icon-custom="true" data-icon-name="migration-to-aws-01.svg"> <style type="text/css">.st0{fill:#DDDDDD;}
	.st1{fill:#F7F7F7;}
	.st2{fill:#CCCCCC;}
	.st3-1283621096{fill:#FBB040;}
	.st4-1283621096{fill:#ED8B00;}
	.st5{fill:#EAEAEA;}
	.st6{fill:#0092FF;}
	.st7{fill:#FF0000;}
	.st8{fill:#00FF67;}
	.st9{fill:#BAB6AF;}
	.st10-1283621096{fill:#252F3E;}
	.st11-1283621096{fill:#FFFFFF;}
	.st12-1283621096{fill:#FFBCA1;}
	.st13-1283621096{fill:#494B51;}
	.st14-1283621096{fill:#04519E;}
	.st15-1283621096{fill:#005EB8;}
	.st16-1283621096{fill:#27415A;}
	.st17-1283621096{fill:#FFC6AF;}
	.st18-1283621096{fill:#D2F0FF;}
	.st19-1283621096{fill:#BDDDF4;}
	.st20-1283621096{fill:none;}
	.st21-1283621096{fill:none;stroke:#D2F0FF;stroke-width:7.5;stroke-miterlimit:10;stroke-dasharray:15,10;}
	.st22-1283621096{fill:#9CD6F7;}
	.st23-1283621096{fill:#1AA1FC;}
	.st24-1283621096{fill:#70BEF2;}
	.st25-1283621096{fill:#0781E5;}
	.st26-1283621096{fill:none;stroke:#BBEAFF;stroke-width:10;stroke-miterlimit:10;stroke-dasharray:15,10;}
	.st27-1283621096{fill:#BBEAFF;}</style> 
 <g> <path class="st3-1283621096" d="M529.8,89.8c-4.7,0-9.3,0.5-13.9,1.4c-3.5-17.2-14.6-31.9-30.3-39.9c-15.7-8-34.1-8.3-50-0.9
		c-14.4-39.7-58.3-60.3-98.1-45.8s-60.3,58.3-45.8,98.1c-34.8,1.1-62.3,29.9-61.8,64.7c0.5,34.8,28.9,62.8,63.7,62.8h236.2
		c38.8,0,70.2-31.4,70.2-70.2S568.6,89.8,529.8,89.8z"></path> 
 <g> <path class="st10-1283621096" d="M361.3,128.5c0,2.2,0.2,3.9,0.6,5.2c0.5,1.3,1.1,2.7,1.9,4.2c0.3,0.5,0.4,0.9,0.4,1.4c0,0.6-0.4,1.2-1.1,1.8
			l-3.7,2.5c-0.5,0.4-1.1,0.5-1.5,0.5c-0.6,0-1.2-0.3-1.8-0.8c-0.8-0.9-1.5-1.8-2.1-2.8c-0.6-1-1.2-2.1-1.8-3.5
			c-4.6,5.4-10.3,8.1-17.3,8.1c-4.9,0-8.9-1.4-11.7-4.2c-2.9-2.8-4.3-6.6-4.3-11.3c0-5,1.8-9,5.3-12.1s8.3-4.6,14.4-4.6
			c2,0,4.1,0.2,6.2,0.5c2.2,0.3,4.4,0.8,6.8,1.3v-4.3c0-4.5-0.9-7.6-2.8-9.4c-1.9-1.8-5-2.7-9.6-2.7c-2.1,0-4.2,0.2-6.3,0.8
			c-2.2,0.5-4.3,1.2-6.3,2c-0.9,0.4-1.6,0.6-2.1,0.8s-0.7,0.2-0.9,0.2c-0.8,0-1.2-0.6-1.2-1.8v-2.9c0-0.9,0.1-1.6,0.4-2.1
			c0.3-0.4,0.8-0.8,1.6-1.2c2.1-1.1,4.5-1.9,7.4-2.6c2.9-0.8,5.9-1.1,9.2-1.1c7,0,12.1,1.6,15.4,4.8c3.2,3.2,4.9,8,4.9,14.4v19
			H361.3z M337.5,137.4c1.9,0,3.9-0.4,6-1.1s4-2,5.6-3.8c0.9-1.1,1.6-2.3,2-3.8c0.4-1.4,0.6-3.1,0.6-5.1v-2.5
			c-1.7-0.4-3.5-0.8-5.4-1c-1.9-0.2-3.7-0.4-5.5-0.4c-3.9,0-6.8,0.8-8.7,2.3c-1.9,1.6-2.9,3.8-2.9,6.8c0,2.8,0.7,4.8,2.2,6.2
			C332.7,136.7,334.8,137.4,337.5,137.4z M384.6,143.8c-1.1,0-1.8-0.2-2.2-0.6c-0.5-0.4-0.9-1.2-1.2-2.3l-13.8-45.4
			c-0.4-1.2-0.5-1.9-0.5-2.3c0-0.9,0.5-1.5,1.4-1.5h5.8c1.1,0,1.9,0.2,2.3,0.6c0.5,0.4,0.8,1.2,1.2,2.3l9.9,38.9l9.2-38.9
			c0.3-1.2,0.6-1.9,1.1-2.3s1.3-0.6,2.3-0.6h4.7c1.1,0,1.9,0.2,2.3,0.6c0.5,0.4,0.9,1.2,1.1,2.3l9.3,39.3l10.2-39.3
			c0.4-1.2,0.8-1.9,1.2-2.3c0.5-0.4,1.2-0.6,2.3-0.6h5.5c0.9,0,1.5,0.5,1.5,1.5c0,0.3-0.1,0.6-0.1,0.9c-0.1,0.4-0.2,0.8-0.4,1.5
			l-14.1,45.4c-0.4,1.2-0.8,1.9-1.2,2.3c-0.5,0.4-1.2,0.6-2.2,0.6h-5c-1.1,0-1.9-0.2-2.3-0.6c-0.5-0.4-0.9-1.2-1.1-2.3l-9.1-37.9
			l-9,37.8c-0.3,1.2-0.6,1.9-1.1,2.3c-0.5,0.4-1.3,0.6-2.3,0.6H384.6z M460,145.3c-3.1,0-6.1-0.4-9-1.1c-2.9-0.7-5.2-1.5-6.8-2.3
			c-0.9-0.5-1.6-1.1-1.8-1.6c-0.2-0.5-0.4-1.1-0.4-1.6v-3c0-1.2,0.5-1.8,1.4-1.8c0.4,0,0.7,0.1,1.1,0.2c0.4,0.1,0.9,0.4,1.5,0.6
			c2,0.9,4.2,1.6,6.5,2.1c2.3,0.5,4.6,0.7,7,0.7c3.7,0,6.6-0.6,8.6-1.9c2-1.3,3.1-3.2,3.1-5.6c0-1.6-0.5-3-1.6-4.1
			c-1.1-1.1-3.1-2.1-5.9-3.1L455,120c-4.3-1.4-7.5-3.3-9.4-6c-1.9-2.6-2.9-5.5-2.9-8.5c0-2.5,0.5-4.6,1.6-6.5
			c1.1-1.9,2.5-3.5,4.2-4.8c1.8-1.4,3.8-2.3,6.1-3.1c2.3-0.7,4.8-1,7.4-1c1.3,0,2.6,0.1,3.9,0.2c1.4,0.2,2.6,0.4,3.8,0.6
			c1.2,0.3,2.3,0.6,3.3,0.9c1.1,0.4,1.9,0.7,2.5,1.1c0.8,0.5,1.4,0.9,1.8,1.5c0.4,0.5,0.5,1.1,0.5,1.9v2.8c0,1.2-0.5,1.9-1.4,1.9
			c-0.5,0-1.2-0.2-2.2-0.7c-3.3-1.5-7.1-2.3-11.3-2.3c-3.3,0-6,0.5-7.8,1.6s-2.8,2.8-2.8,5.2c0,1.6,0.6,3.1,1.8,4.2
			c1.2,1.1,3.3,2.2,6.5,3.2l8.3,2.6c4.2,1.4,7.3,3.2,9.1,5.6c1.8,2.4,2.7,5.2,2.7,8.2c0,2.5-0.5,4.8-1.5,6.8c-1.1,2-2.5,3.8-4.3,5.2
			c-1.8,1.5-4,2.5-6.5,3.3C465.8,144.9,463,145.3,460,145.3z"></path> 
 <g> <path class="st11-1283621096" d="M471.1,173.9c-19.3,14.3-47.4,21.8-71.5,21.8c-33.8,0-64.3-12.5-87.3-33.3c-1.8-1.6-0.2-3.9,2-2.6
				c24.9,14.4,55.6,23.2,87.3,23.2c21.4,0,45-4.5,66.6-13.6C471.5,167.9,474.3,171.5,471.1,173.9z"></path> 
 <path class="st11-1283621096" d="M479.2,164.7c-2.5-3.2-16.3-1.5-22.6-0.8c-1.9,0.2-2.2-1.4-0.5-2.6c11-7.7,29.2-5.5,31.3-2.9
				c2.1,2.6-0.6,20.8-10.9,29.5c-1.6,1.4-3.1,0.6-2.4-1.1C476.4,180.9,481.6,167.8,479.2,164.7z"></path> 
</g> 
</g> 
</g> 
 <g> <g> <g> <path class="st12-1283621096" d="M188.7,298.2c1.2,0.1,3-0.7,4-0.4c2.1-0.1,4.3,0.8,5.7,2.4c1.6-1.1,6.8-4.5,8.7-6.3
				c3.1-2.9,4.3-4.1,5.9-6.2c0.7-1,0.8-2,0.5-2c-1.5-0.3-4.8,3.9-6,4.1c1.3-1.6,6.9-6.4,6.2-7.8c-0.6-1.6-5.9,3.9-8.3,5.4
				c0.2-0.8,8.5-7,7.5-8.3c-1.1-1.2-6.8,4.3-9.1,5.6c0.5-1.4,6.8-5.7,6.2-6.3c-0.7-0.7-2.3,0.2-3.7,0.9c-1.8,1-7.8,6.2-9.9,8.2
				c-0.7-4.5,0.4-6.9-1.1-6.6c-1.6,0.5-3.8,7.1-4.3,14.6C190.5,296,189.3,297.6,188.7,298.2z"></path> 
</g> 
 <g> <path class="st13-1283621096" d="M109.6,268.9c2.8,2.5,4.7,6,5.1,10c0.8-1.1,1.2-2.5,1.2-4.1c0.2-3.6-1.5-6.5-4-6.7
				C111,268,110.2,268.3,109.6,268.9z"></path> 
 <g> <g> <path class="st12-1283621096" d="M112.3,329.2c-5.9-0.6,8.6,16.2,8.6,21.2c15.6,3.5,32.8-0.5,46.2-9.5c13.3-9.1,22-25.8,30.9-39.9
						c0.3-0.6,0.6-1.2,0.5-1.8c-0.2-0.5-0.6-0.8-1.1-1.1c-2.6-1.7-4.4-0.8-7.4-1.5c-1.4,1.7-1.6,2-2.4,3.5
						c-3.2,6.1-7.9,8.9-12.9,13.4c-7.6,7-13.2,13.2-25.1,16.5C128.6,335.9,119.3,330.1,112.3,329.2z"></path> 
 <path class="st14-1283621096" d="M115,340.1c2.3,3.8,5.1,8.3,5.1,10.3v0.8l0.6,0.2c3.9,0.9,7.9,1.4,12,1.4c5.4,0,11.1-0.8,16.3-2.3
						c-0.5-2.1-0.8-4.4-1.2-6.5c-0.9-4.5-1.7-9.1-2.7-13.6c-4.5,1.1-8.6,1.5-12.7,1.5c-6.2,0-10.7-1.2-14.5-2.1
						c-2.1-0.6-3.9-1.1-5.6-1.2c-0.2,0-0.3,0-0.5,0c-0.9,0-1.5,0.5-1.7,0.9C109.4,331,111.4,334.5,115,340.1z"></path> 
</g> 
 <g> <path class="st15-1283621096" d="M126,589.7c0,0,22.6,6.3,19.5,8.5c-3.1,2.2-33.9,1.2-33.9,1.2l0.6-9.6L126,589.7z"></path> 
 <path class="st16-1283621096" d="M144.6,431.5c0,0,0.9,62.2-4.6,100.8c-5.5,38.5-12.4,57.7-12.4,57.7l-15-0.1c0,0,6.9-69.7,6.7-89.7
						c-0.3-28.6-3-39.6-3-39.6s-4.3,46.9-12.1,76C98.5,557.8,86,590.2,86,590.2l-14.4,0.1c0,0,12.3-45.1,15.3-89.2
						S86,436.5,86,436.5L144.6,431.5z"></path> 
 <path class="st15-1283621096" d="M86.2,589.6c0,0,22.3,7.2,19.2,9.4c-3.3,2.2-34-0.1-34-0.1l1-9.7L86.2,589.6z"></path> 
 <path class="st15-1283621096" d="M145.1,434.3L84,442.7c0,0-1.1-9.7-2.9-21.3c-1.4-9.2-9.8-43.1-10.7-61.5c-0.6-10.1,4.1-20.9,12.4-26.8
						c7.4-5.1,17-6.2,25.6-6.2c6.7,0,14.1,4.1,18.8,10.6C140.3,355.5,145.1,434.4,145.1,434.3z"></path> 
 <path class="st17-1283621096" d="M91.4,332.4c-0.8-5.1-4.2-21.8-4.2-21.8l20.3-2.1c0,0,2.3,20.4,3.6,27.2
						C108.8,342.7,92.8,340.4,91.4,332.4z"></path> 
 <path class="st17-1283621096" d="M79.4,284.7c-0.8-2.9,1.1-5.9,3.9-6.7l23.6-7.3c2.9-0.8,5.9,1.1,6.7,3.9l9.7,28.3
						c2,7.9-2.6,15.7-10.4,17.9l-22.4,5.9L79.4,284.7z"></path> 
 <g> <path class="st13-1283621096" d="M73.9,274.4c1.2-1.3,2.4-1.5,3.6-1.4l-0.2-1c-0.9-3.5,1.3-7.1,4.9-8l15.3-3.7c1.6-0.4,2.6-2.1,2.3-3.7
							l-1-4l0.1,0c1.3,0.2,3.5,1.1,5,3.2c0,0-0.4-2.3-1.5-4.5c0,0,10,3.9,10.9,11.8c0.5,4.7-2.5,9.1-7.2,10.2l-19.6,4.7
							c-2.3,0.5-3.6,2.8-3.1,5.1l2.9,12.2c0.6,2.5-0.8,5.3-3.3,6c-2.7,0.8-5.5-0.9-6.1-3.5l-4.5-18.1
							C72.1,277.8,72.6,275.8,73.9,274.4z"></path> 
</g> 
 <ellipse transform="matrix(0.9996 -2.879723e-02 2.879723e-02 0.9996 -8.7101 2.5089)" class="st17-1283621096" cx="82.7" cy="303.7" rx="5.4" ry="5.4"></ellipse> 
</g> 
</g> 
</g> 
</g> 
 <g> <g> <polygon class="st18-1283621096" points="352.8,279 8.2,403.7 257.9,487.4 			"></polygon> 
 <polygon class="st19-1283621096" points="100.2,432.2 128.5,506.2 151.8,449.5 353.8,277 			"></polygon> 
 <line class="st20-1283621096" x1="233.8" y1="379.5" x2="232.4" y2="380.7"></line> 
</g> 
 <line class="st21-1283621096" x1="55.6" y1="436.8" x2="0" y2="471.8"></line> 
 <line class="st21-1283621096" x1="202.1" y1="508" x2="170.4" y2="571.4"></line> 
</g> 
 <g> <path class="st4-1283621096" d="M272.9,346l-12-2.6c-1-3.2-2.3-6.3-3.9-9.3l6.6-10.3c1.2-1.8,0.9-4.3-0.6-5.8l-18.7-18.7
			c-1.6-1.6-4-1.8-5.8-0.6l-10.3,6.6c-3-1.5-6.1-2.8-9.3-3.9l-2.6-12c-0.5-2.1-2.4-3.7-4.6-3.7h-26.4c-2.2,0-4.1,1.5-4.6,3.7
			l-2.6,12c-3.2,1-6.3,2.3-9.3,3.9l-10.3-6.6c-1.8-1.2-4.3-0.9-5.8,0.6L134,318c-1.6,1.6-1.8,4-0.6,5.8l6.6,10.3
			c-1.5,3-2.8,6.1-3.9,9.3l-12,2.6c-2.1,0.5-3.7,2.4-3.7,4.6V377c0,2.2,1.5,4.1,3.7,4.6l12,2.6c1,3.2,2.3,6.3,3.9,9.3l-6.6,10.3
			c-1.2,1.8-0.9,4.3,0.6,5.8l18.7,18.7c1.6,1.6,4,1.8,5.8,0.6l10.3-6.6c3,1.5,6.1,2.8,9.3,3.9l2.6,12c0.5,2.1,2.4,3.7,4.6,3.7h26.4
			c2.2,0,4.1-1.5,4.6-3.7l2.6-12c3.2-1,6.3-2.3,9.3-3.9l10.3,6.6c1.8,1.2,4.3,0.9,5.8-0.6l18.7-18.7c1.6-1.6,1.8-4,0.6-5.8
			l-6.6-10.3c1.5-3,2.8-6.1,3.9-9.3l12-2.6c2.1-0.5,3.7-2.4,3.7-4.6v-26.4C276.5,348.4,275,346.5,272.9,346z M226.5,363.8
			c0,15.4-12.6,28-28,28s-28-12.6-28-28c0-15.4,12.6-28,28-28S226.5,348.4,226.5,363.8z"></path> 
 <path class="st3-1283621096" d="M185.3,285.8c-2.2,0-4.1,1.5-4.6,3.7l-2.6,12c-3.2,1-6.3,2.3-9.3,3.9l-10.3-6.6c-1.8-1.2-4.3-0.9-5.8,0.6
			L134,318c-1.6,1.5-1.8,4-0.6,5.8l6.6,10.3c-1.5,3-2.8,6.1-3.9,9.3l-12,2.6c-2.1,0.5-3.7,2.4-3.7,4.6V377c0,2.2,1.5,4.1,3.7,4.6
			l12,2.6c1,3.2,2.3,6.3,3.9,9.3l-6.6,10.3c-1.2,1.8-0.9,4.3,0.6,5.8l18.7,18.7c1.5,1.6,4,1.8,5.8,0.6l10.3-6.6
			c3,1.5,6.1,2.8,9.3,3.9l2.6,12c0.5,2.1,2.4,3.7,4.6,3.7h13.2v-50c-15.4,0-28-12.6-28-28c0-15.4,12.6-28,28-28v-50H185.3z"></path> 
</g> 
 <g> <polygon class="st22-1283621096" points="150.3,450.9 126.9,507.6 350.6,279.8 		"></polygon> 
 <polygon class="st18-1283621096" points="150.3,450.9 257.3,486.8 352.2,278.4 		"></polygon> 
</g> 
 <g> <g> <path class="st17-1283621096" d="M78.7,366.9c0,0,24.4,26.6,44.5,26.6c15.1,0,31.2-21.9,38-32.5c1.1-1.5,1.5-1.5,2.1-1.8
				c2.4-1.7,5.4-6.8,7.1-9.2c2.4-3.6,3.3-5,4.4-7.4c0.5-1.2,0.3-2.1,0-2.1c-1.5,0-3.9,5-5,5.3c0.9-1.8,5.6-7.7,4.5-8.9
				c-0.9-1.2-4.8,5.3-7,7.3c0-0.9,6.8-8.8,5.6-9.7c-1.2-1.1-5.6,5.8-7.6,7.4c0.2-1.5,5.4-7,4.7-7.6s-2.1,0.6-3.3,1.7
				c-1.4,1.4-6.2,7.7-7.9,10.1c-1.5-4.2-1.1-6.8-2.4-6.2c-1.4,0.6-2,7.7-1.1,15.1c-0.3,0.5,0.5,0.2-0.2,0.6l0,0
				c-4.5,4.1-14.1,12.7-27.9,18c-10.6,4.1-22.4-6.8-28.9-15.4c-6.1-8-9.8-14.4-16.2-15.4c-3-0.5-6.4-0.5-8.9,5.8
				C69.5,358.3,78.7,366.9,78.7,366.9z"></path> 
</g> 
 <g> <path class="st14-1283621096" d="M90.8,379.5l-0.8-0.6c-7-5.9-11.7-11.4-11.7-11.4l0,0c0-0.2-10-8.9-5.8-19.4c1.8-4.4,4.2-6.5,7.7-6.5
				c0.8,0,1.5,0,2.1,0.2c5.8,0.9,9.5,5.9,14.2,12.4c0.8,0.9,1.5,2.1,2.4,3.2c1.5,2,3.2,3.9,4.8,5.8l0.6,0.8l-0.8,0.6
				c-5.6,4.1-9.8,10-12.4,14.1L90.8,379.5z"></path> 
</g> 
</g> 
</g> 
 <g> <g> <g> <g> <g> <polygon class="st18-1283621096" points="217.8,120.5 40.3,62.8 114.5,174.6 					"></polygon> 
 <polygon class="st19-1283621096" points="67.3,103.5 55.6,142.1 82.7,126.7 217.8,120.5 					"></polygon> 
 <line class="st20-1283621096" x1="137.5" y1="124.2" x2="136.5" y2="124.2"></line> 
</g> 
 <line class="st21-1283621096" x1="33.3" y1="91.8" x2="0" y2="88.5"></line> 
 <line class="st21-1283621096" x1="79.6" y1="168.8" x2="23.1" y2="188.7"></line> 
</g> 
</g> 
</g> 
 <g> <g> <path class="st23-1283621096" d="M154.4,102.6l-5.1-1.2c-0.4-1.4-1-2.7-1.6-4l2.9-4.4c0.5-0.8,0.4-1.8-0.2-2.5l-7.9-8.1
				c-0.7-0.7-1.7-0.8-2.5-0.3l-4.4,2.8c-1.3-0.7-2.6-1.2-4-1.7l-1.1-5.1c-0.2-0.9-1-1.6-1.9-1.6l-11.3-0.1c-0.9,0-1.8,0.6-2,1.6
				l-1.2,5.1c-1.4,0.4-2.7,1-4,1.6l-4.4-2.9c-0.8-0.5-1.8-0.4-2.5,0.2L95.1,90c-0.7,0.7-0.8,1.7-0.3,2.5l2.8,4.4
				c-0.7,1.3-1.2,2.6-1.7,4l-5.1,1.1c-0.9,0.2-1.6,1-1.6,1.9l-0.1,11.3c0,0.9,0.6,1.8,1.6,2l5.1,1.2c0.4,1.4,1,2.7,1.6,4l-2.9,4.4
				c-0.5,0.8-0.4,1.8,0.2,2.5l7.9,8.1c0.7,0.7,1.7,0.8,2.5,0.3l4.4-2.8c1.3,0.7,2.6,1.2,4,1.7l1.1,5.1c0.2,0.9,1,1.6,1.9,1.6
				l11.3,0.1c0.9,0,1.8-0.6,2-1.6l1.2-5.1c1.4-0.4,2.7-1,4-1.6l4.4,2.9c0.8,0.5,1.8,0.4,2.5-0.2l8.1-7.9c0.7-0.7,0.8-1.7,0.3-2.5
				l-2.8-4.4c0.7-1.3,1.2-2.6,1.7-4l5.1-1.1c0.9-0.2,1.6-1,1.6-1.9l0.1-11.3C156,103.7,155.4,102.8,154.4,102.6z M134.5,110
				c-0.1,6.6-5.5,11.9-12.1,11.9s-11.9-5.5-11.9-12.1s5.5-11.9,12.1-11.9S134.6,103.4,134.5,110z"></path> 
 <path class="st24-1283621096" d="M117.2,76.5c-0.9,0-1.8,0.6-2,1.6l-1.2,5.1c-1.4,0.4-2.7,1-4,1.6l-4.4-2.9c-0.8-0.5-1.8-0.4-2.5,0.2
				L95.1,90c-0.7,0.7-0.8,1.7-0.3,2.5l2.8,4.4c-0.7,1.3-1.2,2.6-1.7,4l-5.1,1.1c-0.9,0.2-1.6,1-1.6,1.9l-0.1,11.3
				c0,0.9,0.6,1.8,1.6,2l5.1,1.2c0.4,1.4,1,2.7,1.6,4l-2.9,4.4c-0.5,0.8-0.4,1.8,0.2,2.5l7.9,8.1c0.7,0.7,1.7,0.8,2.5,0.3l4.4-2.8
				c1.3,0.7,2.6,1.2,4,1.7l1.1,5.1c0.2,0.9,1,1.6,1.9,1.6l5.7,0.1l0.2-21.4c-6.6-0.1-11.9-5.5-11.9-12.1c0.1-6.6,5.5-11.9,12.1-11.9
				l0.2-21.4L117.2,76.5z"></path> 
</g> 
 <polygon class="st22-1283621096" points="82.7,126.7 55.6,142.1 216.7,120.5 		"></polygon> 
 <polygon class="st18-1283621096" points="82.7,126.7 114.5,174.6 217.8,120.5 		"></polygon> 
</g> 
</g> 
 <g> <g> <g> <g> <g> <polygon class="st19-1283621096" points="423.9,492.2 590.6,497.7 413.7,347.5 					"></polygon> 
 <polygon class="st22-1283621096" points="413.7,347.5 495.4,494.6 496.7,533.4 529.9,495.7 					"></polygon> 
 <line class="st20-1283621096" x1="462.8" y1="435.9" x2="462.2" y2="434.9"></line> 
</g> 
 <line class="st21-1283621096" x1="467.6" y1="576.5" x2="451.8" y2="503.8"></line> 
</g> 
</g> 
</g> 
 <g> <g> <path class="st15-1283621096" d="M528.7,447.7l-0.3-14.1c0-1.2-0.9-2.2-2-2.4L520,430c-0.6-1.7-1.3-3.3-2.1-4.9l3.4-5.6
				c0.6-1,0.5-2.3-0.4-3.1l-10.1-9.8c-0.8-0.8-2.1-0.9-3.1-0.3l-5.4,3.6c-1.6-0.8-3.3-1.4-5-2l-1.5-6.4c-0.3-1.1-1.3-1.9-2.5-1.9
				l-14.1,0.3c-1.2,0-2.2,0.9-2.4,2l-1.3,6.4c-1.7,0.6-3.3,1.3-4.9,2.1l-5.6-3.4c-1-0.6-2.3-0.5-3.1,0.4l-9.8,10.1
				c-0.8,0.8-0.9,2.1-0.3,3.1l3.6,5.4c-0.8,1.6-1.4,3.3-2,5l-6.4,1.5c-1.1,0.3-1.9,1.3-1.9,2.5l0.3,14.1c0,1.2,0.9,2.2,2,2.4
				l6.4,1.3c0.6,1.7,1.3,3.3,2.1,4.9l-3.4,5.6c-0.6,1-0.5,2.3,0.4,3.1l10.1,9.8c0.8,0.8,2.1,0.9,3.1,0.3l5.4-3.6
				c1.6,0.8,3.3,1.4,5,2l1.5,6.4c0.3,1.1,1.3,1.9,2.5,1.9l14.1-0.3c1.2,0,2.2-0.9,2.4-2l1.3-6.4c1.7-0.6,3.3-1.3,4.9-2.1l5.6,3.4
				c1,0.6,2.3,0.5,3.1-0.4l9.8-10.1c0.8-0.8,0.9-2.1,0.3-3.1l-3.6-5.4c0.8-1.6,1.4-3.3,2-5l6.4-1.5
				C527.9,449.9,528.7,448.9,528.7,447.7z M487.3,456.3c-8.2,0.1-15-6.4-15.2-14.6c-0.1-8.2,6.4-15,14.6-15.2
				c8.2-0.1,15,6.4,15.2,14.6C502.1,449.3,495.5,456.1,487.3,456.3z"></path> 
 <path class="st25-1283621096" d="M480.8,483c-1.2,0-2.2-0.8-2.5-1.9l-1.5-6.4c-1.7-0.5-3.4-1.2-5-2l-5.4,3.6c-1,0.6-2.3,0.5-3.1-0.3
				l-10.1-9.8c-0.8-0.8-1-2.1-0.4-3.1l3.4-5.6c-0.8-1.6-1.6-3.2-2.1-4.9l-6.4-1.3c-1.1-0.2-2-1.2-2-2.4l-0.3-14.1
				c0-1.2,0.8-2.2,1.9-2.5l6.4-1.5c0.5-1.7,1.2-3.4,2-5l-3.6-5.4c-0.6-1-0.5-2.3,0.3-3.1l9.8-10.1c0.8-0.8,2.1-1,3.1-0.4l5.6,3.4
				c1.6-0.8,3.2-1.6,4.9-2.1l1.3-6.4c0.2-1.1,1.2-2,2.4-2l7-0.1l0.5,26.6c-8.2,0.1-14.8,6.9-14.6,15.2c0.1,8.2,6.9,14.8,15.2,14.6
				l0.5,26.6L480.8,483z"></path> 
</g> 
 <polygon class="st19-1283621096" points="414.3,348.6 496.7,533.4 495.4,494.6 		"></polygon> 
 <polygon class="st18-1283621096" points="413.7,347.5 423.9,492.2 495.4,494.6 		"></polygon> 
</g> 
</g> 
 <g> <g> <line class="st26-1283621096" x1="598" y1="356.9" x2="527.9" y2="299.7"></line> 
 <g> <polygon class="st27-1283621096" points="549.3,285 500,277 517.8,323.6 			"></polygon> 
</g> 
</g> 
</g> 
 <g> <g> <line class="st26-1283621096" x1="348.8" y1="438.8" x2="324" y2="553.8"></line> 
 <g> <polygon class="st27-1283621096" points="322.9,440.7 356.4,403.7 371.6,451.2 			"></polygon> 
</g> 
</g> 
</g> 
</svg>