<svg version="1.1" id="1188807310" xmlns="http://www.w3.org/2000/svg" xmlns:xlink="http://www.w3.org/1999/xlink" x="0px" y="0px" viewBox="0 0 512 512" style="enable-background:new 0 0 512 512;" xml:space="preserve" class="svg u_1188807310" data-icon-custom="true" data-icon-name="Paas.svg"> <style type="text/css">.st0-1188807310{fill:#5191FA;}
	.st1-1188807310{fill:#F9BD53;}
	.st2-1188807310{fill:none;stroke:#9AD9FC;stroke-width:2;stroke-miterlimit:10;stroke-dasharray:3,3;}
	.st3-1188807310{fill:#E8F5FC;}
	.st4-1188807310{fill:#D6EEFC;}
	.st5-1188807310{fill:#9AD9FC;}
	.st6-1188807310{fill:#FFFFFF;}
	.st7-1188807310{opacity:0.4;fill:#E5F2FD;}
	.st8-1188807310{fill:#70BEF2;}
	.st9-1188807310{fill:#D2F1FC;}
	.st10-1188807310{fill:#F5FAFE;stroke:#9AD9FC;stroke-width:2;stroke-miterlimit:10;stroke-dasharray:3,3;}
	.st11-1188807310{fill:#C3E9F4;}
	.st12-1188807310{fill:#FBB040;}
	.st13-1188807310{fill:#CFEEFF;}
	.st14-1188807310{fill-rule:evenodd;clip-rule:evenodd;fill:#95C8EC;}
	.st15-1188807310{fill-rule:evenodd;clip-rule:evenodd;fill:#70BEF2;}
	.st16-1188807310{fill:#DDDDDD;}
	.st17-1188807310{fill:#F7F7F7;}
	.st18-1188807310{fill:#CCCCCC;}
	.st19-1188807310{fill:#ED8B00;}
	.st20-1188807310{fill:#EAEAEA;}
	.st21-1188807310{fill:#0092FF;}
	.st22-1188807310{fill:#FF0000;}
	.st23-1188807310{fill:#00FF67;}
	.st24-1188807310{fill:#BAB6AF;}
	.st25-1188807310{fill:#005EB8;}
	.st26-1188807310{fill:#1AA1FC;}
	.st27-1188807310{fill:#F4AE7A;}
	.st28{font-family:'MicrosoftSansSerif';}
	.st29{font-size:72px;}</style> 
 <path class="st0-1188807310" d="M355.1,87.9c-3.5,0-7.1,0.4-10.6,1.1c-2.7-13.1-11.2-24.3-23.1-30.5c-11.9-6-26-6.3-38.2-0.7
	c-11-30.3-44.5-46-74.8-34.9s-46,44.5-34.9,74.8c-26.6,0.8-47.5,22.8-47.1,49.3c0.4,26.6,22.1,48,48.6,48h180.2
	c29.6,0,53.5-24,53.5-53.5S384.7,87.9,355.1,87.9z"></path> 
 <g> <path class="st1-1188807310" d="M211.4,218h-2.9c-0.3,0-0.5-0.2-0.5-0.5V213h4v4.4C212,217.8,211.8,218,211.4,218z"></path> 
 <path class="st0-1188807310" d="M215,214h-11c-1.1,0-2-0.9-2-2v-19h15v19C217,213.1,216.1,214,215,214z"></path> 
</g> 
 <g> <path class="st1-1188807310" d="M323.5,218h-2.9c-0.3,0-0.5-0.2-0.5-0.5V213h4v4.4C324,217.8,323.8,218,323.5,218z"></path> 
 <path class="st0-1188807310" d="M327,214h-11c-1.1,0-2-0.9-2-2v-19h15v19C329,213.1,328.1,214,327,214z"></path> 
</g> 
 <g> <path class="st1-1188807310" d="M264.3,217.4h-2.9c-0.3,0-0.5-0.2-0.5-0.5v-4.5h4v4.4C264.8,217.2,264.6,217.4,264.3,217.4z"></path> 
 <path class="st0-1188807310" d="M267.8,213.4h-11c-1.1,0-2-0.9-2-2v-19h15v19C269.8,212.5,268.9,213.4,267.8,213.4z"></path> 
</g> 
 <polyline class="st2-1188807310" points="323.6,217.4 324,235 391,274 411,347 "></polyline> 
 <path class="st3-1188807310" d="M220.7,390.5l-4.7,1.6c-0.5,0.1-0.7,0.5-0.9,0.8l-2,4.6l-1.6-4.7c-0.1-0.5-0.5-0.7-0.8-0.9l-4.6-2l4.7-1.6
	c0.5-0.1,0.7-0.5,0.9-0.8l2-4.6l1.6,4.7c0.1,0.5,0.5,0.7,0.8,0.9L220.7,390.5z"></path> 
 <path class="st4-1188807310" d="M292.3,496.5l-4.7,1.6c-0.5,0.1-0.7,0.5-0.9,0.8l-2,4.6l-1.6-4.7c-0.1-0.5-0.5-0.7-0.8-0.9l-4.6-2l4.7-1.6
	c0.5-0.1,0.7-0.5,0.9-0.8l2-4.6l1.6,4.7c0.1,0.5,0.5,0.7,0.8,0.9L292.3,496.5z"></path> 
 <path class="st3-1188807310" d="M258.3,408.1l-6.5,2.3c-0.6,0.2-1,0.6-1.3,1.1l-2.8,6.4l-2.3-6.5c-0.2-0.6-0.6-1-1.1-1.3l-6.4-2.8l6.5-2.3
	c0.6-0.2,1-0.6,1.3-1.1l2.8-6.4l2.3,6.5c0.2,0.6,0.6,1,1.1,1.3L258.3,408.1z"></path> 
 <g> <path class="st5-1188807310" d="M343,486.3H159v-91.6c0-10.6,8.6-19.1,19.1-19.1h145.8c10.6,0,19.1,8.6,19.1,19.1V486.3z"></path> 
 <rect x="205.3" y="348.5" transform="matrix(-1.836970e-16 1 -1 -1.836970e-16 681.909 179.909)" class="st6-1188807310" width="91.4" height="164.8"></rect> 
 <rect x="205.3" y="348.5" transform="matrix(-1.836970e-16 1 -1 -1.836970e-16 681.909 179.909)" class="st7-1188807310" width="91.4" height="164.8"></rect> 
 <path class="st8-1188807310" d="M135.8,486.3L135.8,486.3h230.4l0,0c0,3.4-2.7,6.1-6.1,6.1H141.9C138.6,492.4,135.8,489.6,135.8,486.3z"></path> 
 <path class="st9-1188807310" d="M220.3,486.3L220.3,486.3h61.4l0,0c0,1.7-1.4,3.1-3.1,3.1h-55.2C221.7,489.3,220.3,487.9,220.3,486.3z"></path> 
 <g> <path class="st10-1188807310" d="M273,460.4h-37.6c-5.9,0-10.7-4.8-10.7-10.7v-37.6c0-5.9,4.8-10.7,10.7-10.7H273c5.9,0,10.7,4.8,10.7,10.7
			v37.6C283.7,455.6,278.9,460.4,273,460.4z"></path> 
 <g> <polygon class="st11-1188807310" points="250.1,438.2 250.1,447.4 252,448.7 256.4,448.7 258.3,447.4 258.3,438.2 			"></polygon> 
 <path class="st12-1188807310" d="M265.9,422.6c0-6.4-5.1-11.6-11.5-11.7c-6.4-0.1-11.8,5.1-11.9,11.5c0,2.8,0.9,5.4,2.6,7.5
				c1.6,2,2.6,4.5,2.6,7.2v0.5c0,2.3,1.9,4.2,4.2,4.2h4.6c2.3,0,4.2-1.9,4.2-4.2v-0.3c0-2.7,1-5.3,2.6-7.4
				C264.9,427.8,265.9,425.3,265.9,422.6z"></path> 
 <g> <path class="st6-1188807310" d="M248,428.6c-0.3,0-0.6-0.1-0.8-0.4c-1.3-1.6-2-3.6-2-5.7c0-3.1,1.7-5.9,4.3-7.5c0.5-0.3,1.1-0.1,1.4,0.3
					c0.3,0.5,0.1,1.1-0.3,1.4c-2,1.2-3.3,3.4-3.3,5.8c0,1.6,0.5,3.1,1.5,4.4c0.4,0.4,0.3,1.1-0.2,1.5
					C248.5,428.5,248.3,428.6,248,428.6z"></path> 
</g> 
 <g> <path class="st8-1188807310" d="M258.5,448.3h-8.6c-0.5,0-0.9-0.3-1-0.8c-0.1-0.5,0.1-1,0.6-1.2l4.2-1.9h-3.8c-0.6,0-1-0.5-1-1s0.5-1,1-1
					h8.6c0.5,0,0.9,0.3,1,0.8c0.1,0.5-0.1,1-0.6,1.2l-4.2,1.9h3.8c0.6,0,1,0.5,1,1S259.1,448.3,258.5,448.3z"></path> 
</g> 
 <path class="st8-1188807310" d="M254.2,450.9c1.2,0,2.2-1,2.2-2.2H252C252,449.9,253,450.9,254.2,450.9z"></path> 
</g> 
</g> 
</g> 
 <rect x="361.3" y="267.4" class="st13-1188807310" width="53.6" height="41.1"></rect> 
 <path class="st14-1188807310" d="M420,283.4v30.8c0,2.1-2.2,3.8-4.8,3.8h-58.1c-2.6,0-4.8-1.7-4.8-3.8v-30.8l32.4,19.5c0.9,0.5,2.1,0.5,2.9,0
	L420,283.4z"></path> 
 <path class="st15-1188807310" d="M384.2,282.6h-16.8v2.7h16.8V282.6L384.2,282.6z M367.4,277.2h41.5v2.7h-41.5L367.4,277.2L367.4,277.2z
	 M367.4,272h41.5v2.7h-41.5L367.4,272z"></path> 
 <path class="st15-1188807310" d="M390.5,300.3l25.7,15.5l-27.7-14.6c0.4,0,0.8-0.2,1.1-0.4L390.5,300.3L390.5,300.3z M387.7,301.3L360,315.9
	l25.7-15.5l1,0.6C387,301.1,387.3,301.2,387.7,301.3L387.7,301.3z"></path> 
 <g> <rect x="388.8" y="357.1" class="st16-1188807310" width="58.5" height="147.1"></rect> 
 <g> <path class="st16-1188807310" d="M455,508.7h-73.9V352.5H455V508.7z M391.2,499.5H445V361.7h-53.8V499.5z"></path> 
</g> 
 <g> <path class="st17-1188807310" d="M451.9,508.7h-67.7V352.5h67.7V508.7z M393.5,499.5h49.3V361.7h-49.3V499.5z"></path> 
</g> 
 <rect x="393.4" y="353.6" class="st18-1188807310" width="4.8" height="4.8"></rect> 
 <rect x="438" y="353.6" class="st18-1188807310" width="4.8" height="4.8"></rect> 
 <g> <g> <rect x="395.2" y="363.8" class="st18-1188807310" width="45.7" height="6.7"></rect> 
 <rect x="397.4" y="365.6" class="st16-1188807310" width="19" height="3.1"></rect> 
 <rect x="400.6" y="365.6" class="st17-1188807310" width="3.3" height="3.1"></rect> 
 <g> <rect x="420.8" y="364.6" class="st16-1188807310" width="1.1" height="1.1"></rect> 
 <rect x="424.4" y="364.6" class="st16-1188807310" width="1.1" height="1.1"></rect> 
 <rect x="427.9" y="364.6" class="st16-1188807310" width="1.1" height="1.1"></rect> 
 <rect x="431.5" y="364.6" class="st16-1188807310" width="1.1" height="1.1"></rect> 
 <rect x="435.1" y="364.6" class="st16-1188807310" width="1.1" height="1.1"></rect> 
 <rect x="438.6" y="364.6" class="st16-1188807310" width="1.1" height="1.1"></rect> 
</g> 
 <g> <rect x="420.8" y="368.7" class="st16-1188807310" width="1.1" height="1.1"></rect> 
 <rect x="424.4" y="368.7" class="st16-1188807310" width="1.1" height="1.1"></rect> 
 <rect x="427.9" y="368.7" class="st16-1188807310" width="1.1" height="1.1"></rect> 
 <rect x="431.5" y="368.7" class="st16-1188807310" width="1.1" height="1.1"></rect> 
 <rect x="435.1" y="368.7" class="st16-1188807310" width="1.1" height="1.1"></rect> 
 <rect x="438.6" y="368.7" class="st16-1188807310" width="1.1" height="1.1"></rect> 
</g> 
 <g> <rect x="420.8" y="366.7" class="st16-1188807310" width="1.1" height="1.1"></rect> 
 <rect x="424.4" y="366.7" class="st16-1188807310" width="1.1" height="1.1"></rect> 
 <rect x="427.9" y="366.7" class="st16-1188807310" width="1.1" height="1.1"></rect> 
 <rect x="431.5" y="366.7" class="st16-1188807310" width="1.1" height="1.1"></rect> 
 <rect x="435.1" y="366.7" class="st16-1188807310" width="1.1" height="1.1"></rect> 
 <rect x="438.6" y="366.7" class="st16-1188807310" width="1.1" height="1.1"></rect> 
</g> 
</g> 
 <g> <rect x="395.2" y="373" class="st18-1188807310" width="45.7" height="6.7"></rect> 
 <rect x="397.4" y="374.9" class="st16-1188807310" width="19" height="3.1"></rect> 
 <rect x="400.6" y="374.9" class="st17-1188807310" width="3.3" height="3.1"></rect> 
 <g> <rect x="420.8" y="373.8" class="st16-1188807310" width="1.1" height="1.1"></rect> 
 <rect x="424.4" y="373.8" class="st16-1188807310" width="1.1" height="1.1"></rect> 
 <rect x="427.9" y="373.8" class="st16-1188807310" width="1.1" height="1.1"></rect> 
 <rect x="431.5" y="373.8" class="st16-1188807310" width="1.1" height="1.1"></rect> 
 <rect x="435.1" y="373.8" class="st16-1188807310" width="1.1" height="1.1"></rect> 
 <rect x="438.6" y="373.8" class="st16-1188807310" width="1.1" height="1.1"></rect> 
</g> 
 <g> <rect x="420.8" y="377.9" class="st16-1188807310" width="1.1" height="1.1"></rect> 
 <rect x="424.4" y="377.9" class="st16-1188807310" width="1.1" height="1.1"></rect> 
 <rect x="427.9" y="377.9" class="st16-1188807310" width="1.1" height="1.1"></rect> 
 <rect x="431.5" y="377.9" class="st16-1188807310" width="1.1" height="1.1"></rect> 
 <rect x="435.1" y="377.9" class="st16-1188807310" width="1.1" height="1.1"></rect> 
 <rect x="438.6" y="377.9" class="st16-1188807310" width="1.1" height="1.1"></rect> 
</g> 
 <g> <rect x="420.8" y="375.8" class="st16-1188807310" width="1.1" height="1.1"></rect> 
 <rect x="424.4" y="375.8" class="st16-1188807310" width="1.1" height="1.1"></rect> 
 <rect x="427.9" y="375.8" class="st16-1188807310" width="1.1" height="1.1"></rect> 
 <rect x="431.5" y="375.8" class="st16-1188807310" width="1.1" height="1.1"></rect> 
 <rect x="435.1" y="375.8" class="st16-1188807310" width="1.1" height="1.1"></rect> 
 <rect x="438.6" y="375.8" class="st16-1188807310" width="1.1" height="1.1"></rect> 
</g> 
</g> 
 <g> <rect x="393.4" y="381.3" class="st17-1188807310" width="7.2" height="2.2"></rect> 
 <rect x="435.6" y="381.3" class="st17-1188807310" width="7.2" height="2.2"></rect> 
</g> 
</g> 
 <g> <g> <rect x="395.2" y="385" class="st18-1188807310" width="45.7" height="6.7"></rect> 
 <rect x="397.4" y="386.8" class="st16-1188807310" width="19" height="3.1"></rect> 
 <rect x="400.6" y="386.8" class="st17-1188807310" width="3.3" height="3.1"></rect> 
 <g> <rect x="420.8" y="385.7" class="st16-1188807310" width="1.1" height="1.1"></rect> 
 <rect x="424.4" y="385.7" class="st16-1188807310" width="1.1" height="1.1"></rect> 
 <rect x="427.9" y="385.7" class="st16-1188807310" width="1.1" height="1.1"></rect> 
 <rect x="431.5" y="385.7" class="st16-1188807310" width="1.1" height="1.1"></rect> 
 <rect x="435.1" y="385.7" class="st16-1188807310" width="1.1" height="1.1"></rect> 
 <rect x="438.6" y="385.7" class="st16-1188807310" width="1.1" height="1.1"></rect> 
</g> 
 <g> <rect x="420.8" y="389.8" class="st16-1188807310" width="1.1" height="1.1"></rect> 
 <rect x="424.4" y="389.8" class="st16-1188807310" width="1.1" height="1.1"></rect> 
 <rect x="427.9" y="389.8" class="st16-1188807310" width="1.1" height="1.1"></rect> 
 <rect x="431.5" y="389.8" class="st16-1188807310" width="1.1" height="1.1"></rect> 
 <rect x="435.1" y="389.8" class="st16-1188807310" width="1.1" height="1.1"></rect> 
 <rect x="438.6" y="389.8" class="st16-1188807310" width="1.1" height="1.1"></rect> 
</g> 
 <g> <rect x="420.8" y="387.8" class="st16-1188807310" width="1.1" height="1.1"></rect> 
 <rect x="424.4" y="387.8" class="st16-1188807310" width="1.1" height="1.1"></rect> 
 <rect x="427.9" y="387.8" class="st16-1188807310" width="1.1" height="1.1"></rect> 
 <rect x="431.5" y="387.8" class="st16-1188807310" width="1.1" height="1.1"></rect> 
 <rect x="435.1" y="387.8" class="st16-1188807310" width="1.1" height="1.1"></rect> 
 <rect x="438.6" y="387.8" class="st16-1188807310" width="1.1" height="1.1"></rect> 
</g> 
</g> 
 <g> <rect x="395.2" y="394.2" class="st18-1188807310" width="45.7" height="6.7"></rect> 
 <rect x="397.4" y="396" class="st16-1188807310" width="19" height="3.1"></rect> 
 <rect x="400.6" y="396" class="st17-1188807310" width="3.3" height="3.1"></rect> 
 <g> <rect x="420.8" y="394.9" class="st16-1188807310" width="1.1" height="1.1"></rect> 
 <rect x="424.4" y="394.9" class="st16-1188807310" width="1.1" height="1.1"></rect> 
 <rect x="427.9" y="394.9" class="st16-1188807310" width="1.1" height="1.1"></rect> 
 <rect x="431.5" y="394.9" class="st16-1188807310" width="1.1" height="1.1"></rect> 
 <rect x="435.1" y="394.9" class="st16-1188807310" width="1.1" height="1.1"></rect> 
 <rect x="438.6" y="394.9" class="st16-1188807310" width="1.1" height="1.1"></rect> 
</g> 
 <g> <rect x="420.8" y="399" class="st16-1188807310" width="1.1" height="1.1"></rect> 
 <rect x="424.4" y="399" class="st16-1188807310" width="1.1" height="1.1"></rect> 
 <rect x="427.9" y="399" class="st16-1188807310" width="1.1" height="1.1"></rect> 
 <rect x="431.5" y="399" class="st16-1188807310" width="1.1" height="1.1"></rect> 
 <rect x="435.1" y="399" class="st16-1188807310" width="1.1" height="1.1"></rect> 
 <rect x="438.6" y="399" class="st16-1188807310" width="1.1" height="1.1"></rect> 
</g> 
 <g> <rect x="420.8" y="396.9" class="st16-1188807310" width="1.1" height="1.1"></rect> 
 <rect x="424.4" y="396.9" class="st16-1188807310" width="1.1" height="1.1"></rect> 
 <rect x="427.9" y="396.9" class="st16-1188807310" width="1.1" height="1.1"></rect> 
 <rect x="431.5" y="396.9" class="st16-1188807310" width="1.1" height="1.1"></rect> 
 <rect x="435.1" y="396.9" class="st16-1188807310" width="1.1" height="1.1"></rect> 
 <rect x="438.6" y="396.9" class="st16-1188807310" width="1.1" height="1.1"></rect> 
</g> 
</g> 
 <g> <rect x="393.4" y="402.4" class="st17-1188807310" width="7.2" height="2.2"></rect> 
 <rect x="435.6" y="402.4" class="st17-1188807310" width="7.2" height="2.2"></rect> 
</g> 
</g> 
 <g> <g> <rect x="395.2" y="406.1" class="st18-1188807310" width="45.7" height="6.7"></rect> 
 <rect x="397.4" y="408" class="st16-1188807310" width="19" height="3.1"></rect> 
 <rect x="400.6" y="408" class="st17-1188807310" width="3.3" height="3.1"></rect> 
 <g> <rect x="420.8" y="406.9" class="st16-1188807310" width="1.1" height="1.1"></rect> 
 <rect x="424.4" y="406.9" class="st16-1188807310" width="1.1" height="1.1"></rect> 
 <rect x="427.9" y="406.9" class="st16-1188807310" width="1.1" height="1.1"></rect> 
 <rect x="431.5" y="406.9" class="st16-1188807310" width="1.1" height="1.1"></rect> 
 <rect x="435.1" y="406.9" class="st16-1188807310" width="1.1" height="1.1"></rect> 
 <rect x="438.6" y="406.9" class="st16-1188807310" width="1.1" height="1.1"></rect> 
</g> 
 <g> <rect x="420.8" y="411" class="st16-1188807310" width="1.1" height="1.1"></rect> 
 <rect x="424.4" y="411" class="st16-1188807310" width="1.1" height="1.1"></rect> 
 <rect x="427.9" y="411" class="st16-1188807310" width="1.1" height="1.1"></rect> 
 <rect x="431.5" y="411" class="st16-1188807310" width="1.1" height="1.1"></rect> 
 <rect x="435.1" y="411" class="st16-1188807310" width="1.1" height="1.1"></rect> 
 <rect x="438.6" y="411" class="st16-1188807310" width="1.1" height="1.1"></rect> 
</g> 
 <g> <rect x="420.8" y="408.9" class="st16-1188807310" width="1.1" height="1.1"></rect> 
 <rect x="424.4" y="408.9" class="st16-1188807310" width="1.1" height="1.1"></rect> 
 <rect x="427.9" y="408.9" class="st16-1188807310" width="1.1" height="1.1"></rect> 
 <rect x="431.5" y="408.9" class="st16-1188807310" width="1.1" height="1.1"></rect> 
 <rect x="435.1" y="408.9" class="st16-1188807310" width="1.1" height="1.1"></rect> 
 <rect x="438.6" y="408.9" class="st16-1188807310" width="1.1" height="1.1"></rect> 
</g> 
</g> 
 <g> <rect x="395.2" y="415.3" class="st18-1188807310" width="45.7" height="6.7"></rect> 
 <rect x="397.4" y="417.1" class="st16-1188807310" width="19" height="3.1"></rect> 
 <rect x="400.6" y="417.1" class="st17-1188807310" width="3.3" height="3.1"></rect> 
 <g> <rect x="420.8" y="416.1" class="st16-1188807310" width="1.1" height="1.1"></rect> 
 <rect x="424.4" y="416.1" class="st16-1188807310" width="1.1" height="1.1"></rect> 
 <rect x="427.9" y="416.1" class="st16-1188807310" width="1.1" height="1.1"></rect> 
 <rect x="431.5" y="416.1" class="st16-1188807310" width="1.1" height="1.1"></rect> 
 <rect x="435.1" y="416.1" class="st16-1188807310" width="1.1" height="1.1"></rect> 
 <rect x="438.6" y="416.1" class="st16-1188807310" width="1.1" height="1.1"></rect> 
</g> 
 <g> <rect x="420.8" y="420.2" class="st16-1188807310" width="1.1" height="1.1"></rect> 
 <rect x="424.4" y="420.2" class="st16-1188807310" width="1.1" height="1.1"></rect> 
 <rect x="427.9" y="420.2" class="st16-1188807310" width="1.1" height="1.1"></rect> 
 <rect x="431.5" y="420.2" class="st16-1188807310" width="1.1" height="1.1"></rect> 
 <rect x="435.1" y="420.2" class="st16-1188807310" width="1.1" height="1.1"></rect> 
 <rect x="438.6" y="420.2" class="st16-1188807310" width="1.1" height="1.1"></rect> 
</g> 
 <g> <rect x="420.8" y="418.1" class="st16-1188807310" width="1.1" height="1.1"></rect> 
 <rect x="424.4" y="418.1" class="st16-1188807310" width="1.1" height="1.1"></rect> 
 <rect x="427.9" y="418.1" class="st16-1188807310" width="1.1" height="1.1"></rect> 
 <rect x="431.5" y="418.1" class="st16-1188807310" width="1.1" height="1.1"></rect> 
 <rect x="435.1" y="418.1" class="st16-1188807310" width="1.1" height="1.1"></rect> 
 <rect x="438.6" y="418.1" class="st16-1188807310" width="1.1" height="1.1"></rect> 
</g> 
</g> 
 <g> <rect x="393.4" y="423.6" class="st17-1188807310" width="7.2" height="2.2"></rect> 
 <rect x="435.6" y="423.6" class="st17-1188807310" width="7.2" height="2.2"></rect> 
</g> 
</g> 
 <g> <g> <rect x="395.2" y="427.3" class="st18-1188807310" width="45.7" height="6.7"></rect> 
 <rect x="397.4" y="429.1" class="st16-1188807310" width="19" height="3.1"></rect> 
 <rect x="400.6" y="429.1" class="st17-1188807310" width="3.3" height="3.1"></rect> 
 <g> <rect x="420.8" y="428" class="st16-1188807310" width="1.1" height="1.1"></rect> 
 <rect x="424.4" y="428" class="st16-1188807310" width="1.1" height="1.1"></rect> 
 <rect x="427.9" y="428" class="st16-1188807310" width="1.1" height="1.1"></rect> 
 <rect x="431.5" y="428" class="st16-1188807310" width="1.1" height="1.1"></rect> 
 <rect x="435.1" y="428" class="st16-1188807310" width="1.1" height="1.1"></rect> 
 <rect x="438.6" y="428" class="st16-1188807310" width="1.1" height="1.1"></rect> 
</g> 
 <g> <rect x="420.8" y="432.1" class="st16-1188807310" width="1.1" height="1.1"></rect> 
 <rect x="424.4" y="432.1" class="st16-1188807310" width="1.1" height="1.1"></rect> 
 <rect x="427.9" y="432.1" class="st16-1188807310" width="1.1" height="1.1"></rect> 
 <rect x="431.5" y="432.1" class="st16-1188807310" width="1.1" height="1.1"></rect> 
 <rect x="435.1" y="432.1" class="st16-1188807310" width="1.1" height="1.1"></rect> 
 <rect x="438.6" y="432.1" class="st16-1188807310" width="1.1" height="1.1"></rect> 
</g> 
 <g> <rect x="420.8" y="430" class="st16-1188807310" width="1.1" height="1.1"></rect> 
 <rect x="424.4" y="430" class="st16-1188807310" width="1.1" height="1.1"></rect> 
 <rect x="427.9" y="430" class="st16-1188807310" width="1.1" height="1.1"></rect> 
 <rect x="431.5" y="430" class="st16-1188807310" width="1.1" height="1.1"></rect> 
 <rect x="435.1" y="430" class="st16-1188807310" width="1.1" height="1.1"></rect> 
 <rect x="438.6" y="430" class="st16-1188807310" width="1.1" height="1.1"></rect> 
</g> 
</g> 
 <g> <rect x="395.2" y="436.4" class="st18-1188807310" width="45.7" height="6.7"></rect> 
 <rect x="397.4" y="438.2" class="st16-1188807310" width="19" height="3.1"></rect> 
 <rect x="400.6" y="438.2" class="st17-1188807310" width="3.3" height="3.1"></rect> 
 <g> <rect x="420.8" y="437.2" class="st16-1188807310" width="1.1" height="1.1"></rect> 
 <rect x="424.4" y="437.2" class="st16-1188807310" width="1.1" height="1.1"></rect> 
 <rect x="427.9" y="437.2" class="st16-1188807310" width="1.1" height="1.1"></rect> 
 <rect x="431.5" y="437.2" class="st16-1188807310" width="1.1" height="1.1"></rect> 
 <rect x="435.1" y="437.2" class="st16-1188807310" width="1.1" height="1.1"></rect> 
 <rect x="438.6" y="437.2" class="st16-1188807310" width="1.1" height="1.1"></rect> 
</g> 
 <g> <rect x="420.8" y="441.3" class="st16-1188807310" width="1.1" height="1.1"></rect> 
 <rect x="424.4" y="441.3" class="st16-1188807310" width="1.1" height="1.1"></rect> 
 <rect x="427.9" y="441.3" class="st16-1188807310" width="1.1" height="1.1"></rect> 
 <rect x="431.5" y="441.3" class="st16-1188807310" width="1.1" height="1.1"></rect> 
 <rect x="435.1" y="441.3" class="st16-1188807310" width="1.1" height="1.1"></rect> 
 <rect x="438.6" y="441.3" class="st16-1188807310" width="1.1" height="1.1"></rect> 
</g> 
 <g> <rect x="420.8" y="439.2" class="st16-1188807310" width="1.1" height="1.1"></rect> 
 <rect x="424.4" y="439.2" class="st16-1188807310" width="1.1" height="1.1"></rect> 
 <rect x="427.9" y="439.2" class="st16-1188807310" width="1.1" height="1.1"></rect> 
 <rect x="431.5" y="439.2" class="st16-1188807310" width="1.1" height="1.1"></rect> 
 <rect x="435.1" y="439.2" class="st16-1188807310" width="1.1" height="1.1"></rect> 
 <rect x="438.6" y="439.2" class="st16-1188807310" width="1.1" height="1.1"></rect> 
</g> 
</g> 
 <g> <rect x="393.4" y="444.7" class="st17-1188807310" width="7.2" height="2.2"></rect> 
 <rect x="435.6" y="444.7" class="st17-1188807310" width="7.2" height="2.2"></rect> 
</g> 
</g> 
 <g> <g> <rect x="395.2" y="448.4" class="st18-1188807310" width="45.7" height="6.7"></rect> 
 <rect x="397.4" y="450.2" class="st16-1188807310" width="19" height="3.1"></rect> 
 <rect x="400.6" y="450.2" class="st17-1188807310" width="3.3" height="3.1"></rect> 
 <g> <rect x="420.8" y="449.2" class="st16-1188807310" width="1.1" height="1.1"></rect> 
 <rect x="424.4" y="449.2" class="st16-1188807310" width="1.1" height="1.1"></rect> 
 <rect x="427.9" y="449.2" class="st16-1188807310" width="1.1" height="1.1"></rect> 
 <rect x="431.5" y="449.2" class="st16-1188807310" width="1.1" height="1.1"></rect> 
 <rect x="435.1" y="449.2" class="st16-1188807310" width="1.1" height="1.1"></rect> 
 <rect x="438.6" y="449.2" class="st16-1188807310" width="1.1" height="1.1"></rect> 
</g> 
 <g> <rect x="420.8" y="453.3" class="st16-1188807310" width="1.1" height="1.1"></rect> 
 <rect x="424.4" y="453.3" class="st16-1188807310" width="1.1" height="1.1"></rect> 
 <rect x="427.9" y="453.3" class="st16-1188807310" width="1.1" height="1.1"></rect> 
 <rect x="431.5" y="453.3" class="st16-1188807310" width="1.1" height="1.1"></rect> 
 <rect x="435.1" y="453.3" class="st16-1188807310" width="1.1" height="1.1"></rect> 
 <rect x="438.6" y="453.3" class="st16-1188807310" width="1.1" height="1.1"></rect> 
</g> 
 <g> <rect x="420.8" y="451.2" class="st16-1188807310" width="1.1" height="1.1"></rect> 
 <rect x="424.4" y="451.2" class="st16-1188807310" width="1.1" height="1.1"></rect> 
 <rect x="427.9" y="451.2" class="st16-1188807310" width="1.1" height="1.1"></rect> 
 <rect x="431.5" y="451.2" class="st16-1188807310" width="1.1" height="1.1"></rect> 
 <rect x="435.1" y="451.2" class="st16-1188807310" width="1.1" height="1.1"></rect> 
 <rect x="438.6" y="451.2" class="st16-1188807310" width="1.1" height="1.1"></rect> 
</g> 
</g> 
 <g> <rect x="395.2" y="457.6" class="st18-1188807310" width="45.7" height="6.7"></rect> 
 <rect x="397.4" y="459.4" class="st16-1188807310" width="19" height="3.1"></rect> 
 <rect x="400.6" y="459.4" class="st17-1188807310" width="3.3" height="3.1"></rect> 
 <g> <rect x="420.8" y="458.3" class="st16-1188807310" width="1.1" height="1.1"></rect> 
 <rect x="424.4" y="458.3" class="st16-1188807310" width="1.1" height="1.1"></rect> 
 <rect x="427.9" y="458.3" class="st16-1188807310" width="1.1" height="1.1"></rect> 
 <rect x="431.5" y="458.3" class="st16-1188807310" width="1.1" height="1.1"></rect> 
 <rect x="435.1" y="458.3" class="st16-1188807310" width="1.1" height="1.1"></rect> 
 <rect x="438.6" y="458.3" class="st16-1188807310" width="1.1" height="1.1"></rect> 
</g> 
 <g> <rect x="420.8" y="462.5" class="st16-1188807310" width="1.1" height="1.1"></rect> 
 <rect x="424.4" y="462.5" class="st16-1188807310" width="1.1" height="1.1"></rect> 
 <rect x="427.9" y="462.5" class="st16-1188807310" width="1.1" height="1.1"></rect> 
 <rect x="431.5" y="462.5" class="st16-1188807310" width="1.1" height="1.1"></rect> 
 <rect x="435.1" y="462.5" class="st16-1188807310" width="1.1" height="1.1"></rect> 
 <rect x="438.6" y="462.5" class="st16-1188807310" width="1.1" height="1.1"></rect> 
</g> 
 <g> <rect x="420.8" y="460.4" class="st16-1188807310" width="1.1" height="1.1"></rect> 
 <rect x="424.4" y="460.4" class="st16-1188807310" width="1.1" height="1.1"></rect> 
 <rect x="427.9" y="460.4" class="st16-1188807310" width="1.1" height="1.1"></rect> 
 <rect x="431.5" y="460.4" class="st16-1188807310" width="1.1" height="1.1"></rect> 
 <rect x="435.1" y="460.4" class="st16-1188807310" width="1.1" height="1.1"></rect> 
 <rect x="438.6" y="460.4" class="st16-1188807310" width="1.1" height="1.1"></rect> 
</g> 
</g> 
 <g> <rect x="393.4" y="465.9" class="st17-1188807310" width="7.2" height="2.2"></rect> 
 <rect x="435.6" y="465.9" class="st17-1188807310" width="7.2" height="2.2"></rect> 
</g> 
</g> 
 <g> <g> <rect x="395.2" y="469.5" class="st18-1188807310" width="45.7" height="6.7"></rect> 
 <rect x="397.4" y="471.3" class="st16-1188807310" width="19" height="3.1"></rect> 
 <rect x="400.6" y="471.3" class="st17-1188807310" width="3.3" height="3.1"></rect> 
 <g> <rect x="420.8" y="470.3" class="st16-1188807310" width="1.1" height="1.1"></rect> 
 <rect x="424.4" y="470.3" class="st16-1188807310" width="1.1" height="1.1"></rect> 
 <rect x="427.9" y="470.3" class="st16-1188807310" width="1.1" height="1.1"></rect> 
 <rect x="431.5" y="470.3" class="st16-1188807310" width="1.1" height="1.1"></rect> 
 <rect x="435.1" y="470.3" class="st16-1188807310" width="1.1" height="1.1"></rect> 
 <rect x="438.6" y="470.3" class="st16-1188807310" width="1.1" height="1.1"></rect> 
</g> 
 <g> <rect x="420.8" y="474.4" class="st16-1188807310" width="1.1" height="1.1"></rect> 
 <rect x="424.4" y="474.4" class="st16-1188807310" width="1.1" height="1.1"></rect> 
 <rect x="427.9" y="474.4" class="st16-1188807310" width="1.1" height="1.1"></rect> 
 <rect x="431.5" y="474.4" class="st16-1188807310" width="1.1" height="1.1"></rect> 
 <rect x="435.1" y="474.4" class="st16-1188807310" width="1.1" height="1.1"></rect> 
 <rect x="438.6" y="474.4" class="st16-1188807310" width="1.1" height="1.1"></rect> 
</g> 
 <g> <rect x="420.8" y="472.3" class="st16-1188807310" width="1.1" height="1.1"></rect> 
 <rect x="424.4" y="472.3" class="st16-1188807310" width="1.1" height="1.1"></rect> 
 <rect x="427.9" y="472.3" class="st16-1188807310" width="1.1" height="1.1"></rect> 
 <rect x="431.5" y="472.3" class="st16-1188807310" width="1.1" height="1.1"></rect> 
 <rect x="435.1" y="472.3" class="st16-1188807310" width="1.1" height="1.1"></rect> 
 <rect x="438.6" y="472.3" class="st16-1188807310" width="1.1" height="1.1"></rect> 
</g> 
</g> 
 <g> <rect x="395.2" y="478.7" class="st18-1188807310" width="45.7" height="6.7"></rect> 
 <rect x="397.4" y="480.6" class="st16-1188807310" width="19" height="3.1"></rect> 
 <rect x="400.6" y="480.6" class="st17-1188807310" width="3.3" height="3.1"></rect> 
 <g> <rect x="420.8" y="479.5" class="st16-1188807310" width="1.1" height="1.1"></rect> 
 <rect x="424.4" y="479.5" class="st16-1188807310" width="1.1" height="1.1"></rect> 
 <rect x="427.9" y="479.5" class="st16-1188807310" width="1.1" height="1.1"></rect> 
 <rect x="431.5" y="479.5" class="st16-1188807310" width="1.1" height="1.1"></rect> 
 <rect x="435.1" y="479.5" class="st16-1188807310" width="1.1" height="1.1"></rect> 
 <rect x="438.6" y="479.5" class="st16-1188807310" width="1.1" height="1.1"></rect> 
</g> 
 <g> <rect x="420.8" y="483.6" class="st16-1188807310" width="1.1" height="1.1"></rect> 
 <rect x="424.4" y="483.6" class="st16-1188807310" width="1.1" height="1.1"></rect> 
 <rect x="427.9" y="483.6" class="st16-1188807310" width="1.1" height="1.1"></rect> 
 <rect x="431.5" y="483.6" class="st16-1188807310" width="1.1" height="1.1"></rect> 
 <rect x="435.1" y="483.6" class="st16-1188807310" width="1.1" height="1.1"></rect> 
 <rect x="438.6" y="483.6" class="st16-1188807310" width="1.1" height="1.1"></rect> 
</g> 
 <g> <rect x="420.8" y="481.6" class="st16-1188807310" width="1.1" height="1.1"></rect> 
 <rect x="424.4" y="481.6" class="st16-1188807310" width="1.1" height="1.1"></rect> 
 <rect x="427.9" y="481.6" class="st16-1188807310" width="1.1" height="1.1"></rect> 
 <rect x="431.5" y="481.6" class="st16-1188807310" width="1.1" height="1.1"></rect> 
 <rect x="435.1" y="481.6" class="st16-1188807310" width="1.1" height="1.1"></rect> 
 <rect x="438.6" y="481.6" class="st16-1188807310" width="1.1" height="1.1"></rect> 
</g> 
</g> 
 <g> <rect x="393.4" y="487" class="st17-1188807310" width="7.2" height="2.2"></rect> 
 <rect x="435.6" y="487" class="st17-1188807310" width="7.2" height="2.2"></rect> 
</g> 
</g> 
 <g> <path class="st12-1188807310" d="M435.1,494.5c0,0.5-0.5,1-1,1h-33c-0.5,0-1-0.5-1-1l0,0c0-0.5,0.5-1,1-1h33
			C434.6,493.5,435.1,494,435.1,494.5L435.1,494.5z"></path> 
 <path class="st19-1188807310" d="M400,494.5c0,0.5,0.5,1,1,1h33c0.5,0,1-0.5,1-1H400z"></path> 
</g> 
 <g> <path class="st12-1188807310" d="M435.1,496.5c0,0.5-0.5,1-1,1h-33c-0.5,0-1-0.5-1-1l0,0c0-0.5,0.5-1,1-1h33
			C434.6,495.5,435.1,496,435.1,496.5L435.1,496.5z"></path> 
 <path class="st19-1188807310" d="M400,496.5c0,0.5,0.5,1,1,1h33c0.5,0,1-0.5,1-1H400z"></path> 
</g> 
 <g> <path class="st12-1188807310" d="M435.1,492.5c0,0.5-0.5,1-1,1h-33c-0.5,0-1-0.5-1-1l0,0c0-0.5,0.5-1,1-1h33
			C434.6,491.5,435.1,491.9,435.1,492.5L435.1,492.5z"></path> 
 <path class="st19-1188807310" d="M400,492.5c0,0.5,0.5,1,1,1h33c0.5,0,1-0.5,1-1H400z"></path> 
</g> 
 <g> <path class="st12-1188807310" d="M435.1,498.4c0,0.5-0.5,1-1,1h-33c-0.5,0-1-0.5-1-1l0,0c0-0.5,0.5-1,1-1h33
			C434.6,497.5,435.1,497.9,435.1,498.4L435.1,498.4z"></path> 
 <path class="st19-1188807310" d="M400,498.4c0,0.5,0.5,1,1,1h33c0.5,0,1-0.5,1-1H400z"></path> 
</g> 
 <g> <g> <path class="st12-1188807310" d="M432,508.7h-6.3c-2.1,0-3.7-1.6-3.7-3.7v-3.7c0-0.9-0.6-1.7-1.4-1.7h-2.4v-2h2.4c1.8,0,3.4,1.6,3.4,3.7v3.7
				c0,1,0.8,1.7,1.7,1.7h6.3V508.7L432,508.7z"></path> 
</g> 
 <path class="st19-1188807310" d="M422,501.3v3.7c0,2.1,1.6,3.7,3.7,3.7h6.3v-1h-6.3c-1.6,0-2.7-1.3-2.7-2.7v-3.7c0-1.6-1.1-2.7-2.4-2.7
			c-0.6,0-1.6,0-2.4,0v1h2.4C421.4,499.4,422,500.2,422,501.3z"></path> 
 <g> <rect x="434.9" y="507.1" class="st20-1188807310" width="1.3" height="1.3"></rect> 
 <g> <rect x="435.1" y="507.7" class="st21-1188807310" width="0.7" height="0.1"></rect> 
 <rect x="435.1" y="507.5" class="st22-1188807310" width="0.7" height="0.1"></rect> 
 <rect x="435.1" y="507.9" class="st23-1188807310" width="0.7" height="0.1"></rect> 
</g> 
 <rect x="431.9" y="506.7" class="st18-1188807310" width="3" height="2"></rect> 
 <rect x="432.4" y="507.1" class="st24-1188807310" width="2" height="1.3"></rect> 
</g> 
</g> 
</g> 
 <g> <g> <circle class="st12-1188807310" cx="167" cy="355.6" r="31.4"></circle> 
</g> 
 <g> <path class="st6-1188807310" d="M176.8,355.7v-2.3c0-0.4-0.3-0.7-0.7-0.7h-1.5c-0.3,0-0.5-0.2-0.6-0.5c-0.1-0.4-0.3-0.9-0.5-1.3
			c-0.1-0.3-0.1-0.6,0.1-0.8l1-1c0.3-0.3,0.3-0.7,0-0.9l-1.4-1.4c-0.3-0.3-0.7-0.3-0.9,0l-1.1,1.1c-0.2,0.2-0.5,0.3-0.8,0.1
			c-0.3-0.2-0.7-0.3-1-0.4s-0.5-0.3-0.5-0.6v-1.5c0-0.4-0.3-0.7-0.7-0.7h-2c-0.4,0-0.7,0.3-0.7,0.7v1.5c0,0.3-0.2,0.6-0.5,0.6
			c-0.4,0.1-0.9,0.3-1.3,0.5c-0.3,0.1-0.6,0.1-0.8-0.1l-1.1-1.1c-0.3-0.3-0.7-0.3-0.9,0l-1.4,1.4c-0.3,0.3-0.3,0.7,0,0.9l1,1
			c0.2,0.2,0.3,0.5,0.1,0.8c-0.2,0.4-0.4,0.8-0.5,1.3c-0.1,0.3-0.3,0.5-0.6,0.5H158c-0.4,0-0.7,0.3-0.7,0.7v2.3
			c0,0.4,0.3,0.7,0.7,0.7h1.5c0.3,0,0.5,0.2,0.6,0.5c0.1,0.4,0.3,0.9,0.5,1.3c0.1,0.3,0.1,0.6-0.1,0.8l-1,1c-0.3,0.3-0.3,0.7,0,0.9
			l1.4,1.4c0.3,0.3,0.7,0.3,0.9,0l1.1-1.1c0.2-0.2,0.5-0.3,0.8-0.1c0.4,0.2,0.8,0.4,1.3,0.5c0.3,0.1,0.5,0.3,0.5,0.6v1.5
			c0,0.4,0.3,0.7,0.7,0.7h2c0.4,0,0.7-0.3,0.7-0.7v-1.5c0-0.3,0.2-0.5,0.5-0.6c0.4-0.1,0.7-0.3,1-0.4s0.6-0.1,0.8,0.1l1.1,1.1
			c0.3,0.3,0.7,0.3,0.9,0l1.4-1.4c0.3-0.3,0.3-0.7,0-0.9l-1-1c-0.2-0.2-0.3-0.5-0.1-0.8c0.2-0.4,0.4-0.8,0.5-1.3
			c0.1-0.3,0.3-0.5,0.6-0.5h1.5C176.5,356.4,176.8,356.1,176.8,355.7z M167,357.1c-1.4,0-2.5-1.1-2.5-2.5s1.1-2.5,2.5-2.5
			s2.5,1.1,2.5,2.5S168.4,357.1,167,357.1z"></path> 
 <g> <path class="st6-1188807310" d="M158.6,346.6c0.3-0.1,0.5-0.3,0.5-0.6v-2c0-0.3-0.3-0.6-0.6-0.6s-0.6,0.3-0.6,0.6v0.5l-1.8-1.8
				c-0.2-0.2-0.6-0.2-0.9,0c-0.2,0.2-0.2,0.6,0,0.9l1.8,1.8h-0.5c-0.3,0-0.6,0.3-0.6,0.6c0,0.3,0.3,0.6,0.6,0.6h2
				C158.5,346.7,158.5,346.6,158.6,346.6L158.6,346.6L158.6,346.6z"></path> 
 <path class="st6-1188807310" d="M178.9,342.7c-0.2-0.2-0.6-0.2-0.9,0l-1.8,1.8V344c0-0.3-0.3-0.6-0.6-0.6s-0.6,0.3-0.6,0.6v2
				c0,0.3,0.3,0.6,0.6,0.6h2c0.3,0,0.6-0.3,0.6-0.6c0-0.3-0.3-0.6-0.6-0.6h-0.5l1.8-1.8C179.1,343.4,179.1,343,178.9,342.7
				C178.7,342.5,179.1,343,178.9,342.7z"></path> 
 <path class="st6-1188807310" d="M159.1,362.9c0-0.3-0.3-0.6-0.6-0.6h-2c-0.3,0-0.6,0.3-0.6,0.6c0,0.3,0.3,0.6,0.6,0.6h0.5l-1.8,1.8
				c-0.2,0.2-0.2,0.6,0,0.9c0.1,0.1,0.3,0.2,0.4,0.2c0.2,0,0.3-0.1,0.4-0.2l1.8-1.8v0.5c0,0.3,0.3,0.6,0.6,0.6s0.6-0.3,0.6-0.6
				L159.1,362.9C159.1,363,159.1,363,159.1,362.9L159.1,362.9z"></path> 
 <path class="st6-1188807310" d="M178.9,365.4l-1.8-1.8h0.5c0.3,0,0.6-0.3,0.6-0.6c0-0.3-0.2-0.6-0.6-0.6h-2c-0.3,0-0.6,0.3-0.6,0.6v2
				c0,0.3,0.3,0.6,0.6,0.6s0.6-0.3,0.6-0.6v-0.5l1.8,1.8c0.1,0.1,0.3,0.2,0.4,0.2s0.3-0.1,0.4-0.2
				C179.1,366.1,179.1,365.7,178.9,365.4L178.9,365.4z"></path> 
</g> 
 <circle class="st25-1188807310" cx="151.4" cy="339" r="3.7"></circle> 
 <circle class="st26-1188807310" cx="182.7" cy="339" r="3.7"></circle> 
 <circle class="st26-1188807310" cx="151.4" cy="370.2" r="3.7"></circle> 
 <circle class="st25-1188807310" cx="182.7" cy="370.2" r="3.7"></circle> 
</g> 
</g> 
 <path id="XMLID_3_" class="st27-1188807310" d="M114.5,466.1l-4.4-4.8c2.5-3.8,4.2-7.8,5.6-12.1l6.4,0.2c3.8,0.2,7.3-3,7.5-7.1l0.4-8.1
	c0.2-3.8-3-7.3-7.1-7.5l-6.4-0.2c-1-4.6-2.5-8.4-4.8-12.4l4.8-4.4c2.9-2.9,3-7.3,0.4-10.3l-5.6-5.9c-2.7-2.9-7.5-3-10.3-0.4
	l-4.8,4.3c-3.8-2.5-7.8-4.2-12.1-5.6l0.2-6.2c0.2-3.8-3-7.3-7.1-7.5l-8.3-0.2c-3.8-0.2-7.3,3-7.5,7.1l-0.2,6.4
	c-4.6,1-8.4,2.5-12.4,4.8l-4.4-4.8c-2.7-2.9-7.5-3-10.3-0.4l-5.9,5.6c-1.3,1.3-2.3,3-2.3,5.2c0,1.9,0.6,3.8,1.9,5.2l4.4,4.8
	c-2.5,3.8-4.2,7.8-5.6,12.1l-6.4-0.2c-3.8-0.2-7.3,3-7.5,7.1l-0.4,8.1c-0.2,3.8,3,7.3,7.1,7.5l6.4,0.2c1,4.6,2.5,8.4,4.8,12.4
	l-4.8,4.4c-1.3,1.3-2.3,3-2.3,5.2c0,2.2,0.6,3.8,1.9,5.2l5.6,5.9c1.3,1.3,3,2.3,5.2,2.3c1.9,0,3.8-0.6,5.2-1.9l4.8-4.4
	c3.8,2.5,7.8,4.2,12.1,5.6l-0.2,6.4c-0.2,3.8,3,7.3,7.1,7.5l8.1,0.4c3.8,0.2,7.3-3,7.5-7.1l0.2-6.4c4.6-1,8.4-2.5,12.4-4.8l4.4,4.8
	c1.3,1.3,3,2.3,5.2,2.3c1.9,0,3.8-0.6,5.2-1.9l5.9-5.6C117.1,473.8,117.1,469.2,114.5,466.1z M70.1,465.4c-4.2-0.2-8.3-1.1-11.9-2.9
	c-10-5-16.1-15.3-15.9-26.4c0.4-15.9,13.8-28.2,29.7-27.8c4.2,0.2,8.3,1.1,11.9,2.9c10,5,16.1,15.3,15.9,26.4
	C99.5,453.5,86.1,465.7,70.1,465.4z"></path> 
 <line class="st2-1188807310" x1="265" y1="375" x2="264.1" y2="220.6"></line> 
 <line class="st2-1188807310" x1="81" y1="380" x2="211.1" y2="217.8"></line> 
 <text transform="matrix(0.9833 0 0 1 182.8086 157.5747)" class="st6 st28 st29-1188807310">PaaS</text> 
</svg>