<svg version="1.1" id="1000289310" xmlns="http://www.w3.org/2000/svg" xmlns:xlink="http://www.w3.org/1999/xlink" x="0px" y="0px" viewBox="0 0 266.8 264.4" style="enable-background:new 0 0 266.8 264.4;" xml:space="preserve" class="svg u_1000289310" data-icon-custom="true" data-icon-name="saas-development_1.svg"> <style type="text/css">.st0-1000289310{fill:#65B8EA;}
	.st1-1000289310{fill:#2F97D1;}
	.st2-1000289310{fill:#A6D7EC;}
	.st3-1000289310{fill:#86B9D0;}
	.st4-1000289310{fill:#90C9DD;}
	.st5-1000289310{fill:#909293;}
	.st6-1000289310{fill:#BDBFBF;}
	.st7-1000289310{fill:#646869;}
	.st8-1000289310{fill:#53B2DB;}
	.st9-1000289310{fill:#218EBF;}
	.st10-1000289310{fill:#04659B;}
	.st11-1000289310{fill:#E8E8E6;}
	.st12-1000289310{fill:#929596;}
	.st13-1000289310{fill:#A8ABAC;}
	.st14-1000289310{fill:#407075;}
	.st15-1000289310{fill:#22545F;}
	.st16-1000289310{fill:#2B646B;}
	.st17-1000289310{fill:#0F434E;}
	.st18-1000289310{fill:#00242B;}
	.st19-1000289310{fill:#B8BABA;}
	.st20-1000289310{fill:#D2D4D3;}
	.st21-1000289310{fill:#FFFFFF;}
	.st22-1000289310{fill:#559CA5;}
	.st23-1000289310{fill:#0071BC;}
	.st24-1000289310{fill:#A57D46;}
	.st25-1000289310{fill:#71BE72;}
	.st26-1000289310{fill:#299346;}
	.st27-1000289310{fill:#AFB2B2;}
	.st28-1000289310{fill:#95C8EC;}
	.st29-1000289310{fill:#D7ECF9;}
	.st30-1000289310{fill:#71BE71;stroke:#FFFFFF;stroke-miterlimit:10;}
	.st31-1000289310{fill:#272063;}
	.st32-1000289310{fill:#FCD2C5;}
	.st33-1000289310{fill:#194866;}
	.st34-1000289310{fill:#3D82C4;}
	.st35-1000289310{fill:#63A2D6;}
	.st36-1000289310{fill:#163F59;}
	.st37-1000289310{fill:#EDF5F8;}
	.st38-1000289310{fill:#A8D4EF;}
	.st39-1000289310{fill:#F2A24C;}
	.st40-1000289310{fill:#81C784;}
	.st41-1000289310{fill:#AFC4D5;}
	.st42-1000289310{fill:#546E7A;}
	.st43-1000289310{fill-rule:evenodd;clip-rule:evenodd;fill:#AFC4D6;}
	.st44-1000289310{fill-rule:evenodd;clip-rule:evenodd;fill:#EAF0F4;}
	.st45-1000289310{fill-rule:evenodd;clip-rule:evenodd;fill:#AFC4D5;}
	.st46-1000289310{fill-rule:evenodd;clip-rule:evenodd;fill:#BDD1E0;}
	.st47-1000289310{fill:#AFC4D6;}
	.st48-1000289310{fill:#D8893A;}
	.st49-1000289310{fill:#C67328;}
	.st50-1000289310{fill-rule:evenodd;clip-rule:evenodd;fill:#71BE72;}
	.st51-1000289310{fill-rule:evenodd;clip-rule:evenodd;fill:#3D82C4;}
	.st52-1000289310{fill-rule:evenodd;clip-rule:evenodd;fill:#FFFFFF;}
	.st53-1000289310{fill-rule:evenodd;clip-rule:evenodd;fill:#F2A24C;}
	.st54-1000289310{fill:#216CAA;}
	.st55-1000289310{fill:#FFBB00;}
	.st56-1000289310{fill:#254E63;}
	.st57-1000289310{fill:none;stroke:#95C8EC;stroke-width:2;stroke-miterlimit:10;}
	.st58-1000289310{fill:#4F9BC6;}
	.st59-1000289310{fill:#F4AE7A;}
	.st60-1000289310{fill:#FFFFFF;stroke:#D0D8DC;stroke-width:1.77;stroke-miterlimit:10;}
	.st61-1000289310{fill:#99CF8C;}
	.st62-1000289310{fill:#54B958;}
	.st63-1000289310{opacity:0.2;}
	.st64-1000289310{fill:#D0D8DC;}
	.st65-1000289310{fill:#78909C;}</style> 
 <g> <g> <rect x="423.7" y="-1201.8" class="st0-1000289310" width="159.6" height="42.3"></rect> 
 <g> <path class="st1-1000289310" d="M429.4-1171.7v-5.4h8.6v5.4h-4v1.2c1.1,0,2,0.4,2,0.9h-4.3c0-0.5,0.8-0.9,1.8-0.9v-1.2H429.4z"></path> 
 <rect x="436.3" y="-1170.1" class="st1-1000289310" width="7.5" height="0.3"></rect> 
 <path class="st1-1000289310" d="M446.3-1176.7c-2.1,0-4.3,6.3-3.5,7.6c0.7,1.3,6.3,1.3,7.1,0C450.6-1170.3,448.4-1176.7,446.3-1176.7z"></path> 
 <polygon class="st1-1000289310" points="463.9,-1169.7 463.9,-1168.3 463.1,-1168.3 463.1,-1159.5 426.6,-1159.5 426.6,-1169.7 			"></polygon> 
 <path class="st1-1000289310" d="M454-1172.9v3.2h0.5v-0.3h4v0.3h0.5v-3.2h-0.5v0.3h-4v-0.3H454z M454.5-1171h4v0.5h-4V-1171z M454.5-1172.1
				h4v0.5h-4V-1172.1z"></path> 
</g> 
 <g> <path class="st1-1000289310" d="M476.8-1171.7v-5.4h8.6v5.4h-4v1.2c1.1,0,2,0.4,2,0.9h-4.3c0-0.5,0.8-0.9,1.8-0.9v-1.2H476.8z"></path> 
 <rect x="483.7" y="-1170.1" class="st1-1000289310" width="7.5" height="0.3"></rect> 
 <path class="st1-1000289310" d="M493.7-1176.7c-2.1,0-4.3,6.3-3.5,7.6c0.7,1.3,6.3,1.3,7.1,0C498-1170.3,495.8-1176.7,493.7-1176.7z"></path> 
 <polygon class="st1-1000289310" points="511.3,-1169.7 511.3,-1168.3 510.5,-1168.3 510.5,-1159.5 474.1,-1159.5 474.1,-1168.3 
				473.3,-1168.3 473.3,-1169.7 			"></polygon> 
 <path class="st1-1000289310" d="M501.4-1172.9v3.2h0.5v-0.3h4v0.3h0.5v-3.2h-0.5v0.3h-4v-0.3H501.4z M501.9-1171h4v0.5h-4V-1171z
				 M501.9-1172.1h4v0.5h-4V-1172.1z"></path> 
</g> 
 <g> <path class="st1-1000289310" d="M523.1-1171.7v-5.4h8.6v5.4h-4v1.2c1.1,0,2,0.4,2,0.9h-4.3c0-0.5,0.8-0.9,1.8-0.9v-1.2H523.1z"></path> 
 <rect x="530.1" y="-1170.1" class="st1-1000289310" width="7.5" height="0.3"></rect> 
 <path class="st1-1000289310" d="M540.1-1176.7c-2.1,0-4.3,6.3-3.5,7.6c0.7,1.3,6.3,1.3,7.1,0C544.4-1170.3,542.2-1176.7,540.1-1176.7z"></path> 
 <polygon class="st1-1000289310" points="557.6,-1169.7 557.6,-1168.3 556.8,-1168.3 556.8,-1159.5 520.4,-1159.5 520.4,-1168.3 
				519.6,-1168.3 519.6,-1169.7 			"></polygon> 
 <path class="st1-1000289310" d="M547.7-1172.9v3.2h0.5v-0.3h4v0.3h0.5v-3.2h-0.5v0.3h-4v-0.3H547.7z M548.3-1171h4v0.5h-4V-1171z
				 M548.3-1172.1h4v0.5h-4V-1172.1z"></path> 
</g> 
 <path class="st1-1000289310" d="M566-1169.9c1.5-0.2,2.6-1.5,2.6-3c0-1.7-1.4-6.6-3.1-6.6s-3.1,4.9-3.1,6.6c0,1.6,1.2,2.9,2.7,3.1v3.5h-2.4
			l0.5,6.7h4.6l0.5-6.7h-2.4L566-1169.9L566-1169.9z"></path> 
 <g> <polygon class="st2-1000289310" points="423.7,-1163.7 450.3,-1201.8 443.8,-1201.8 423.7,-1173 			"></polygon> 
 <polygon class="st2-1000289310" points="453.4,-1159.5 482.9,-1201.8 476.4,-1201.8 446.8,-1159.5 			"></polygon> 
 <polygon class="st2-1000289310" points="490.7,-1159.5 520.2,-1201.8 513.7,-1201.8 484.1,-1159.5 			"></polygon> 
 <polygon class="st2-1000289310" points="530.3,-1159.5 559.9,-1201.8 553.3,-1201.8 523.8,-1159.5 			"></polygon> 
 <polygon class="st2-1000289310" points="569.3,-1159.5 583.3,-1179.5 583.3,-1188.9 562.8,-1159.5 			"></polygon> 
</g> 
 <g> <polygon class="st3-1000289310" points="515,-1201.8 423.7,-1201.8 423.7,-1190.8 515,-1190.8 515,-1187.1 570.2,-1187.1 570.2,-1190.8 
				570.2,-1201.8 			"></polygon> 
 <g> <polygon class="st4-1000289310" points="442.6,-1190.8 450.3,-1201.8 443.8,-1201.8 436.1,-1190.8 				"></polygon> 
 <polygon class="st4-1000289310" points="475.2,-1190.8 482.9,-1201.8 476.4,-1201.8 468.7,-1190.8 				"></polygon> 
 <polygon class="st4-1000289310" points="512.5,-1190.8 520.2,-1201.8 515,-1201.8 513.7,-1201.8 506,-1190.8 				"></polygon> 
 <polygon class="st4-1000289310" points="549.6,-1187.1 559.9,-1201.8 553.3,-1201.8 543,-1187.1 				"></polygon> 
</g> 
</g> 
</g> 
 <g> <rect x="628.3" y="-1216.3" class="st0-1000289310" width="144.1" height="56.8"></rect> 
 <g> <path class="st1-1000289310" d="M758.8-1171.7v-5.4h-8.6v5.4h4v1.2c-1.1,0-2,0.4-2,0.9h4.3c0-0.5-0.8-0.9-1.8-0.9v-1.2H758.8z"></path> 
 <rect x="744.3" y="-1170.1" class="st1-1000289310" width="7.5" height="0.3"></rect> 
 <path class="st1-1000289310" d="M741.8-1176.7c2.1,0,4.3,6.3,3.5,7.6c-0.7,1.3-6.3,1.3-7.1,0C737.5-1170.3,739.7-1176.7,741.8-1176.7z"></path> 
 <polygon class="st1-1000289310" points="724.2,-1169.7 724.2,-1168.3 725,-1168.3 725,-1159.5 761.5,-1159.5 761.5,-1168.3 762.3,-1168.3 
				762.3,-1169.7 			"></polygon> 
 <path class="st1-1000289310" d="M733.6-1172.9v0.3h-4v-0.3h-0.5v3.2h0.5v-0.3h4v0.3h0.5v-3.2H733.6z M733.6-1170.5h-4v-0.5h4V-1170.5z
				 M733.6-1171.5h-4v-0.5h4V-1171.5z"></path> 
</g> 
 <g> <path class="st1-1000289310" d="M712.4-1171.7v-5.4h-8.6v5.4h4v1.2c-1.1,0-2,0.4-2,0.9h4.3c0-0.5-0.8-0.9-1.8-0.9v-1.2H712.4z"></path> 
 <rect x="698" y="-1170.1" class="st1-1000289310" width="7.5" height="0.3"></rect> 
 <path class="st1-1000289310" d="M695.5-1176.7c2.1,0,4.3,6.3,3.5,7.6c-0.7,1.3-6.3,1.3-7.1,0C691.2-1170.3,693.4-1176.7,695.5-1176.7z"></path> 
 <polygon class="st1-1000289310" points="677.9,-1169.7 677.9,-1168.3 678.7,-1168.3 678.7,-1159.5 715.1,-1159.5 715.1,-1168.3 
				715.9,-1168.3 715.9,-1169.7 			"></polygon> 
 <path class="st1-1000289310" d="M687.3-1172.9v0.3h-4v-0.3h-0.5v3.2h0.5v-0.3h4v0.3h0.5v-3.2H687.3z M687.3-1170.5h-4v-0.5h4V-1170.5z
				 M687.3-1171.5h-4v-0.5h4V-1171.5z"></path> 
</g> 
 <path class="st1-1000289310" d="M669.5-1169.9c-1.5-0.2-2.6-1.5-2.6-3c0-1.7,1.4-6.6,3.1-6.6s3.1,4.9,3.1,6.6c0,1.6-1.2,2.9-2.7,3.1v3.5h2.4
			l-0.5,6.7h-4.6l-0.5-6.7h2.4L669.5-1169.9L669.5-1169.9z"></path> 
 <g> <polygon class="st2-1000289310" points="666.8,-1216.3 628.3,-1161.2 628.3,-1159.5 633.7,-1159.5 673.4,-1216.3 			"></polygon> 
 <polygon class="st2-1000289310" points="661.5,-1159.5 668.1,-1159.5 707.7,-1216.3 701.2,-1216.3 			"></polygon> 
 <polygon class="st2-1000289310" points="708.8,-1159.5 748.5,-1216.3 741.9,-1216.3 702.3,-1159.5 			"></polygon> 
 <polygon class="st2-1000289310" points="753,-1159.5 772.5,-1187.3 772.5,-1196.7 746.5,-1159.5 			"></polygon> 
</g> 
 <g> <rect x="658.9" y="-1216.3" class="st3-1000289310" width="113.6" height="12.1"></rect> 
 <g> <polygon class="st4-1000289310" points="658.9,-1204.2 665,-1204.2 673.4,-1216.3 666.8,-1216.3 658.9,-1204.9 				"></polygon> 
 <polygon class="st4-1000289310" points="699.3,-1204.2 707.7,-1216.3 701.2,-1216.3 692.8,-1204.2 				"></polygon> 
 <polygon class="st4-1000289310" points="740.1,-1204.2 748.5,-1216.3 741.9,-1216.3 733.5,-1204.2 				"></polygon> 
</g> 
</g> 
</g> 
 <g> <g> <g> <rect x="530.4" y="-1370.6" class="st5-1000289310" width="6.2" height="2.7"></rect> 
 <rect x="529" y="-1368.7" class="st6-1000289310" width="13.7" height="5.9"></rect> 
</g> 
 <g> <rect x="513.8" y="-1370.5" class="st5-1000289310" width="6.2" height="2.7"></rect> 
 <rect x="512.5" y="-1368.6" class="st6-1000289310" width="13.7" height="5.9"></rect> 
</g> 
 <g> <rect x="480.1" y="-1368.8" class="st5-1000289310" width="26.5" height="1.1"></rect> 
 <rect x="480.1" y="-1370.4" class="st5-1000289310" width="26.5" height="1.1"></rect> 
 <rect x="480.1" y="-1372" class="st5-1000289310" width="26.5" height="1.1"></rect> 
 <rect x="477.2" y="-1368" class="st6-1000289310" width="32.1" height="4.6"></rect> 
</g> 
 <g> <path class="st5-1000289310" d="M414.9-1365.1c-0.1-0.6-0.6-1.1-1.2-1.2v-5.2h-0.8v5.2c-0.6,0.2-1,0.7-1.1,1.2h-1.3v1.6h5.9v-1.6H414.9z"></path> 
 <ellipse transform="matrix(0.6424 -0.7664 0.7664 0.6424 1199.4995 -176.7287)" class="st6-1000289310" cx="410.4" cy="-1373.7" rx="9" ry="5.5"></ellipse> 
 <polygon class="st5-1000289310" points="412.9,-1375.5 412.9,-1376 407.5,-1378.1 407.6,-1378.2 405.4,-1379.8 404.5,-1379 406,-1376.8 
					406.1,-1376.8 407.2,-1371.5 407.8,-1371.5 406.3,-1377 406.7,-1377.4 412.3,-1372 412.6,-1372.3 407,-1377.7 407.1,-1377.8 
									"></polygon> 
</g> 
 <g> <rect x="439.4" y="-1366.3" class="st7-1000289310" width="3.8" height="2.9"></rect> 
 <rect x="434.6" y="-1375.2" class="st6-1000289310" width="13.4" height="9.4"></rect> 
 <g> <rect x="435.1" y="-1374.3" class="st5-1000289310" width="3.8" height="1.1"></rect> 
 <rect x="439.4" y="-1374.3" class="st5-1000289310" width="3.8" height="1.1"></rect> 
 <rect x="443.7" y="-1374.3" class="st5-1000289310" width="3.8" height="1.1"></rect> 
 <rect x="435.1" y="-1373" class="st5-1000289310" width="3.8" height="1.1"></rect> 
 <rect x="439.4" y="-1373" class="st5-1000289310" width="3.8" height="1.1"></rect> 
 <rect x="443.7" y="-1373" class="st5-1000289310" width="3.8" height="1.1"></rect> 
 <rect x="435.1" y="-1371.7" class="st5-1000289310" width="3.8" height="1.1"></rect> 
 <rect x="439.4" y="-1371.7" class="st5-1000289310" width="3.8" height="1.1"></rect> 
 <rect x="443.7" y="-1371.7" class="st5-1000289310" width="3.8" height="1.1"></rect> 
 <rect x="435.1" y="-1370.3" class="st5-1000289310" width="3.8" height="1.1"></rect> 
 <rect x="439.4" y="-1370.3" class="st5-1000289310" width="3.8" height="1.1"></rect> 
 <rect x="443.7" y="-1370.3" class="st5-1000289310" width="3.8" height="1.1"></rect> 
 <rect x="435.1" y="-1369" class="st5-1000289310" width="3.8" height="1.1"></rect> 
 <rect x="439.4" y="-1369" class="st5-1000289310" width="3.8" height="1.1"></rect> 
 <rect x="443.7" y="-1369" class="st5-1000289310" width="3.8" height="1.1"></rect> 
 <rect x="435.1" y="-1367.7" class="st5-1000289310" width="3.8" height="1.1"></rect> 
 <rect x="439.4" y="-1367.7" class="st5-1000289310" width="3.8" height="1.1"></rect> 
 <rect x="443.7" y="-1367.7" class="st5-1000289310" width="3.8" height="1.1"></rect> 
</g> 
</g> 
 <g> <rect x="453.8" y="-1366.3" class="st7-1000289310" width="3.8" height="2.9"></rect> 
 <rect x="449" y="-1375.2" class="st6-1000289310" width="13.4" height="9.4"></rect> 
 <g> <rect x="449.6" y="-1374.3" class="st5-1000289310" width="3.8" height="1.1"></rect> 
 <rect x="453.8" y="-1374.3" class="st5-1000289310" width="3.8" height="1.1"></rect> 
 <rect x="458.1" y="-1374.3" class="st5-1000289310" width="3.8" height="1.1"></rect> 
 <rect x="449.6" y="-1373" class="st5-1000289310" width="3.8" height="1.1"></rect> 
 <rect x="453.8" y="-1373" class="st5-1000289310" width="3.8" height="1.1"></rect> 
 <rect x="458.1" y="-1373" class="st5-1000289310" width="3.8" height="1.1"></rect> 
 <rect x="449.6" y="-1371.7" class="st5-1000289310" width="3.8" height="1.1"></rect> 
 <rect x="453.8" y="-1371.7" class="st5-1000289310" width="3.8" height="1.1"></rect> 
 <rect x="458.1" y="-1371.7" class="st5-1000289310" width="3.8" height="1.1"></rect> 
 <rect x="449.6" y="-1370.3" class="st5-1000289310" width="3.8" height="1.1"></rect> 
 <rect x="453.8" y="-1370.3" class="st5-1000289310" width="3.8" height="1.1"></rect> 
 <rect x="458.1" y="-1370.3" class="st5-1000289310" width="3.8" height="1.1"></rect> 
 <rect x="449.6" y="-1369" class="st5-1000289310" width="3.8" height="1.1"></rect> 
 <rect x="453.8" y="-1369" class="st5-1000289310" width="3.8" height="1.1"></rect> 
 <rect x="458.1" y="-1369" class="st5-1000289310" width="3.8" height="1.1"></rect> 
 <rect x="449.6" y="-1367.7" class="st5-1000289310" width="3.8" height="1.1"></rect> 
 <rect x="453.8" y="-1367.7" class="st5-1000289310" width="3.8" height="1.1"></rect> 
 <rect x="458.1" y="-1367.7" class="st5-1000289310" width="3.8" height="1.1"></rect> 
</g> 
</g> 
</g> 
 <polygon class="st1-1000289310" points="629.4,-1200.2 413.8,-1200.2 392.9,-1357.7 629.4,-1357.7 		"></polygon> 
 <g> <polygon class="st8-1000289310" points="511.9,-1357.7 504,-1357.7 418.6,-1200.2 426.5,-1200.2 			"></polygon> 
 <polygon class="st8-1000289310" points="402.9,-1282.6 443.6,-1357.7 435.7,-1357.7 401.3,-1294.4 			"></polygon> 
 <polygon class="st8-1000289310" points="496.9,-1200.2 582.3,-1357.7 574.4,-1357.7 488.9,-1200.2 			"></polygon> 
 <polygon class="st8-1000289310" points="569.4,-1200.2 629.4,-1311 629.4,-1325.6 561.4,-1200.2 			"></polygon> 
</g> 
 <g> <polygon class="st9-1000289310" points="491.9,-1357.7 412.4,-1211 413.8,-1200.2 414.4,-1200.2 499.8,-1357.7 			"></polygon> 
 <polygon class="st9-1000289310" points="400.5,-1300.5 431.5,-1357.7 423.6,-1357.7 398.9,-1312.2 			"></polygon> 
 <polygon class="st9-1000289310" points="562.3,-1357.7 476.9,-1200.2 484.8,-1200.2 570.2,-1357.7 			"></polygon> 
 <polygon class="st9-1000289310" points="557.3,-1200.2 629.4,-1333.2 629.4,-1347.8 549.4,-1200.2 			"></polygon> 
</g> 
 <g> <rect x="590.4" y="-1357.7" class="st10-1000289310" width="1.1" height="157.1"></rect> 
 <rect x="551.2" y="-1357.7" class="st10-1000289310" width="1.1" height="157.1"></rect> 
 <rect x="511.8" y="-1357.7" class="st10-1000289310" width="1.1" height="157.1"></rect> 
 <rect x="472.4" y="-1357.7" class="st10-1000289310" width="1.1" height="157.1"></rect> 
 <rect x="433" y="-1357.7" class="st10-1000289310" width="1.1" height="157.1"></rect> 
</g> 
 <g> <rect x="396.4" y="-1321.8" class="st11-1000289310" width="235.4" height="2.7"></rect> 
 <rect x="401.7" y="-1281.9" class="st11-1000289310" width="230.1" height="2.7"></rect> 
 <rect x="407.1" y="-1242" class="st11-1000289310" width="224.7" height="2.7"></rect> 
</g> 
 <g> <polygon class="st12-1000289310" points="631.8,-1361.2 391.3,-1361.2 390.5,-1357.7 631,-1357.7 			"></polygon> 
 <polygon class="st13-1000289310" points="630.2,-1363.9 395.8,-1363.9 392.9,-1361.2 627.3,-1361.2 			"></polygon> 
</g> 
</g> 
 <g> <g> <g> <g> <rect x="690.1" y="-1532.1" class="st7-1000289310" width="3.8" height="2.9"></rect> 
 <rect x="685.3" y="-1541" class="st6-1000289310" width="13.4" height="9.4"></rect> 
 <g> <rect x="685.8" y="-1540.1" class="st5-1000289310" width="3.8" height="1.1"></rect> 
 <rect x="690.1" y="-1540.1" class="st5-1000289310" width="3.8" height="1.1"></rect> 
 <rect x="694.4" y="-1540.1" class="st5-1000289310" width="3.8" height="1.1"></rect> 
 <rect x="685.8" y="-1538.8" class="st5-1000289310" width="3.8" height="1.1"></rect> 
 <rect x="690.1" y="-1538.8" class="st5-1000289310" width="3.8" height="1.1"></rect> 
 <rect x="694.4" y="-1538.8" class="st5-1000289310" width="3.8" height="1.1"></rect> 
 <rect x="685.8" y="-1537.5" class="st5-1000289310" width="3.8" height="1.1"></rect> 
 <rect x="690.1" y="-1537.5" class="st5-1000289310" width="3.8" height="1.1"></rect> 
 <rect x="694.4" y="-1537.5" class="st5-1000289310" width="3.8" height="1.1"></rect> 
 <rect x="685.8" y="-1536.1" class="st5-1000289310" width="3.8" height="1.1"></rect> 
 <rect x="690.1" y="-1536.1" class="st5-1000289310" width="3.8" height="1.1"></rect> 
 <rect x="694.4" y="-1536.1" class="st5-1000289310" width="3.8" height="1.1"></rect> 
 <rect x="685.8" y="-1534.8" class="st5-1000289310" width="3.8" height="1.1"></rect> 
 <rect x="690.1" y="-1534.8" class="st5-1000289310" width="3.8" height="1.1"></rect> 
 <rect x="694.4" y="-1534.8" class="st5-1000289310" width="3.8" height="1.1"></rect> 
 <rect x="685.8" y="-1533.5" class="st5-1000289310" width="3.8" height="1.1"></rect> 
 <rect x="690.1" y="-1533.5" class="st5-1000289310" width="3.8" height="1.1"></rect> 
 <rect x="694.4" y="-1533.5" class="st5-1000289310" width="3.8" height="1.1"></rect> 
</g> 
</g> 
 <g> <rect x="675.1" y="-1532.1" class="st7-1000289310" width="3.8" height="2.9"></rect> 
 <rect x="670.3" y="-1541" class="st6-1000289310" width="13.4" height="9.4"></rect> 
 <g> <rect x="670.8" y="-1540.1" class="st5-1000289310" width="3.8" height="1.1"></rect> 
 <rect x="675.1" y="-1540.1" class="st5-1000289310" width="3.8" height="1.1"></rect> 
 <rect x="679.4" y="-1540.1" class="st5-1000289310" width="3.8" height="1.1"></rect> 
 <rect x="670.8" y="-1538.8" class="st5-1000289310" width="3.8" height="1.1"></rect> 
 <rect x="675.1" y="-1538.8" class="st5-1000289310" width="3.8" height="1.1"></rect> 
 <rect x="679.4" y="-1538.8" class="st5-1000289310" width="3.8" height="1.1"></rect> 
 <rect x="670.8" y="-1537.5" class="st5-1000289310" width="3.8" height="1.1"></rect> 
 <rect x="675.1" y="-1537.5" class="st5-1000289310" width="3.8" height="1.1"></rect> 
 <rect x="679.4" y="-1537.5" class="st5-1000289310" width="3.8" height="1.1"></rect> 
 <rect x="670.8" y="-1536.1" class="st5-1000289310" width="3.8" height="1.1"></rect> 
 <rect x="675.1" y="-1536.1" class="st5-1000289310" width="3.8" height="1.1"></rect> 
 <rect x="679.4" y="-1536.1" class="st5-1000289310" width="3.8" height="1.1"></rect> 
 <rect x="670.8" y="-1534.8" class="st5-1000289310" width="3.8" height="1.1"></rect> 
 <rect x="675.1" y="-1534.8" class="st5-1000289310" width="3.8" height="1.1"></rect> 
 <rect x="679.4" y="-1534.8" class="st5-1000289310" width="3.8" height="1.1"></rect> 
 <rect x="670.8" y="-1533.5" class="st5-1000289310" width="3.8" height="1.1"></rect> 
 <rect x="675.1" y="-1533.5" class="st5-1000289310" width="3.8" height="1.1"></rect> 
 <rect x="679.4" y="-1533.5" class="st5-1000289310" width="3.8" height="1.1"></rect> 
</g> 
</g> 
 <g> <rect x="660.1" y="-1532.1" class="st7-1000289310" width="3.8" height="2.9"></rect> 
 <rect x="655.3" y="-1541" class="st6-1000289310" width="13.4" height="9.4"></rect> 
 <g> <rect x="655.8" y="-1540.1" class="st5-1000289310" width="3.8" height="1.1"></rect> 
 <rect x="660.1" y="-1540.1" class="st5-1000289310" width="3.8" height="1.1"></rect> 
 <rect x="664.4" y="-1540.1" class="st5-1000289310" width="3.8" height="1.1"></rect> 
 <rect x="655.8" y="-1538.8" class="st5-1000289310" width="3.8" height="1.1"></rect> 
 <rect x="660.1" y="-1538.8" class="st5-1000289310" width="3.8" height="1.1"></rect> 
 <rect x="664.4" y="-1538.8" class="st5-1000289310" width="3.8" height="1.1"></rect> 
 <rect x="655.8" y="-1537.5" class="st5-1000289310" width="3.8" height="1.1"></rect> 
 <rect x="660.1" y="-1537.5" class="st5-1000289310" width="3.8" height="1.1"></rect> 
 <rect x="664.4" y="-1537.5" class="st5-1000289310" width="3.8" height="1.1"></rect> 
 <rect x="655.8" y="-1536.1" class="st5-1000289310" width="3.8" height="1.1"></rect> 
 <rect x="660.1" y="-1536.1" class="st5-1000289310" width="3.8" height="1.1"></rect> 
 <rect x="664.4" y="-1536.1" class="st5-1000289310" width="3.8" height="1.1"></rect> 
 <rect x="655.8" y="-1534.8" class="st5-1000289310" width="3.8" height="1.1"></rect> 
 <rect x="660.1" y="-1534.8" class="st5-1000289310" width="3.8" height="1.1"></rect> 
 <rect x="664.4" y="-1534.8" class="st5-1000289310" width="3.8" height="1.1"></rect> 
 <rect x="655.8" y="-1533.5" class="st5-1000289310" width="3.8" height="1.1"></rect> 
 <rect x="660.1" y="-1533.5" class="st5-1000289310" width="3.8" height="1.1"></rect> 
 <rect x="664.4" y="-1533.5" class="st5-1000289310" width="3.8" height="1.1"></rect> 
</g> 
</g> 
 <g> <rect x="725.1" y="-1536.8" class="st5-1000289310" width="6.2" height="2.7"></rect> 
 <rect x="723.8" y="-1534.9" class="st6-1000289310" width="13.7" height="5.9"></rect> 
</g> 
 <g> <rect x="750.1" y="-1552.6" class="st6-1000289310" width="1.1" height="25.4"></rect> 
 <rect x="742.8" y="-1552.3" class="st6-1000289310" width="15.5" height="0.5"></rect> 
 <path class="st5-1000289310" d="M743-1549.9c0,0.2-0.2,0.4-0.4,0.4l0,0c-0.2,0-0.4-0.2-0.4-0.4v-4.4c0-0.2,0.2-0.4,0.4-0.4l0,0
						c0.2,0,0.4,0.2,0.4,0.4V-1549.9z"></path> 
 <path class="st5-1000289310" d="M758.5-1549.9c0,0.2-0.2,0.4-0.4,0.4l0,0c-0.2,0-0.4-0.2-0.4-0.4v-4.4c0-0.2,0.2-0.4,0.4-0.4l0,0
						c0.2,0,0.4,0.2,0.4,0.4V-1549.9z"></path> 
 <path class="st5-1000289310" d="M745.1-1550.7c0,0.1-0.1,0.2-0.2,0.2l0,0c-0.1,0-0.2-0.1-0.2-0.2v-2.8c0-0.1,0.1-0.2,0.2-0.2l0,0
						c0.1,0,0.2,0.1,0.2,0.2V-1550.7z"></path> 
 <path class="st5-1000289310" d="M747-1550.7c0,0.1-0.1,0.2-0.2,0.2l0,0c-0.1,0-0.2-0.1-0.2-0.2v-2.8c0-0.1,0.1-0.2,0.2-0.2l0,0
						c0.1,0,0.2,0.1,0.2,0.2V-1550.7z"></path> 
 <path class="st5-1000289310" d="M753.1-1550.6c0,0.1-0.1,0.2-0.2,0.2l0,0c-0.1,0-0.2-0.1-0.2-0.2v-2.8c0-0.1,0.1-0.2,0.2-0.2l0,0
						c0.1,0,0.2,0.1,0.2,0.2V-1550.6z"></path> 
</g> 
</g> 
</g> 
 <rect x="636.1" y="-1527" class="st1-1000289310" width="136.3" height="309.4"></rect> 
 <g> <polygon class="st8-1000289310" points="636.1,-1457 674.1,-1527 666.2,-1527 636.1,-1471.6 			"></polygon> 
 <polygon class="st8-1000289310" points="636.1,-1337.9 636.1,-1323.3 746.6,-1527 738.6,-1527 			"></polygon> 
 <polygon class="st8-1000289310" points="645.6,-1217.6 772.5,-1451.5 772.5,-1466.1 637.7,-1217.6 			"></polygon> 
 <polygon class="st8-1000289310" points="703.4,-1217.6 772.5,-1344.9 772.5,-1359.5 695.5,-1217.6 			"></polygon> 
 <polygon class="st8-1000289310" points="767,-1217.6 772.5,-1227.6 772.5,-1242.2 759.1,-1217.6 			"></polygon> 
</g> 
 <g> <polygon class="st9-1000289310" points="636.1,-1479.2 662,-1527 654.1,-1527 636.1,-1493.8 			"></polygon> 
 <polygon class="st9-1000289310" points="636.1,-1345.5 734.5,-1527 726.6,-1527 636.1,-1360.2 			"></polygon> 
 <polygon class="st9-1000289310" points="636.1,-1222.3 772.5,-1473.8 772.5,-1488.1 636.1,-1236.9 			"></polygon> 
 <polygon class="st9-1000289310" points="691.4,-1217.6 772.5,-1367.1 772.5,-1381.7 683.4,-1217.6 			"></polygon> 
 <polygon class="st9-1000289310" points="755,-1217.6 772.5,-1249.6 772.5,-1264.4 747.1,-1217.6 			"></polygon> 
</g> 
 <g> <rect x="703.8" y="-1527" class="st10-1000289310" width="1.1" height="308"></rect> 
 <rect x="664.5" y="-1527" class="st10-1000289310" width="1.1" height="308"></rect> 
 <rect x="742.7" y="-1527" class="st10-1000289310" width="1.1" height="308"></rect> 
</g> 
 <g> <rect x="634.8" y="-1218.9" class="st11-1000289310" width="139" height="2.7"></rect> 
 <rect x="634.8" y="-1257.8" class="st11-1000289310" width="139" height="2.7"></rect> 
 <rect x="634.8" y="-1296.6" class="st11-1000289310" width="139" height="2.7"></rect> 
 <rect x="634.8" y="-1335.5" class="st11-1000289310" width="139" height="2.7"></rect> 
 <rect x="634.8" y="-1374.3" class="st11-1000289310" width="139" height="2.7"></rect> 
 <rect x="634.8" y="-1413.1" class="st11-1000289310" width="139" height="2.7"></rect> 
 <rect x="634.8" y="-1452" class="st11-1000289310" width="139" height="2.7"></rect> 
 <rect x="634.8" y="-1490.8" class="st11-1000289310" width="139" height="2.7"></rect> 
 <rect x="634.8" y="-1529.7" class="st12-1000289310" width="139" height="2.7"></rect> 
</g> 
</g> 
 <g> <rect x="515" y="-1292.3" class="st11-1000289310" width="143.8" height="95.6"></rect> 
 <g> <rect x="532.5" y="-1275.2" class="st8-1000289310" width="126.4" height="13.1"></rect> 
 <g> <rect x="595.1" y="-1275.2" class="st10-1000289310" width="1.1" height="13.1"></rect> 
 <rect x="561.7" y="-1275.2" class="st10-1000289310" width="1.1" height="13.1"></rect> 
 <rect x="628.3" y="-1275.2" class="st10-1000289310" width="1.1" height="13.1"></rect> 
</g> 
 <g> <polygon class="st10-1000289310" points="658.9,-1275.2 532.5,-1275.2 532.5,-1262.1 533.8,-1262.1 533.8,-1273.9 658.9,-1273.9 				"></polygon> 
 <g> <rect x="561.7" y="-1275.2" class="st14-1000289310" width="1.1" height="1.3"></rect> 
 <rect x="595.1" y="-1275.2" class="st14-1000289310" width="1.1" height="1.3"></rect> 
 <rect x="628.3" y="-1275.2" class="st14-1000289310" width="1.1" height="1.3"></rect> 
</g> 
</g> 
</g> 
 <g> <rect x="532.5" y="-1235.3" class="st8-1000289310" width="126.4" height="13.1"></rect> 
 <g> <rect x="595.1" y="-1235.3" class="st10-1000289310" width="1.1" height="13.1"></rect> 
 <rect x="561.7" y="-1235.3" class="st10-1000289310" width="1.1" height="13.1"></rect> 
 <rect x="628.3" y="-1235.3" class="st10-1000289310" width="1.1" height="13.1"></rect> 
</g> 
 <g> <polygon class="st10-1000289310" points="658.9,-1235.3 532.5,-1235.3 532.5,-1222.2 533.8,-1222.2 533.8,-1233.9 658.9,-1233.9 				"></polygon> 
 <g> <rect x="561.7" y="-1235.3" class="st14-1000289310" width="1.1" height="1.3"></rect> 
 <rect x="595.1" y="-1235.3" class="st14-1000289310" width="1.1" height="1.3"></rect> 
 <rect x="628.3" y="-1235.3" class="st14-1000289310" width="1.1" height="1.3"></rect> 
</g> 
</g> 
</g> 
 <g> <rect x="658.9" y="-1292.3" class="st15-1000289310" width="12.1" height="73.4"></rect> 
 <polygon class="st16-1000289310" points="658.9,-1242 670.9,-1264.2 670.9,-1278.9 658.9,-1256.6 			"></polygon> 
 <polygon class="st17-1000289310" points="658.9,-1264.3 670.9,-1286.5 670.9,-1292.3 666.2,-1292.3 658.9,-1278.8 			"></polygon> 
 <rect x="664.5" y="-1292.3" class="st18-1000289310" width="1.1" height="73.4"></rect> 
 <rect x="658.9" y="-1218.9" class="st19-1000289310" width="12.1" height="2.7"></rect> 
 <rect x="658.9" y="-1257.8" class="st19-1000289310" width="12.1" height="2.7"></rect> 
 <rect x="658.9" y="-1216.3" class="st3-1000289310" width="12.1" height="19.6"></rect> 
 <polygon class="st4-1000289310" points="666.8,-1216.3 628.3,-1161.2 628.3,-1159.5 633.7,-1159.5 673.4,-1216.3 			"></polygon> 
</g> 
</g> 
 <g> <g> <rect x="653.8" y="-1216.3" class="st3-1000289310" width="10.7" height="56.8"></rect> 
 <polygon class="st4-1000289310" points="653.8,-1188.2 664.5,-1203.6 664.5,-1212.9 653.8,-1197.6 			"></polygon> 
 <polygon class="st4-1000289310" points="661.5,-1159.5 664.5,-1159.5 664.5,-1163.7 			"></polygon> 
 <rect x="653.8" y="-1218.1" class="st20-1000289310" width="5.1" height="21.4"></rect> 
</g> 
 <rect x="570.2" y="-1218.1" class="st21-1000289310" width="83.6" height="58.7"></rect> 
 <rect x="586.8" y="-1210.6" class="st8-1000289310" width="50.4" height="51.2"></rect> 
 <rect x="611.5" y="-1210.6" class="st1-1000289310" width="1.1" height="51.2"></rect> 
 <g> <path class="st22-1000289310" d="M590.1-1196.4c-0.3,0.5-0.9,0.6-1.3,0.3l-0.2-0.1c-0.5-0.3-0.6-0.9-0.3-1.3l6.8-11.6
				c0.3-0.5,0.9-0.6,1.3-0.3l0.2,0.1c0.5,0.3,0.6,0.9,0.3,1.3L590.1-1196.4z"></path> 
 <path class="st22-1000289310" d="M595.1-1199.3c-0.2,0.3-0.5,0.4-0.8,0.2l-0.1-0.1c-0.3-0.2-0.4-0.5-0.2-0.8l4.3-7.3
				c0.2-0.3,0.5-0.4,0.8-0.2l0.1,0.1c0.3,0.2,0.4,0.5,0.2,0.8L595.1-1199.3z"></path> 
 <circle class="st22-1000289310" cx="593.4" cy="-1196.8" r="0.9"></circle> 
</g> 
 <g> <path class="st22-1000289310" d="M626-1160.9c-0.3,0.5-0.9,0.6-1.3,0.3l-0.2-0.1c-0.5-0.3-0.6-0.9-0.3-1.3l6.8-11.6c0.3-0.5,0.9-0.6,1.3-0.3
				l0.2,0.1c0.5,0.3,0.6,0.9,0.3,1.3L626-1160.9z"></path> 
 <path class="st22-1000289310" d="M631-1163.8c-0.2,0.3-0.5,0.4-0.8,0.2l-0.1-0.1c-0.3-0.2-0.4-0.5-0.2-0.8l4.3-7.3c0.2-0.3,0.5-0.4,0.8-0.2
				l0.1,0.1c0.3,0.2,0.4,0.5,0.2,0.8L631-1163.8z"></path> 
 <circle class="st22-1000289310" cx="629.4" cy="-1161.4" r="0.9"></circle> 
</g> 
 <g> <g> <polygon class="st23-1000289310" points="584.4,-1159.5 579.8,-1159.5 579.3,-1166.2 584.9,-1166.2 				"></polygon> 
 <rect x="581.7" y="-1171.8" class="st24-1000289310" width="0.8" height="5.6"></rect> 
 <path class="st25-1000289310" d="M585.1-1172.6c0,1.7-1.4,3.1-3.1,3.1s-3.1-1.4-3.1-3.1s1.4-6.8,3.1-6.8S585.1-1174.3,585.1-1172.6z"></path> 
 <circle class="st26-1000289310" cx="583.5" cy="-1175.6" r="0.7"></circle> 
</g> 
 <g> <polygon class="st23-1000289310" points="577.4,-1159.5 572.8,-1159.5 572.3,-1166.2 577.9,-1166.2 				"></polygon> 
 <rect x="574.7" y="-1171.8" class="st24-1000289310" width="0.8" height="5.6"></rect> 
 <path class="st25-1000289310" d="M578.1-1172.6c0,1.7-1.4,3.1-3.1,3.1s-3.1-1.4-3.1-3.1s1.4-6.8,3.1-6.8S578.1-1174.3,578.1-1172.6z"></path> 
 <circle class="st26-1000289310" cx="576.5" cy="-1175.6" r="0.7"></circle> 
</g> 
 <g> <polygon class="st23-1000289310" points="651.4,-1159.5 646.8,-1159.5 646.3,-1166.2 651.9,-1166.2 				"></polygon> 
 <rect x="648.7" y="-1171.8" class="st24-1000289310" width="0.8" height="5.6"></rect> 
 <path class="st25-1000289310" d="M652.1-1172.6c0,1.7-1.4,3.1-3.1,3.1s-3.1-1.4-3.1-3.1s1.4-6.8,3.1-6.8S652.1-1174.3,652.1-1172.6z"></path> 
 <circle class="st26-1000289310" cx="650.5" cy="-1175.6" r="0.7"></circle> 
</g> 
 <g> <polygon class="st23-1000289310" points="644.4,-1159.5 639.9,-1159.5 639.3,-1166.2 645,-1166.2 				"></polygon> 
 <rect x="641.7" y="-1171.8" class="st24-1000289310" width="0.8" height="5.6"></rect> 
 <path class="st25-1000289310" d="M645.2-1172.6c0,1.7-1.4,3.1-3.1,3.1s-3.1-1.4-3.1-3.1s1.4-6.8,3.1-6.8S645.2-1174.3,645.2-1172.6z"></path> 
 <circle class="st26-1000289310" cx="643.6" cy="-1175.6" r="0.7"></circle> 
</g> 
</g> 
</g> 
 <g> <rect x="378.3" y="-1159.6" class="st27-1000289310" width="411.8" height="1.5"></rect> 
 <rect x="378.3" y="-1158.2" class="st12-1000289310" width="411.8" height="2.4"></rect> 
</g> 
</g> 
 <g> <circle class="st21-1000289310" cx="211.2" cy="33.2" r="21.3"></circle> 
 <path class="st28-1000289310" d="M211.4,11.3c-12.1,0-22.1,9.8-22.1,22.1s9.8,22.1,22.1,22.1s22.1-9.8,22.1-22.1l0,0
		C233.3,21.2,223.5,11.3,211.4,11.3z M224.5,46.3C224.5,46.5,224.5,46.5,224.5,46.3C224.4,46.4,224.4,46.4,224.5,46.3
		c-7.4,7.3-19.1,7.3-26.4,0.1c0,0,0,0-0.1,0c0,0,0,0,0-0.1c-7.2-7.3-7.2-19,0-26.3c0,0,0,0,0-0.1c0,0,0,0,0.1,0
		c7.3-7.2,19-7.2,26.3,0c0,0,0,0,0.1,0c0,0,0,0,0,0.1C231.7,27.3,231.7,39.2,224.5,46.3z"></path> 
 <path class="st29-1000289310" d="M224.7,32.1h3.1c-0.3-3.5-1.6-6.9-3.9-9.6l-2.2,2.2c-0.4,0.4-1.2,0.4-1.6,0l0,0c-0.4-0.4-0.4-1,0-1.5l0,0
		l2.2-2.2c-2.6-2.3-6.1-3.8-9.6-3.9v3.1c0,0.6-0.4,1.2-1,1.2l0,0c-0.6,0-1-0.6-1.2-1.2v-3.1c-3.5,0.3-6.9,1.6-9.6,3.9l2.2,2.2
		c0.4,0.4,0.4,1,0,1.5l0,0c-0.4,0.4-1.2,0.4-1.6,0l0,0l-2.2-2.2c-2.3,2.6-3.8,6.1-3.9,9.6h3.1c0.6,0,1,0.6,1,1.2c0,0.6-0.4,1-1,1
		h-3.1c0.3,3.5,1.6,6.9,3.9,9.6l2.2-2.2c0.4-0.4,1.2-0.4,1.5,0c0.4,0.4,0.4,1,0,1.5l-2,2c0.6,0.4,1,0.9,1.6,1.2
		c2-5.1,7.7-7.6,12.7-5.7c2.6,1,4.7,3.1,5.7,5.7c0.6-0.4,1.2-0.9,1.6-1.2l-2.2-2.2c-0.4-0.4-0.6-1.2,0-1.5c0.4-0.4,1.2-0.6,1.5,0
		l0,0l2.2,2.2c2.3-2.6,3.8-6.1,3.9-9.6h-3.1c-0.6,0-1.2-0.4-1.2-1l0,0C223.7,32.6,224.1,32.1,224.7,32.1z"></path> 
 <path class="st30-1000289310" d="M212.1,35.1c-1.5,0.6-3.2-0.3-3.7-1.8c-0.6-1.5,0.3-3.2,1.8-3.7l0,0c0.9-0.3,1.8-0.1,2.6,0.3l9.1-1.5
		l-7.9,4.7C213.7,34,213.1,34.8,212.1,35.1z"></path> 
</g> 
 <path class="st29-1000289310" d="M-334.5,262.9c11.2-0.9,27.6-11,35.4-25.3c7.8-14.2,14.1-31.4,28.5-37.6c13.5-5.8,29.1,16.6,43.2,13
	c28.9-7.4,45.5-142.4,82.1-142.4c34.7,0,74.3,124.6,122.5,92.8C23.4,132.9,57.6,29,95.7,15.8c73.5-25.5,102.2,175.7,155,175.7
	c14.9,0,13.9-55.9,24.6-62.7c34.8-21.8,19.3,99.6,71.3,134.1H-334.5z"></path> 
 <g> <path class="st31-1000289310" d="M-260.6,257l2.9-1.6c0,0,0.6,0.9,1.1,1.5c1,1.2,5.7,2,5.7,3.6c0,0.8-1.7,1.6-3.2,1.6
		c-1.4,0.1-2.6-0.2-3.4-0.5s-2.8-1.1-3.1-1.6c-0.5-0.9-0.1-1.9-0.1-1.9C-260.8,257.3-260.6,257-260.6,257z"></path> 
 <path class="st32-1000289310" d="M-256.5,256.9c0,0-0.6,1-1.7,1.6c-0.6,0.3-2.4-0.3-2.4-0.3c-0.2-0.9-0.1-2.2-0.1-2.2l3.9-0.7
		C-256.8,255.3-257.3,256-256.5,256.9z"></path> 
 <path class="st33-1000289310" d="M-249.5,163.3c-2.3,1-12.5,2.1-19.5,1.6v18.3c1.4,1.1,9.3,21.8,12.8,33.7c0.1,0.4-5,35.5-5,39.2
		c1.4,1.6,4.2,0,4.3-0.1c0,0,11-17.8,12.8-39.2C-242,191.8-249.2,165.3-249.5,163.3z"></path> 
 <path class="st31-1000289310" d="M-282.6,257.2l3-1.4c0,0,0.5,1,1,1.6c0.9,1.2,5.5,2.4,5.4,4.1c-0.1,0.8-1.9,1.4-3.3,1.4
		c-1.4-0.1-2.7-0.2-3.4-0.7c-0.9-0.6-2.7-1.3-2.9-1.8c-0.5-0.9,0-1.9,0-1.9C-282.8,257.5-282.6,257.2-282.6,257.2z"></path> 
 <path class="st32-1000289310" d="M-278.5,257.4c0,0-0.7,1-1.8,1.5c-0.6,0.3-2.4-0.5-2.4-0.5c-0.1-0.9,0-2.3,0-2.3l3.9-0.4
		C-278.9,255.7-279.2,256.4-278.5,257.4z"></path> 
 <path class="st33-1000289310" d="M-262.1,164.6c-2.4-3.1-11-6.5-17.1-3.9c-8.7,16.5,2.8,40.7,4.3,56.3c0,0-8.2,21.5-8.2,39.2
		c1.3,1.7,4.2,0.4,4.3,0.2c0-7.2,14.4-25.3,15.9-38.3C-259.8,193.2-261.9,166.7-262.1,164.6z"></path> 
 <path class="st32-1000289310" d="M-259.2,111.4c0.5,0.4,5.3,3.5,6.8,3.4c0,0.4-1.3,4.5-0.5,6.9c-0.5,2.1-6.4,1.7-7.8-2
		C-260,118.7-259.1,113.3-259.2,111.4z"></path> 
 <path class="st32-1000289310" d="M-253.5,104.7c2.7,0,5.2,0.8,5.6,3.3c0.2,0.9-0.8,9-5.2,9.9c-1.9,0.4-5.2-2.9-5.2-5.1v-2.9
		C-258.2,107.1-256.3,104.8-253.5,104.7z"></path> 
 <path class="st34-1000289310" d="M-245.4,135.1c-0.1,1.3-1.2,6.8-1.6,15c-0.1,1.7-0.2,3.5-0.2,5.4c-0.1,5.1,0.2,10.9,1,17.2
		c-1.4,9.5-19,13.8-31.8,7.9l-0.9-12.9l-2.4,12.3c-0.8-0.2-2.6-0.2-3.3-0.3c-2.4-38.3,4.8-54.4,17.8-58.7c1.5-0.5,6-1.2,6-1.2
		s3,2.9,5,3.2c1.4,0.2,2.7-1.3,2.7-1.3s5,1.9,5.9,2.5C-243.6,126.5-245.1,131.1-245.4,135.1z"></path> 
 <path class="st35-1000289310" d="M-252.8,132.3c0,0-8.3-8.3-14-11.5c0,0,1.3-0.6,2.9-0.8c0.7-0.1,3.1-0.4,3.1-0.4s3,2.9,5,3.2
		c1.4,0.2,2.7-1.3,2.7-1.3s3.6,1.2,4.7,1.9C-248.9,127.7-252.8,132.3-252.8,132.3z"></path> 
 <path class="st36-1000289310" d="M-244.5,105.6c0,1.2-1.2,4.3-12.8,1.7c-1.4,2-2,6.5-2,6.5c-3.5-3.1-4.1-10,0-13.6
		C-254,95.5-244.7,100-244.5,105.6z"></path> 
 <path class="st32-1000289310" d="M-258.6,108.8c0.3,0,0.8,0,1.2,0.2c-0.1,1-0.4,2.6-0.6,3.4c-0.7-0.1-1.7-1-1.8-1.7
		C-259.9,110-259.4,108.9-258.6,108.8z"></path> 
 <g> <path class="st32-1000289310" d="M-210.4,159.8c0.1,0.3-1.2,1.2-1.5,1.2c-0.9-0.2-0.7-0.7-1.6-0.8c0.7,0,1.5-0.2,2.2-0.5
			C-210.9,159.6-210.5,159.3-210.4,159.8z"></path> 
 <path class="st32-1000289310" d="M-214.1,160.1c0.8,0.1,1.7,0.3,2.6,0.5c1,0.2,3.2,1.1,3.4,1.1c0.4,0.2,1.6,0.5,1.9,0.8
			c0.2,0.2,0.5,0.8,0.5,1.1c0,0.4-0.4,0.5-0.4,0.5c0.1,0.5-1.2,0.4-1.2,0.6c0.2,0.5-0.4,0.9-2.1,0.2c-0.1,0-4.6-0.9-6.1-1.2
			C-215.4,162.7-214.2,160.1-214.1,160.1z"></path> 
 <path class="st32-1000289310" d="M-237.8,148.9c0.3,0,0.6,0.1,0.8,0.2c4.2,1.6,18.5,10.1,23.1,11.1c-0.6,1.4-1,2.6-1.2,3.6
			c-7.5-1.7-25.8-8.2-26-11.3C-241.1,149.6-239.2,148.8-237.8,148.9z"></path> 
 <path class="st32-1000289310" d="M-246.1,126.7c2.3,3.4,6.8,15.9,10.1,21.5c4,6.8-2.2,7.2-4.1,5.5c-5-4.4-16.5-18.9-14.5-21.7
			C-253.7,130.8-246.6,126.1-246.1,126.7z"></path> 
 <path class="st34-1000289310" d="M-213.6,159.2c-2.7-0.6-19.2-9.3-20.9-10.1c-0.2-0.4-4.2-8.6-6.1-12.9c-1.8-4.3-3.7-8.7-5-10.5
			c-0.2-0.3-0.3,0-0.7,0c-1.6-0.1-8.2,4.4-9.1,5.7c-2.8,3.8,10.5,19.3,14.6,22.9c3.8,3.5,18.9,8.7,25.6,10.2L-213.6,159.2z"></path> 
</g> 
</g> 
 <g> <rect x="67.5" y="139.7" class="st37-1000289310" width="172.4" height="123.2"></rect> 
 <rect x="67.5" y="129.3" class="st34-1000289310" width="172.4" height="14.5"></rect> 
 <rect x="78.8" y="151.2" class="st21-1000289310" width="148" height="97.7"></rect> 
 <g> <rect x="153.7" y="161.5" class="st38-1000289310" width="12.8" height="3.1"></rect> 
 <rect x="168.2" y="161.5" class="st38-1000289310" width="16" height="3.1"></rect> 
 <rect x="187.5" y="161.5" class="st38-1000289310" width="5.8" height="3.1"></rect> 
 <rect x="153.7" y="166.4" class="st38-1000289310" width="4.6" height="3.1"></rect> 
 <rect x="160.7" y="166.4" class="st38-1000289310" width="13.4" height="3.1"></rect> 
</g> 
 <rect x="85.7" y="188.3" class="st39-1000289310" width="27.3" height="2.8"></rect> 
 <rect x="85.7" y="157.7" class="st40-1000289310" width="27.3" height="25"></rect> 
 <rect x="85.7" y="196.1" class="st37-1000289310" width="27.3" height="2.8"></rect> 
 <rect x="85.7" y="203.9" class="st37-1000289310" width="27.3" height="2.8"></rect> 
 <rect x="85.7" y="211.7" class="st37-1000289310" width="27.3" height="2.8"></rect> 
 <rect x="85.7" y="219.5" class="st37-1000289310" width="27.3" height="2.8"></rect> 
 <rect x="85.7" y="227.3" class="st37-1000289310" width="27.3" height="2.8"></rect> 
 <circle class="st21-1000289310" cx="232.7" cy="139.4" r="1.5"></circle> 
 <circle class="st21-1000289310" cx="226.5" cy="139.4" r="1.5"></circle> 
 <rect x="90" y="160.7" class="st21-1000289310" width="18.6" height="3.1"></rect> 
 <rect x="90" y="165.9" class="st21-1000289310" width="18.6" height="3.1"></rect> 
 <rect x="90" y="171.1" class="st21-1000289310" width="18.6" height="3.1"></rect> 
 <rect x="90" y="176.3" class="st21-1000289310" width="18.6" height="3.1"></rect> 
 <circle class="st38-1000289310" cx="136.9" cy="165.5" r="7.8"></circle> 
 <g> <circle class="st40-1000289310" cx="214.7" cy="165.5" r="2.1"></circle> 
 <path class="st25-1000289310" d="M214.7,161.4c-2.2,0-4,1.8-4,4s1.8,4,4,4s4-1.8,4-4S216.9,161.4,214.7,161.4z M214.7,168.8
			c-1.8,0-3.3-1.5-3.3-3.3s1.5-3.3,3.3-3.3s3.3,1.5,3.3,3.3C218,167.3,216.5,168.8,214.7,168.8z"></path> 
</g> 
 <g> <rect x="129" y="177.3" class="st38-1000289310" width="91.2" height="64.2"></rect> 
</g> 
</g> 
 <g> <g> <g> <path class="st21-1000289310" d="M196.3,190.5l0.9-8.1l21.4,2.5c2.2,0.3,3.8,2.3,3.6,4.5v0.1c-0.3,2.2-2.3,3.8-4.5,3.6L196.3,190.5z"></path> 
</g> 
</g> 
 <g> <g> <g> <path class="st21-1000289310" d="M196.3,190.5l0.9-8.1l21.4,2.5c2.2,0.3,3.8,2.3,3.6,4.5v0.1c-0.3,2.2-2.3,3.8-4.5,3.6L196.3,190.5z"></path> 
</g> 
</g> 
</g> 
 <g> <g> <g> <path class="st41-1000289310" d="M204.4,194.9l1.7-14.9l39.4,4.5c4.1,0.5,7,4.2,6.5,8.2v0.1c-0.5,4.1-4.2,7-8.2,6.5L204.4,194.9z"></path> 
</g> 
</g> 
</g> 
 <g> <g> <g> <path class="st21-1000289310" d="M196.3,190.5l0.9-8.1l21.4,2.5c2.2,0.3,3.8,2.3,3.6,4.5v0.1c-0.3,2.2-2.3,3.8-4.5,3.6L196.3,190.5z"></path> 
</g> 
</g> 
</g> 
 <g> <g> <g> <path class="st41-1000289310" d="M204.4,194.9l1.7-14.9l39.4,4.5c4.1,0.5,7,4.2,6.5,8.2v0.1c-0.5,4.1-4.2,7-8.2,6.5L204.4,194.9z"></path> 
</g> 
</g> 
</g> 
 <g> <g> <path class="st34-1000289310" d="M204.4,194.9l1.7-14.9l39.4,4.5c4.1,0.5,7,4.2,6.5,8.2v0.1c-0.5,4.1-4.2,7-8.2,6.5L204.4,194.9z"></path> 
</g> 
</g> 
 <path class="st42-1000289310" d="M170.3,150.7c-7.7-0.9-15.4,1-21.8,5.2c-0.7,0.5-1.5,1-2.2,1.6c-6.8,5.4-11.1,13.1-12.1,21.8
		c-1,8.6,1.4,17.1,6.8,23.8c5.7,7.2,14,11.4,22.6,12.2c7.1,0.6,14.5-1,20.8-5.2c0.7-0.5,1.5-1,2.1-1.6c3.5-2.8,6.3-6.1,8.4-10
		c0.3-0.6,0.7-1.3,0.9-1.9c0.8-1.8,1.5-3.7,2-5.7c0.3-1.4,0.6-2.8,0.8-4.2s0.2-2.7,0.2-4.1c-0.1-7.2-2.5-14.1-7-19.8
		C186.6,156,178.9,151.7,170.3,150.7z M194.2,182.6c0,1.2,0,2.3-0.2,3.5c-0.1,1.2-0.4,2.4-0.6,3.6c-0.4,1.7-1,3.3-1.7,4.8
		c-0.2,0.6-0.5,1.1-0.8,1.6c-1.8,3.3-4.2,6.2-7.2,8.5c-0.6,0.5-1.2,0.9-1.8,1.3c-5.4,3.6-11.7,5-17.8,4.5
		c-7.4-0.7-14.4-4.2-19.3-10.4c-4.6-5.8-6.6-13-5.8-20.3c0.9-7.4,4.5-14,10.3-18.6c0.6-0.5,1.2-0.9,1.8-1.3c5.4-3.6,12-5.2,18.6-4.4
		c7.4,0.9,13.9,4.5,18.5,10.3C192.1,170.6,194.1,176.5,194.2,182.6z"></path> 
</g> 
 <g> <g> <g> <g> <path class="st34-1000289310" d="M179.8,169.5h-27.3c-1.9,0-3.5,1.5-3.5,3.5v15.2c0,1.9,1.5,3.5,3.5,3.5h14.6v8.5l8.3-8.5h4.3
					c1.9,0,3.5-1.5,3.5-3.5V173C183.2,171.1,181.7,169.5,179.8,169.5z"></path> 
</g> 
</g> 
</g> 
 <g> <g> <g> <path class="st21-1000289310" d="M159.4,184.5l-4-4c-0.2-0.2-0.2-0.6,0-0.8l3.8-3.8l0.8,0.8l-3.4,3.4l3.5,3.5L159.4,184.5z"></path> 
</g> 
</g> 
</g> 
 <g> <g> <g> <path class="st21-1000289310" d="M173.3,184.7l-0.8-0.8l3.6-3.6l-3.6-3.6l0.8-0.8l4,4c0.1,0.1,0.2,0.3,0.2,0.4c0,0.2-0.1,0.3-0.2,0.4
					L173.3,184.7z"></path> 
</g> 
</g> 
</g> 
 <g> <g> <g> <rect x="159" y="179.6" transform="matrix(0.4068 -0.9135 0.9135 0.4068 -65.7396 259.1777)" class="st21-1000289310" width="15.4" height="1.2"></rect> 
</g> 
</g> 
</g> 
</g> 
 <g> <path class="st29-1000289310" d="M348.4,84.7c-2.7,0-5,1.4-6.5,3.2H355C353.4,86.1,351.1,84.7,348.4,84.7z"></path> 
 <path class="st29-1000289310" d="M316.3,81c-2.8,0-4.9,3.3-7.4,2.7c-5.5-1.3-7.8-8.4-13.8-8.4c-4.7,0-7.4,5.8-11.7,5.4
		c-6.8-0.6-9.9-9.8-17.3-9.8c-6.8,0-10.1,7.9-16.4,8.6c-3.7,0.4-6.4-4-10.4-4c-7.6,0-8.3,3-15.2,5.2c-2,0.6-3.5,4.5-5.8,4.5
		c-2.7,0-5,0.8-6.5,2.7h116.1C325.8,84.2,321.4,81,316.3,81z"></path> 
</g> 
 <g> <path class="st29-1000289310" d="M-314.1,80c2.7,0,5,1.4,6.5,3.2h-13.1C-319.1,81.4-316.8,80-314.1,80z"></path> 
 <path class="st29-1000289310" d="M-282,76.4c2.8,0,4.9,3.3,7.4,2.7c5.5-1.3,7.8-8.4,13.8-8.4c4.7,0,7.4,5.8,11.7,5.4c6.8-0.6,9.9-9.8,17.3-9.8
		c6.8,0,10.1,7.9,16.4,8.6c3.7,0.4,6.4-4,10.4-4c7.6,0,5.8,3.8,15.2,5.2c5.5,0.8,3.5,4.5,5.8,4.5c2.7,0,5,0.8,6.5,2.7h-115.9
		C-291.4,79.5-287.1,76.4-282,76.4z"></path> 
</g> 
 <g> <g id="XMLID_52_"> <g> <rect x="-66.1" y="226.8" class="st43-1000289310" width="75.8" height="26.6"></rect> 
</g> 
</g> 
 <g id="XMLID_1_"> <g> <path class="st44-1000289310" d="M93.7,80.1h-243.9c-6.9,0-12.5,5.6-12.5,12.5v132.8c0,6.9,5.6,12.5,12.5,12.5H93.7
				c6.9,0,12.5-5.6,12.5-12.5V92.6C106.2,85.8,100.6,80.1,93.7,80.1z"></path> 
</g> 
</g> 
 <g id="XMLID_49_"> <g> <rect x="-154.4" y="87.4" class="st45-1000289310" width="252.3" height="128.1"></rect> 
</g> 
</g> 
 <g id="XMLID_39_"> <g> <path class="st46-1000289310" d="M33.3,253.2H-89.8c-2.7,0-4.8,2.2-4.8,4.8c0,2.7,2.2,4.8,4.8,4.8H33.3c2.7,0,4.8-2.2,4.8-4.8
				C38.1,255.4,35.9,253.2,33.3,253.2z"></path> 
</g> 
</g> 
</g> 
 <g> <g id="XMLID_447_"> <g> <g> <path class="st25-1000289310" d="M-178.1,208.2l3.7-2.3l-4.9-7.8l-3.7,2.3c-2.4-2.6-5.3-4.7-8.5-6l1-4.2l-8.9-2.1l-1,4.2
					c-2.7-0.1-5.5,0.2-8.1,1c-0.7,0.2-1.4,0.4-2.1,0.7h-0.1l-2.3-3.7l-7.8,4.9l2.3,3.7c-0.7,0.6-1.3,1.3-2,2c-1.7,2-3.1,4.2-4.1,6.5
					l-4.2-1l-2.1,8.9l4.2,1c-0.1,3.4,0.4,6.9,1.7,10.3l-3.7,2.3l4.9,7.8l3.7-2.3c2.4,2.6,5.3,4.7,8.5,6.1l-1,4.2l8.9,2.1l1-4.2
					c3.5,0.2,7-0.4,10.3-1.7l2.3,3.7l7.8-4.9l-2.3-3.7c0.7-0.6,1.4-1.3,2-2c1.7-2,3.1-4.2,4.1-6.5l4.2,1l2.1-8.9l-4.2-1
					C-176.2,215-176.8,211.5-178.1,208.2z M-187.5,229.6c-1.2,1.3-2.6,2.5-4.1,3.5c-8.7,5.4-20.1,2.8-25.6-5.9
					c-4.4-7.1-3.5-16,1.7-22c1.2-1.3,2.6-2.5,4.1-3.5c0.9-0.6,1.9-1.1,2.8-1.4c0.7-0.3,1.4-0.5,2.1-0.7c7.7-2.1,16.2,0.9,20.7,8
					C-181.3,214.7-182.3,223.6-187.5,229.6z"></path> 
</g> 
</g> 
</g> 
 <g> <g> <g> <path class="st47-1000289310" d="M-199.8,202.3l-20.5-60c-1.2-3.5-4.6-5.3-8-4.1l0,0c-3.5,1.2-5.4,4.8-4.3,8.3l20.5,60
					c-4.3,4.4-5.5,11-3.6,16.5s6.9,9.2,12.7,9.6c0-0.1-0.2-0.1-0.2-0.2l-4.7-13.8c-0.4-1,0.3-2.2,1.3-2.5l8.5-2.9
					c1-0.4,2.2,0.2,2.5,1.2l4.7,13.8c0,0.1,0.1,0.2,0.1,0.3c4.2-3.9,6-9.8,4.1-15.4C-188.7,207.6-194.4,203.4-199.8,202.3z
					 M-225.5,146.7c-1.3,0.5-2.8-0.3-3.3-1.6s0.3-2.8,1.6-3.3c1.3-0.5,2.8,0.3,3.3,1.6C-223.5,144.7-224.2,146.2-225.5,146.7z"></path> 
</g> 
</g> 
</g> 
 <g> <g> <rect x="-232.4" y="223.8" class="st39-1000289310" width="45.6" height="39.1"></rect> 
</g> 
 <g> <rect x="-186.8" y="223.8" class="st48-1000289310" width="16.8" height="39.1"></rect> 
</g> 
</g> 
 <g> <polygon class="st48-1000289310" points="-232.4,248 -194.3,248 -186.8,223.8 -232.4,223.8 		"></polygon> 
</g> 
 <g> <polygon class="st49-1000289310" points="-186.6,224.9 -179.2,256.4 -170,256.4 -170,223.8 -186.8,223.8 		"></polygon> 
</g> 
 <g> <polygon class="st39-1000289310" points="-241.2,239.8 -194.3,239.8 -186.7,223.7 -232.1,223.7 		"></polygon> 
</g> 
 <g> <polygon class="st48-1000289310" points="-186.6,223.7 -179.7,243 -163.2,243 -170,223.7 		"></polygon> 
</g> 
</g> 
 <g> <g> <g> <rect x="-141.4" y="7.2" class="st38-1000289310" width="226.3" height="208.3"></rect> 
</g> 
</g> 
</g> 
 <g id="XMLID_580_"> <g id="XMLID_2717_"> <g> <rect x="-117.4" y="21.9" class="st50-1000289310" width="37.4" height="3.3"></rect> 
</g> 
</g> 
 <g id="XMLID_2716_"> <g> <rect x="-117.4" y="30.1" class="st50-1000289310" width="37.4" height="3.3"></rect> 
</g> 
</g> 
 <g id="XMLID_2715_"> <g> <rect x="-91.4" y="38.3" class="st51-1000289310" width="36.4" height="3.3"></rect> 
</g> 
</g> 
 <g id="XMLID_2710_"> <g> <rect x="-68.6" y="21.9" class="st52-1000289310" width="21.9" height="3.3"></rect> 
</g> 
</g> 
 <g id="XMLID_2709_"> <g> <rect x="-68.6" y="30.1" class="st52-1000289310" width="37.4" height="3.3"></rect> 
</g> 
</g> 
 <g id="XMLID_2708_"> <g> <rect x="-36.3" y="21.9" class="st52-1000289310" width="41.6" height="3.3"></rect> 
</g> 
</g> 
 <g id="XMLID_2707_"> <g> <rect x="13.6" y="21.9" class="st52-1000289310" width="21.8" height="3.3"></rect> 
</g> 
</g> 
 <g id="XMLID_2706_"> <g> <rect x="44.8" y="21.9" class="st52-1000289310" width="27" height="3.3"></rect> 
</g> 
</g> 
 <g id="XMLID_2705_"> <g> <rect x="-22.8" y="30.1" class="st52-1000289310" width="47.3" height="3.3"></rect> 
</g> 
</g> 
 <g id="XMLID_2704_"> <g> <rect x="31.5" y="30.1" class="st52-1000289310" width="14.1" height="3.3"></rect> 
</g> 
</g> 
 <g id="XMLID_2703_"> <g> <rect x="-44.6" y="38.3" class="st52-1000289310" width="27.1" height="3.3"></rect> 
</g> 
</g> 
 <g id="XMLID_2702_"> <g> <rect x="-117.4" y="54.8" class="st53-1000289310" width="37.4" height="3.3"></rect> 
</g> 
</g> 
 <g id="XMLID_2701_"> <g> <rect x="-117.4" y="63" class="st53-1000289310" width="37.4" height="3.3"></rect> 
</g> 
</g> 
 <g id="XMLID_2700_"> <g> <rect x="-68.6" y="54.8" class="st52-1000289310" width="21.9" height="3.3"></rect> 
</g> 
</g> 
 <g id="XMLID_2699_"> <g> <rect x="-68.6" y="63" class="st52-1000289310" width="33.7" height="3.3"></rect> 
</g> 
</g> 
 <g id="XMLID_2698_"> <g> <rect x="-36.3" y="54.8" class="st52-1000289310" width="32" height="3.3"></rect> 
</g> 
</g> 
 <g id="XMLID_2697_"> <g> <rect x="2.1" y="54.8" class="st52-1000289310" width="16.8" height="3.3"></rect> 
</g> 
</g> 
 <g id="XMLID_2696_"> <g> <rect x="26.1" y="54.8" class="st52-1000289310" width="20.8" height="3.3"></rect> 
</g> 
</g> 
 <g id="XMLID_2695_"> <g> <rect x="-2" y="63" class="st52-1000289310" width="37.5" height="3.3"></rect> 
</g> 
</g> 
 <g id="XMLID_2694_"> <g> <rect x="-133.4" y="71.2" class="st51-1000289310" width="37.4" height="3.3"></rect> 
</g> 
</g> 
 <g id="XMLID_2693_"> <g> <rect x="-117.4" y="79.4" class="st51-1000289310" width="37.4" height="3.3"></rect> 
</g> 
</g> 
 <g id="XMLID_2692_"> <g> <rect x="-68.6" y="71.2" class="st52-1000289310" width="21.9" height="3.3"></rect> 
</g> 
</g> 
 <g id="XMLID_2691_"> <g> <rect x="-68.6" y="79.4" class="st52-1000289310" width="68.6" height="3.3"></rect> 
</g> 
</g> 
 <g id="XMLID_2690_"> <g> <rect x="-36.3" y="71.2" class="st52-1000289310" width="41.6" height="3.3"></rect> 
</g> 
</g> 
 <g id="XMLID_2689_"> <g> <rect x="13.6" y="71.2" class="st52-1000289310" width="21.8" height="3.3"></rect> 
</g> 
</g> 
 <g id="XMLID_2688_"> <g> <rect x="44.8" y="71.2" class="st52-1000289310" width="27" height="3.3"></rect> 
</g> 
</g> 
 <g id="XMLID_2687_"> <g> <rect x="8.4" y="79.4" class="st52-1000289310" width="38.5" height="3.3"></rect> 
</g> 
</g> 
 <g id="XMLID_2686_"> <g> <rect x="-27.3" y="63" class="st52-1000289310" width="15.9" height="3.3"></rect> 
</g> 
</g> 
 <g> <g> <rect x="-128.9" y="95.9" class="st51-1000289310" width="21.4" height="3.3"></rect> 
</g> 
</g> 
 <g> <g> <rect x="-128.9" y="104.1" class="st52-1000289310" width="45.8" height="3.3"></rect> 
</g> 
</g> 
 <g id="XMLID_2683_"> <g> <rect x="-117.4" y="112.3" class="st51-1000289310" width="37.4" height="3.3"></rect> 
</g> 
</g> 
 <g id="XMLID_2682_"> <g> <rect x="-117.4" y="120.5" class="st51-1000289310" width="37.4" height="3.3"></rect> 
</g> 
</g> 
 <g id="XMLID_2681_"> <g> <rect x="-91.4" y="128.7" class="st51-1000289310" width="36.4" height="3.3"></rect> 
</g> 
</g> 
 <g id="XMLID_2680_"> <g> <rect x="-94.1" y="95.9" class="st52-1000289310" width="37.6" height="3.3"></rect> 
</g> 
</g> 
 <g id="XMLID_2679_"> <g> <rect x="-46.8" y="95.9" class="st52-1000289310" width="19" height="3.3"></rect> 
</g> 
</g> 
 <g id="XMLID_2678_"> <g> <rect x="-15.5" y="95.9" class="st52-1000289310" width="60.5" height="3.3"></rect> 
</g> 
</g> 
 <g id="XMLID_2677_"> <g> <rect x="-72.4" y="104.1" class="st53-1000289310" width="38.2" height="3.3"></rect> 
</g> 
</g> 
 <g id="XMLID_2676_"> <g> <rect x="-68.6" y="112.3" class="st52-1000289310" width="42.7" height="3.3"></rect> 
</g> 
</g> 
 <g id="XMLID_2675_"> <g> <rect x="-68.6" y="120.5" class="st52-1000289310" width="29.1" height="3.3"></rect> 
</g> 
</g> 
 <g id="XMLID_2674_"> <g> <rect x="-15.5" y="112.3" class="st52-1000289310" width="31.7" height="3.3"></rect> 
</g> 
</g> 
 <g id="XMLID_2673_"> <g> <rect x="-31.1" y="120.5" class="st52-1000289310" width="55.6" height="3.3"></rect> 
</g> 
</g> 
 <g id="XMLID_2672_"> <g> <rect x="31.5" y="120.5" class="st52-1000289310" width="14.1" height="3.3"></rect> 
</g> 
</g> 
 <g id="XMLID_2671_"> <g> <rect x="-44.6" y="128.7" class="st52-1000289310" width="27.1" height="3.3"></rect> 
</g> 
</g> 
 <g id="XMLID_2670_"> <g> <rect x="-11.6" y="128.7" class="st52-1000289310" width="50.4" height="3.3"></rect> 
</g> 
</g> 
 <g id="XMLID_2669_"> <g> <rect x="46.3" y="128.7" class="st52-1000289310" width="15.1" height="3.3"></rect> 
</g> 
</g> 
 <g id="XMLID_2668_"> <g> <rect x="-117.4" y="145.1" class="st50-1000289310" width="37.4" height="3.3"></rect> 
</g> 
</g> 
 <g id="XMLID_2667_"> <g> <rect x="-117.4" y="153.4" class="st50-1000289310" width="37.4" height="3.3"></rect> 
</g> 
</g> 
 <g id="XMLID_2666_"> <g> <rect x="-68.6" y="145.1" class="st52-1000289310" width="61.6" height="3.3"></rect> 
</g> 
</g> 
 <g id="XMLID_2665_"> <g> <rect x="-68.6" y="153.4" class="st52-1000289310" width="33.7" height="3.3"></rect> 
</g> 
</g> 
 <g id="XMLID_2664_"> <g> <rect x="2.1" y="145.1" class="st52-1000289310" width="16.8" height="3.3"></rect> 
</g> 
</g> 
 <g id="XMLID_2663_"> <g> <rect x="26.1" y="145.1" class="st52-1000289310" width="20.8" height="3.3"></rect> 
</g> 
</g> 
 <g id="XMLID_2662_"> <g> <rect x="-2" y="153.4" class="st52-1000289310" width="37.5" height="3.3"></rect> 
</g> 
</g> 
 <g id="XMLID_2661_"> <g> <rect x="-27.3" y="153.4" class="st52-1000289310" width="15.9" height="3.3"></rect> 
</g> 
</g> 
 <g> <g> <rect x="-128.9" y="166.8" class="st51-1000289310" width="21.4" height="3.3"></rect> 
</g> 
</g> 
 <g> <g> <rect x="-128.9" y="175" class="st50-1000289310" width="45.8" height="3.3"></rect> 
</g> 
</g> 
 <g id="XMLID_2658_"> <g> <rect x="-117.4" y="183.3" class="st51-1000289310" width="37.4" height="3.3"></rect> 
</g> 
</g> 
 <g id="XMLID_2657_"> <g> <rect x="-117.4" y="191.5" class="st53-1000289310" width="37.4" height="3.3"></rect> 
</g> 
</g> 
 <g id="XMLID_2656_"> <g> <rect x="-91.4" y="199.7" class="st50-1000289310" width="36.4" height="3.3"></rect> 
</g> 
</g> 
 <g id="XMLID_2655_"> <g> <rect x="-94.1" y="166.8" class="st52-1000289310" width="37.6" height="3.3"></rect> 
</g> 
</g> 
 <g id="XMLID_2654_"> <g> <rect x="-46.8" y="166.8" class="st52-1000289310" width="19" height="3.3"></rect> 
</g> 
</g> 
 <g id="XMLID_2633_"> <g> <rect x="-15.5" y="166.8" class="st52-1000289310" width="87.4" height="3.3"></rect> 
</g> 
</g> 
 <g id="XMLID_2632_"> <g> <rect x="-72.4" y="175" class="st50-1000289310" width="38.2" height="3.3"></rect> 
</g> 
</g> 
 <g id="XMLID_2631_"> <g> <rect x="-68.6" y="183.3" class="st52-1000289310" width="42.7" height="3.3"></rect> 
</g> 
</g> 
 <g id="XMLID_2630_"> <g> <rect x="-68.6" y="191.5" class="st52-1000289310" width="29.1" height="3.3"></rect> 
</g> 
</g> 
 <g id="XMLID_2629_"> <g> <rect x="-15.5" y="183.3" class="st52-1000289310" width="31.7" height="3.3"></rect> 
</g> 
</g> 
 <g id="XMLID_2628_"> <g> <rect x="24.5" y="183.3" class="st52-1000289310" width="19.3" height="3.3"></rect> 
</g> 
</g> 
 <g id="XMLID_2627_"> <g> <rect x="53.2" y="183.3" class="st52-1000289310" width="18.7" height="3.3"></rect> 
</g> 
</g> 
 <g id="XMLID_2626_"> <g> <rect x="-31.1" y="191.5" class="st52-1000289310" width="55.6" height="3.3"></rect> 
</g> 
</g> 
 <g id="XMLID_2567_"> <g> <rect x="31.5" y="191.5" class="st52-1000289310" width="14.1" height="3.3"></rect> 
</g> 
</g> 
 <g id="XMLID_2505_"> <g> <rect x="-44.6" y="199.7" class="st52-1000289310" width="27.1" height="3.3"></rect> 
</g> 
</g> 
</g> 
 <g> <path class="st54-1000289310" d="M-273.2,141.2c2.8,6.1,12.3,18.5,13.2,19.3c1,0.9,7.3,2.6,12.6,2.3c0.5-1.8-17.9-18.9-18.2-24.6
		C-265.9,135.2-275.3,136.7-273.2,141.2z"></path> 
 <path class="st32-1000289310" d="M-227.6,162.6c-0.7,0.3-1.5,0.5-2.2,0.5c0.8,0.1,0.7,0.6,1.6,0.8c0.4,0,1.6-0.9,1.5-1.2
		C-226.9,162.2-227.3,162.5-227.6,162.6z"></path> 
 <path class="st32-1000289310" d="M-224.5,164.5c-0.2-0.1-2.4-0.8-3.4-1c-0.9-0.2-1.7-0.3-2.6-0.4c0,0-1.3,2.6-1.4,3.5c1.4,0.3,6,1.1,6.1,1.1
		c1.7,0.6,2.3,0.2,2.1-0.3c0-0.1,1.2-0.1,1.1-0.6c0,0,0.4-0.1,0.4-0.5c0-0.3-0.3-0.9-0.5-1.1C-222.9,165-224,164.7-224.5,164.5z"></path> 
 <path class="st34-1000289310" d="M-251.2,152.6c-0.2-0.4-0.5-0.9-0.8-1.4c-1.7-2.7-3.7-7.1-5.6-11.3s-3.8-8.2-5-9.9c-0.2-0.3-0.5-0.4-0.9-0.4
		c-1.6,0-8.1,4.6-9,5.9c-2.7,3.9,11,19,15.2,22.5c3.9,3.4,19.2,8.2,25.8,9.6l1.4-5.4c-2.7-0.5-9.3-3.8-14.6-6.4
		C-247.1,154.6-249.4,153.4-251.2,152.6z"></path> 
</g> 
 <g> <path class="st32-1000289310" d="M-83.1,200c0.1,2.5,10.5,55.3,10.5,55.3c0,0.1,2.2,0.1,3.4-1.1c0,0-2.4-52.5-2.4-53.6
		C-72.5,201.5-81.6,200.9-83.1,200z"></path> 
 <path class="st33-1000289310" d="M-74.6,174.5c-4.8,1.2-9.5,2.4-14.4,3.2l0.3,3.3c1.5,0.9,2.8,17.2,7,34.1c4.9,19.5,8.4,38.6,8.4,38.6
		c1.2-1.2,3.1-1.3,4.2-0.6c0,0-0.8-53.2-1.6-79.6C-71.8,173.8-73.2,174.1-74.6,174.5z"></path> 
 <path class="st55-1000289310" d="M-68.5,253.9c-0.6-0.5-0.8-0.8-0.8-0.8s-2.7-0.6-3.5,1.3c0,0,0,2.3,0.6,3.1c0.4,0.5,2.4,2.6,3.4,3.1
		c0.8,0.4,2.1,0.3,3.5,0.1c1.4-0.2,3.1-1.1,3-2C-62.5,257.2-67.4,255-68.5,253.9z"></path> 
 <path class="st55-1000289310" d="M-69.2,255.2c-1.4-1-3.8,0.7-2.1,2.9c0.3,0.4,2,2.2,2.9,2.6c0.7,0.3,1.7,0.3,2.9,0.1c1.2-0.2,2.6-0.9,2.5-1.6
		C-63.2,257.8-67.8,256.2-69.2,255.2z"></path> 
 <g> <path class="st32-1000289310" d="M-123.8,75.5c-0.3-0.2-1.5,0.7-1.7,1c-0.1,0.9,0.4,0.9,0.2,1.7c0.3-0.7,0.7-1.3,1.2-1.9
			C-123.7,76.1-123.3,75.9-123.8,75.5z"></path> 
 <path class="st32-1000289310" d="M-124.9,70.8c-0.1-0.2-0.6-0.7-0.8-0.8c-0.4-0.1-0.6,0.2-0.6,0.2c-0.4-0.2-0.8,1-0.9,0.9
			c-0.4-0.3-1,0.1-0.9,1.9c0,0.1-0.8,4.6-0.9,6.1c0.9,0.2,3.7-0.2,3.8-0.2c0.2-0.8,0.4-1.7,0.4-2.6c0.1-1,0.1-3.4,0.1-3.6
			C-124.8,72.3-124.7,71.1-124.9,70.8z"></path> 
 <path class="st32-1000289310" d="M-125.3,78.6c-1.5,0.1-2.8,0.1-3.8-0.1c-1,7.7-1.2,27,1.6,28.3c2.6,1.1,4-0.4,4.4-1.8
			c0.1-0.3,0.1-0.6,0.1-0.8C-122.9,99.7-126,83.3-125.3,78.6z"></path> 
 <path class="st32-1000289310" d="M-121.8,103.6c-5-6.1-7.5-0.4-6.6,1.9c2.4,6.2,12,22,15.4,21.1c1.4-0.4,8.3-5.5,7.9-6.1
			C-107.5,117.1-117.7,108.6-121.8,103.6z"></path> 
 <path class="st39-1000289310" d="M-122.1,101.9c-0.2-1.9-0.5-4.5-0.9-7.2c-0.8-5.9-1.8-13.2-1.4-15.9l-5.6-0.4c-0.9,6.7-1.2,22.7,0.8,27.5
			c2,5,10.9,19.7,21.8,29.4c1.3,1.2,9-18,8.7-18C-108.4,118.8-121.7,102.2-122.1,101.9z"></path> 
</g> 
 <g> <path class="st32-1000289310" d="M-30.7,113.9c-0.3,0.7-0.6,1.4-1.1,2c0.6-0.6,0.9-0.1,1.6-0.7c0.2-0.3,0.4-1.8,0.1-1.9
			C-30.5,113-30.5,113.5-30.7,113.9z"></path> 
 <path class="st32-1000289310" d="M-24.1,112.9c0,0,0.2-0.4-0.1-0.7c-0.2-0.2-0.9-0.4-1.1-0.3c-0.4,0.1-1.4,0.7-1.8,0.9
			c-0.1,0.1-2.2,1.2-3,1.8c-0.7,0.5-1.4,1.1-2,1.6c0,0,1.1,2.7,1.6,3.4c1.2-0.8,4.8-3.7,4.9-3.8c1.6-0.9,1.7-1.6,1.2-1.8
			C-24.5,114.1-23.7,113.1-24.1,112.9z"></path> 
 <path class="st32-1000289310" d="M-55.5,126.3c-0.2,0.1-0.4,0.3-0.7,0.5c-1,1-1.6,3,0.6,4.7c2.5,1.9,19.3-7.7,25.5-12.3
			c-0.6-0.7-1.3-1.8-1.9-3.2C-35.7,118.9-51.6,124.2-55.5,126.3z"></path> 
 <path class="st32-1000289310" d="M-55.6,125.1c-6.4-1.2-18.8-6-22.8-6.4c-0.7-0.1-1.9,8.4-1.6,9.9c0.8,3.4,19.3,4.1,25.9,3.2
			C-51.5,131.5-47.8,126.5-55.6,125.1z"></path> 
 <path class="st39-1000289310" d="M-53.9,124.5c-0.5-0.1-22.7-7.1-30.1-7.8c-2.7-0.3-7.8,10.2-6.3,11.2c10.7,7,30.9,5.5,36.3,4.8
			c5.2-0.6,19-8.7,24.5-12.7l-3-4.7C-34.7,117-52.1,123.8-53.9,124.5z"></path> 
</g> 
 <path class="st32-1000289310" d="M-101.8,202.3c0.1,1.1,3.1,53.5,3.1,53.5c1.3,1.1,3.4,0.9,3.5,0.8c0,0,4.9-53.5,4.7-56
		C-91.9,201.6-100.9,203.2-101.8,202.3z"></path> 
 <path class="st33-1000289310" d="M-106.5,161.2c-0.5,3.7,7.4,93.6,7.4,93.6c1.1-0.9,3-1,4.3,0.1c0,0,1.5-19.3,4.3-39.2
		c2.5-17.2,2.1-33.6,3.5-34.6v-18.3C-94,163.2-104.2,162.2-106.5,161.2z"></path> 
 <path class="st37-1000289310" d="M-81.6,165.3c-7,0.9-14,0.9-21,1.1c-1.6,0-3.2,0.1-4.8,0c0.2,5.8-0.3,9.4,0.4,14.5
		c13.8,2.3,28.8,3.2,34.7,1.3c1-0.3,3.8-1.6,4-1.9c0.2-5.4-0.4-11.8-1.4-18.2C-73.2,163.7-77.2,164.7-81.6,165.3z"></path> 
 <path class="st32-1000289310" d="M-88.6,107.3c-0.5,0.4-5.5,3.2-7,2.9c0,0.4,1.2,3.7,0.2,6c0.4,2.1,6.4,3.9,8,0.3
		C-88.1,115.5-88.9,109.2-88.6,107.3z"></path> 
 <path class="st32-1000289310" d="M-93.9,100.3c-2.7-0.2-5.2,0.4-5.8,2.9c-0.2,0.9,0.2,9,4.5,10.2c1.8,0.5,5.3-2.6,5.5-4.7l0.2-2.9
		C-89.4,103-91.1,100.5-93.9,100.3z"></path> 
 <path class="st39-1000289310" d="M-87.6,116.1c0,0-1.5,1.6-4,1.4c-2.8-0.2-3.8-1.3-3.8-1.3s-5.1,1.8-6.6,2.4c-4.3,1.7-5.2,5.3-4.9,9.2
		c0.1,0.9-3.2,31.6-0.4,51.6c0.7,0,2.4-0.1,3.3-0.1l0.6-13l2.8,12.9c8.8,0,22.2,0.7,28.1-0.8l0.2-11.7l1.8,11
		c0.4-0.3,1.8-0.8,1.9-1.1c0.5-18.4-3.9-45.1-4.4-47.3C-76.2,116.1-87.6,116.1-87.6,116.1z"></path> 
 <path class="st55-1000289310" d="M-98.7,254.8c0,0-0.2,0.3-0.7,0.9c-1,1.2-5.7,3.9-5.7,5.5c0,0.8,1.7,1.6,3.2,1.6c1.4,0.1,2.7,0,3.4-0.5
		c1-0.6,2.8-2.9,3.1-3.4c0.5-0.9,0.3-3.2,0.3-3.2C-96.1,253.9-98.7,254.8-98.7,254.8z"></path> 
 <path class="st55-1000289310" d="M-98.6,256.9c-1.3,1.1-5.7,3.2-5.7,4.6c0,0.7,1.5,1.3,2.7,1.4c1.2,0,2.3,0,2.9-0.4c0.8-0.5,2.3-2.5,2.6-2.9
		C-94.8,257.2-97.3,255.8-98.6,256.9z"></path> 
 <path class="st36-1000289310" d="M-88.4,97.1c-4.1-3.3-11.1-0.1-13,4.1c-1.4,3.2-2.6,1-2.5,0.1c-0.4,2.1,0.5,3.9,4.5,3.6
		c0.9-0.1-1.9,0.8-1.9,0.8s4.3,9,11,6.9c2-0.6,3.7-2.6,3.7-2.6s-2.2,0.4-1-1.4C-85.2,105.1-84.7,100-88.4,97.1z"></path> 
</g> 
 <g> <g> <path class="st32-1000289310" d="M123.8,171.4c0.2,0.3,2.1-0.6,2.3-0.9c0.3-0.8,0.2-1.1,0.1-1.8c-0.4,0.6-1,1.2-1.5,1.6
			C124.1,170.8,123.4,171,123.8,171.4z"></path> 
 <path class="st32-1000289310" d="M126.1,168.7c-0.5,2.2-1.2,2.9-1.1,3.9c0,0.4,3.8,1.3,4.2-0.5c0-0.1,0.2-1.3,0.5-2.7
			C129,169.1,126.2,168.7,126.1,168.7z"></path> 
 <path class="st32-1000289310" d="M99,131.8c2.9,2.9,14.4,9.5,19.3,13.7c6,5.2,7.5-0.9,6.2-3c-3.5-5.7-15.7-19.6-18.8-18.1
			C104.3,125,98.5,131.3,99,131.8z"></path> 
 <path class="st32-1000289310" d="M119.3,144c0,0.3,0,0.6,0,0.8c0.8,4.4,6.7,20,6.8,24.7c1.5-0.4,2.7-0.1,3.7-0.1c0.3-2.5-3.4-27.3-6.4-28
			C120.7,140.8,119.5,142.6,119.3,144z"></path> 
 <path class="st39-1000289310" d="M130.8,167.2c-0.4-6.6-3-22-5.8-26.2c-2.8-4.5-16.3-21.4-20.4-19.4c-1.4,0.7-7.7,10.4-7.5,10.6
			c1.5,1.5,21.5,13.7,21.9,13.9c0.5,1.8,1.3,4.2,2.2,6.7c1.8,5.5,4.1,12.3,4.2,15L130.8,167.2z"></path> 
</g> 
 <path class="st32-1000289310" d="M99.6,202.4c-0.2,1.1-6.6,55.1-6.6,55.1c-1.4,1-3.5,0.7-3.5,0.5c0,0-1.4-55.6-1-58.1
		C89.8,201.1,98.7,203.2,99.6,202.4z"></path> 
 <path class="st39-1000289310" d="M89.7,257.3l3-1.4c0,0,0.6,1,1,1.6c0.9,1.2,5.5,2.4,5.4,4c-0.1,0.8-1.8,1.5-3.3,1.4c-1.4,0-2.6-0.4-3.4-0.7
		c-0.8-0.3-2.7-1.2-3-1.8c-0.5-0.9,0-1.9,0-1.9C89.5,257.6,89.7,257.3,89.7,257.3z"></path> 
 <g> <path class="st39-1000289310" d="M104.4,252.6l-3.2,1c0,0,0.2,1.1,0.3,1.9c0.1,1.5-2.5,5.5-1.3,6.6c0.6,0.6,2.4-0.2,3.4-1.1
			c1-1,1.8-1.9,2.1-2.8c0.3-1.1,1.2-2.7,1-3.3c-0.3-1-1.3-1.4-1.3-1.4C104.8,252.6,104.4,252.6,104.4,252.6z"></path> 
 <path class="st32-1000289310" d="M101.6,255.4c0,0,1.1,0.3,2.3-0.1c0.7-0.2,1.5-2,1.5-2c-0.6-0.7-1-1.2-1-1.2l-3.4,1.3
			C101.1,253.5,101.4,254.2,101.6,255.4z"></path> 
 <path class="st36-1000289310" d="M73,165.3c2.4,0.9,11.5,1.3,18.4,0.5c2,12.2,0.1,33.5-0.7,50.3c-0.4,7.5,14.4,37,14.4,37
			c-1.3,1.6-3.8,1.3-3.8,1.2c0,0-21.8-25.9-23.2-37.6C75.2,192.4,72.8,167.3,73,165.3z"></path> 
</g> 
 <path class="st32-1000289310" d="M93.8,257.5c0,0-0.7,1-1.8,1.5c-0.6,0.3-2.4-0.5-2.4-0.5c-0.1-0.9-0.1-1.6-0.1-1.6l3.4-1.3
		C92.8,255.7,93.1,256.5,93.8,257.5z"></path> 
 <path class="st56-1000289310" d="M107.9,161.7c-2.4,0.9-12.6,1.3-19.5,0.4c0,0-2.2,35.6-0.8,53c1.6,20.1,1.7,41.3,1.7,41.3
		c1.3,1.7,4.2,0.3,4.3,0.1C93.5,256.5,108.1,165.4,107.9,161.7z"></path> 
 <path class="st28-1000289310" d="M73.1,158.5c0,0-0.7,7.4-0.7,13.8c0,0,6.6,2.7,14.3,2.7l2.2-6.4c0,0,3,6.5,4.1,6.5c6.4,0.2,12.8-0.5,17.2-3.2
		l-2.4-9.7L73.1,158.5z"></path> 
 <path class="st32-1000289310" d="M92.3,108.7c0.5,0.4,5.4,3.4,6.9,3.2c0,0.4-1.1,4.6-0.3,6.9c-0.5,2.1-6.3,1.9-7.8-1.7
		C91.8,116,92.5,110.6,92.3,108.7z"></path> 
 <path class="st39-1000289310" d="M77.2,127c1.2-3.7,3.4-7.7,7.9-8.6c1.5-0.3,6-1.4,6-1.4s3,2.8,5.1,3.1c1.4,0.2,2.7-1.3,2.7-1.3s5.1,1.7,6,2.3
		c3.5,2.2,4.2,5.8,3.6,8.7c-2.1,10.1,2.5,33.6-0.6,34.9c-4,1.7-26.2,2.9-34.8-2.8c-0.7-0.5-1.1-1.3-1-2.2
		C72.6,154.6,74.5,135.4,77.2,127z"></path> 
 <g> <path class="st32-1000289310" d="M31.9,130c-0.7-0.4-1.5-0.8-2.3-1.2c-1-0.4-3.2-1.1-3.4-1.1c-0.5-0.1-1.6-0.5-2-0.5c-0.2,0-0.9,0.3-1,0.6
			c-0.2,0.3,0.1,0.7,0.1,0.7c-0.4,0.4,0.7,1.1,0.6,1.1c-0.4,0.3-0.2,1,1.6,1.4c0.1,0,4.2,2.1,5.6,2.6C31.4,132.8,31.9,130,31.9,130z
			"></path> 
 <path class="st32-1000289310" d="M77.5,122.3c-3.9,1.3-14.9,8.7-20.9,11.2c-7.3,3.1-2.5,7.1,0,6.9c6.6-0.6,24.5-5.3,24.6-8.8
			C81.2,130.1,78.2,122.1,77.5,122.3z"></path> 
 <path class="st32-1000289310" d="M57.6,135.1c-0.3-0.2-0.5-0.3-0.8-0.4c-4.3-1.2-20.9-2.9-25.2-4.9c-0.3,1.5-0.7,2.7-1.2,3.6
			c7.1,3.1,25.6,8.8,27.5,6.5C59.8,137.7,58.7,135.9,57.6,135.1z"></path> 
 <path class="st39-1000289310" d="M31.7,135.1c6.1,2.6,21,7.1,26,6.5c5.2-0.6,23.9-5.3,23.9-9.9c0-1.5,2.9-13.2,1.5-12.7
			c-12.5,4.6-26.9,14.6-27.4,14.8c-1.8-0.3-4.3-0.7-7-1c-5.7-0.8-12.9-1.8-15.3-2.9L31.7,135.1z"></path> 
</g> 
 <path class="st36-1000289310" d="M99.2,126.4c-1.5-5.6-1-7.8-0.6-10.2c0.4-2.4,0.7-5,0-6.9c0-0.1,3.5-4,4.8-2c0.8,2.4,1.2,5.2,0.5,8.2
		c-1,4.3,0.3,7.6,1,9c1.3,2.3,1.4,5.5,1.3,7.1c-0.5,8.9-5.7,13.3-7.3,12.5C97.2,143.1,101.3,134.4,99.2,126.4z"></path> 
 <path class="st32-1000289310" d="M98.3,101.4c2.7-0.1,4.8,1.1,5.3,3.6c0.2,0.9-0.5,9-4.9,10c-1.8,0.5-5.2-2.8-5.3-4.9l-0.1-2.9
		C93.2,104.4,95.5,101.5,98.3,101.4z"></path> 
 <path class="st36-1000289310" d="M82.6,130.5c-0.2-1.7-0.1-5.4,1.8-8.1c1.1-1.6,3-5.3,1.4-10.2c-1.6-4.9,0.1-9.6,2.8-12.7
		c2.7-3.1,6.5-3.9,8.5-3.1c2.6,1.1,2.6,2.3,2.6,2.3s1.3-0.3,2.7,0.5c3.1,1.7,2.9,8.6,0.4,10.8c1.6-7.5-3.1-8.7-3.1-8.7
		s-3.3,0.3-4.9,2.2c-1.5,1.7-2.9,6.3-2,9.9c0.7,2.7,2.8,4.6,0.6,11c-3.2,9.2,3.4,18.9,0.8,20C91.8,145.5,83.6,140.6,82.6,130.5z"></path> 
 <path class="st32-1000289310" d="M93.5,106.1c0.3,0,0.8,0.2,1.2,0.5c-0.3,1-1,2.5-1.4,3.2c-0.7-0.2-1.4-1.4-1.4-2.1S92.7,106,93.5,106.1z"></path> 
</g> 
 <g> <polyline class="st57-1000289310" points="126.2,55.3 165.2,55.3 165.2,101.6 139.8,101.6 139.8,131.7 	"></polyline> 
 <polyline class="st57-1000289310" points="165.6,101.6 189.5,101.6 189.5,131.7 	"></polyline> 
 <polyline class="st57-1000289310" points="52.2,81.3 52.2,101.6 18,101.6 18,131.5 	"></polyline> 
 <path class="st58-1000289310" d="M24.9,151.1H11.1c-1.4-0.1-2.6-1.2-2.6-2.6v-13.6c0.1-1.4,1.2-2.6,2.6-2.6h13.8c1.4,0.1,2.6,1.2,2.6,2.6v13.8
		C27.3,150,26.2,151,24.9,151.1z"></path> 
 <circle class="st40-1000289310" cx="51.6" cy="101.6" r="9.5"></circle> 
 <circle class="st58-1000289310" cx="189.5" cy="141.7" r="9.5"></circle> 
 <path class="st40-1000289310" d="M178.6,65.9h-26.8c-2.4,0-4.4-2-4.4-4.4V53c0-2.4,2-4.4,4.4-4.4h26.8c2.4,0,4.4,2,4.4,4.4v8.5
		C183,63.9,181,65.9,178.6,65.9z"></path> 
 <circle class="st42-1000289310" cx="139.1" cy="101.6" r="9.5"></circle> 
 <path class="st59-1000289310" d="M187.9,111.7l-8.4-8.4c-0.9-0.8-1-2.2-0.1-3.1l0.1-0.1l8.4-8.4c0.8-0.9,2.2-1,3.1-0.1l0.1,0.1l8.4,8.4
		c0.9,0.8,1,2.2,0.1,3.1l-0.1,0.1l-8.5,8.4C190.2,112.6,188.8,112.7,187.9,111.7C188,111.7,188,111.7,187.9,111.7z"></path> 
 <path class="st40-1000289310" d="M138.1,151.8l-8.4-8.4c-0.9-0.8-1-2.2-0.1-3.1l0.1-0.1l8.4-8.4c0.8-0.9,2.2-1,3.1-0.1l0.1,0.1l8.4,8.4
		c0.9,0.8,1,2.2,0.1,3.1l-0.1,0.1l-8.5,8.4c-0.8,0.9-2.2,1-3.1,0.1C138.2,151.8,138.1,151.8,138.1,151.8z"></path> 
 <path class="st59-1000289310" d="M16.4,111.7L8,103.3c-0.9-0.8-1-2.2-0.1-3.1l0.1-0.1l8.4-8.4c0.8-0.9,2.2-1,3.1-0.1l0.1,0.1l8.4,8.4
		c0.9,0.8,1,2.2,0.1,3.1l-0.1,0.1l-8.5,8.4C18.7,112.6,17.3,112.7,16.4,111.7C16.4,111.7,16.4,111.7,16.4,111.7z"></path> 
</g> 
 <path class="st34-1000289310" d="M116.7,32.1c-3.6-17.4-19-30.8-38-30.8C63.8,1.3,51,9.6,44.8,21.8c-16,2-27.7,14.9-27.7,30.9
	c0,17,13.9,30.8,30.8,30.8h66.8c14.4,0,25.7-11.3,25.7-25.7C140.4,44.4,129.6,33.1,116.7,32.1z"></path> 
 <path class="st21-1000289310" d="M54.8,52.8c0,1.7-0.6,3.1-1.9,4.1s-3,1.5-5.2,1.5s-4-0.3-5.4-1v-3c0.9,0.4,1.8,0.7,2.8,1
	c1,0.2,1.9,0.4,2.8,0.4c1.3,0,2.2-0.2,2.8-0.7s0.9-1.1,0.9-1.9c0-0.7-0.3-1.3-0.8-1.8s-1.7-1.1-3.4-1.8c-1.8-0.7-3-1.5-3.7-2.5
	c-0.7-0.9-1.1-2-1.1-3.3c0-1.6,0.6-2.9,1.7-3.8c1.1-0.9,2.7-1.4,4.6-1.4c1.9,0,3.7,0.4,5.5,1.2l-1,2.6c-1.7-0.7-3.3-1.1-4.6-1.1
	c-1,0-1.8,0.2-2.3,0.7c-0.5,0.4-0.8,1-0.8,1.8c0,0.5,0.1,0.9,0.3,1.3c0.2,0.4,0.6,0.7,1,1c0.5,0.3,1.4,0.7,2.6,1.3
	c1.4,0.6,2.5,1.1,3.1,1.7c0.7,0.5,1.1,1.1,1.5,1.7C54.7,51.2,54.8,52,54.8,52.8z"></path> 
 <path class="st21-1000289310" d="M67.4,58.1l-0.6-2h-0.1c-0.7,0.9-1.4,1.5-2.1,1.8c-0.7,0.3-1.6,0.5-2.8,0.5c-1.4,0-2.6-0.4-3.4-1.2
	s-1.2-1.9-1.2-3.3c0-1.5,0.6-2.7,1.7-3.4c1.1-0.8,2.8-1.2,5.1-1.3l2.5-0.1v-0.8c0-0.9-0.2-1.6-0.7-2.1s-1.1-0.7-2-0.7
	c-0.8,0-1.5,0.1-2.2,0.3s-1.4,0.5-2,0.8l-1-2.2c0.8-0.4,1.7-0.7,2.6-0.9c0.9-0.2,1.8-0.3,2.7-0.3c1.9,0,3.3,0.4,4.2,1.2
	c1,0.8,1.4,2.1,1.4,3.8v9.9H67.4z M62.8,56c1.1,0,2-0.3,2.7-0.9s1-1.5,1-2.7v-1.3l-1.9,0.1c-1.5,0.1-2.5,0.3-3.2,0.7s-1,1.1-1,2
	c0,0.7,0.2,1.2,0.6,1.5C61.4,55.8,62,56,62.8,56z"></path> 
 <path class="st21-1000289310" d="M83.2,58.1l-0.6-2h-0.1c-0.7,0.9-1.4,1.5-2.1,1.8c-0.7,0.3-1.6,0.5-2.8,0.5c-1.4,0-2.6-0.4-3.4-1.2
	S73,55.3,73,53.9c0-1.5,0.6-2.7,1.7-3.4c1.1-0.8,2.8-1.2,5.1-1.3l2.5-0.1v-0.8c0-0.9-0.2-1.6-0.7-2.1s-1.1-0.7-2-0.7
	c-0.8,0-1.5,0.1-2.2,0.3s-1.4,0.5-2,0.8l-1-2.2c0.8-0.4,1.7-0.7,2.6-0.9c0.9-0.2,1.8-0.3,2.7-0.3c1.9,0,3.3,0.4,4.2,1.2
	c1,0.8,1.4,2.1,1.4,3.8v9.9H83.2z M78.6,56c1.1,0,2-0.3,2.7-0.9s1-1.5,1-2.7v-1.3l-1.9,0.1c-1.5,0.1-2.5,0.3-3.2,0.7s-1,1.1-1,2
	c0,0.7,0.2,1.2,0.6,1.5C77.2,55.8,77.8,56,78.6,56z"></path> 
 <path class="st21-1000289310" d="M101.3,52.8c0,1.7-0.6,3.1-1.9,4.1s-3,1.5-5.2,1.5s-4-0.3-5.4-1v-3c0.9,0.4,1.8,0.7,2.8,1
	c1,0.2,1.9,0.4,2.8,0.4c1.3,0,2.2-0.2,2.8-0.7s0.9-1.1,0.9-1.9c0-0.7-0.3-1.3-0.8-1.8s-1.7-1.1-3.4-1.8c-1.8-0.7-3-1.5-3.7-2.5
	c-0.7-0.9-1.1-2-1.1-3.3c0-1.6,0.6-2.9,1.7-3.8c1.1-0.9,2.7-1.4,4.6-1.4c1.9,0,3.7,0.4,5.5,1.2l-1,2.6c-1.7-0.7-3.3-1.1-4.6-1.1
	c-1,0-1.8,0.2-2.3,0.7c-0.5,0.4-0.8,1-0.8,1.8c0,0.5,0.1,0.9,0.3,1.3c0.2,0.4,0.6,0.7,1,1c0.5,0.3,1.4,0.7,2.6,1.3
	c1.4,0.6,2.5,1.1,3.1,1.7c0.7,0.5,1.1,1.1,1.5,1.7C101.1,51.2,101.3,52,101.3,52.8z"></path> 
 <g id="Layer_5_2_"> <g id="_Group_5_1_"> <g id="_Group_6_1_"> <g id="_Group_7_1_"> <g id="_Group_8_1_"> <g id="_Group_9_2_"> <g id="_Group_10_2_"> <g id="_Group_11_2_"> <g id="_Group_12_2_"> <g id="_Group_13_2_"> <g id="_Group_14_2_"> <path id="_Path_12_2_" class="st60-1000289310" d="M-158.1,16.7c-13.1,1.4-21.8-6.7-21.8-6.7s-8.6,8.1-21.8,6.7
												c0,0-4.1,36.7,21.8,43.9C-154,53.3-158.1,16.7-158.1,16.7z"></path> 
</g> 
</g> 
</g> 
</g> 
</g> 
</g> 
</g> 
</g> 
 <g id="_Group_15_2_"> <g id="_Group_16_2_"> <g id="_Group_17_2_"> <g id="_Group_18_2_"> <g id="_Group_19_2_"> <g id="_Group_20_2_"> <g id="_Group_21_2_"> <g id="_Group_22_2_"> <path id="_Path_13_2_" class="st25-1000289310" d="M-179.9,55.9c-16-5.5-17.6-25.8-17.5-34.6c6.2-0.3,12.3-2.3,17.5-5.7
												c3.5,2.3,9.5,5.5,17.5,5.7C-162.2,30.1-163.9,50.3-179.9,55.9z"></path> 
</g> 
</g> 
</g> 
</g> 
</g> 
</g> 
</g> 
</g> 
 <g id="_Group_23_2_"> <g id="_Group_24_2_"> <g id="_Group_25_2_"> <g id="_Group_26_2_"> <g id="_Group_27_2_"> <g id="_Group_28_2_"> <g id="_Group_29_2_"> <g id="_Group_30_2_"> <path id="_Path_14_2_" class="st61-1000289310" d="M-179.7,17.6L-179.7,17.6v36.2l0,0c14.4-4.9,15.7-23.1,15.7-31
												C-169.7,22.5-175.1,20.7-179.7,17.6z"></path> 
</g> 
</g> 
</g> 
</g> 
</g> 
</g> 
</g> 
</g> 
 <g id="_Group_31_2_"> <g id="_Group_32_2_"> <g id="_Group_33_2_"> <g id="_Group_34_2_"> <g id="_Group_35_2_"> <g id="_Group_36_2_"> <g id="_Group_37_2_"> <g id="_Group_38_2_"> <path id="_Compound_Path_2_2_" class="st62-1000289310" d="M-179.9,56.3l-0.2-0.1c-16.3-5.6-17.9-26.4-17.8-35v-0.4h0.4
												c6.2-0.2,12.2-2.2,17.3-5.7l0.2-0.2l0.2,0.2c5.1,3.4,11.1,5.4,17.3,5.7h0.4v0.4C-161.9,29.9-163.5,50.7-179.9,56.3
												L-179.9,56.3z M-196.9,21.7c-0.1,8.7,1.6,28.3,17.1,33.7c15.3-5.4,17.1-25,17.1-33.7c-6.1-0.3-12-2.3-17.1-5.6
												C-184.9,19.4-190.8,21.3-196.9,21.7z"></path> 
</g> 
</g> 
</g> 
</g> 
</g> 
</g> 
</g> 
</g> 
</g> 
 <g id="_Group_39_2_"> <g id="_Group_40_2_"> <g id="_Group_41_2_" class="st63-1000289310"> <g id="_Group_42_2_"> <path id="_Compound_Path_3_2_" d="M-171.1,31.4h-0.9V29c0-3.7-3.1-6.8-6.8-6.8h-0.2c-3.7,0-6.8,3.1-6.8,6.8v2.4h-0.9
							c-0.6,0-1.1,0.5-1.1,1.1v12.8c0,0.6,0.5,1.1,1.1,1.1h15.5c0.6,0,1.1-0.5,1.1-1.1V32.5C-170.1,31.9-170.5,31.4-171.1,31.4z
							 M-183.6,31.4V29c0-2.5,2.1-4.6,4.6-4.6l0,0h0.2c2.5,0,4.6,2.1,4.6,4.6l0,0v2.4H-183.6z"></path> 
</g> 
</g> 
 <g id="_Group_43_2_"> <g id="_Group_44_2_"> <g id="_Group_45_2_"> <g id="_Group_46_2_"> <path id="_Path_15_2_" class="st64-1000289310" d="M-171,44.3c0,0.6-0.5,1.1-1.1,1.1h-15.5c-0.6,0-1.1-0.5-1.1-1.1V31.5
									c0-0.6,0.5-1.1,1.1-1.1h15.5c0.6,0,1.1,0.5,1.1,1.1V44.3L-171,44.3z"></path> 
</g> 
</g> 
</g> 
 <g id="_Group_47_2_"> <g id="_Group_48_2_"> <g id="_Group_49_2_"> <g id="_Group_50_2_"> <g id="_Group_51_2_"> <g id="_Group_52_2_"> <g id="_Group_53_2_"> <g id="_Group_54_2_"> <path id="_Path_16_2_" class="st21-1000289310" d="M-184.6,30.4V28c0-2.5,2.1-4.6,4.6-4.6l0,0h0.2c2.5,0,4.6,2.1,4.6,4.6l0,0v2.4
														h2.2V28c0-3.7-3.1-6.8-6.8-6.8h-0.2c-3.7,0-6.8,3.1-6.8,6.8v2.4H-184.6z"></path> 
</g> 
</g> 
</g> 
</g> 
</g> 
</g> 
</g> 
</g> 
 <g id="_Group_55_2_"> <g id="_Group_56_2_"> <g id="_Group_57_2_"> <g id="_Group_58_2_"> <g id="_Group_59_2_"> <g id="_Group_60_2_"> <g id="_Group_61_2_"> <g id="_Group_62_2_"> <path id="_Path_17_1_" class="st65-1000289310" d="M-177.5,36.6c0-1.3-1.2-2.4-2.5-2.4s-2.3,1.1-2.4,2.4c0,1,0.7,2,1.6,2.3v3.3
														h1.6v-3.3C-178.1,38.6-177.5,37.6-177.5,36.6z"></path> 
</g> 
</g> 
</g> 
</g> 
</g> 
</g> 
</g> 
</g> 
</g> 
</g> 
</g> 
</g> 
</g> 
</svg>